<svg width="519" height="395" viewBox="0 0 519 395" fill="none" xmlns="http://www.w3.org/2000/svg">
<g clip-path="url(#clip0_409_1750)">
<path d="M424.402 329.097L424.261 329.904H412.917C408.723 355.667 413.751 324.778 409.406 351.482H404.359C404.392 351.279 407.16 334.356 406.983 335.435L408.012 329.097H424.403H424.402Z" fill="#232526"/>
<path d="M463.139 336.191C426.479 336.09 428.256 336.433 427.824 335.924C427.426 335.455 427.748 335.285 428.42 330.659H413.563L412.759 335.556C412.698 335.922 412.383 336.191 412.012 336.191H302.368C301.95 336.191 301.611 335.853 301.611 335.434C301.611 335.016 301.95 334.677 302.368 334.677H411.37L412.174 329.78C412.235 329.414 412.55 329.146 412.921 329.146H429.311C429.779 329.146 430.133 329.563 430.059 330.024L429.293 334.676H462.594C468.767 316.049 510.24 190.91 516.429 172.232H282.65L261.852 235.011C261.718 235.408 261.287 235.624 260.894 235.491C260.497 235.359 260.283 234.93 260.413 234.534L281.384 171.235C281.489 170.925 281.776 170.717 282.104 170.717C527.851 170.838 517.647 170.415 518.089 171.03C518.523 171.633 518.352 170.854 511.131 193.086C511.112 193.14 511.088 193.192 511.06 193.24L463.858 335.671C463.756 335.98 463.468 336.189 463.141 336.189L463.139 336.191Z" fill="#222425"/>
<path d="M483.324 184.293C481.839 184.571 480.629 183.378 480.478 181.669C480.297 178.961 482.927 176.886 484.838 178.319C486.842 179.922 485.883 183.822 483.324 184.293Z" fill="#232526"/>
<path d="M483.324 184.293C481.839 184.571 480.629 183.378 480.478 181.669C480.297 178.961 482.927 176.886 484.838 178.319C486.842 179.922 485.883 183.822 483.324 184.293Z" fill="#222425"/>
<path d="M282.128 171.475L275.039 192.847H510.411L517.485 171.475H282.129H282.128ZM472.775 182.268H462.782C462.364 182.268 462.025 181.93 462.025 181.511C462.025 181.093 462.364 180.755 462.782 180.755H472.775C473.193 180.755 473.532 181.093 473.532 181.511C473.532 181.93 473.193 182.268 472.775 182.268ZM487.413 180.42C487.584 182.97 485.872 185.376 483.598 185.786C481.196 186.21 479.153 184.356 478.982 181.766C478.707 177.727 482.872 174.868 485.762 177.131C486.723 177.879 487.323 179.077 487.415 180.418L487.413 180.42ZM504.552 177.756L499.947 181.969L502.289 185.885C502.589 186.391 502.223 187.03 501.638 187.03C501.381 187.03 501.13 186.899 500.987 186.661L498.806 183.013L495.119 186.386C494.812 186.668 494.33 186.647 494.051 186.338C493.769 186.031 493.789 185.551 494.098 185.269L498.013 181.687L495.293 177.14C495.08 176.781 495.196 176.317 495.556 176.103C495.916 175.888 496.38 176.004 496.594 176.364L499.154 180.644L503.531 176.639C503.839 176.359 504.32 176.377 504.599 176.687C504.881 176.994 504.862 177.474 504.552 177.756Z" fill="#222425"/>
<path d="M306.175 324.655L306.053 324.534C305.972 324.696 305.852 324.816 305.67 324.897L294.184 329.862C294.083 329.903 293.982 329.923 293.882 329.923C293.579 329.923 293.316 329.761 293.175 329.459C293.014 329.075 293.196 328.631 293.579 328.469L304.943 323.564L286.655 307.396L286.614 307.376L261.647 321.363C262.615 323.301 263.443 324.956 264.048 326.208C264.835 327.782 265.299 328.711 265.32 328.751C265.481 329.134 265.32 329.579 264.957 329.76C264.916 329.78 264.856 329.8 264.816 329.82C264.756 329.841 264.694 329.841 264.634 329.841C264.392 329.841 264.17 329.72 264.029 329.538C263.988 329.498 263.969 329.457 263.948 329.418C263.948 329.397 263.888 329.277 263.766 329.055C263.584 328.692 263.282 328.046 262.858 327.177C262.212 325.906 261.364 324.17 260.315 322.111L247.922 329.054L251.676 333.313L253.15 334.988L253.473 335.371L267.199 350.954C267.24 350.934 267.3 350.913 267.36 350.894L274.465 349.178L278.824 347.3L323.512 327.983L306.175 324.654V324.655ZM259.892 340.035C259.609 340.035 259.347 339.874 259.205 339.611C259.023 339.228 259.184 338.783 259.568 338.602L267.682 334.726C268.046 334.565 268.51 334.706 268.691 335.089C268.873 335.472 268.711 335.917 268.328 336.098L260.214 339.974C260.112 340.014 259.992 340.034 259.891 340.034L259.892 340.035ZM273.113 342.497L263.95 345.525C263.869 345.545 263.809 345.565 263.728 345.565C263.405 345.565 263.102 345.363 263.001 345.04C262.881 344.637 263.082 344.213 263.486 344.092L272.629 341.065C273.033 340.924 273.457 341.145 273.598 341.549C273.719 341.932 273.518 342.377 273.114 342.497H273.113ZM284.255 319.063C284.012 319.063 283.77 318.961 283.629 318.74C283.387 318.417 283.468 317.932 283.81 317.69L291.137 312.503C291.481 312.261 291.945 312.341 292.187 312.685C292.429 313.028 292.349 313.492 292.005 313.735L284.678 318.922C284.557 319.023 284.394 319.063 284.253 319.063H284.255ZM288.957 323.846C288.695 323.846 288.433 323.705 288.291 323.442C288.09 323.08 288.231 322.614 288.593 322.413L297.112 317.891C297.474 317.689 297.94 317.831 298.12 318.194C298.322 318.556 298.181 319.022 297.818 319.223L289.32 323.764C289.199 323.824 289.078 323.845 288.957 323.845V323.846Z" fill="#232526"/>
<path d="M216.389 234.774H118.737C107.676 229.022 98.4113 221.715 90.7812 212.935L100.167 208.717C104.426 207.829 108.605 206.982 112.722 206.154C129.738 202.722 145.784 199.453 161.568 194.164C161.951 194.043 162.173 193.62 162.032 193.216C161.911 192.812 161.467 192.611 161.083 192.732C145.4 197.999 129.374 201.25 112.438 204.681C110.461 205.085 108.482 205.488 106.464 205.892L149.8 186.414L155.149 185.606C154.696 185.788 154.567 186.499 155.008 186.857C166.518 196.224 198.83 213.582 200.746 215.035C206.721 219.294 212.945 228.016 216.389 234.776V234.774Z" fill="#C3CBFF"/>
<path d="M232.957 234.775H218.061C215.336 229.224 211.864 224.097 207.747 219.475C202.812 213.946 200.969 213.35 194.485 209.646C156.978 188.305 156.583 185.688 155.609 185.525L156.013 185.465C175.421 192.074 189.478 198.389 208.593 209.202C211.015 210.575 218.665 215.439 220.34 217.7L232.956 234.776L232.957 234.775Z" fill="#C3CBFF"/>
<path d="M260.309 322.113C261.359 324.171 262.206 325.908 262.852 327.18L258.028 331.056L257.988 331.096H257.968L253.143 334.992L252.599 335.436L251.166 333.498L251.145 333.478L247.915 329.057L247.895 329.037L215.297 284.833H240.689C244.402 290.465 254.778 310.972 260.308 322.114L260.309 322.113Z" fill="#C3CBFF"/>
<path d="M286.935 307.802L264.046 326.21C263.441 324.959 262.613 323.303 261.644 321.365C256.316 310.687 246.607 291.472 242.469 284.831H269.96L286.612 307.376L286.653 307.397L286.935 307.801V307.802Z" fill="#C3CBFF"/>
<path d="M97.6352 235.531H44.9131C44.4949 235.531 44.1562 235.193 44.1562 234.774C44.1562 234.356 44.4949 234.018 44.9131 234.018H97.6352C98.0534 234.018 98.392 234.356 98.392 234.774C98.392 235.193 98.0534 235.531 97.6352 235.531Z" fill="#232526"/>
<path d="M284.611 285.59H3.765C1.68967 285.59 0 283.911 0 281.845V237.924C0 235.698 1.68967 234.018 3.765 234.018H21.6475C22.0657 234.018 22.4044 234.356 22.4044 234.774C22.4044 235.193 22.0657 235.531 21.6475 235.531H3.765C2.52366 235.531 1.51371 236.532 1.51371 237.762V281.845C1.51371 283.076 2.52245 284.076 3.765 284.076H283.854V235.532H220.001C219.582 235.532 219.244 235.194 219.244 234.776C219.244 234.357 219.582 234.019 220.001 234.019H284.611C285.029 234.019 285.368 234.357 285.368 234.776V284.834C285.368 285.252 285.029 285.591 284.611 285.591V285.59Z" fill="#232526"/>
<path d="M284.613 249.714H73.9287C73.5105 249.714 73.1719 249.375 73.1719 248.957C73.1719 248.539 73.5105 248.2 73.9287 248.2H284.613C285.031 248.2 285.37 248.539 285.37 248.957C285.37 249.375 285.031 249.714 284.613 249.714Z" fill="#232526"/>
<path d="M284.418 272.726H74.1006C73.6824 272.726 73.3438 272.387 73.3438 271.969C73.3438 271.551 73.6824 271.212 74.1006 271.212H284.418C284.836 271.212 285.174 271.551 285.174 271.969C285.174 272.387 284.836 272.726 284.418 272.726Z" fill="#232526"/>
<path d="M284.61 285.747C284.458 285.747 284.308 285.701 284.179 285.615C283.974 285.472 283.852 285.24 283.852 284.99V234.941C283.852 234.682 283.984 234.441 284.202 234.303C284.423 234.164 284.695 234.146 284.93 234.257L343.716 261.839C343.992 261.968 344.161 262.247 344.151 262.551C344.139 262.855 343.948 263.121 343.664 263.229L284.878 285.697C284.792 285.73 284.699 285.747 284.608 285.747H284.61ZM285.366 236.132V283.89L341.461 262.452L285.366 236.132Z" fill="#232526"/>
<path d="M343.39 262.523L318.672 271.969V250.922L343.39 262.523Z" fill="#232526"/>
<path d="M41.046 245.27V284.993H3.76475C2.11003 284.993 0.757812 283.641 0.757812 282.006V237.922C0.757812 236.268 2.11003 234.935 3.76475 234.935H21.6075C21.4665 235.722 21.4665 236.529 22.0113 237.074C22.7175 237.78 23.989 237.538 24.6964 236.852C25.1399 236.428 25.4424 235.863 25.6654 235.278C24.9784 237.68 24.6362 240.142 24.6362 242.645C24.6868 244.765 25.8377 245.461 27.3201 243.977C28.5518 242.685 29.5401 241.192 30.2668 239.577C29.6413 241.898 29.2773 244.3 29.1568 246.723C29.1568 246.824 29.1363 246.924 29.1363 247.025C29.0954 248.337 29.2376 249.911 30.3873 250.557C31.2346 251.042 32.365 250.8 33.152 250.214C33.9185 249.609 34.4235 248.721 34.8477 247.853C36.1529 245.273 37.0918 242.601 37.6739 239.981C37.7751 239.436 37.7751 238.204 38.2994 237.942C38.0921 241.012 36.917 244.748 37.7136 245.733C38.5211 246.76 40.0493 246.889 41.0436 245.269L41.046 245.27Z" fill="#FE6F5E"/>
<path d="M73.928 234.936V284.993H41.0469V245.27C41.623 244.395 41.8471 243.697 44.8625 234.936H73.928Z" fill="#222425"/>
<path d="M280.418 349.281L280.317 349.14C280.216 349.281 280.054 349.402 279.874 349.442L267.702 352.368C267.642 352.368 267.582 352.389 267.52 352.389C267.177 352.389 266.874 352.147 266.794 351.803C266.713 351.46 266.895 351.117 267.197 350.956C267.238 350.935 267.299 350.915 267.359 350.896L274.463 349.179L279.388 347.989L278.823 347.303L264.815 329.823C264.754 329.843 264.693 329.843 264.633 329.843C264.39 329.843 264.169 329.723 264.028 329.541C263.987 329.501 263.967 329.46 263.947 329.42C263.947 329.4 263.887 329.279 263.765 329.058L257.992 331.097H257.972L251.675 333.317L251.17 333.499L222.266 343.651L226.384 350.352L238.213 369.648L296.929 355.519L280.418 349.282V349.281ZM273.596 341.549C273.716 341.933 273.515 342.377 273.111 342.498L263.948 345.525C263.867 345.546 263.807 345.565 263.726 345.565C263.403 345.565 263.101 345.364 263 345.041C262.879 344.637 263.08 344.213 263.484 344.092L272.628 341.065C273.032 340.924 273.456 341.146 273.597 341.549H273.596ZM267.682 334.727C268.046 334.565 268.51 334.706 268.691 335.09C268.873 335.473 268.711 335.918 268.328 336.098L260.213 339.974C260.112 340.014 259.992 340.034 259.89 340.034C259.607 340.034 259.346 339.873 259.203 339.61C259.021 339.227 259.183 338.782 259.566 338.601L267.681 334.726L267.682 334.727Z" fill="#232526"/>
<path d="M104.302 233.948L98.4692 237.743C94.1896 234.493 90.6777 229.911 88.0938 224.037L92.7771 221.776L104.302 233.948Z" fill="#C3CBFF"/>
<path d="M264.024 329.54C260.512 331.478 256.98 333.416 253.468 335.373C244.445 340.359 235.402 345.364 226.38 350.35C226.179 350.47 225.977 350.572 225.774 350.693C209.646 318.398 170.267 249.367 166.977 247.713C164.554 246.462 119.988 247.995 104.183 241.112C102.649 240.445 101.195 239.638 99.8033 238.689L105.899 234.713C106.267 234.469 106.378 233.949 106.04 233.563L93.5062 220.342C93.2639 220.099 92.9205 220.039 92.618 220.18L87.5116 222.642C86.2196 219.493 85.1904 216.022 84.4239 212.207C94.627 209.819 103.139 208.078 112.723 206.152C129.739 202.721 145.785 199.451 161.569 194.163C161.952 194.041 162.174 193.618 162.033 193.214C161.913 192.81 161.468 192.609 161.085 192.73C145.401 197.997 129.375 201.248 112.44 204.679C110.462 205.083 108.483 205.487 106.466 205.89C99.2188 207.364 91.7707 208.938 84.1419 210.734C83.6574 208.029 83.2946 205.183 83.0524 202.155C82.9114 200.319 83.5164 198.583 83.6586 196.766C83.7996 194.869 83.9611 193.536 85.5965 192.244C86.909 191.174 88.5637 190.608 90.1991 190.105C108.769 184.311 128.146 181.688 147.301 178.236C147.866 178.135 148.452 178.034 149.017 178.155C150.111 178.429 153.798 180.755 156.586 184.17C157.433 185.22 158.584 183.988 159.694 184.796C160.118 185.098 162.863 186.835 166.698 189.277C174.772 194.424 187.67 202.719 194.149 207.584C196.389 209.279 198.508 211.116 200.487 213.074C199.255 212.327 197.176 211.177 194.492 209.643C156.986 188.303 156.59 185.685 155.617 185.523L155.173 185.583L155.153 185.603C154.7 185.785 154.571 186.496 155.012 186.854C166.521 196.221 198.833 213.579 200.75 215.032C206.725 219.291 212.949 228.013 216.393 234.773C217.646 237.218 217.555 237.638 218.25 237.638C224.535 248.867 235.524 271.121 241.584 283.578C241.342 283.416 241.019 283.396 240.756 283.578C240.392 283.82 240.312 284.284 240.555 284.627C240.596 284.688 240.635 284.748 240.696 284.83C244.409 290.462 254.784 310.969 260.315 322.111C261.364 324.17 262.212 325.906 262.858 327.178C263.282 328.045 263.584 328.691 263.766 329.055C263.888 329.277 263.948 329.399 263.948 329.418C263.969 329.459 263.988 329.499 264.029 329.539L264.024 329.54Z" fill="#C3CBFF"/>
<path d="M84.6285 198.425C84.0838 199.515 83.7198 200.666 83.5391 201.856C83.5873 200.507 83.6066 199.128 84.1646 197.819C84.185 197.799 84.2055 197.759 84.2055 197.718L84.6298 198.424L84.6285 198.425Z" fill="#C3CBFF"/>
<path d="M441.182 394.14C372.124 394.031 376.029 394.396 375.596 393.856C375.165 393.31 374.845 396.44 386.851 341.91C386.929 341.564 387.236 341.318 387.59 341.318C412.019 341.418 411.09 341.077 411.522 341.586C411.936 342.072 411.646 341.882 410.169 351.532H425.016L426.588 341.954C426.649 341.587 426.964 341.318 427.335 341.318H452.606C452.837 341.318 453.053 341.423 453.198 341.603C453.34 341.781 453.396 342.016 453.346 342.24L441.921 393.548C441.844 393.895 441.537 394.14 441.182 394.14ZM377.133 392.627H440.576L451.664 342.833H427.978L426.407 352.412C426.345 352.779 426.031 353.047 425.66 353.047C408.741 352.948 409.12 353.29 408.691 352.777C408.346 352.366 408.61 351.952 408.666 351.352L410.054 342.835H388.198L377.132 392.628L377.133 392.627Z" fill="#232526"/>
<path d="M425.663 353.047H409.273C408.801 353.047 408.445 352.62 408.528 352.159C413.536 321.475 411.805 332.082 412.181 329.782C412.242 329.416 412.557 329.147 412.928 329.147C429.914 329.246 429.467 328.908 429.896 329.415C430.326 329.922 430.134 328.987 426.41 352.412C426.349 352.778 426.034 353.047 425.663 353.047ZM410.174 351.533H425.021L428.427 330.662H413.57L410.174 351.533Z" fill="#232526"/>
<path d="M438.342 369.91L432.833 363.023L424.686 369.345C424.385 369.58 423.951 369.55 423.685 369.278L415.429 360.914C403.606 370.237 404.037 370.284 403.427 370.184C402.802 370.09 403.124 370.017 397.332 361.649L390.396 368.481C390.101 368.773 389.621 368.773 389.326 368.472C389.034 368.175 389.037 367.696 389.336 367.402L396.919 359.932C397.078 359.777 397.287 359.691 397.524 359.719C397.747 359.741 397.949 359.861 398.076 360.047L403.708 368.335L415.018 359.307C415.322 359.062 415.759 359.089 416.029 359.367L424.291 367.737L432.495 361.369C432.818 361.117 433.286 361.17 433.549 361.494L439.526 368.964C439.786 369.291 439.734 369.767 439.408 370.028C439.082 370.287 438.606 370.238 438.343 369.91H438.342Z" fill="#232526"/>
<path d="M435.834 382.664L430.327 375.777L422.18 382.099C421.878 382.334 421.444 382.304 421.178 382.033L412.921 373.669C401.054 383.032 401.532 383.038 400.921 382.939C400.299 382.845 400.619 382.773 394.827 374.404L387.888 381.236C387.593 381.53 387.113 381.525 386.818 381.228C386.527 380.93 386.529 380.45 386.828 380.158C394.877 372.356 394.388 372.408 395.018 372.475C395.682 372.54 395.365 372.676 401.202 381.089L412.51 372.061C412.814 371.818 413.252 371.844 413.522 372.12L421.784 380.49L429.988 374.122C430.311 373.871 430.78 373.921 431.043 374.247L437.017 381.717C437.277 382.045 437.224 382.52 436.898 382.781C436.573 383.04 436.097 382.991 435.834 382.663V382.664Z" fill="#232526"/>
<path d="M166.387 247.273C166.095 246.973 166.101 246.494 166.4 246.202C167.829 244.809 167.881 242.542 167.92 240.601C167.928 240.187 168.264 239.858 168.677 239.858C168.68 239.858 168.686 239.858 168.692 239.858C169.11 239.867 169.442 240.213 169.433 240.63C169.388 242.993 169.266 245.522 167.457 247.285C167.309 247.428 166.676 247.568 166.387 247.271V247.273Z" fill="#232526"/>
<path d="M167.561 248.885C167.23 248.629 167.167 248.155 167.424 247.823C168.589 246.307 170.457 245.706 171.959 245.221C172.357 245.093 172.784 245.311 172.911 245.709C173.041 246.107 172.822 246.534 172.424 246.662C170.824 247.178 169.434 247.691 168.622 248.746C168.372 249.074 167.899 249.143 167.561 248.885Z" fill="#232526"/>
<path d="M340.976 263.086C340.574 263.086 340.239 262.77 340.22 262.365C340.2 261.948 340.523 261.593 340.939 261.574C346.842 261.287 351.54 256.797 354.039 251.93C350.829 244.048 350.112 234.275 351.652 226.041C351.997 224.196 352.32 222.463 353.296 220.94C353.979 219.844 354.663 219.848 355.229 220.537C358.588 224.643 358.477 227.568 358.547 232.782C358.684 239.155 358.488 246.08 355.705 251.976C357.986 257.092 360.948 257.666 365.673 258.076C370.735 258.517 374.628 258.145 377.926 256.914C382.011 255.387 384.527 252.607 386.074 247.907C381.97 242.479 382.606 235.409 385.389 229.258C385.627 228.729 386.364 228.65 386.701 229.14C389.797 233.618 390.153 239.824 387.762 247.593C392.226 252.749 399.571 251.587 401.923 246.709C399.233 243.651 399.323 239.146 401.253 235.432C401.439 235.067 401.883 234.925 402.25 235.097C403.283 235.587 403.975 236.676 404.304 238.33C404.799 240.814 404.655 243.825 403.711 246.369C405.067 247.519 406.849 247.991 408.655 247.548C409.371 247.372 423.238 243.131 435.47 239.389C448.245 235.481 460.31 231.791 461.071 231.598C461.487 231.497 461.889 231.742 461.989 232.148C462.092 232.553 461.846 232.964 461.441 233.066C460.715 233.248 448.107 237.105 435.91 240.836C422.469 244.948 409.771 248.831 409.012 249.017C406.9 249.534 404.754 249.03 403.076 247.775C400.245 253.023 392.322 254.357 387.215 249.225C383.761 258.521 375.364 260.437 365.544 259.584C362.83 259.349 360.027 259.105 357.742 257.282C356.606 256.376 355.642 255.173 354.829 253.634C351.998 258.505 347.1 262.787 341.013 263.084C340.999 263.084 340.987 263.084 340.975 263.084L340.976 263.086ZM354.436 221.976C353.72 223.214 353.443 224.706 353.17 226.151C351.759 233.729 352.187 242.157 354.923 249.964C357.337 243.93 357.026 237.157 357.014 231.567C356.968 227.56 356.874 225.211 354.436 221.975V221.976ZM386.201 231.227C384.29 236.138 383.864 241.571 386.636 246.056C388.335 239.957 388.19 234.982 386.201 231.227ZM402.195 236.984C401.107 239.592 400.975 242.673 402.548 245.051C403.151 242.952 403.209 240.572 402.818 238.623C402.678 237.912 402.47 237.365 402.195 236.983V236.984Z" fill="#232526"/>
<path d="M146.724 358.882C139.784 350.181 127.014 348.137 117.704 354.234C107.247 361.084 104.679 375.153 111.87 385.227C118.858 395.016 132.493 397.292 142.323 390.274C152.475 383.026 154.57 368.718 146.723 358.882H146.724ZM120.896 387.88H120.89C120.474 387.88 120.135 387.545 120.133 387.128C120.07 378.003 117.252 368.791 112.205 361.187C111.975 360.839 112.069 360.369 112.418 360.137C112.765 359.905 113.234 360 113.467 360.35C118.677 368.195 121.583 377.703 121.648 387.118C121.65 387.536 121.315 387.877 120.897 387.88H120.896ZM134.437 383.231C134.065 383.231 133.739 382.956 133.687 382.577C132.345 372.785 127.699 363.602 120.603 356.723C120.301 356.433 120.295 355.953 120.585 355.653C120.879 355.353 121.357 355.344 121.655 355.637C128.993 362.75 133.8 372.245 135.184 382.372C135.247 382.825 134.894 383.231 134.435 383.231H134.437ZM144.182 373.244C143.834 373.244 143.519 373.003 143.443 372.649C141.756 364.95 136.708 357.94 129.943 353.895C129.584 353.681 129.468 353.216 129.68 352.857C129.895 352.498 130.36 352.382 130.719 352.595C137.837 356.85 143.145 364.225 144.921 372.324C145.026 372.797 144.662 373.243 144.182 373.243V373.244Z" fill="#FE6D5E"/>
<path d="M144.552 385.487C140.095 380.809 141.192 373.269 146.785 370.056C150.768 367.771 156.053 368.652 159.079 372.109C163.471 377.125 161.807 384.892 155.689 387.668C154.432 388.239 147.402 388.473 144.552 385.487ZM147.538 371.369C142.792 374.094 141.872 380.482 145.649 384.442C150.209 389.221 158.421 386.991 159.844 380.405C160.409 377.793 159.714 375.132 157.94 373.107C155.377 370.178 150.906 369.439 147.538 371.37V371.369Z" fill="#232526"/>
<path d="M47.6436 44.419C46.1251 39.0921 48.7319 32.9553 54.5819 30.2954C51.6087 27.5392 52.8259 22.5907 56.7006 21.465C57.5141 21.23 58.3662 21.2023 59.1761 21.3734C57.6009 14.2821 61.813 7.20647 68.8332 5.19622C74.5313 3.57766 80.55 5.75904 83.8281 10.4183C86.6603 1.58548 97.0237 -2.71462 105.361 1.83616C114.189 6.6557 115.579 18.5497 108.377 25.3867C108.076 25.6759 107.596 25.6627 107.309 25.359C107.021 25.0553 107.033 24.5768 107.336 24.2888C113.824 18.1243 112.531 7.47523 104.636 3.16548C96.6393 -1.19488 86.5061 3.50535 84.8646 12.4996C84.7332 13.2107 83.7751 13.3493 83.4449 12.7081C80.8393 7.6078 74.87 5.06245 69.249 6.65329C62.2156 8.66957 58.6795 16.2562 61.0296 22.346C61.2851 23.0185 60.5488 23.6295 59.9353 23.268C59.1013 22.7727 58.0769 22.6485 57.12 22.9197C53.8202 23.8766 53.5045 28.4563 56.5271 29.7953C57.1767 30.0809 57.1092 31.0197 56.4367 31.215C56.0366 31.3319 55.6497 31.4801 55.2773 31.644C55.2363 31.6754 55.1881 31.7031 55.1399 31.726C50.3131 33.8724 47.7172 39.1535 49.1007 44.0068C50.3915 48.5733 55.064 51.8225 60.2933 51.3331C60.6838 51.2946 61.0779 51.6007 61.1176 52.0165C61.1574 52.4335 60.8513 52.8023 60.4355 52.8408C54.4192 53.3976 49.1164 49.6543 47.6449 44.4202L47.6436 44.419Z" fill="#222425"/>
<path d="M106.159 30.8714C93.9119 22.4918 79.98 30.6087 78.7483 46.9787C75.0845 44.4503 70.2722 46.0965 68.6356 49.8447C67.2231 53.0939 68.6151 57.0505 71.199 59.4934C73.5828 61.7688 78.1216 62.9185 81.3322 63.591V63.6115C82.2614 66.8414 80.3837 70.2123 77.1538 71.1403C73.3237 72.2346 69.3828 69.4386 69.3828 65.206C66.2119 67.6718 61.1453 66.1629 59.9365 61.9568C59.311 59.7561 59.9775 57.4964 61.4707 55.9827C56.0811 56.4877 50.9543 53.2783 49.4815 48.1104C48.0076 42.9233 50.6928 37.4939 55.5774 35.092H55.5979C56.9296 35.1727 58.2011 35.738 59.1905 36.6467C59.4749 36.8901 59.9389 36.907 60.2595 36.5864C60.5427 36.2839 60.5222 35.7994 60.1993 35.5162C58.371 33.8241 56.4198 33.7036 56.2029 33.6385C53.5828 31.1101 54.8253 27.0172 58.0203 26.0893C59.211 25.7663 60.4427 25.9278 61.431 26.5135C58.9109 19.9717 62.6759 11.9609 70.1505 9.84094C75.7016 8.24648 81.4334 10.4869 84.4609 14.9678C84.6428 17.753 85.6721 20.4381 86.7423 22.9811C86.8628 23.2631 87.146 23.4451 87.4485 23.4451C87.9655 23.4451 88.3464 22.8967 88.1343 22.3954C87.0038 19.6499 85.8938 16.7635 85.9143 13.8373C87.428 9.82045 90.8194 6.50981 95.3208 5.21905C102.87 3.05936 110.701 7.33897 112.82 14.7665C114.453 20.4454 112.345 27.1137 106.159 30.8738V30.8714Z" fill="#232526"/>
<path d="M72.7722 46.1106C72.2877 43.3049 71.4597 40.621 69.9062 38.2588L74.4281 35.0289C76.3914 33.379 79.6249 34.6806 81.6749 36.6644C80.0394 39.6713 79.0307 43.2242 78.7487 46.9783C76.8807 45.69 74.5028 45.4622 72.7734 46.1106H72.7722Z" fill="#232526"/>
<path d="M85.9359 69.3638C82.7964 73.3035 76.7837 71.5608 74.5312 61.5723C76.9332 62.6425 79.7389 63.268 81.9998 63.732C82.0203 63.6717 82.0601 63.6114 82.0601 63.55C83.1495 65.7302 84.4415 67.6874 85.9359 69.3626V69.3638Z" fill="#232526"/>
<path d="M117.29 51.3249C116.983 51.0381 116.97 50.5596 117.258 50.2547C118.204 49.2508 118.674 48.4084 118.965 47.0779C119.666 43.8805 118.862 40.5686 116.869 38.4331C115.895 37.4099 114.612 36.7301 113.616 37.7244C113.49 37.851 113.435 37.9377 113.417 37.9703C113.209 38.3342 112.745 38.4572 112.384 38.2499C111.07 37.4966 113.569 34.7211 116.333 36.1324C119.467 37.6425 121.929 43.3731 120.116 48.5422C119.799 49.475 119.223 50.3789 118.357 51.2948C118.075 51.5961 117.594 51.6154 117.29 51.3261V51.3249Z" fill="#222425"/>
<path d="M81.8664 64.4768C78.3894 63.8465 73.2324 62.4714 70.6798 60.0405C67.6367 57.1601 66.5111 52.8432 67.9465 49.5421C69.7554 45.3963 75.0908 43.5319 79.1824 46.3544C79.4584 46.5436 79.5741 46.8919 79.4717 47.2101C79.1173 52.3972 80.1128 57.6699 82.3653 62.4593C82.6979 63.1969 82.986 63.4006 82.7184 63.9767C82.6184 64.2912 82.2797 64.5419 81.8664 64.4756V64.4768ZM69.3336 50.1472C68.1465 52.8745 69.1312 56.4913 71.7223 58.9438C73.8398 60.9649 77.9471 62.0785 80.807 62.704C78.6148 57.8724 77.6313 52.5852 77.9591 47.3704C74.7533 45.4831 70.7545 46.8919 69.3336 50.1472Z" fill="#222425"/>
<path d="M91.1131 99.9543C90.0911 91.6289 88.6678 80.3737 88.1423 72.3604C88.1146 71.9434 88.4304 71.583 88.8486 71.5565C89.2668 71.5372 89.6247 71.8458 89.6524 72.2628C90.1718 80.1832 91.5566 91.1516 92.6148 99.7723C92.6666 100.187 92.3701 100.564 91.9567 100.615C91.5433 100.667 91.1649 100.373 91.1131 99.9555V99.9543Z" fill="#222425"/>
<path d="M112.851 89.9777L107.3 75.3648C107.151 74.9732 107.347 74.5369 107.739 74.3886C108.137 74.2416 108.567 74.4381 108.716 74.8273L114.267 89.4402C114.415 89.8319 114.22 90.2682 113.827 90.4164C113.432 90.5658 112.998 90.3634 112.851 89.9777Z" fill="#222425"/>
<path d="M77.9705 47.1069C79.0612 30.4657 93.5343 21.3195 106.584 30.2463C121.392 40.1987 123.384 66.3067 109.307 75.2094C94.8383 84.3242 76.5207 67.4444 77.9717 47.1057L77.9705 47.1069ZM79.4999 47.0358C78.0561 66.8755 95.4626 82.1464 108.498 73.9295C121.654 65.6089 119.652 40.8568 105.734 31.4985C93.9947 23.4696 80.6918 31.2093 79.4999 47.0346V47.0358Z" fill="#222425"/>
<path d="M87.118 41.1685C86.4672 41.776 86.6046 42.3677 87.5844 42.4328C89.0728 42.5316 90.5697 42.4207 92.0207 42.1122C93.3055 41.8386 95.1084 41.4506 96.1521 40.6045C96.9608 39.9477 96.2582 38.8233 95.4206 38.5894C94.1455 38.2351 92.4883 38.5328 91.2603 38.8751C89.7236 39.3029 88.2859 40.0815 87.1192 41.1697L87.118 41.1685Z" fill="#232526"/>
<path d="M109.735 32.0526C110.622 31.9815 110.967 32.4817 110.354 33.2482C109.424 34.4148 108.333 35.4464 107.127 36.3093C106.059 37.0746 104.556 38.1448 103.229 38.3449C102.199 38.5004 101.841 37.2229 102.234 36.4455C102.832 35.2644 104.168 34.2412 105.249 33.5639C106.6 32.7167 108.145 32.1792 109.735 32.0514V32.0526Z" fill="#232526"/>
<path d="M74.6073 58.3741C74.071 57.8776 73.4636 57.3136 72.9851 56.6399C71.5365 54.6067 72.0222 52.4711 73.4419 51.6046C75.2352 50.5043 77.4118 52.2289 76.3355 53.1087C76.0138 53.3714 75.5353 53.3256 75.2714 53.0014C75.0568 52.7411 74.5651 52.6905 74.2301 52.8953C73.5829 53.2931 73.272 54.4295 74.218 55.7625C74.6061 56.3108 75.1304 56.7953 75.6353 57.2641C75.9426 57.5486 75.9607 58.027 75.6763 58.3331C75.3919 58.6381 74.9158 58.6598 74.6061 58.3741H74.6073Z" fill="#232526"/>
<path d="M117.511 45.2055C117.113 45.0754 116.896 44.6475 117.026 44.251C117.296 43.4267 116.936 42.4143 116.206 41.9443C115.856 41.7177 115.753 41.2489 115.98 40.8982C116.209 40.5439 116.68 40.4487 117.026 40.6716C118.326 41.5104 118.946 43.2531 118.465 44.7234C118.332 45.1272 117.897 45.3357 117.511 45.2079V45.2055Z" fill="#232526"/>
<path d="M81.3114 75.0046C79.9893 75.0046 78.6636 74.5503 77.6488 73.6886C77.3319 73.4186 77.2921 72.9402 77.5621 72.622C77.832 72.3014 78.3069 72.264 78.6299 72.5352C79.7712 73.5054 81.5259 73.7645 82.9071 73.1655C84.281 72.5653 85.2885 71.101 85.3536 69.603C85.3717 69.1968 85.7067 68.8799 86.1105 68.8799C86.1201 68.8799 86.1322 68.8799 86.1442 68.8799C86.5624 68.898 86.8854 69.2511 86.8673 69.6693C86.7444 72.4267 84.4569 75.0034 81.3102 75.0034L81.3114 75.0046Z" fill="#232526"/>
<path d="M103.521 57.5852C103.351 57.2031 103.523 56.7548 103.905 56.5861C104.678 56.2426 105.214 55.8196 105.499 55.3255C105.791 54.8181 105.784 54.1709 105.478 53.8214C105.007 53.279 103.686 53.273 102.712 52.8958C100.843 52.1751 99.946 50.2432 99.5242 48.75C99.0807 47.1965 98.9276 45.6635 98.2455 44.3775C98.0478 44.0088 98.19 43.5508 98.5588 43.3543C98.924 43.1567 99.3844 43.2965 99.582 43.6677C100.382 45.1742 100.549 46.8229 100.98 48.3366C101.309 49.4984 101.972 50.9868 103.257 51.4833C104.242 51.863 105.68 51.7473 106.622 52.8259C107.353 53.6671 107.43 55.0061 106.811 56.0811C106.361 56.8584 105.591 57.4936 104.52 57.9684C104.139 58.1372 103.692 57.9684 103.521 57.584V57.5852Z" fill="#222425"/>
<path d="M107.549 59.8351C107.468 63.4687 104.501 66.3347 100.869 66.2539C97.2351 66.1527 94.3897 63.1855 94.4704 59.5531C94.4704 59.4928 94.4909 59.4326 94.4909 59.3916L96.3481 59.4326C96.3481 59.4326 96.1661 61.491 96.1661 61.5923C105.85 62.6034 105.127 62.4805 105.33 62.5817C105.552 61.5923 105.794 60.6233 106.016 59.635L107.53 59.676C107.55 59.7363 107.55 59.7773 107.55 59.8375L107.549 59.8351Z" fill="#232526"/>
<path d="M109.325 44.0357C108.552 42.869 106.927 42.5653 105.78 43.4319C105.448 43.6837 104.973 43.6199 104.719 43.2836C103.634 41.841 108.467 40.0031 110.587 43.2005C110.817 43.5488 110.723 44.0188 110.374 44.249C110.031 44.478 109.559 44.3888 109.325 44.0357Z" fill="#222425"/>
<path d="M88.913 51.9656C87.5969 51.6932 88.6515 49.2141 90.5882 48.8417C92.5177 48.4597 94.4255 50.3807 93.3023 51.1231C92.9552 51.3521 92.484 51.2593 92.2538 50.9086C91.9621 50.4723 91.3764 50.2241 90.8714 50.3277C90.3604 50.4265 89.9133 50.8676 89.8073 51.3774C89.7205 51.7932 89.3143 52.0499 88.9118 51.9644L88.913 51.9656Z" fill="#222425"/>
<path d="M101.021 67.0078C100.966 67.0078 100.854 67.0006 100.862 67.0054C96.8271 66.9102 93.6201 63.5562 93.7129 59.5284L94.4794 59.4658L93.7346 59.3236C93.7744 58.9367 94.1034 58.627 94.489 58.627C99.4882 58.7354 108.082 58.921 107.558 58.9102C107.961 58.9198 108.284 59.2404 108.297 59.6417C108.297 59.655 108.31 59.8418 108.31 59.855C108.223 63.8309 104.969 67.0078 101.021 67.0078ZM100.895 65.4917C103.924 65.5736 106.397 63.3199 106.754 60.4058L95.264 60.1575C95.5267 63.1319 97.9274 65.4206 100.893 65.4917H100.895Z" fill="#232526"/>
<path d="M111.678 24.9492C107.478 30.24 100.992 33.6229 94.2632 34.0941C91.9589 34.2484 89.5341 34.1315 85.5039 35.6994C83.3611 36.5334 81.9125 38.5618 81.892 40.8613C81.8354 47.3452 81.9716 48.472 81.2147 49.5699C80.6266 50.4521 79.2539 50.8643 78.4946 50.1147C77.064 48.7167 79.7179 46.4437 76.0469 41.682C75.2454 42.3304 74.4331 42.9402 73.5123 43.3909C72.5892 43.6127 71.7443 42.0484 71.766 41.0975C71.7889 40.1466 72.3879 39.3042 72.9507 38.5557C74.5681 36.3527 76.224 34.1375 78.368 32.4551C79.4853 31.591 80.7169 30.904 81.9788 30.2496C92.5302 24.901 99.7842 26.0821 107.085 22.311C108.111 21.788 109.3 21.1758 110.321 21.6614C111.53 22.2194 111.699 23.6199 111.678 24.948V24.9492Z" fill="#232526"/>
<path d="M104.582 30.9306C103.973 30.9306 103.342 30.9113 102.684 30.8764C102.265 30.8535 101.946 30.4967 101.97 30.0785C101.992 29.6615 102.352 29.3458 102.767 29.3639C106.058 29.5422 108.597 29.2602 110.784 28.4744C113.466 27.5115 115.573 25.7061 116.562 23.5223C116.734 23.1415 117.182 22.9764 117.565 23.1451C117.946 23.3187 118.113 23.767 117.941 24.1478C116.297 27.7706 112.136 30.9306 104.58 30.9306H104.582Z" fill="#222425"/>
<path d="M75.2357 117.402L74.2872 118.088C74.2269 117.684 74.1667 117.301 74.0859 116.897L75.2369 117.402H75.2357Z" fill="#023ECE"/>
<path d="M90.8203 103.859L98.3298 100.367L97.5223 108.743L90.8203 103.859Z" fill="#023ECE"/>
<path d="M122.911 95.9259L121.134 104.02L129.127 101.396L122.91 95.9259H122.911ZM122.911 95.9259L121.134 104.02L129.127 101.396L122.91 95.9259H122.911ZM122.911 95.9259L121.134 104.02L129.127 101.396L122.91 95.9259H122.911ZM122.911 95.9259L121.134 104.02L129.127 101.396L122.91 95.9259H122.911ZM122.911 95.9259L121.134 104.02L129.127 101.396L122.91 95.9259H122.911ZM122.911 95.9259L121.134 104.02L129.127 101.396L122.91 95.9259H122.911ZM122.911 95.9259L121.134 104.02L129.127 101.396L122.91 95.9259H122.911ZM122.911 95.9259L121.134 104.02L129.127 101.396L122.91 95.9259H122.911ZM122.911 95.9259L121.134 104.02L129.127 101.396L122.91 95.9259H122.911ZM122.911 95.9259L121.134 104.02L129.127 101.396L122.91 95.9259H122.911ZM122.911 95.9259L121.134 104.02L129.127 101.396L122.91 95.9259H122.911ZM122.911 95.9259L121.134 104.02L129.127 101.396L122.91 95.9259H122.911ZM94.249 144.712L98.5082 151.816L102.546 144.429L94.2503 144.711L94.249 144.712ZM122.911 95.9259L121.134 104.02L129.127 101.396L122.91 95.9259H122.911ZM122.911 95.9259L121.134 104.02L129.127 101.396L122.91 95.9259H122.911ZM94.249 144.712L98.5082 151.816L102.546 144.429L94.2503 144.711L94.249 144.712ZM94.249 144.712L98.5082 151.816L102.546 144.429L94.2503 144.711L94.249 144.712ZM114.312 175.897L120.993 180.761L121.821 172.385L114.313 175.897H114.312ZM122.911 95.9259L121.134 104.02L129.127 101.396L122.91 95.9259H122.911ZM138.029 137.527L133.629 144.531L141.884 144.995L138.029 137.527ZM138.029 137.527L133.629 144.531L141.884 144.995L138.029 137.527ZM122.911 95.9259L121.134 104.02L129.127 101.396L122.91 95.9259H122.911ZM114.312 175.897L120.993 180.761L121.821 172.385L114.313 175.897H114.312ZM94.249 144.712L98.5082 151.816L102.546 144.429L94.2503 144.711L94.249 144.712ZM94.249 144.712L98.5082 151.816L102.546 144.429L94.2503 144.711L94.249 144.712ZM114.312 175.897L120.993 180.761L121.821 172.385L114.313 175.897H114.312ZM122.911 95.9259L121.134 104.02L129.127 101.396L122.91 95.9259H122.911ZM138.029 137.527L133.629 144.531L141.884 144.995L138.029 137.527ZM138.029 137.527L133.629 144.531L141.884 144.995L138.029 137.527ZM122.911 95.9259L121.134 104.02L129.127 101.396L122.91 95.9259H122.911ZM114.312 175.897L120.993 180.761L121.821 172.385L114.313 175.897H114.312ZM94.249 144.712L98.5082 151.816L102.546 144.429L94.2503 144.711L94.249 144.712ZM94.249 144.712L98.5082 151.816L102.546 144.429L94.2503 144.711L94.249 144.712ZM114.312 175.897L120.993 180.761L121.821 172.385L114.313 175.897H114.312ZM122.911 95.9259L121.134 104.02L129.127 101.396L122.91 95.9259H122.911ZM138.029 137.527L133.629 144.531L141.884 144.995L138.029 137.527ZM138.029 137.527L133.629 144.531L141.884 144.995L138.029 137.527ZM122.911 95.9259L121.134 104.02L129.127 101.396L122.91 95.9259H122.911ZM114.312 175.897L120.993 180.761L121.821 172.385L114.313 175.897H114.312ZM94.249 144.712L98.5082 151.816L102.546 144.429L94.2503 144.711L94.249 144.712ZM147.959 132.177C147.354 129.251 146.667 126.344 145.901 123.457C145.031 123.37 144.86 121.899 143.842 116.13C142.141 110.534 135.017 89.1697 131.469 84.8033C129.955 82.975 130.086 80.1754 128.845 79.3944C128.039 78.9111 127.44 79.0244 126.969 78.9304C126.021 78.8002 124.954 79.0847 124.708 79.1124C124.209 79.1883 123.803 79.1702 122.892 79.4559C121.559 79.8114 109.128 83.8367 105.109 85.1684C74.49 95.3125 73.9561 94.3592 70.6539 96.6539C70.1694 96.9973 69.7657 97.3806 69.3415 97.7638C69.321 97.7843 69.3005 97.8036 69.321 97.8844C69.4427 97.9856 69.6042 98.0856 69.7247 98.1869C70.4201 98.8136 70.8371 100.391 71.0372 100.791C71.3794 101.361 71.424 101.367 71.6024 102.527C71.9724 105.604 72.9956 109.718 72.9956 110.722C73.2583 112.196 73.5198 113.648 73.7826 115.122L77.0522 116.555C77.5898 116.761 77.691 117.486 77.1933 117.847L74.5888 119.725C75.7398 126.245 76.8896 132.764 78.0405 139.284C78.9492 144.45 75.841 144.491 76.7485 149.639L77.9393 159.428L83.9544 135.813C84.1942 134.855 85.6139 135.211 85.4078 136.176L81.5934 151.233C78.5178 162.986 78.8709 162.676 78.384 162.98L83.5313 205.146L160.313 184.8C157.689 170.954 148.787 136.155 147.959 132.179V132.177ZM89.021 103.031L98.8914 98.4279C99.4313 98.1579 100.046 98.6195 99.9604 99.1751L98.8914 110.195C98.8505 110.479 98.689 110.7 98.4467 110.821C97.7827 111.087 97.9658 110.869 88.8992 104.321C88.3967 103.955 88.5509 103.225 89.0197 103.029L89.021 103.031ZM104.503 144.004L99.1939 153.713C99.0722 153.956 98.8107 154.097 98.5479 154.097H98.5275C98.2647 154.097 98.0225 153.976 97.8815 153.734L92.2906 144.389C92.0207 143.896 92.334 143.284 92.9161 143.238L103.816 142.875C104.058 142.896 104.34 142.996 104.482 143.238C104.623 143.46 104.623 143.762 104.503 144.004ZM122.366 182.234C122.324 182.784 121.703 183.131 121.175 182.779L112.396 176.36C111.898 175.998 112.006 175.303 112.517 175.048L122.388 170.465C122.922 170.198 123.5 170.655 123.458 171.213L122.368 182.233L122.366 182.234ZM120.105 105.896C119.648 105.896 119.268 105.469 119.378 104.988L121.72 94.3508C121.761 94.088 121.962 93.8663 122.225 93.7855C122.467 93.7048 122.749 93.765 122.952 93.947C123.154 94.1254 131.653 101.596 131.127 101.132C131.588 101.548 131.386 102.264 130.864 102.424C130.661 102.491 120.335 105.896 120.106 105.896H120.105ZM143.155 146.588C139.959 146.405 131.733 145.933 132.256 145.963C131.636 145.915 131.375 145.246 131.651 144.812L137.463 135.587C137.826 135.019 138.555 135.209 138.776 135.648L143.842 145.477C144.088 145.969 143.762 146.587 143.155 146.587V146.588ZM133.629 144.53L141.884 144.994L138.029 137.525L133.629 144.53ZM121.134 104.02L129.127 101.396L122.91 95.9259L121.133 104.02H121.134ZM120.993 180.761L121.821 172.385L114.313 175.897L120.995 180.761H120.993ZM98.5082 151.816L102.546 144.429L94.2503 144.711L98.5094 151.815L98.5082 151.816ZM94.249 144.712L98.5082 151.816L102.546 144.429L94.2503 144.711L94.249 144.712ZM114.312 175.897L120.993 180.761L121.821 172.385L114.313 175.897H114.312ZM122.911 95.9259L121.134 104.02L129.127 101.396L122.91 95.9259H122.911ZM138.029 137.527L133.629 144.531L141.884 144.995L138.029 137.527ZM138.029 137.527L133.629 144.531L141.884 144.995L138.029 137.527ZM122.911 95.9259L121.134 104.02L129.127 101.396L122.91 95.9259H122.911ZM114.312 175.897L120.993 180.761L121.821 172.385L114.313 175.897H114.312ZM94.249 144.712L98.5082 151.816L102.546 144.429L94.2503 144.711L94.249 144.712ZM94.249 144.712L98.5082 151.816L102.546 144.429L94.2503 144.711L94.249 144.712ZM114.312 175.897L120.993 180.761L121.821 172.385L114.313 175.897H114.312ZM122.911 95.9259L121.134 104.02L129.127 101.396L122.91 95.9259H122.911ZM138.029 137.527L133.629 144.531L141.884 144.995L138.029 137.527ZM138.029 137.527L133.629 144.531L141.884 144.995L138.029 137.527ZM122.911 95.9259L121.134 104.02L129.127 101.396L122.91 95.9259H122.911ZM114.312 175.897L120.993 180.761L121.821 172.385L114.313 175.897H114.312ZM94.249 144.712L98.5082 151.816L102.546 144.429L94.2503 144.711L94.249 144.712ZM94.249 144.712L98.5082 151.816L102.546 144.429L94.2503 144.711L94.249 144.712ZM122.911 95.9259L121.134 104.02L129.127 101.396L122.91 95.9259H122.911ZM138.029 137.527L133.629 144.531L141.884 144.995L138.029 137.527ZM138.029 137.527L133.629 144.531L141.884 144.995L138.029 137.527ZM122.911 95.9259L121.134 104.02L129.127 101.396L122.91 95.9259H122.911ZM94.249 144.712L98.5082 151.816L102.546 144.429L94.2503 144.711L94.249 144.712ZM94.249 144.712L98.5082 151.816L102.546 144.429L94.2503 144.711L94.249 144.712ZM122.911 95.9259L121.134 104.02L129.127 101.396L122.91 95.9259H122.911ZM122.911 95.9259L121.134 104.02L129.127 101.396L122.91 95.9259H122.911ZM94.249 144.712L98.5082 151.816L102.546 144.429L94.2503 144.711L94.249 144.712ZM122.911 95.9259L121.134 104.02L129.127 101.396L122.91 95.9259H122.911ZM122.911 95.9259L121.134 104.02L129.127 101.396L122.91 95.9259H122.911ZM122.911 95.9259L121.134 104.02L129.127 101.396L122.91 95.9259H122.911ZM122.911 95.9259L121.134 104.02L129.127 101.396L122.91 95.9259H122.911ZM122.911 95.9259L121.134 104.02L129.127 101.396L122.91 95.9259H122.911ZM122.911 95.9259L121.134 104.02L129.127 101.396L122.91 95.9259H122.911ZM122.911 95.9259L121.134 104.02L129.127 101.396L122.91 95.9259H122.911ZM122.911 95.9259L121.134 104.02L129.127 101.396L122.91 95.9259H122.911ZM122.911 95.9259L121.134 104.02L129.127 101.396L122.91 95.9259H122.911ZM122.911 95.9259L121.134 104.02L129.127 101.396L122.91 95.9259H122.911Z" fill="#023ECE"/>
<path d="M102.545 144.429L98.5079 151.816L94.25 144.712L102.545 144.429Z" fill="#023ECE"/>
<path d="M129.133 101.396L121.141 104.02L122.917 95.9258L129.133 101.396Z" fill="#023ECE"/>
<path d="M30.012 251.216C27.9608 250.062 28.4055 246.593 28.3959 246.794C28.4513 245.687 28.5513 244.611 28.696 243.564C27.8499 244.597 26.8195 245.783 25.5191 245.483C24.9322 245.355 23.9307 244.815 23.8812 242.662C23.8812 241.097 24.0114 239.546 24.2693 238.02C23.3449 238.405 22.2289 238.359 21.4781 237.609C20.573 236.704 20.6815 235.335 21.0213 234.104C22.235 229.508 27.7149 220.211 31.6378 211.746C31.4209 211.617 31.2775 211.384 31.269 211.122C31.257 210.762 31.4992 210.447 31.8463 210.361C32.9695 210.087 34.1229 209.837 35.2727 209.587C36.4947 209.322 37.7132 209.058 38.8882 208.768C39.7439 208.553 42.3555 207.9 43.9862 209.411C44.7177 210.09 45.0154 210.877 45.2757 211.572C45.7831 212.927 46.1398 213.361 48.0103 213.822C48.2127 213.902 50.7195 214.306 51.6077 215.966C52.2284 217.099 51.5535 218.019 51.574 218.503C51.574 218.503 51.574 218.506 51.5764 218.507C51.9344 225.681 51.721 230.613 51.7066 232.092C51.6789 232.878 51.6439 233.855 50.7545 234.696C49.6276 235.733 48.1079 235.401 47.1257 234.202C46.8256 233.837 46.5701 233.42 46.3507 232.939C42.7207 243.44 42.2386 245.405 40.9937 246.535C39.4619 247.964 37.172 247.046 36.7611 245.478C36.3923 246.391 35.9801 247.299 35.5294 248.193C35.0943 249.082 34.5242 250.098 33.6276 250.807C32.602 251.57 31.1533 251.86 30.0168 251.213L30.012 251.216ZM30.9991 239.775C30.0193 243.398 29.9735 246.218 29.8987 246.955C29.8457 248.612 30.1289 249.544 30.758 249.897C31.3667 250.247 32.1886 249.99 32.702 249.608C33.3407 249.102 33.7867 248.306 34.1687 247.522C35.4257 245.039 36.3525 242.441 36.9358 239.817C37.0575 239.13 37.0286 237.733 37.9602 237.267C38.4724 237.003 39.0931 237.405 39.0545 237.994C38.8846 240.52 37.8469 244.693 38.3013 245.26C38.8135 245.908 39.7077 246.003 40.4007 244.874C41.1588 243.722 41.4191 242.325 45.6818 230.244C45.9361 229.519 46.9919 229.596 47.1389 230.353C47.3932 231.676 47.7596 232.594 48.2923 233.245C48.6852 233.724 49.2468 234.026 49.7168 233.592C50.129 233.202 50.1627 232.792 50.1904 232.041C50.2061 230.415 50.4243 225.885 50.0603 218.588C50.0362 218.183 50.141 217.837 50.2338 217.531C50.3664 217.094 50.3989 216.921 50.2736 216.688C49.9916 216.163 49.213 215.708 48.0753 215.402C46.746 215.073 45.7602 214.868 44.8129 213.856C43.204 212.133 44.2549 208.998 39.2498 210.238C38.059 210.533 36.8273 210.801 35.5908 211.068C34.8557 211.228 34.1181 211.389 33.3865 211.554C31.3727 215.993 25.5649 227.234 25.4588 227.437C24.2705 229.768 23.1485 231.969 22.4784 234.503C22.4001 234.783 22.3916 234.973 22.3266 235.106C22.1771 236.039 22.3796 236.373 22.5459 236.539C22.9279 236.92 23.7438 236.721 24.1705 236.31C24.4802 236.012 24.7357 235.588 24.9575 235.01C25.1009 234.63 25.5191 234.432 25.9035 234.56C26.288 234.688 26.5049 235.096 26.3928 235.487C25.73 237.809 25.3938 240.218 25.3938 242.646C25.4118 243.396 25.5926 243.95 25.8469 244.006C25.9963 244.038 26.2663 243.963 26.7857 243.443C27.9307 242.242 28.8731 240.833 29.5794 239.267C29.9566 238.421 31.2413 238.882 31.0003 239.775H30.9991Z" fill="#222425"/>
<path d="M45.9531 185.868L54.2279 185.586L50.1918 192.973L45.9531 185.868Z" fill="#023ECE"/>
<path d="M57.3575 152.483L64.039 157.368L64.867 148.992L57.3587 152.483H57.3575ZM67.6522 114.092L68.4187 122.327C68.6212 122.181 75.692 117.077 75.2412 117.401C75.2412 117.401 67.1544 113.874 67.6522 114.091V114.092ZM67.6522 114.092L68.4187 122.327C68.6212 122.181 75.692 117.077 75.2412 117.401C75.2412 117.401 67.1544 113.874 67.6522 114.091V114.092ZM57.3575 152.483L64.039 157.368L64.867 148.992L57.3587 152.483H57.3575ZM57.3575 152.483L64.039 157.368L64.867 148.992L57.3587 152.483H57.3575ZM67.6522 114.092L68.4187 122.327C68.6212 122.181 75.692 117.077 75.2412 117.401C75.2412 117.401 67.1544 113.874 67.6522 114.091V114.092ZM80.4898 155.55L80.7923 154.763C81.0551 153.593 81.3166 152.402 81.5998 151.231L80.4898 155.55ZM67.6522 114.092L68.4187 122.327C68.6212 122.181 75.692 117.077 75.2412 117.401C75.2412 117.401 67.1544 113.874 67.6522 114.091V114.092ZM57.3575 152.483L64.039 157.368L64.867 148.992L57.3587 152.483H57.3575ZM57.3575 152.483L64.039 157.368L64.867 148.992L57.3587 152.483H57.3575ZM67.6522 114.092L68.4187 122.327C68.6212 122.181 75.692 117.077 75.2412 117.401C75.2412 117.401 67.1544 113.874 67.6522 114.091V114.092ZM67.6522 114.092L68.4187 122.327C68.6212 122.181 75.692 117.077 75.2412 117.401C75.2412 117.401 67.1544 113.874 67.6522 114.091V114.092ZM57.3575 152.483L64.039 157.368L64.867 148.992L57.3587 152.483H57.3575ZM57.3575 152.483L64.039 157.368L64.867 148.992L57.3587 152.483H57.3575ZM67.6522 114.092L68.4187 122.327C68.6212 122.181 75.692 117.077 75.2412 117.401C75.2412 117.401 67.1544 113.874 67.6522 114.091V114.092ZM67.6522 114.092L68.4187 122.327C68.6212 122.181 75.692 117.077 75.2412 117.401C75.2412 117.401 67.1544 113.874 67.6522 114.091V114.092ZM57.3575 152.483L64.039 157.368L64.867 148.992L57.3587 152.483H57.3575ZM57.3575 152.483L64.039 157.368L64.867 148.992L57.3587 152.483H57.3575ZM67.6522 114.092L68.4187 122.327C68.6212 122.181 75.692 117.077 75.2412 117.401C75.2412 117.401 67.1544 113.874 67.6522 114.091V114.092ZM67.6522 114.092L68.4187 122.327C68.6212 122.181 75.692 117.077 75.2412 117.401C75.2412 117.401 67.1544 113.874 67.6522 114.091V114.092ZM57.3575 152.483L64.039 157.368L64.867 148.992L57.3587 152.483H57.3575ZM57.3575 152.483L64.039 157.368L64.867 148.992L57.3587 152.483H57.3575ZM67.6522 114.092L68.4187 122.327C68.6212 122.181 75.692 117.077 75.2412 117.401C75.2412 117.401 67.1544 113.874 67.6522 114.091V114.092ZM67.6522 114.092L68.4187 122.327C68.6212 122.181 75.692 117.077 75.2412 117.401C75.2412 117.401 67.1544 113.874 67.6522 114.091V114.092ZM57.3575 152.483L64.039 157.368L64.867 148.992L57.3587 152.483H57.3575ZM57.3575 152.483L64.039 157.368L64.867 148.992L57.3587 152.483H57.3575ZM67.6522 114.092L68.4187 122.327C68.6212 122.181 75.692 117.077 75.2412 117.401C75.2412 117.401 67.1544 113.874 67.6522 114.091V114.092ZM67.6522 114.092L68.4187 122.327C68.6212 122.181 75.692 117.077 75.2412 117.401C75.2412 117.401 67.1544 113.874 67.6522 114.091V114.092ZM57.3575 152.483L64.039 157.368L64.867 148.992L57.3587 152.483H57.3575ZM57.3575 152.483L64.039 157.368L64.867 148.992L57.3587 152.483H57.3575ZM67.6522 114.092L68.4187 122.327C68.6212 122.181 75.692 117.077 75.2412 117.401C75.2412 117.401 67.1544 113.874 67.6522 114.091V114.092ZM67.6522 114.092L68.4187 122.327C68.6212 122.181 75.692 117.077 75.2412 117.401C75.2412 117.401 67.1544 113.874 67.6522 114.091V114.092ZM57.3575 152.483L64.039 157.368L64.867 148.992L57.3587 152.483H57.3575ZM82.6893 97.581C80.8827 96.113 78.5736 95.4092 76.25 95.2598C75.645 95.2393 75.0388 95.1585 74.4531 95.2393C73.9686 95.2995 73.4841 95.2995 72.9996 95.4008C72.174 95.4008 69.4359 97.0266 68.7405 97.5605C67.4762 98.5089 66.7049 98.9452 63.9366 102.405C61.2358 105.871 60.6609 106.22 50.3722 138.414C36.8163 181.858 36.1812 184.585 31.1158 201.349C30.4493 203.548 29.8045 205.749 29.1381 207.949C28.7138 209.382 28.2908 210.815 27.8666 212.248C27.7256 212.753 27.5641 213.257 27.4219 213.783C36.7476 215.296 46.1131 218.385 55.5389 222.926L77.7215 163.019C77.3576 162.898 77.1563 162.534 77.2575 162.151C86.441 126.053 83.2738 138.504 83.9584 135.811C84.1018 135.236 84.808 135.066 85.1901 135.448C85.2395 135.243 87.9993 123.548 88.561 120.33C89.9939 111.994 89.8734 103.415 82.6869 97.5822L82.6893 97.581ZM56.2065 185.162L50.8977 194.871C50.5795 195.416 49.8118 195.343 49.5852 194.891L43.9944 185.546C43.6991 185.082 44.0173 184.442 44.6199 184.395L55.4991 184.033C56.1571 184.076 56.4644 184.646 56.2053 185.163L56.2065 185.162ZM65.431 158.821C65.3431 159.434 64.6947 159.706 64.2198 159.366L55.44 152.947C54.9327 152.578 55.0966 151.849 55.5606 151.655L65.431 147.054C65.9661 146.786 66.5856 147.23 66.5012 147.82L65.431 158.821ZM67.792 124.467C67.3521 124.467 67.0821 124.176 67.0255 123.782L66.036 112.942C65.9481 112.372 66.6073 111.956 67.0858 112.195C67.2906 112.284 77.6998 116.836 77.0563 116.555C77.5938 116.761 77.695 117.486 77.1973 117.847L74.5929 119.725C68.0342 124.395 68.268 124.469 67.7908 124.469L67.792 124.467ZM67.651 114.093L68.4175 122.328C68.6199 122.182 75.6908 117.078 75.24 117.403C75.0352 117.313 67.1532 113.875 67.651 114.092V114.093ZM64.0378 157.369L64.8658 148.993L57.3575 152.484L64.039 157.369H64.0378ZM57.3563 152.484L64.0378 157.369L64.8658 148.993L57.3575 152.484H57.3563ZM67.651 114.093L68.4175 122.328C68.6199 122.182 75.6908 117.078 75.24 117.403C75.24 117.403 67.1532 113.875 67.651 114.092V114.093ZM67.651 114.093L68.4175 122.328C68.6199 122.182 75.6908 117.078 75.24 117.403C75.24 117.403 67.1532 113.875 67.651 114.092V114.093ZM57.3563 152.484L64.0378 157.369L64.8658 148.993L57.3575 152.484H57.3563ZM57.3563 152.484L64.0378 157.369L64.8658 148.993L57.3575 152.484H57.3563ZM67.651 114.093L68.4175 122.328C68.6199 122.182 75.6908 117.078 75.24 117.403C75.24 117.403 67.1532 113.875 67.651 114.092V114.093ZM67.651 114.093L68.4175 122.328C68.6199 122.182 75.6908 117.078 75.24 117.403C75.24 117.403 67.1532 113.875 67.651 114.092V114.093ZM57.3563 152.484L64.0378 157.369L64.8658 148.993L57.3575 152.484H57.3563ZM57.3563 152.484L64.0378 157.369L64.8658 148.993L57.3575 152.484H57.3563ZM67.651 114.093L68.4175 122.328C68.6199 122.182 75.6908 117.078 75.24 117.403C75.24 117.403 67.1532 113.875 67.651 114.092V114.093ZM67.651 114.093L68.4175 122.328C68.6199 122.182 75.6908 117.078 75.24 117.403C75.24 117.403 67.1532 113.875 67.651 114.092V114.093ZM57.3563 152.484L64.0378 157.369L64.8658 148.993L57.3575 152.484H57.3563ZM57.3563 152.484L64.0378 157.369L64.8658 148.993L57.3575 152.484H57.3563ZM67.651 114.093L68.4175 122.328C68.6199 122.182 75.6908 117.078 75.24 117.403C75.24 117.403 67.1532 113.875 67.651 114.092V114.093ZM67.651 114.093L68.4175 122.328C68.6199 122.182 75.6908 117.078 75.24 117.403C75.24 117.403 67.1532 113.875 67.651 114.092V114.093ZM57.3563 152.484L64.0378 157.369L64.8658 148.993L57.3575 152.484H57.3563ZM57.3563 152.484L64.0378 157.369L64.8658 148.993L57.3575 152.484H57.3563ZM67.651 114.093L68.4175 122.328C68.6199 122.182 75.6908 117.078 75.24 117.403C75.24 117.403 67.1532 113.875 67.651 114.092V114.093ZM67.651 114.093L68.4175 122.328C68.6199 122.182 75.6908 117.078 75.24 117.403C75.24 117.403 67.1532 113.875 67.651 114.092V114.093ZM57.3563 152.484L64.0378 157.369L64.8658 148.993L57.3575 152.484H57.3563ZM57.3563 152.484L64.0378 157.369L64.8658 148.993L57.3575 152.484H57.3563ZM67.651 114.093L68.4175 122.328C68.6199 122.182 75.6908 117.078 75.24 117.403C75.24 117.403 67.1532 113.875 67.651 114.092V114.093ZM67.651 114.093L68.4175 122.328C68.6199 122.182 75.6908 117.078 75.24 117.403C75.24 117.403 67.1532 113.875 67.651 114.092V114.093ZM57.3563 152.484L64.0378 157.369L64.8658 148.993L57.3575 152.484H57.3563ZM57.3563 152.484L64.0378 157.369L64.8658 148.993L57.3575 152.484H57.3563ZM67.651 114.093L68.4175 122.328C68.6199 122.182 75.6908 117.078 75.24 117.403C75.24 117.403 67.1532 113.875 67.651 114.092V114.093ZM67.651 114.093L68.4175 122.328C68.6199 122.182 75.6908 117.078 75.24 117.403C75.24 117.403 67.1532 113.875 67.651 114.092V114.093ZM57.3563 152.484L64.0378 157.369L64.8658 148.993L57.3575 152.484H57.3563ZM57.3563 152.484L64.0378 157.369L64.8658 148.993L57.3575 152.484H57.3563ZM57.3563 152.484L64.0378 157.369L64.8658 148.993L57.3575 152.484H57.3563Z" fill="#023ECE"/>
<path d="M254.673 180.226C251.755 179.203 249.713 176.104 249.921 173.019C250.129 169.933 252.572 167.139 255.602 166.518C258.214 165.988 260.738 166.943 263.163 167.235C265.318 167.493 267.949 166.902 268.61 164.986C269.269 163.076 267.944 161.067 264.55 152.844C263.312 149.896 266.637 147.133 269.311 148.882C273.205 151.434 275.958 153.467 278.895 154.152C281.401 154.738 283.909 154.144 285.297 152.647C288.625 149.051 285.334 143.006 290.362 132.057C290.861 130.966 291.912 130.283 293.1 130.274H293.122C294.276 130.274 295.302 130.925 295.801 131.975C299.846 140.496 302.532 149.542 303.79 158.863C303.846 159.277 303.554 159.658 303.139 159.715C302.73 159.775 302.343 159.48 302.287 159.066C301.053 149.9 298.41 141.004 294.432 132.625C294.184 132.1 293.694 131.789 293.121 131.789H293.109C292.506 131.793 291.993 132.129 291.737 132.688C286.803 143.433 290.284 149.487 286.407 153.677C284.279 155.97 280.954 156.188 278.55 155.627C275.296 154.869 272.414 152.728 268.479 150.149C267.056 149.219 265.284 150.687 265.945 152.259L269.278 160.197C269.844 161.542 270.698 163.576 270.039 165.482C269.1 168.205 265.815 169.081 262.98 168.739C260.544 168.449 258.14 167.548 255.903 168.002C253.518 168.491 251.595 170.693 251.428 173.122C251.265 175.553 252.875 177.993 255.172 178.799C255.566 178.937 255.774 179.369 255.635 179.764C255.498 180.155 255.072 180.367 254.67 180.228L254.673 180.226Z" fill="#232526"/>
<path d="M82.7263 206.107C82.3912 206.107 82.0851 205.884 81.9947 205.546C81.8863 205.142 82.1273 204.726 82.5311 204.619L159.494 184.058C159.898 183.952 160.313 184.19 160.421 184.595C160.529 184.999 160.288 185.414 159.885 185.522L82.9215 206.082C82.8564 206.1 82.7914 206.107 82.7263 206.107Z" fill="#232526"/>
<path d="M208.652 84.9732C207.951 84.4249 207.552 83.6909 207.166 82.9798C206.284 81.3528 205.962 80.9599 203.289 80.684L203.056 80.6599C201.751 80.5213 200.135 80.1995 199.229 78.9328C198.53 77.9578 199.188 76.7828 199.118 76.1597L197.421 61.6613C197.322 60.837 197.16 59.4546 197.938 58.4242C199.414 56.4645 201.826 57.7288 203.033 59.7872L205.318 47.9571C205.784 45.4624 206.381 42.9737 208.934 42.952C209.135 43.0629 211.596 42.5832 211.685 46.4205C212.087 44.2162 212.283 42.3952 213.32 40.9875C215.084 38.5928 218.496 38.8218 219.324 41.9553C219.559 42.8459 219.519 43.7378 219.458 44.5718C219.379 45.7155 219.268 46.7857 219.13 47.792C220.59 45.3804 223.623 46.1313 224.211 48.7634C224.546 50.2578 224.221 50.9315 221.832 60.3802C221.255 62.6664 220.208 65.4516 220.656 65.6565C221.108 65.1431 220.971 65.5203 224.03 54.67C225.234 50.4591 228.874 51.1858 229.256 54.9207C229.685 59.1376 228.478 61.6336 221.989 80.9756C222.624 81.2432 222.597 82.1555 221.949 82.3869L214.48 85.0407C212.507 85.7421 210.302 86.264 208.653 84.9732H208.652ZM199.676 58.9617C199.608 58.9701 199.403 58.993 199.148 59.3341C198.767 59.8391 198.828 60.673 198.924 61.4853C200.6 76.9563 200.825 75.6487 200.512 77.2118C200.449 77.53 200.37 77.9265 200.459 78.053C201.017 78.8292 202.225 79.0497 203.219 79.1534L203.448 79.1775C206.606 79.5029 207.361 80.1621 208.5 82.2579C208.825 82.8581 209.133 83.4245 209.586 83.7801C211.294 85.1142 214.315 83.3896 220.255 81.3818C227.073 61.0587 228.137 58.8918 227.749 55.0738C227.66 54.2157 227.253 53.325 226.722 53.3202H226.716C225.655 53.3202 225.427 55.498 222.871 64.2681C222.675 65.0093 222.436 65.9313 221.85 66.5821C221.369 67.1099 220.631 67.2992 220.042 67.0388C218.562 66.382 219.106 64.4332 219.341 63.6017C219.664 62.4302 220.054 61.2311 220.365 60.0078C222.604 51.1412 222.978 50.1891 222.732 49.0924C222.596 48.4802 222.09 47.8402 221.498 47.8402C221.485 47.8402 221.47 47.8402 221.458 47.8402C220.054 47.9077 219.772 50.582 219.576 51.8728C219.076 54.8966 218.456 57.9843 217.782 60.8526C217.553 61.7951 217.45 63.8849 216.312 64.5598C215.336 65.1431 214.076 64.385 213.931 63.0738C213.81 61.9831 214.299 61.3841 216.973 50.9846C217.477 49.0105 218.285 43.9728 217.86 42.3386C217.692 41.7082 217.326 41.2081 216.876 41.002C216.079 40.6417 215.067 41.1671 214.537 41.8854C213.667 43.0665 213.811 43.1774 210.557 61.0647C210.471 61.5275 210.527 62.5592 210.037 63.1786C209.22 64.2006 207.677 63.768 207.391 62.5266C207.279 62.0373 207.373 61.5878 207.448 61.2262C207.423 61.0226 208.789 55.2003 209.287 52.0343C209.879 48.2464 210.298 47.4811 210.144 46.0686C210.041 45.1069 209.926 44.4645 208.957 44.4645H208.944C208.525 44.4681 208.113 44.6368 207.923 44.8851C207.271 45.7263 207.024 47.0569 206.806 48.2319C206.765 48.4464 203.866 63.4522 204.051 62.4977C203.9 63.2738 202.836 63.3028 202.592 62.6038C202.211 61.5107 201.78 60.2705 200.901 59.5402C200.602 59.2907 200.065 58.9087 199.677 58.9617H199.676ZM217.485 54.9822C215.57 62.059 215.149 63.0762 215.605 63.2413C215.932 62.9388 216.234 60.8358 216.308 60.5079C216.748 58.6363 217.114 56.8996 217.485 54.9822ZM209.045 60.931C208.98 61.2009 208.812 61.9518 208.865 62.1904C208.954 62.0891 208.994 61.3443 209.045 60.931Z" fill="black"/>
<path d="M207.988 72.4261C207.16 68.8612 205.383 65.5819 202.851 62.9425C202.562 62.6412 202.572 62.1616 202.873 61.8723C203.177 61.5831 203.654 61.5915 203.943 61.894C206.666 64.731 208.574 68.2538 209.463 72.0839C209.558 72.4912 209.304 72.8974 208.898 72.9926C208.507 73.0866 208.086 72.8455 207.989 72.4273L207.988 72.4261Z" fill="black"/>
<path d="M210.128 68.0084C209.812 67.7336 209.778 67.2551 210.054 66.9406C210.327 66.6236 210.811 66.5935 211.121 66.8671C213.865 69.2569 217.897 70.1657 221.399 69.1846C221.811 69.0701 222.218 69.3064 222.333 69.7077C222.445 70.1102 222.211 70.5284 221.808 70.6405C217.854 71.7529 213.261 70.7405 210.128 68.0084Z" fill="black"/>
<path d="M157.828 101.578L165.761 99.1758L163.762 107.351L157.828 101.578Z" fill="#023ECE"/>
<path d="M209.642 96.0669L203.506 101.618L211.337 104.303L209.642 96.0681V96.0669ZM209.642 96.0669L203.506 101.618L211.337 104.303L209.642 96.0681V96.0669ZM199.328 73.5215C199.328 73.5215 198.5 76.3272 197.309 80.2633C197.572 79.9403 198.055 79.9198 198.378 80.203C203.343 84.6237 210.025 86.9846 216.685 86.6423C217.149 86.6219 217.452 86.9448 217.492 87.3691C217.492 87.7728 217.19 88.1356 216.765 88.1561C209.374 88.4923 202.491 85.8927 197.368 81.313C197.206 81.1925 197.126 81.031 197.126 80.8695C194.805 88.6201 191.353 100.186 190.283 103.698C191.046 107.821 191.942 112.026 191.917 115.789C191.896 116.213 191.573 116.555 191.15 116.555C190.726 116.535 190.384 116.192 190.403 115.789C190.428 112.073 189.556 108.095 188.728 103.638C183.338 99.662 181.825 98.3399 177 94.9581C173.085 92.2127 163.92 86.7834 163.436 86.5411C158.653 84.0187 147.389 74.7532 132.352 77.4781C130.333 77.8421 127.265 78.2048 125.368 78.9111C124.077 79.3413 125.888 85.4131 126.034 86.1771C126.074 86.382 130.62 95.9562 131 97.5C131.6 99.9393 131.025 98.8611 131.5 100C132.448 102.039 131.08 109.147 132.292 111.045C132.473 111.327 137.58 114.295 144.2 118.15C144.2 118.129 144.179 118.089 144.179 118.048C139.838 92.0259 133.567 90.4158 135.5 89.1648C135.864 88.943 136.328 89.0636 136.549 89.407C142.091 98.3013 144.237 109.894 145.915 119.139C156.452 125.235 169.874 132.965 173.628 135.549C179.56 139.632 184.343 143.06 191.531 143.804C201.441 144.813 211.473 136.901 213.29 127.253C213.31 127.233 222.392 79.3353 222.392 79.3353C213.713 79.7185 205.74 78.4266 199.322 73.5227L199.328 73.5215ZM164.913 109.006C164.783 109.569 164.046 109.773 163.642 109.369L155.871 101.759C155.458 101.388 155.578 100.671 156.173 100.488L166.589 97.3384C167.148 97.1793 167.69 97.6722 167.558 98.2471L164.913 109.006ZM202.416 130.482C193.114 137.13 193.49 137.102 193.01 137.102C192.53 137.102 192.269 136.771 192.243 136.417L191.254 125.577C191.166 125.003 191.828 124.592 192.304 124.83L202.275 129.19C202.795 129.39 202.926 130.112 202.416 130.482ZM212.347 106.221C212.115 106.221 212.471 106.29 201.811 102.648C201.235 102.427 201.12 101.743 201.549 101.356L209.602 94.0494C210.053 93.6445 210.77 93.9048 210.854 94.4531L213.094 105.312C213.174 105.829 212.79 106.221 212.347 106.221ZM203.506 101.618L211.337 104.303L209.642 96.0681L203.506 101.619V101.618ZM193.635 134.963L200.458 130.037L192.869 126.727L193.635 134.962V134.963ZM209.642 96.0681L203.506 101.619L211.337 104.304L209.642 96.0693V96.0681ZM209.642 96.0681L203.506 101.619L211.337 104.304L209.642 96.0693V96.0681Z" fill="#023ECE"/>
<path d="M67 101.5L143 79L149 87L184.5 105.5V119H194L199.5 88L218 93L208 125L199.5 141L178.5 132.5L133 85L153.5 181L88 200L92 129.5L88.5 114.25L55 209.5L33 203L67 101.5Z" fill="#023ECE"/>
</g>
<defs>
<clipPath id="clip0_409_1750">
<rect width="518.23" height="394.35" fill="white"/>
</clipPath>
</defs>
</svg>
