<svg width="158" height="51" viewBox="0 0 158 51" fill="none" xmlns="http://www.w3.org/2000/svg">
<path d="M10.112 50.6624C9.70507 50.6624 9.30803 50.6573 8.90432 50.6483C8.06804 50.6375 7.23371 50.5653 6.40817 50.4324C5.6384 50.3008 4.8927 50.0562 4.19568 49.7065C3.50502 49.3598 2.87509 48.9052 2.33001 48.3601C1.777 47.8214 1.31659 47.1965 0.967022 46.5104C0.61364 45.8198 0.369078 45.0795 0.241856 44.3154C0.104512 43.4944 0.0302236 42.6642 0.0196316 41.832C0.0110845 41.5526 0 40.6227 0 40.6227V10.0257C0 10.0257 0.0117522 9.10994 0.0196316 8.8408C0.0298073 8.00995 0.103694 7.18107 0.240654 6.36133C0.368127 5.59513 0.612896 4.85274 0.966487 4.15987C1.31471 3.47417 1.77251 2.84888 2.32213 2.30821C2.87117 1.76242 3.50315 1.30543 4.19501 0.953908C4.89045 0.605428 5.63475 0.362584 6.40296 0.23351C7.23123 0.0992323 8.06846 0.0266672 8.90766 0.0164238L10.1127 0H147.358L148.578 0.0168212C149.409 0.0266196 150.239 0.0986119 151.06 0.232186C151.836 0.362915 152.588 0.607494 153.291 0.957882C154.677 1.66627 155.805 2.78703 156.516 4.16305C156.864 4.85117 157.105 5.58754 157.231 6.34716C157.37 7.1736 157.447 8.00898 157.463 8.84663C157.467 9.22173 157.467 9.62465 157.467 10.0257C157.478 10.5224 157.478 10.9951 157.478 11.4718V39.1918C157.478 39.673 157.478 40.1426 157.467 40.6159C157.467 41.0467 157.467 41.4412 157.462 41.8473C157.446 42.6701 157.37 43.4906 157.233 44.3023C157.109 45.0719 156.866 45.8179 156.512 46.5142C156.16 47.1929 155.703 47.8123 155.156 48.3496C154.61 48.8976 153.979 49.3549 153.287 49.7039C152.586 50.0562 151.835 50.3017 151.06 50.4321C150.234 50.5658 149.4 50.638 148.563 50.6481C148.164 50.6574 147.764 50.6621 147.365 50.6623L145.917 50.665L10.112 50.6624Z" fill="black"/>
<path d="M32.0819 25.8894C32.0963 24.784 32.3924 23.7 32.9426 22.7385C33.4929 21.777 34.2794 20.9691 35.229 20.3901C34.6257 19.5356 33.8299 18.8324 32.9046 18.3363C31.9794 17.8402 30.9502 17.5649 29.899 17.5322C27.6563 17.2987 25.4823 18.8631 24.3394 18.8631C23.1745 18.8631 21.4151 17.5554 19.5204 17.5941C18.2949 17.6333 17.1005 17.9867 16.0536 18.6199C15.0067 19.2531 14.1431 20.1444 13.5468 21.2071C10.964 25.6422 12.8905 32.16 15.3648 35.745C16.6026 37.5005 18.0492 39.4612 19.9423 39.3917C21.7946 39.3156 22.4864 38.2202 24.7225 38.2202C26.9378 38.2202 27.5868 39.3917 29.5182 39.3475C31.5059 39.3156 32.7582 37.5843 33.9527 35.8122C34.8421 34.5614 35.5264 33.179 35.9805 31.7162C34.8257 31.2318 33.8402 30.4209 33.1469 29.3848C32.4537 28.3486 32.0833 27.133 32.0819 25.8894ZM28.4339 15.1745C29.5177 13.8841 30.0516 12.2256 29.9223 10.5511C28.2666 10.7236 26.7371 11.5085 25.6386 12.7493C25.1016 13.3555 24.6903 14.0607 24.4282 14.8246C24.1661 15.5886 24.0584 16.3962 24.1113 17.2015C24.9394 17.2099 25.7588 17.0319 26.5075 16.6808C27.2563 16.3297 27.915 15.8146 28.4339 15.1745ZM55.4975 34.9477H49.1761L47.6581 39.3933H44.9804L50.968 22.9456H53.7498L59.7373 39.3933H57.0142L55.4975 34.9477ZM49.8307 32.8962H54.8415L52.3714 25.6814H52.3022L49.8307 32.8962ZM72.6683 33.3982C72.6683 37.1246 70.6572 39.5187 67.6224 39.5187C66.8536 39.5586 66.0891 39.383 65.4162 39.012C64.7434 38.6409 64.1895 38.0895 63.818 37.4207H63.7606V43.3603H61.2788V27.4016H63.6812V29.3962H63.7268C64.1154 28.7307 64.6786 28.1821 65.3565 27.8088C66.0345 27.4355 66.8017 27.2514 67.5767 27.2762C70.6454 27.2762 72.6683 29.682 72.6683 33.3981V33.3982ZM70.1172 33.3982C70.1172 30.9704 68.8523 29.3742 66.9221 29.3742C65.0257 29.3742 63.7503 31.0039 63.7503 33.3981C63.7503 35.8144 65.0257 37.4325 66.9221 37.4325C68.8523 37.4325 70.1172 35.848 70.1172 33.3981V33.3982ZM85.9761 33.3982C85.9761 37.1246 83.9651 39.5187 80.9302 39.5187C80.1615 39.5586 79.3969 39.383 78.7241 39.0119C78.0513 38.6409 77.4975 38.0894 77.126 37.4207H77.0686V43.3603H74.5867V27.4016H76.989V29.3962H77.0346C77.4232 28.7307 77.9864 28.1821 78.6643 27.8088C79.3422 27.4355 80.1095 27.2514 80.8846 27.2762C83.9534 27.2762 85.9761 29.682 85.9761 33.3981V33.3982ZM83.4252 33.3982C83.4252 30.9704 82.1601 29.3742 80.2299 29.3742C78.3335 29.3742 77.0581 31.0039 77.0581 33.3981C77.0581 35.8144 78.3335 37.4325 80.2299 37.4325C82.1601 37.4325 83.4252 35.848 83.4252 33.3981V33.3982ZM94.7716 34.8106C94.9554 36.4416 96.5531 37.5126 98.7362 37.5126C100.828 37.5126 102.333 36.4416 102.333 34.9709C102.333 33.6942 101.425 32.9298 99.2763 32.406L97.1268 31.8925C94.0816 31.163 92.6679 29.7505 92.6679 27.4585C92.6679 24.6206 95.1615 22.6714 98.7023 22.6714C102.207 22.6714 104.609 24.6206 104.69 27.4585H102.184C102.034 25.8171 100.666 24.8263 98.667 24.8263C96.6678 24.8263 95.2997 25.8288 95.2997 27.2877C95.2997 28.4506 96.1735 29.1349 98.311 29.6586L100.138 30.1036C103.541 30.9016 104.955 32.2573 104.955 34.663C104.955 37.7402 102.483 39.6675 98.5523 39.6675C94.8744 39.6675 92.3913 37.7854 92.2309 34.8105L94.7716 34.8106ZM110.311 24.5639V27.4016H112.61V29.3509H110.311V35.9618C110.311 36.9888 110.771 37.4673 111.782 37.4673C112.055 37.4626 112.327 37.4436 112.598 37.4104V39.3481C112.144 39.4323 111.682 39.4704 111.22 39.4618C108.772 39.4618 107.817 38.55 107.817 36.2243V29.3509H106.059V27.4016H107.817V24.5639H110.311ZM113.942 33.3982C113.942 29.6251 116.182 27.2542 119.676 27.2542C123.182 27.2542 125.412 29.6251 125.412 33.3982C125.412 37.1815 123.194 39.542 119.676 39.542C116.16 39.542 113.942 37.1815 113.942 33.3982ZM122.883 33.3982C122.883 30.81 121.687 29.2823 119.676 29.2823C117.665 29.2823 116.47 30.8215 116.47 33.3982C116.47 35.9967 117.665 37.5126 119.676 37.5126C121.687 37.5126 122.883 35.9967 122.883 33.3982ZM127.458 27.4016H129.825V29.4427H129.883C130.043 28.8052 130.419 28.2419 130.949 27.8473C131.479 27.4528 132.129 27.2511 132.791 27.2762C133.077 27.2752 133.362 27.306 133.641 27.368V29.6704C133.28 29.5609 132.904 29.5107 132.526 29.5216C132.166 29.5071 131.806 29.5702 131.473 29.7064C131.139 29.8427 130.839 30.049 130.593 30.3111C130.348 30.5732 130.162 30.8849 130.049 31.2249C129.936 31.5649 129.899 31.925 129.94 32.2806V39.3933H127.458V27.4016ZM145.084 35.8712C144.75 38.0481 142.613 39.542 139.878 39.542C136.361 39.542 134.177 37.2048 134.177 33.455C134.177 29.6937 136.372 27.2542 139.774 27.2542C143.119 27.2542 145.222 29.5333 145.222 33.1692V34.0125H136.683V34.1612C136.643 34.6026 136.699 35.0472 136.846 35.4655C136.993 35.8838 137.228 36.2663 137.536 36.5876C137.844 36.9089 138.217 37.1615 138.63 37.3288C139.044 37.4961 139.489 37.5742 139.935 37.5579C140.522 37.6125 141.11 37.4777 141.613 37.1738C142.117 36.8699 142.507 36.413 142.728 35.8712H145.084ZM136.694 32.2922H142.739C142.762 31.8954 142.701 31.4983 142.561 31.1258C142.421 30.7534 142.205 30.4136 141.927 30.1278C141.648 29.842 141.313 29.6164 140.943 29.4651C140.572 29.3138 140.174 29.2401 139.774 29.2487C139.369 29.2463 138.969 29.3233 138.595 29.4753C138.221 29.6273 137.881 29.8512 137.595 30.1342C137.308 30.4171 137.081 30.7535 136.927 31.1239C136.772 31.4943 136.693 31.8914 136.694 32.2922ZM49.5197 10.5653C50.04 10.5283 50.5622 10.6062 51.0484 10.7936C51.5347 10.9809 51.973 11.2729 52.3317 11.6486C52.6904 12.0243 52.9605 12.4742 53.1227 12.966C53.2848 13.4578 53.3348 13.9791 53.2692 14.4923C53.2692 17.0171 51.8933 18.4685 49.5197 18.4685H46.6413V10.5652L49.5197 10.5653ZM47.8791 17.3508H49.3815C49.7533 17.3728 50.1254 17.3123 50.4706 17.1737C50.8159 17.0352 51.1256 16.822 51.3774 16.5497C51.6291 16.2774 51.8164 15.9529 51.9257 15.5998C52.035 15.2467 52.0636 14.8738 52.0093 14.5084C52.0597 14.1444 52.0282 13.7738 51.9172 13.4233C51.8062 13.0727 51.6184 12.7509 51.3673 12.4808C51.1161 12.2107 50.8079 11.999 50.4646 11.8609C50.1212 11.7228 49.7514 11.6618 49.3815 11.6821H47.8791V17.3508ZM54.6673 15.4837C54.6295 15.0918 54.6747 14.6963 54.8 14.3227C54.9253 13.9491 55.128 13.6056 55.395 13.3142C55.662 13.0229 55.9875 12.7901 56.3506 12.6308C56.7136 12.4715 57.1062 12.3892 57.5032 12.3892C57.9002 12.3892 58.2928 12.4715 58.6559 12.6308C59.0189 12.7901 59.3444 13.0229 59.6114 13.3142C59.8784 13.6056 60.0811 13.9491 60.2064 14.3227C60.3317 14.6963 60.3769 15.0918 60.3391 15.4837C60.3777 15.8761 60.3332 16.2722 60.2082 16.6465C60.0833 17.0208 59.8808 17.365 59.6137 17.6571C59.3466 17.9491 59.0208 18.1824 58.6574 18.3421C58.2939 18.5018 57.9008 18.5843 57.5032 18.5843C57.1057 18.5843 56.7125 18.5018 56.3491 18.3421C55.9856 18.1824 55.6599 17.9491 55.3928 17.6571C55.1257 17.365 54.9231 17.0208 54.7982 16.6465C54.6733 16.2722 54.6287 15.8761 54.6673 15.4837ZM59.1185 15.4837C59.1185 14.1909 58.5329 13.4349 57.5052 13.4349C56.4736 13.4349 55.8933 14.1909 55.8933 15.4837C55.8933 16.7869 56.4737 17.5371 57.5052 17.5371C58.5329 17.5371 59.1185 16.7817 59.1185 15.4837ZM67.8787 18.4684H66.6474L65.4046 14.0758H65.3107L64.0731 18.4684H62.8537L61.1961 12.5041H62.3998L63.4771 17.0551H63.5658L64.8022 12.5041H65.9407L67.177 17.0551H67.2709L68.3429 12.5041H69.5298L67.8787 18.4684ZM70.9239 12.5043H72.0664V13.4517H72.155C72.3055 13.1114 72.5592 12.8261 72.8809 12.6356C73.2026 12.4451 73.5762 12.3589 73.9497 12.389C74.2423 12.3672 74.5361 12.411 74.8093 12.5171C75.0825 12.6232 75.3282 12.7889 75.5281 13.0019C75.728 13.2149 75.877 13.4698 75.9641 13.7477C76.0512 14.0257 76.0741 14.3194 76.0311 14.6073V18.4682H74.8443V14.9029C74.8443 13.9445 74.4243 13.4678 73.5466 13.4678C73.348 13.4587 73.1497 13.4922 72.9653 13.5662C72.7809 13.6401 72.6149 13.7527 72.4785 13.8963C72.3421 14.0398 72.2386 14.2109 72.1751 14.3979C72.1117 14.5848 72.0897 14.7831 72.1107 14.9792V18.4684H70.9239V12.5043ZM77.9222 10.1759H79.1089V18.4684H77.9222V10.1759ZM80.7587 15.4837C80.7209 15.0917 80.7661 14.6962 80.8915 14.3226C81.0168 13.9489 81.2195 13.6054 81.4865 13.314C81.7536 13.0225 82.0791 12.7897 82.4422 12.6304C82.8053 12.4711 83.198 12.3887 83.595 12.3887C83.9921 12.3887 84.3848 12.4711 84.7479 12.6304C85.111 12.7897 85.4365 13.0225 85.7035 13.314C85.9706 13.6054 86.1733 13.9489 86.2986 14.3226C86.424 14.6962 86.4692 15.0917 86.4313 15.4837C86.4698 15.8761 86.425 16.2721 86.3 16.6462C86.1749 17.0204 85.9723 17.3645 85.7052 17.6564C85.4381 17.9483 85.1124 18.1816 84.749 18.3412C84.3856 18.5008 83.9925 18.5833 83.595 18.5833C83.1976 18.5833 82.8045 18.5008 82.4411 18.3412C82.0777 18.1816 81.752 17.9483 81.4849 17.6564C81.2177 17.3645 81.0152 17.0204 80.8901 16.6462C80.7651 16.2721 80.7203 15.8761 80.7587 15.4837ZM85.2099 15.4837C85.2099 14.1909 84.6243 13.4349 83.5966 13.4349C82.565 13.4349 81.9847 14.1909 81.9847 15.4837C81.9847 16.7869 82.5651 17.5371 83.5966 17.5371C84.6243 17.5371 85.2099 16.7817 85.2099 15.4837ZM87.6807 16.7818C87.6807 15.7081 88.4866 15.0892 89.9173 15.0012L91.5462 14.9081V14.3933C91.5462 13.7633 91.1263 13.4077 90.3152 13.4077C89.6526 13.4077 89.1935 13.6489 89.0618 14.0706H87.9128C88.034 13.0461 89.0057 12.3892 90.3699 12.3892C91.8776 12.3892 92.7279 13.1335 92.7279 14.3933V18.4684H91.5854V17.6302H91.4915C91.3009 17.9309 91.0333 18.176 90.7159 18.3405C90.3986 18.505 90.0429 18.583 89.6852 18.5667C89.4328 18.5927 89.1776 18.566 88.9362 18.4882C88.6948 18.4105 88.4725 18.2834 88.2837 18.1153C88.0948 17.9471 87.9436 17.7416 87.8397 17.5119C87.7359 17.2822 87.6817 17.0335 87.6807 16.7818ZM91.5462 16.2721V15.7734L90.0777 15.8665C89.2496 15.9215 88.8739 16.201 88.8739 16.7267C88.8739 17.2635 89.3435 17.5759 89.9891 17.5759C90.1782 17.5949 90.3693 17.576 90.551 17.5202C90.7326 17.4645 90.9011 17.3731 91.0463 17.2514C91.1916 17.1298 91.3108 16.9804 91.3966 16.8121C91.4825 16.6439 91.5334 16.4602 91.5462 16.2721ZM94.2877 15.4837C94.2877 13.5991 95.2645 12.4053 96.7839 12.4053C97.1597 12.3881 97.5327 12.4774 97.8593 12.6627C98.1858 12.848 98.4525 13.1216 98.628 13.4517H98.7167V10.1758H99.9034V18.4682H98.7662V17.5259H98.6724C98.4833 17.8537 98.2074 18.1239 97.8745 18.3074C97.5416 18.4908 97.1645 18.5804 96.784 18.5665C95.2541 18.5665 94.2877 17.3726 94.2877 15.4836V15.4837ZM95.5137 15.4837C95.5137 16.7486 96.1149 17.51 97.1203 17.51C98.1205 17.51 98.7389 16.7378 98.7389 15.4888C98.7389 14.2459 98.1141 13.4627 97.1203 13.4627C96.1213 13.4627 95.5137 14.229 95.5137 15.4837ZM104.814 15.4837C104.776 15.0918 104.821 14.6963 104.946 14.3227C105.072 13.9491 105.274 13.6056 105.541 13.3142C105.808 13.0229 106.134 12.7901 106.497 12.6308C106.86 12.4715 107.253 12.3892 107.65 12.3892C108.047 12.3892 108.439 12.4715 108.802 12.6308C109.165 12.7901 109.491 13.0229 109.758 13.3142C110.025 13.6056 110.227 13.9491 110.353 14.3227C110.478 14.6963 110.523 15.0918 110.485 15.4837C110.524 15.8761 110.48 16.2722 110.355 16.6465C110.23 17.0208 110.027 17.365 109.76 17.6571C109.493 17.9491 109.167 18.1824 108.804 18.3421C108.44 18.5018 108.047 18.5843 107.65 18.5843C107.252 18.5843 106.859 18.5018 106.495 18.3421C106.132 18.1824 105.806 17.9491 105.539 17.6571C105.272 17.365 105.07 17.0208 104.945 16.6465C104.82 16.2722 104.775 15.8761 104.814 15.4837ZM109.265 15.4837C109.265 14.1909 108.679 13.4349 107.652 13.4349C106.62 13.4349 106.04 14.1909 106.04 15.4837C106.04 16.7869 106.62 17.5371 107.652 17.5371C108.679 17.5371 109.265 16.7817 109.265 15.4837ZM112.078 12.5043H113.22V13.4517H113.309C113.46 13.1114 113.713 12.8261 114.035 12.6356C114.357 12.4451 114.73 12.3589 115.104 12.389C115.396 12.3672 115.69 12.411 115.963 12.5171C116.237 12.6232 116.482 12.7889 116.682 13.0019C116.882 13.2149 117.031 13.4698 117.118 13.7477C117.205 14.0257 117.228 14.3194 117.185 14.6073V18.4682H115.998V14.9029C115.998 13.9445 115.578 13.4678 114.701 13.4678C114.502 13.4587 114.304 13.4922 114.119 13.5662C113.935 13.6401 113.769 13.7527 113.633 13.8963C113.496 14.0398 113.393 14.2109 113.329 14.3979C113.266 14.5848 113.244 14.7831 113.265 14.9792V18.4684H112.078L112.078 12.5043ZM123.891 11.0194V12.5314H125.194V13.5228H123.891V16.5896C123.891 17.2143 124.151 17.488 124.742 17.488C124.893 17.4875 125.044 17.4783 125.194 17.4607V18.4412C124.981 18.479 124.765 18.4991 124.549 18.5014C123.229 18.5014 122.703 18.0408 122.703 16.891V13.5228H121.749V12.5313H122.703V11.0195L123.891 11.0194ZM126.815 10.1759H127.992V13.4627H128.086C128.243 13.1192 128.504 12.8323 128.832 12.6411C129.16 12.4499 129.54 12.3637 129.919 12.3942C130.21 12.3785 130.501 12.4267 130.771 12.5354C131.042 12.644 131.284 12.8105 131.482 13.0229C131.68 13.2352 131.828 13.4883 131.916 13.764C132.004 14.0397 132.029 14.3312 131.99 14.6178V18.4684H130.802V14.9081C130.802 13.9554 130.355 13.473 129.516 13.473C129.312 13.4564 129.107 13.4842 128.915 13.5545C128.723 13.6248 128.549 13.7358 128.405 13.8798C128.26 14.0239 128.15 14.1974 128.08 14.3883C128.011 14.5792 127.984 14.7829 128.002 14.9851V18.4684H126.815V10.1759ZM138.91 16.8579C138.749 17.403 138.4 17.8745 137.923 18.19C137.447 18.5054 136.874 18.6447 136.304 18.5835C135.908 18.5939 135.515 18.5186 135.151 18.3629C134.787 18.2073 134.461 17.9749 134.197 17.682C133.933 17.3891 133.736 17.0427 133.62 16.6668C133.504 16.2908 133.472 15.8944 133.527 15.5051C133.474 15.1145 133.506 14.7172 133.622 14.3401C133.737 13.9631 133.933 13.615 134.196 13.3195C134.459 13.0241 134.783 12.7881 135.146 12.6275C135.508 12.467 135.902 12.3856 136.299 12.389C137.972 12.389 138.982 13.5228 138.982 15.3957V15.8064H134.736V15.8723C134.717 16.0912 134.745 16.3115 134.817 16.5191C134.889 16.7267 135.004 16.9171 135.155 17.078C135.306 17.2388 135.489 17.3667 135.693 17.4533C135.896 17.5399 136.116 17.5834 136.337 17.581C136.621 17.6148 136.909 17.5641 137.163 17.4353C137.418 17.3066 137.628 17.1056 137.768 16.8579H138.91ZM134.736 14.9359H137.773C137.788 14.7358 137.76 14.5347 137.692 14.3457C137.624 14.1566 137.517 13.9838 137.378 13.8383C137.238 13.6928 137.07 13.5778 136.883 13.5008C136.696 13.4237 136.495 13.3863 136.293 13.3909C136.087 13.3883 135.884 13.4265 135.694 13.5033C135.503 13.58 135.331 13.6938 135.186 13.8377C135.041 13.9817 134.926 14.1531 134.849 14.3417C134.771 14.5303 134.733 14.7323 134.736 14.9359Z" fill="white"/>
</svg>
