<svg width="159" height="52" viewBox="0 0 159 52" fill="none" xmlns="http://www.w3.org/2000/svg">
<path d="M152.396 51.4139H5.80055C2.61029 51.4139 0 48.5219 0 44.9872V6.42677C0 2.89203 2.61023 0 5.80055 0H152.396C155.586 0 158.197 2.89203 158.197 6.42677V44.9871C158.197 48.5219 155.587 51.4139 152.396 51.4139Z" fill="black"/>
<path d="M57.1344 10.5677C57.1344 11.6774 56.8407 12.5611 56.2525 13.2203C55.5844 14.0041 54.7136 14.3963 53.6431 14.3963C52.6179 14.3963 51.7463 13.999 51.0295 13.2032C50.3115 12.408 49.9531 11.4219 49.9531 10.2453C49.9531 9.06823 50.3115 8.08271 51.0295 7.28684C51.7463 6.49169 52.6179 6.09375 53.6431 6.09375C54.1518 6.09375 54.6388 6.20506 55.1011 6.42704C55.5635 6.64955 55.9344 6.94492 56.2119 7.31482L55.5876 8.01378C55.1173 7.38518 54.4699 7.07112 53.6431 7.07112C52.8955 7.07112 52.249 7.36506 51.7034 7.9533C51.1576 8.54214 50.8849 9.30574 50.8849 10.2453C50.8849 11.1849 51.1576 11.9485 51.7034 12.5374C52.249 13.1256 52.8954 13.4195 53.6431 13.4195C54.4362 13.4195 55.0975 13.124 55.6269 12.5322C55.9705 12.1466 56.1692 11.6107 56.2224 10.9225H53.643V9.96798H57.0849C57.1181 10.1755 57.1343 10.3747 57.1343 10.5677" fill="white"/>
<path d="M57.1356 10.5673H57.0171C57.0162 11.6517 56.7331 12.494 56.1699 13.1263L56.1686 13.1273L56.1681 13.1284C55.5212 13.8852 54.6896 14.2619 53.6441 14.2635C52.6464 14.2619 51.8112 13.8811 51.1138 13.1092C50.418 12.3357 50.0739 11.3914 50.0726 10.2449C50.0739 9.09793 50.418 8.1542 51.1138 7.38124C51.8112 6.60877 52.6464 6.22744 53.6441 6.22583C54.1376 6.22583 54.6074 6.33358 55.0555 6.54823C55.504 6.76455 55.8583 7.04801 56.1223 7.39993L56.2129 7.31445L56.1293 7.22082L55.5049 7.92026L55.5886 8.01342L55.6798 7.92865C55.1877 7.26892 54.497 6.93634 53.6442 6.93831C52.8688 6.93723 52.1867 7.24725 51.6225 7.85781C51.0529 8.47034 50.7667 9.27693 50.7676 10.2449C50.7667 11.213 51.0529 12.0196 51.6225 12.6321C52.1867 13.2427 52.8688 13.5527 53.6441 13.5516C54.4635 13.5532 55.1619 13.2422 55.7117 12.6255C56.0788 12.2136 56.2869 11.643 56.3415 10.9336L56.3525 10.7897H53.7625V10.1001H57.086V9.96761L56.9694 9.99089C57.0018 10.1917 57.0171 10.3826 57.0171 10.5673H57.2539C57.2539 10.366 57.2372 10.1591 57.2025 9.94392L57.185 9.83517H53.5258V11.0546H56.2235V10.9222L56.1057 10.9108C56.0534 11.5773 55.8638 12.0791 55.5443 12.4383C55.0356 13.0053 54.4114 13.2851 53.6442 13.2867C52.9243 13.2856 52.3134 13.0083 51.7867 12.4418C51.2652 11.8773 51.0057 11.1566 51.0044 10.2449C51.0057 9.3333 51.2652 8.61261 51.7867 8.04812C52.3134 7.48161 52.9242 7.20427 53.6442 7.2032C54.4447 7.20534 55.0491 7.50125 55.4981 8.09884L55.5814 8.20956L56.2967 7.40815L56.3734 7.32231L56.3036 7.22957C56.0127 6.84163 55.6252 6.5337 55.1489 6.30512C54.6717 6.07583 54.1682 5.96094 53.6442 5.96094C52.5918 5.95993 51.6836 6.37382 50.947 7.1929C50.2076 8.01038 49.8349 9.03793 49.8359 10.2449C49.8349 11.4514 50.2076 12.4796 50.9475 13.2975C51.6836 14.1161 52.5918 14.5295 53.6442 14.5284C54.7402 14.5295 55.6493 14.1222 56.3392 13.3115L56.2536 13.2199L56.3373 13.3136C56.9505 12.628 57.2547 11.7019 57.2539 10.5673H57.1355H57.1356ZM62.5919 7.24773H59.3573V9.76749H62.2743V10.7224H59.3573V13.2422H62.5919V14.2185H58.4455V6.27143H62.5919V7.24773Z" fill="white"/>
<path d="M62.5851 7.24937V7.11692H59.2322V9.90157H62.1491V10.5912L59.2321 10.5916V13.3763H62.4667V14.0877H58.5571V6.40552H62.4667V7.24937H62.5851V7.11692V7.24937H62.7034V6.14062H58.3203V14.3526H62.7034V13.1114H59.4689V10.8565H62.3858V9.63668H59.4689V7.38181H62.7034V7.24937H62.5851ZM66.4337 14.2202H65.5205V7.24931H63.5367V6.27301H68.4175V7.24931H66.4337V14.22" fill="white"/>
<path d="M66.4373 14.2202V14.0877H65.6424V7.11692H63.6586V6.40558H68.3027V7.11692H66.3189V14.2201H66.4373V14.0877V14.2201H66.5557V7.38181H68.5394V6.14062H63.4219V7.38175H65.4056V14.3525H66.5557V14.22H66.4373V14.2202ZM71.9525 14.2202V6.27301H72.8648V14.22H71.9525" fill="white"/>
<path d="M71.9543 14.2202H72.0727V6.40552H72.7482V14.0877H71.9543V14.2201H72.0727H71.9543V14.3526H72.985V6.14062H71.8359V14.3526H71.9543V14.2201V14.2202ZM76.915 14.2202H76.0018V7.24931H74.0181V6.27301H78.8988V7.24931H76.915V14.22" fill="white"/>
<path d="M76.9137 14.2189V14.0864H76.1188V7.11564H74.1352V6.4043H78.7791V7.11564H76.7954V14.2188H76.9137V14.0864V14.2188H77.0321V7.38054H79.0159V6.13935H73.8984V7.38048H75.8821V14.3512H77.0321V14.2188H76.9137V14.2189ZM83.603 12.5265C84.1287 13.122 84.772 13.4194 85.5327 13.4194C86.2934 13.4194 86.937 13.122 87.4619 12.5265C87.9881 11.931 88.2517 11.1698 88.2517 10.2453C88.2517 9.32086 87.9881 8.55964 87.4619 7.96413C86.937 7.36863 86.2934 7.07112 85.5327 7.07112C84.772 7.07112 84.1287 7.36863 83.603 7.96413C83.0781 8.55964 82.8146 9.3208 82.8146 10.2453C82.8146 11.1698 83.0781 11.931 83.603 12.5265ZM88.137 13.1918C87.4387 13.9952 86.5703 14.3963 85.5327 14.3963C84.4941 14.3963 83.6261 13.9952 82.9293 13.1918C82.2306 12.3893 81.8829 11.4069 81.8829 10.2453C81.8829 9.08371 82.2306 8.10116 82.9293 7.29881C83.6261 6.4952 84.4941 6.09375 85.5327 6.09375C86.5648 6.09375 87.4309 6.49734 88.1324 7.30398C88.8329 8.11057 89.1834 9.09097 89.1834 10.2453C89.1834 11.4069 88.8338 12.3893 88.137 13.1918Z" fill="white"/>
<path d="M83.6276 12.5652L83.5434 12.6584C84.0886 13.2777 84.7689 13.5923 85.5573 13.5907C86.3452 13.5923 87.0263 13.2777 87.5706 12.6584C88.1194 12.0384 88.3955 11.2365 88.3946 10.284C88.3954 9.33159 88.1194 8.52959 87.5706 7.90968C87.0263 7.29036 86.3452 6.97582 85.5573 6.97737C84.7689 6.97582 84.0886 7.29036 83.5434 7.90968C82.9959 8.52959 82.7194 9.33159 82.7208 10.284C82.7194 11.2364 82.9959 12.0384 83.5434 12.6584L83.6276 12.5652L83.7118 12.4721C83.2096 11.9003 82.9585 11.1811 82.9576 10.284C82.9585 9.38695 83.2096 8.66775 83.7117 8.09593C84.2185 7.5243 84.8238 7.24387 85.5573 7.24232C86.2901 7.24387 86.8968 7.5243 87.4023 8.09593C87.9054 8.66775 88.1565 9.38695 88.1574 10.284C88.1565 11.1811 87.9054 11.9003 87.4023 12.4721C86.8968 13.0438 86.2902 13.3242 85.5573 13.3257C84.8238 13.3242 84.2185 13.0438 83.7117 12.4721L83.6276 12.5652ZM88.1615 13.2305L88.0769 13.1385C87.3981 13.9166 86.5681 14.301 85.5573 14.3026C84.546 14.301 83.7159 13.9166 83.0384 13.1385L83.0352 13.1343L83.0384 13.1385C82.3611 12.3577 82.0268 11.4161 82.0258 10.284C82.0268 9.15194 82.3611 8.21034 83.0384 7.42959C83.7159 6.6514 84.5459 6.2665 85.5573 6.26496C86.5616 6.2665 87.3897 6.65301 88.0723 7.43525C88.752 8.21963 89.0882 9.15973 89.0896 10.284C89.0882 11.4161 88.753 12.3577 88.0769 13.1385L88.1615 13.2305L88.2467 13.3225C88.9643 12.4979 89.3272 11.475 89.3264 10.284C89.3273 9.09979 88.9629 8.07897 88.2419 7.25066C87.5206 6.41907 86.6171 5.99858 85.5573 6C84.4919 5.99858 83.5856 6.41711 82.8688 7.24548V7.24488C82.1498 8.0701 81.7881 9.09301 81.7891 10.284C81.7881 11.475 82.1498 12.4979 82.8688 13.3231L82.872 13.3268L82.8688 13.3225C83.5856 14.1509 84.4919 14.5686 85.5573 14.5675C86.6222 14.5686 87.5285 14.1509 88.2467 13.3225L88.1615 13.2305ZM90.4888 14.2576V6.31043H91.5996L95.0515 12.4927H95.0908L95.0515 10.9612V6.31043H95.9648V14.2575H95.0121L91.4007 7.77562H91.3614L91.4007 9.30766V14.2575H90.4889" fill="white"/>
<path d="M90.4894 14.2592H90.6078V6.44458H91.5344L94.9863 12.6268H95.2129L95.1704 10.9609V6.44464H95.8469V14.1267H95.0784L91.467 7.64487H91.2404L91.2829 9.3115V14.1267H90.4894V14.2592H90.6078H90.4894V14.3916H91.5196V9.30727L91.4804 7.77375L91.3619 7.77732V7.90977H91.4013V7.77732L91.3009 7.84774L94.947 14.3916H96.0837V6.17969H94.9337V10.9644L94.9729 12.498L95.0913 12.4944V12.3619H95.052V12.4944L95.1524 12.4241L91.6657 6.17969H90.3711V14.3916H90.4895V14.2592L90.4894 14.2592ZM127.613 36.7758H129.822V20.2179H127.613L127.613 36.7758ZM147.509 26.1825L144.977 33.3611H144.901L142.273 26.1824H139.894L143.835 36.216L141.588 41.7971H143.893L149.965 26.1824L147.509 26.1825ZM134.982 34.8952C134.258 34.8952 133.249 34.4905 133.249 33.4889C133.249 32.2109 134.506 31.721 135.591 31.721C136.563 31.721 137.018 31.9553 137.609 32.2752C137.437 33.8087 136.257 34.8952 134.982 34.8952ZM135.249 25.8202C133.649 25.8202 131.993 26.6086 131.308 28.3554L133.268 29.2712C133.687 28.3554 134.467 28.0568 135.287 28.0568C136.429 28.0568 137.59 28.8241 137.609 30.1875V30.3577C137.209 30.1021 136.353 29.7187 135.305 29.7187C133.192 29.7187 131.04 31.0178 131.04 33.4464C131.04 35.662 132.773 37.0893 134.715 37.0893C136.2 37.0893 137.018 36.3438 137.533 35.4705H137.609V36.7484H139.741V30.4C139.741 27.4609 137.781 25.8202 135.249 25.8202ZM121.597 28.198H118.456V22.5224H121.597C123.249 22.5224 124.186 24.0522 124.186 25.3602C124.186 26.6433 123.249 28.198 121.597 28.198ZM121.541 20.2179H116.248V36.7758H118.456V30.5026H121.541C123.989 30.5026 126.395 28.5194 126.395 25.3602C126.395 22.2011 123.989 20.2179 121.541 20.2179ZM92.6789 34.8982C91.1529 34.8982 89.8753 33.4687 89.8753 31.5052C89.8753 29.5211 91.1529 28.0698 92.6789 28.0698C94.1855 28.0698 95.3678 29.5211 95.3678 31.5052C95.3678 33.4687 94.1855 34.8982 92.679 34.8982H92.6789ZM95.2152 27.1096H95.1389C94.6432 26.4483 93.6892 25.8508 92.488 25.8508C89.9706 25.8508 87.6631 28.3259 87.6631 31.5052C87.6631 34.6634 89.9705 37.1173 92.488 37.1173C93.6892 37.1173 94.6432 36.5197 95.1389 35.8373H95.2152V36.648C95.2152 38.8035 94.1855 39.9557 92.5263 39.9557C91.1723 39.9557 90.3331 38.8671 89.9895 37.9497L88.0637 38.8459C88.6167 40.3396 90.0852 42.1748 92.5263 42.1748C95.12 42.1748 97.3132 40.4674 97.3132 36.3066V26.1922H95.2152V27.1096ZM98.8387 36.7758H101.051V20.2173H98.8387V36.7758ZM104.312 31.3133C104.255 29.1366 105.819 28.0273 106.944 28.0273C107.822 28.0273 108.565 28.5178 108.813 29.2226L104.312 31.3133ZM111.178 29.4357C110.759 28.1763 109.48 25.8508 106.867 25.8508C104.274 25.8508 102.119 28.1339 102.119 31.484C102.119 34.6422 104.255 37.1173 107.115 37.1173C109.423 37.1173 110.759 35.5382 111.312 34.6208L109.595 33.3403C109.023 34.2794 108.241 34.8982 107.115 34.8982C105.99 34.8982 105.19 34.3219 104.674 33.1913L111.406 30.0757L111.178 29.4357ZM57.5431 27.5793V29.9691H62.654C62.5014 31.3133 62.1009 32.2948 61.4906 32.9777C60.747 33.8101 59.5837 34.7275 57.543 34.7275C54.3962 34.7275 51.9362 31.8896 51.9362 28.3688C51.9362 24.848 54.3962 22.0097 57.5431 22.0097C59.2405 22.0097 60.4798 22.7567 61.3953 23.7169L62.9019 22.0314C61.6243 20.6654 59.9267 19.6199 57.5431 19.6199C53.2328 19.6199 49.6094 23.5463 49.6094 28.3688C49.6094 33.1913 53.2328 37.1173 57.5431 37.1173C59.8699 37.1173 61.6243 36.2642 62.9972 34.6634C64.4085 33.0843 64.8473 30.8652 64.8473 29.073C64.8473 28.5178 64.8093 28.0061 64.7326 27.5793H57.5431ZM70.658 34.8982C69.132 34.8982 67.816 33.4898 67.816 31.484C67.816 29.4568 69.132 28.0698 70.658 28.0698C72.1834 28.0698 73.4994 29.4568 73.4994 31.484C73.4994 33.4899 72.1834 34.8982 70.658 34.8982ZM70.658 25.8508C67.8733 25.8508 65.6037 28.2192 65.6037 31.484C65.6037 34.7275 67.8733 37.1173 70.658 37.1173C73.4421 37.1173 75.7116 34.7275 75.7116 31.484C75.7116 28.2192 73.4421 25.8508 70.658 25.8508ZM81.6827 34.8982C80.1573 34.8982 78.8411 33.4898 78.8411 31.484C78.8411 29.4568 80.1573 28.0698 81.6827 28.0698C83.2082 28.0698 84.5242 29.4568 84.5242 31.484C84.5242 33.4899 83.2082 34.8982 81.6827 34.8982H81.6827ZM81.6827 25.8508C78.8981 25.8508 76.6291 28.2192 76.6291 31.484C76.6291 34.7275 78.8981 37.1173 81.6827 37.1173C84.4669 37.1173 86.7365 34.7275 86.7365 31.484C86.7365 28.2192 84.4669 25.8508 81.6827 25.8508H81.6827Z" fill="white"/>
<path d="M13.4391 7.0823C13.0418 7.48333 12.8047 8.15223 12.8047 9.04013V8.83941V38.139V37.946C12.8047 38.766 13.0081 39.3992 13.3525 39.807L13.4405 39.9012V39.9016C13.7193 40.1831 14.0768 40.3326 14.4865 40.3321C14.8869 40.3321 15.3373 40.1893 15.8127 39.8878L32.9954 28.9642L38.8975 25.2115C39.6471 24.7351 40.068 24.1204 40.1383 23.4943V23.4918C40.068 22.8642 39.6471 22.25 38.8976 21.7735L32.9949 18.0214L15.8127 7.09778C15.3363 6.79568 14.8856 6.65234 14.4842 6.65234C14.0749 6.65234 13.7179 6.80134 13.4392 7.0823H13.4391Z" fill="#00C1FF"/>
<path d="M13.4405 39.8984L13.3525 39.8043C13.0081 39.3965 12.8047 38.7632 12.8047 37.9432V38.1362V8.84389V9.03736C12.8047 8.14946 13.0418 7.48056 13.4391 7.07953L28.1058 23.4895L13.4405 39.8984Z" fill="url(#paint0_linear_409_2296)"/>
<path d="M32.9989 28.9648L28.1094 23.493L32.9985 18.0221L38.9011 21.7742C39.6507 22.2508 40.0715 22.8649 40.1418 23.4925V23.495C40.0715 24.1211 39.6507 24.7358 38.9011 25.2122L32.999 28.9648" fill="url(#paint1_linear_409_2296)"/>
<path d="M14.4834 40.332C14.0738 40.3324 13.7162 40.1829 13.4375 39.9015L28.1028 23.4921L32.9924 28.9639L15.8096 39.8876C15.3342 40.1892 14.8838 40.332 14.4834 40.332Z" fill="url(#paint2_linear_409_2296)"/>
<path d="M28.1043 23.4922L13.4375 7.0822C13.7163 6.80123 14.0733 6.65224 14.4825 6.65224C14.8839 6.65224 15.3348 6.79552 15.8111 7.09767L32.9934 18.0213L28.1042 23.4922" fill="url(#paint3_linear_409_2296)"/>
<path d="M14.4859 40.5273C14.0762 40.5273 13.7182 40.3778 13.4394 40.0964L13.439 40.0968C13.4378 40.0956 13.4366 40.0944 13.4353 40.0933L13.359 40.0099C13.3566 40.0073 13.3544 40.0043 13.3516 40.0012L13.4395 39.9029C13.7183 40.1843 14.0757 40.3338 14.4855 40.3333C14.8858 40.3333 15.3363 40.1905 15.8116 39.8889L32.9944 28.9653L33.1045 29.0885L32.993 29.1594L15.8116 40.0824C15.3784 40.3572 14.9663 40.5004 14.5941 40.5243C14.558 40.5263 14.522 40.5273 14.4859 40.5273" fill="url(#paint4_linear_409_2296)"/>
<path d="M13.3525 39.9961C13.0081 39.5883 12.8047 38.9556 12.8047 38.1351V37.9421C12.8047 38.762 13.0081 39.3953 13.3525 39.8031L13.4405 39.8973L13.3525 39.9961Z" fill="url(#paint5_linear_409_2296)"/>
<path d="M33.1101 29.0859L33 28.9627L38.9021 25.2101C39.6517 24.7337 40.0726 24.119 40.1429 23.4929C40.1429 23.7227 40.0971 23.9524 40.0061 24.1759C39.8224 24.6266 39.4544 25.0524 38.9022 25.4036L33.1101 29.0859" fill="url(#paint6_linear_409_2296)"/>
<path d="M40.1356 23.4922C40.0652 22.8646 39.6444 22.2505 38.8949 21.7739L32.9922 18.0218L33.1023 17.8986H33.1028L38.8949 21.5809C39.7213 22.1066 40.1351 22.7993 40.1356 23.4922Z" fill="url(#paint7_linear_409_2296)"/>
<path d="M12.8047 9.03906V8.83667C12.8047 8.76369 12.8064 8.69232 12.8098 8.62303V8.61988C12.8098 8.61892 12.8098 8.61791 12.8101 8.61684V8.60904C12.8458 7.90276 13.0418 7.35184 13.3525 6.98397L13.4391 7.08117C13.0418 7.48226 12.8047 8.15116 12.8047 9.03906Z" fill="url(#paint8_linear_409_2296)"/>
<path d="M32.9939 18.0195L15.8116 7.09581C15.3353 6.79371 14.8845 6.65043 14.4831 6.65043C14.0739 6.65043 13.7168 6.79943 13.4381 7.08039L13.3516 6.98312C13.3786 6.95111 13.4067 6.92024 13.4358 6.89056C13.4367 6.88949 13.4381 6.88842 13.439 6.88741C13.7156 6.60858 14.0688 6.45959 14.4744 6.45691H14.4831C14.8845 6.45691 15.3353 6.60025 15.8116 6.90247L33.1045 17.8959L33.104 17.8963L32.9939 18.0195Z" fill="url(#paint9_linear_409_2296)"/>
<defs>
<linearGradient id="paint0_linear_409_2296" x1="22.1776" y1="8.5343" x2="8.14197" y2="21.1191" gradientUnits="userSpaceOnUse">
<stop stop-color="#00A0FF"/>
<stop offset="0.00657" stop-color="#00A1FF"/>
<stop offset="0.2601" stop-color="#00BEFF"/>
<stop offset="0.5122" stop-color="#00D2FF"/>
<stop offset="0.7604" stop-color="#00DFFF"/>
<stop offset="1" stop-color="#00E3FF"/>
</linearGradient>
<linearGradient id="paint1_linear_409_2296" x1="41.0551" y1="23.3985" x2="12.4113" y2="23.3985" gradientUnits="userSpaceOnUse">
<stop stop-color="#FFE000"/>
<stop offset="0.4087" stop-color="#FFBD00"/>
<stop offset="0.7754" stop-color="#FFA500"/>
<stop offset="1" stop-color="#FF9C00"/>
</linearGradient>
<linearGradient id="paint2_linear_409_2296" x1="30.3964" y1="28.6945" x2="6.63119" y2="49.8476" gradientUnits="userSpaceOnUse">
<stop stop-color="#FF3A44"/>
<stop offset="1" stop-color="#C31162"/>
</linearGradient>
<linearGradient id="paint3_linear_409_2296" x1="9.65746" y1="4.64934" x2="20.2509" y2="14.0929" gradientUnits="userSpaceOnUse">
<stop stop-color="#32A071"/>
<stop offset="0.0685" stop-color="#2DA771"/>
<stop offset="0.4762" stop-color="#15CF74"/>
<stop offset="0.8009" stop-color="#06E775"/>
<stop offset="1" stop-color="#00F076"/>
</linearGradient>
<linearGradient id="paint4_linear_409_2296" x1="30.3878" y1="32.4914" x2="11.34" y2="49.5704" gradientUnits="userSpaceOnUse">
<stop stop-color="#CC2E36"/>
<stop offset="1" stop-color="#9C0E4E"/>
</linearGradient>
<linearGradient id="paint5_linear_409_2296" x1="14.7585" y1="8.53311" x2="2.39328" y2="19.6204" gradientUnits="userSpaceOnUse">
<stop stop-color="#008DE0"/>
<stop offset="0.00657" stop-color="#008DE0"/>
<stop offset="0.2601" stop-color="#00A7E0"/>
<stop offset="0.5122" stop-color="#00B8E0"/>
<stop offset="0.7604" stop-color="#00C4E0"/>
<stop offset="1" stop-color="#00C7E0"/>
</linearGradient>
<linearGradient id="paint6_linear_409_2296" x1="41.0562" y1="23.4917" x2="12.4124" y2="23.4917" gradientUnits="userSpaceOnUse">
<stop stop-color="#E0C500"/>
<stop offset="0.4087" stop-color="#E0A600"/>
<stop offset="0.7754" stop-color="#E09100"/>
<stop offset="1" stop-color="#E08900"/>
</linearGradient>
<linearGradient id="paint7_linear_409_2296" x1="41.0489" y1="23.4935" x2="12.4051" y2="23.4935" gradientUnits="userSpaceOnUse">
<stop stop-color="#FFE840"/>
<stop offset="0.4087" stop-color="#FFCE40"/>
<stop offset="0.7754" stop-color="#FFBC40"/>
<stop offset="1" stop-color="#FFB540"/>
</linearGradient>
<linearGradient id="paint8_linear_409_2296" x1="14.7464" y1="8.55851" x2="2.8944" y2="18.7251" gradientUnits="userSpaceOnUse">
<stop stop-color="#40B8FF"/>
<stop offset="0.00657" stop-color="#40B9FF"/>
<stop offset="0.2601" stop-color="#40CEFF"/>
<stop offset="0.5122" stop-color="#40DDFF"/>
<stop offset="0.7604" stop-color="#40E7FF"/>
<stop offset="1" stop-color="#40EAFF"/>
</linearGradient>
<linearGradient id="paint9_linear_409_2296" x1="9.63663" y1="8.11793" x2="18.1423" y2="15.7445" gradientUnits="userSpaceOnUse">
<stop stop-color="#65B895"/>
<stop offset="0.0685" stop-color="#62BD95"/>
<stop offset="0.4762" stop-color="#50DB97"/>
<stop offset="0.8009" stop-color="#44ED98"/>
<stop offset="1" stop-color="#40F498"/>
</linearGradient>
</defs>
</svg>
