<svg width="464" height="198" viewBox="0 0 464 198" fill="none" xmlns="http://www.w3.org/2000/svg">
<g filter="url(#filter0_dddddd_409_2288)">
<path d="M75.2713 2.00265C75.7598 2 76.2437 2 76.7334 2H211.083C211.563 2 212.051 1.99987 212.53 2.00252C212.863 2.00457 213.202 2.01016 213.537 2.01567C213.612 2.01691 213.687 2.01815 213.762 2.01934C214.657 2.02918 215.55 2.10742 216.433 2.25338C217.319 2.40294 218.178 2.68285 218.981 3.08384C220.587 3.90203 221.895 5.199 222.719 6.79232C223.122 7.58616 223.4 8.43614 223.546 9.31312C223.695 10.1897 223.777 11.076 223.794 11.9648C223.799 12.371 223.799 12.7784 223.799 13.1846C223.81 13.6645 223.81 14.1456 223.81 14.6307V42.3508C223.81 42.8398 223.81 43.3183 223.799 43.7995C223.799 44.2108 223.799 44.6092 223.794 45.0206C223.777 45.9093 223.694 46.7956 223.546 47.6721C223.401 48.5496 223.122 49.4002 222.719 50.1944C222.309 50.9848 221.777 51.7063 221.141 52.3325C220.51 52.9641 219.781 53.4912 218.981 53.8937C218.178 54.2958 217.319 54.5773 216.433 54.7292C215.55 54.874 214.657 54.9523 213.762 54.9634C213.355 54.9724 212.938 54.9775 212.53 54.9775C212.051 54.9802 211.563 54.9802 211.083 54.9802H76.7334C76.2437 54.9802 75.7598 54.9802 75.2715 54.9775C74.8625 54.9775 74.4568 54.9724 74.0442 54.9634C73.1475 54.9517 72.2529 54.8734 71.368 54.7292C70.4844 54.5784 69.6286 54.2968 68.8294 53.8937C68.0292 53.4914 67.2994 52.9643 66.6678 52.3325C66.0303 51.7087 65.4989 50.9867 65.0943 50.1944C64.688 49.4007 64.4065 48.5502 64.2596 47.6721C64.1109 46.7958 64.0309 45.9093 64.0203 45.0207C64.0118 44.7393 64.0085 44.4641 64.0052 44.1867C64.0036 44.0584 64.0021 43.9296 64 43.7995V13.1846C64.0021 13.0547 64.0037 12.9246 64.0052 12.7944C64.0085 12.5178 64.0119 12.2411 64.0203 11.9649C64.0309 11.0762 64.1109 10.1897 64.2596 9.31325C64.4069 8.43568 64.6884 7.58554 65.0943 6.79219C65.4991 5.99734 66.0304 5.27238 66.6678 4.64517C67.3018 4.01615 68.0311 3.48938 68.8294 3.08398C69.6286 2.68199 70.4844 2.40201 71.368 2.25351C72.2527 2.10817 73.1474 2.02993 74.0442 2.01947C74.1287 2.01814 74.213 2.01676 74.297 2.01539C74.6232 2.01005 74.9463 2.00476 75.2713 2.00265Z" fill="black"/>
</g>
<path d="M75.2761 53.8226C74.8691 53.8226 74.4721 53.8174 74.0684 53.8084C73.2321 53.7977 72.3978 53.7255 71.5722 53.5925C70.8025 53.461 70.0568 53.2164 69.3597 52.8667C68.6691 52.52 68.0392 52.0653 67.4941 51.5202C66.9411 50.9815 66.4807 50.3567 66.1311 49.6705C65.7777 48.9799 65.5331 48.2397 65.4059 47.4756C65.2686 46.6545 65.1943 45.8243 65.1837 44.9921C65.1751 44.7128 65.1641 43.7828 65.1641 43.7828V13.1859C65.1641 13.1859 65.1758 12.2701 65.1837 12.001C65.1939 11.1701 65.2678 10.3412 65.4047 9.52149C65.5322 8.75529 65.777 8.0129 66.1305 7.32003C66.4788 6.63433 66.9366 6.00903 67.4862 5.46837C68.0352 4.92258 68.6672 4.46558 69.3591 4.11406C70.0545 3.76558 70.7988 3.52274 71.567 3.39367C72.3953 3.25939 73.2325 3.18682 74.0717 3.17658L75.2767 3.16016H212.522L213.742 3.17698C214.573 3.18678 215.403 3.25877 216.224 3.39234C217 3.52307 217.752 3.76765 218.455 4.11804C219.841 4.82643 220.969 5.94718 221.68 7.32321C222.028 8.01133 222.269 8.7477 222.395 9.50732C222.534 10.3338 222.611 11.1691 222.627 12.0068C222.631 12.3819 222.631 12.7848 222.631 13.1859C222.642 13.6826 222.642 14.1553 222.642 14.632V42.352C222.642 42.8332 222.642 43.3027 222.631 43.7761C222.631 44.2068 222.631 44.6014 222.626 45.0075C222.61 45.8302 222.534 46.6508 222.397 47.4625C222.273 48.2321 222.03 48.9781 221.676 49.6744C221.324 50.3531 220.867 50.9725 220.32 51.5097C219.775 52.0578 219.143 52.5151 218.451 52.8641C217.75 53.2164 216.999 53.4618 216.224 53.5923C215.398 53.726 214.564 53.7982 213.727 53.8083C213.328 53.8176 212.928 53.8223 212.529 53.8225L211.081 53.8251L75.2761 53.8226Z" fill="black"/>
<path d="M97.0819 28.8894C97.0963 27.784 97.3924 26.7 97.9426 25.7385C98.4929 24.777 99.2794 23.9691 100.229 23.3901C99.6257 22.5356 98.8299 21.8324 97.9046 21.3363C96.9794 20.8402 95.9502 20.5649 94.899 20.5322C92.6563 20.2987 90.4823 21.8631 89.3394 21.8631C88.1745 21.8631 86.4151 20.5554 84.5204 20.5941C83.2949 20.6333 82.1005 20.9867 81.0536 21.6199C80.0067 22.2531 79.1431 23.1444 78.5468 24.2071C75.964 28.6422 77.8905 35.16 80.3648 38.745C81.6026 40.5005 83.0492 42.4612 84.9423 42.3917C86.7946 42.3156 87.4864 41.2202 89.7225 41.2202C91.9378 41.2202 92.5868 42.3917 94.5182 42.3475C96.5059 42.3156 97.7582 40.5843 98.9527 38.8122C99.8421 37.5614 100.526 36.179 100.98 34.7162C99.8257 34.2318 98.8402 33.4209 98.1469 32.3848C97.4537 31.3486 97.0833 30.133 97.0819 28.8894ZM93.4339 18.1745C94.5177 16.8841 95.0516 15.2256 94.9223 13.5511C93.2666 13.7236 91.7371 14.5085 90.6386 15.7493C90.1016 16.3555 89.6903 17.0607 89.4282 17.8246C89.1661 18.5886 89.0584 19.3962 89.1113 20.2015C89.9394 20.2099 90.7588 20.0319 91.5075 19.6808C92.2563 19.3297 92.915 18.8146 93.4339 18.1745ZM120.497 37.9477H114.176L112.658 42.3933H109.98L115.968 25.9456H118.75L124.737 42.3933H122.014L120.497 37.9477ZM114.831 35.8962H119.841L117.371 28.6814H117.302L114.831 35.8962ZM137.668 36.3982C137.668 40.1246 135.657 42.5187 132.622 42.5187C131.854 42.5586 131.089 42.383 130.416 42.012C129.743 41.6409 129.19 41.0895 128.818 40.4207H128.761V46.3603H126.279V30.4016H128.681V32.3962H128.727C129.115 31.7307 129.679 31.1821 130.357 30.8088C131.034 30.4355 131.802 30.2514 132.577 30.2762C135.645 30.2762 137.668 32.682 137.668 36.3981V36.3982ZM135.117 36.3982C135.117 33.9704 133.852 32.3742 131.922 32.3742C130.026 32.3742 128.75 34.0039 128.75 36.3981C128.75 38.8144 130.026 40.4325 131.922 40.4325C133.852 40.4325 135.117 38.848 135.117 36.3981V36.3982ZM150.976 36.3982C150.976 40.1246 148.965 42.5187 145.93 42.5187C145.161 42.5586 144.397 42.383 143.724 42.0119C143.051 41.6409 142.497 41.0894 142.126 40.4207H142.069V46.3603H139.587V30.4016H141.989V32.3962H142.035C142.423 31.7307 142.986 31.1821 143.664 30.8088C144.342 30.4355 145.11 30.2514 145.885 30.2762C148.953 30.2762 150.976 32.682 150.976 36.3981V36.3982ZM148.425 36.3982C148.425 33.9704 147.16 32.3742 145.23 32.3742C143.334 32.3742 142.058 34.0039 142.058 36.3981C142.058 38.8144 143.334 40.4325 145.23 40.4325C147.16 40.4325 148.425 38.848 148.425 36.3981V36.3982ZM159.772 37.8106C159.955 39.4416 161.553 40.5126 163.736 40.5126C165.828 40.5126 167.333 39.4416 167.333 37.9709C167.333 36.6942 166.425 35.9298 164.276 35.406L162.127 34.8925C159.082 34.163 157.668 32.7505 157.668 30.4585C157.668 27.6206 160.162 25.6714 163.702 25.6714C167.207 25.6714 169.609 27.6206 169.69 30.4585H167.184C167.034 28.8171 165.666 27.8263 163.667 27.8263C161.668 27.8263 160.3 28.8288 160.3 30.2877C160.3 31.4506 161.174 32.1349 163.311 32.6586L165.138 33.1036C168.541 33.9016 169.955 35.2573 169.955 37.663C169.955 40.7402 167.483 42.6675 163.552 42.6675C159.874 42.6675 157.391 40.7854 157.231 37.8105L159.772 37.8106ZM175.311 27.5639V30.4016H177.61V32.3509H175.311V38.9618C175.311 39.9888 175.771 40.4673 176.782 40.4673C177.055 40.4626 177.327 40.4436 177.598 40.4104V42.3481C177.144 42.4323 176.682 42.4704 176.22 42.4618C173.772 42.4618 172.817 41.55 172.817 39.2243V32.3509H171.059V30.4016H172.817V27.5639H175.311ZM178.942 36.3982C178.942 32.6251 181.182 30.2542 184.676 30.2542C188.182 30.2542 190.412 32.6251 190.412 36.3982C190.412 40.1815 188.194 42.542 184.676 42.542C181.16 42.542 178.942 40.1815 178.942 36.3982ZM187.883 36.3982C187.883 33.81 186.687 32.2823 184.676 32.2823C182.665 32.2823 181.47 33.8215 181.47 36.3982C181.47 38.9967 182.665 40.5126 184.676 40.5126C186.687 40.5126 187.883 38.9967 187.883 36.3982ZM192.458 30.4016H194.825V32.4427H194.883C195.043 31.8052 195.419 31.2419 195.949 30.8473C196.479 30.4528 197.129 30.2511 197.791 30.2762C198.077 30.2752 198.362 30.306 198.641 30.368V32.6704C198.28 32.5609 197.904 32.5107 197.526 32.5216C197.166 32.5071 196.806 32.5702 196.473 32.7064C196.139 32.8427 195.839 33.049 195.593 33.3111C195.348 33.5732 195.162 33.8849 195.049 34.2249C194.936 34.5649 194.899 34.925 194.94 35.2806V42.3933H192.458V30.4016ZM210.084 38.8712C209.75 41.0481 207.613 42.542 204.878 42.542C201.361 42.542 199.177 40.2048 199.177 36.455C199.177 32.6937 201.372 30.2542 204.774 30.2542C208.119 30.2542 210.222 32.5333 210.222 36.1692V37.0125H201.683V37.1612C201.643 37.6026 201.699 38.0472 201.846 38.4655C201.993 38.8838 202.228 39.2663 202.536 39.5876C202.844 39.9089 203.217 40.1615 203.63 40.3288C204.044 40.4961 204.489 40.5742 204.935 40.5579C205.522 40.6125 206.11 40.4777 206.613 40.1738C207.117 39.8699 207.507 39.413 207.728 38.8712H210.084ZM201.694 35.2922H207.739C207.762 34.8954 207.701 34.4983 207.561 34.1258C207.421 33.7534 207.205 33.4136 206.927 33.1278C206.648 32.842 206.313 32.6164 205.943 32.4651C205.572 32.3138 205.174 32.2401 204.774 32.2487C204.369 32.2463 203.969 32.3233 203.595 32.4753C203.221 32.6273 202.881 32.8512 202.595 33.1342C202.308 33.4171 202.081 33.7535 201.927 34.1239C201.772 34.4943 201.693 34.8914 201.694 35.2922ZM114.52 13.5653C115.04 13.5283 115.562 13.6062 116.048 13.7936C116.535 13.9809 116.973 14.2729 117.332 14.6486C117.69 15.0243 117.961 15.4742 118.123 15.966C118.285 16.4578 118.335 16.9791 118.269 17.4923C118.269 20.0171 116.893 21.4685 114.52 21.4685H111.641V13.5652L114.52 13.5653ZM112.879 20.3508H114.381C114.753 20.3728 115.125 20.3123 115.471 20.1737C115.816 20.0352 116.126 19.822 116.377 19.5497C116.629 19.2774 116.816 18.9529 116.926 18.5998C117.035 18.2467 117.064 17.8738 117.009 17.5084C117.06 17.1444 117.028 16.7738 116.917 16.4233C116.806 16.0727 116.618 15.7509 116.367 15.4808C116.116 15.2107 115.808 14.999 115.465 14.8609C115.121 14.7228 114.751 14.6618 114.381 14.6821H112.879V20.3508ZM119.667 18.4837C119.63 18.0918 119.675 17.6963 119.8 17.3227C119.925 16.9491 120.128 16.6056 120.395 16.3142C120.662 16.0229 120.988 15.7901 121.351 15.6308C121.714 15.4715 122.106 15.3892 122.503 15.3892C122.9 15.3892 123.293 15.4715 123.656 15.6308C124.019 15.7901 124.344 16.0229 124.611 16.3142C124.878 16.6056 125.081 16.9491 125.206 17.3227C125.332 17.6963 125.377 18.0918 125.339 18.4837C125.378 18.8761 125.333 19.2722 125.208 19.6465C125.083 20.0208 124.881 20.365 124.614 20.6571C124.347 20.9491 124.021 21.1824 123.657 21.3421C123.294 21.5018 122.901 21.5843 122.503 21.5843C122.106 21.5843 121.713 21.5018 121.349 21.3421C120.986 21.1824 120.66 20.9491 120.393 20.6571C120.126 20.365 119.923 20.0208 119.798 19.6465C119.673 19.2722 119.629 18.8761 119.667 18.4837ZM124.118 18.4837C124.118 17.1909 123.533 16.4349 122.505 16.4349C121.474 16.4349 120.893 17.1909 120.893 18.4837C120.893 19.7869 121.474 20.5371 122.505 20.5371C123.533 20.5371 124.118 19.7817 124.118 18.4837ZM132.879 21.4684H131.647L130.405 17.0758H130.311L129.073 21.4684H127.854L126.196 15.5041H127.4L128.477 20.0551H128.566L129.802 15.5041H130.941L132.177 20.0551H132.271L133.343 15.5041H134.53L132.879 21.4684ZM135.924 15.5043H137.066V16.4517H137.155C137.305 16.1114 137.559 15.8261 137.881 15.6356C138.203 15.4451 138.576 15.3589 138.95 15.389C139.242 15.3672 139.536 15.411 139.809 15.5171C140.083 15.6232 140.328 15.7889 140.528 16.0019C140.728 16.2149 140.877 16.4698 140.964 16.7477C141.051 17.0257 141.074 17.3194 141.031 17.6073V21.4682H139.844V17.9029C139.844 16.9445 139.424 16.4678 138.547 16.4678C138.348 16.4587 138.15 16.4922 137.965 16.5662C137.781 16.6401 137.615 16.7527 137.478 16.8963C137.342 17.0398 137.239 17.2109 137.175 17.3979C137.112 17.5848 137.09 17.7831 137.111 17.9792V21.4684H135.924V15.5043ZM142.922 13.1759H144.109V21.4684H142.922V13.1759ZM145.759 18.4837C145.721 18.0917 145.766 17.6962 145.891 17.3226C146.017 16.9489 146.219 16.6054 146.487 16.314C146.754 16.0225 147.079 15.7897 147.442 15.6304C147.805 15.4711 148.198 15.3887 148.595 15.3887C148.992 15.3887 149.385 15.4711 149.748 15.6304C150.111 15.7897 150.436 16.0225 150.704 16.314C150.971 16.6054 151.173 16.9489 151.299 17.3226C151.424 17.6962 151.469 18.0917 151.431 18.4837C151.47 18.8761 151.425 19.2721 151.3 19.6462C151.175 20.0204 150.972 20.3645 150.705 20.6564C150.438 20.9483 150.112 21.1816 149.749 21.3412C149.386 21.5008 148.993 21.5833 148.595 21.5833C148.198 21.5833 147.805 21.5008 147.441 21.3412C147.078 21.1816 146.752 20.9483 146.485 20.6564C146.218 20.3645 146.015 20.0204 145.89 19.6462C145.765 19.2721 145.72 18.8761 145.759 18.4837ZM150.21 18.4837C150.21 17.1909 149.624 16.4349 148.597 16.4349C147.565 16.4349 146.985 17.1909 146.985 18.4837C146.985 19.7869 147.565 20.5371 148.597 20.5371C149.624 20.5371 150.21 19.7817 150.21 18.4837ZM152.681 19.7818C152.681 18.7081 153.487 18.0892 154.917 18.0012L156.546 17.9081V17.3933C156.546 16.7633 156.126 16.4077 155.315 16.4077C154.653 16.4077 154.194 16.6489 154.062 17.0706H152.913C153.034 16.0461 154.006 15.3892 155.37 15.3892C156.878 15.3892 157.728 16.1335 157.728 17.3933V21.4684H156.585V20.6302H156.491C156.301 20.9309 156.033 21.176 155.716 21.3405C155.399 21.505 155.043 21.583 154.685 21.5667C154.433 21.5927 154.178 21.566 153.936 21.4882C153.695 21.4105 153.473 21.2834 153.284 21.1153C153.095 20.9471 152.944 20.7416 152.84 20.5119C152.736 20.2822 152.682 20.0335 152.681 19.7818ZM156.546 19.2721V18.7734L155.078 18.8665C154.25 18.9215 153.874 19.201 153.874 19.7267C153.874 20.2635 154.343 20.5759 154.989 20.5759C155.178 20.5949 155.369 20.576 155.551 20.5202C155.733 20.4645 155.901 20.3731 156.046 20.2514C156.192 20.1298 156.311 19.9804 156.397 19.8121C156.483 19.6439 156.533 19.4602 156.546 19.2721ZM159.288 18.4837C159.288 16.5991 160.264 15.4053 161.784 15.4053C162.16 15.3881 162.533 15.4774 162.859 15.6627C163.186 15.848 163.452 16.1216 163.628 16.4517H163.717V13.1758H164.903V21.4682H163.766V20.5259H163.672C163.483 20.8537 163.207 21.1239 162.874 21.3074C162.542 21.4908 162.165 21.5804 161.784 21.5665C160.254 21.5665 159.288 20.3726 159.288 18.4836V18.4837ZM160.514 18.4837C160.514 19.7486 161.115 20.51 162.12 20.51C163.121 20.51 163.739 19.7378 163.739 18.4888C163.739 17.2459 163.114 16.4627 162.12 16.4627C161.121 16.4627 160.514 17.229 160.514 18.4837ZM169.814 18.4837C169.776 18.0918 169.821 17.6963 169.946 17.3227C170.072 16.9491 170.274 16.6056 170.541 16.3142C170.808 16.0229 171.134 15.7901 171.497 15.6308C171.86 15.4715 172.253 15.3892 172.65 15.3892C173.047 15.3892 173.439 15.4715 173.802 15.6308C174.165 15.7901 174.491 16.0229 174.758 16.3142C175.025 16.6056 175.227 16.9491 175.353 17.3227C175.478 17.6963 175.523 18.0918 175.485 18.4837C175.524 18.8761 175.48 19.2722 175.355 19.6465C175.23 20.0208 175.027 20.365 174.76 20.6571C174.493 20.9491 174.167 21.1824 173.804 21.3421C173.44 21.5018 173.047 21.5843 172.65 21.5843C172.252 21.5843 171.859 21.5018 171.495 21.3421C171.132 21.1824 170.806 20.9491 170.539 20.6571C170.272 20.365 170.07 20.0208 169.945 19.6465C169.82 19.2722 169.775 18.8761 169.814 18.4837ZM174.265 18.4837C174.265 17.1909 173.679 16.4349 172.652 16.4349C171.62 16.4349 171.04 17.1909 171.04 18.4837C171.04 19.7869 171.62 20.5371 172.652 20.5371C173.679 20.5371 174.265 19.7817 174.265 18.4837ZM177.078 15.5043H178.22V16.4517H178.309C178.46 16.1114 178.713 15.8261 179.035 15.6356C179.357 15.4451 179.73 15.3589 180.104 15.389C180.396 15.3672 180.69 15.411 180.963 15.5171C181.237 15.6232 181.482 15.7889 181.682 16.0019C181.882 16.2149 182.031 16.4698 182.118 16.7477C182.205 17.0257 182.228 17.3194 182.185 17.6073V21.4682H180.998V17.9029C180.998 16.9445 180.578 16.4678 179.701 16.4678C179.502 16.4587 179.304 16.4922 179.119 16.5662C178.935 16.6401 178.769 16.7527 178.633 16.8963C178.496 17.0398 178.393 17.2109 178.329 17.3979C178.266 17.5848 178.244 17.7831 178.265 17.9792V21.4684H177.078L177.078 15.5043ZM188.891 14.0194V15.5314H190.194V16.5228H188.891V19.5896C188.891 20.2143 189.151 20.488 189.742 20.488C189.893 20.4875 190.044 20.4783 190.194 20.4607V21.4412C189.981 21.479 189.765 21.4991 189.549 21.5014C188.229 21.5014 187.703 21.0408 187.703 19.891V16.5228H186.749V15.5313H187.703V14.0195L188.891 14.0194ZM191.815 13.1759H192.992V16.4627H193.086C193.243 16.1192 193.504 15.8323 193.832 15.6411C194.16 15.4499 194.54 15.3637 194.919 15.3942C195.21 15.3785 195.501 15.4267 195.771 15.5354C196.042 15.644 196.284 15.8105 196.482 16.0229C196.68 16.2352 196.828 16.4883 196.916 16.764C197.004 17.0397 197.029 17.3312 196.99 17.6178V21.4684H195.802V17.9081C195.802 16.9554 195.355 16.473 194.516 16.473C194.312 16.4564 194.107 16.4842 193.915 16.5545C193.723 16.6248 193.549 16.7358 193.405 16.8798C193.26 17.0239 193.15 17.1974 193.08 17.3883C193.011 17.5792 192.984 17.7829 193.002 17.9851V21.4684H191.815V13.1759ZM203.91 19.8579C203.749 20.403 203.4 20.8745 202.923 21.19C202.447 21.5054 201.874 21.6447 201.304 21.5835C200.908 21.5939 200.515 21.5186 200.151 21.3629C199.787 21.2073 199.461 20.9749 199.197 20.682C198.933 20.3891 198.736 20.0427 198.62 19.6668C198.504 19.2908 198.472 18.8944 198.527 18.5051C198.474 18.1145 198.506 17.7172 198.622 17.3401C198.737 16.9631 198.933 16.615 199.196 16.3195C199.459 16.0241 199.783 15.7881 200.146 15.6275C200.508 15.467 200.902 15.3856 201.299 15.389C202.972 15.389 203.982 16.5228 203.982 18.3957V18.8064H199.736V18.8723C199.717 19.0912 199.745 19.3115 199.817 19.5191C199.889 19.7267 200.004 19.9171 200.155 20.078C200.306 20.2388 200.489 20.3667 200.693 20.4533C200.896 20.5399 201.116 20.5834 201.337 20.581C201.621 20.6148 201.909 20.5641 202.163 20.4353C202.418 20.3066 202.628 20.1056 202.768 19.8579H203.91ZM199.736 17.9359H202.773C202.788 17.7358 202.76 17.5347 202.692 17.3457C202.624 17.1566 202.517 16.9838 202.378 16.8383C202.238 16.6928 202.07 16.5778 201.883 16.5008C201.696 16.4237 201.495 16.3863 201.293 16.3909C201.087 16.3883 200.884 16.4265 200.694 16.5033C200.503 16.58 200.331 16.6938 200.186 16.8377C200.041 16.9817 199.926 17.1531 199.849 17.3417C199.771 17.5303 199.733 17.7323 199.736 17.9359Z" fill="white"/>
<g filter="url(#filter1_dddddd_409_2288)">
<path d="M394.281 2H246.31C243.054 2 240.391 4.98014 240.391 8.62257V48.3577C240.391 52.0002 243.054 54.9803 246.31 54.9803H394.281C397.537 54.9803 400.2 52.0002 400.2 48.3578V8.62257C400.2 4.98014 397.537 2 394.281 2Z" fill="black"/>
<path fill-rule="evenodd" clip-rule="evenodd" d="M246.31 2H394.281C397.537 2 400.2 4.98014 400.2 8.62257V48.3578C400.2 52.0002 397.537 54.9803 394.281 54.9803H246.31C243.054 54.9803 240.391 52.0002 240.391 48.3577V8.62257C240.391 4.98014 243.054 2 246.31 2Z" fill="black"/>
</g>
<path d="M393.607 54.203H247.011C243.821 54.203 241.211 51.311 241.211 47.7763V9.21583C241.211 5.68109 243.821 2.78906 247.011 2.78906H393.607C396.797 2.78906 399.408 5.68109 399.408 9.21583V47.7762C399.408 51.311 396.797 54.203 393.607 54.203Z" fill="black"/>
<path d="M296.525 15.5677C296.525 16.6774 296.231 17.5611 295.643 18.2203C294.975 19.0041 294.104 19.3963 293.034 19.3963C292.009 19.3963 291.137 18.999 290.42 18.2032C289.702 17.408 289.344 16.4219 289.344 15.2453C289.344 14.0682 289.702 13.0827 290.42 12.2868C291.137 11.4917 292.009 11.0938 293.034 11.0938C293.542 11.0938 294.029 11.2051 294.492 11.427C294.954 11.6495 295.325 11.9449 295.602 12.3148L294.978 13.0138C294.508 12.3852 293.861 12.0711 293.034 12.0711C292.286 12.0711 291.64 12.3651 291.094 12.9533C290.548 13.5421 290.275 14.3057 290.275 15.2453C290.275 16.1849 290.548 16.9485 291.094 17.5374C291.64 18.1256 292.286 18.4195 293.034 18.4195C293.827 18.4195 294.488 18.124 295.018 17.5322C295.361 17.1466 295.56 16.6107 295.613 15.9225H293.034V14.968H296.476C296.509 15.1755 296.525 15.3747 296.525 15.5677" fill="white"/>
<path d="M296.526 15.5673H296.408C296.407 16.6517 296.124 17.494 295.56 18.1263L295.559 18.1273L295.559 18.1284C294.912 18.8852 294.08 19.2619 293.035 19.2635C292.037 19.2619 291.202 18.8811 290.504 18.1092C289.809 17.3357 289.465 16.3914 289.463 15.2449C289.465 14.0979 289.809 13.1542 290.504 12.3812C291.202 11.6088 292.037 11.2274 293.035 11.2258C293.528 11.2258 293.998 11.3336 294.446 11.5482C294.895 11.7645 295.249 12.048 295.513 12.3999L295.604 12.3145L295.52 12.2208L294.896 12.9203L294.979 13.0134L295.07 12.9287C294.578 12.2689 293.888 11.9363 293.035 11.9383C292.259 11.9372 291.577 12.2472 291.013 12.8578C290.443 13.4703 290.157 14.2769 290.158 15.2449C290.157 16.213 290.443 17.0196 291.013 17.6321C291.577 18.2427 292.259 18.5527 293.035 18.5516C293.854 18.5532 294.553 18.2422 295.102 17.6255C295.469 17.2136 295.678 16.643 295.732 15.9336L295.743 15.7897H293.153V15.1001H296.477V14.9676L296.36 14.9909C296.392 15.1917 296.408 15.3826 296.408 15.5673H296.644C296.644 15.366 296.628 15.1591 296.593 14.9439L296.576 14.8352H292.916V16.0546H295.614V15.9222L295.496 15.9108C295.444 16.5773 295.254 17.0791 294.935 17.4383C294.426 18.0053 293.802 18.2851 293.035 18.2867C292.315 18.2856 291.704 18.0083 291.177 17.4418C290.656 16.8773 290.396 16.1566 290.395 15.2449C290.396 14.3333 290.656 13.6126 291.177 13.0481C291.704 12.4816 292.315 12.2043 293.035 12.2032C293.835 12.2053 294.44 12.5012 294.889 13.0988L294.972 13.2096L295.687 12.4081L295.764 12.3223L295.694 12.2296C295.403 11.8416 295.016 11.5337 294.54 11.3051C294.062 11.0758 293.559 10.9609 293.035 10.9609C291.982 10.9599 291.074 11.3738 290.338 12.1929C289.598 13.0104 289.226 14.0379 289.227 15.2449C289.226 16.4514 289.598 17.4796 290.338 18.2975C291.074 19.1161 291.982 19.5295 293.035 19.5284C294.131 19.5295 295.04 19.1222 295.73 18.3115L295.644 18.2199L295.728 18.3136C296.341 17.628 296.645 16.7019 296.645 15.5673H296.526H296.526ZM301.983 12.2477H298.748V14.7675H301.665V15.7224H298.748V18.2422H301.983V19.2185H297.836V11.2714H301.983V12.2477Z" fill="white"/>
<path d="M301.976 12.2494V12.1169H298.623V14.9016H301.54V15.5912L298.623 15.5916V18.3763H301.857V19.0877H297.948V11.4055H301.857V12.2494H301.976V12.1169V12.2494H302.094V11.1406H297.711V19.3526H302.094V18.1114H298.86V15.8565H301.776V14.6367H298.86V12.3818H302.094V12.2494H301.976ZM305.824 19.2202H304.911V12.2493H302.927V11.273H307.808V12.2493H305.824V19.22" fill="white"/>
<path d="M305.828 19.2202V19.0877H305.033V12.1169H303.049V11.4056H307.693V12.1169H305.71V19.2201H305.828V19.0877V19.2201H305.946V12.3818H307.93V11.1406H302.812V12.3818H304.796V19.3525H305.946V19.22H305.828V19.2202ZM311.343 19.2202V11.273H312.255V19.22H311.343" fill="white"/>
<path d="M311.345 19.2202H311.463V11.4055H312.139V19.0877H311.345V19.2201H311.463H311.345V19.3526H312.376V11.1406H311.227V19.3526H311.345V19.2201V19.2202ZM316.306 19.2202H315.392V12.2493H313.409V11.273H318.289V12.2493H316.306V19.22" fill="white"/>
<path d="M316.304 19.2189V19.0864H315.509V12.1156H313.526V11.4043H318.17V12.1156H316.186V19.2188H316.304V19.0864V19.2188H316.423V12.3805H318.406V11.1393H313.289V12.3805H315.273V19.3512H316.423V19.2188H316.304V19.2189ZM322.994 17.5265C323.519 18.122 324.163 18.4194 324.923 18.4194C325.684 18.4194 326.328 18.122 326.852 17.5265C327.379 16.931 327.642 16.1698 327.642 15.2453C327.642 14.3209 327.379 13.5596 326.852 12.9641C326.328 12.3686 325.684 12.0711 324.923 12.0711C324.163 12.0711 323.519 12.3686 322.994 12.9641C322.469 13.5596 322.205 14.3208 322.205 15.2453C322.205 16.1698 322.469 16.931 322.994 17.5265ZM327.528 18.1918C326.829 18.9952 325.961 19.3963 324.923 19.3963C323.885 19.3963 323.017 18.9952 322.32 18.1918C321.621 17.3893 321.273 16.4069 321.273 15.2453C321.273 14.0837 321.621 13.1012 322.32 12.2988C323.017 11.4952 323.885 11.0938 324.923 11.0938C325.955 11.0938 326.821 11.4973 327.523 12.304C328.224 13.1106 328.574 14.091 328.574 15.2453C328.574 16.4069 328.224 17.3893 327.528 18.1918Z" fill="white"/>
<path d="M323.018 17.5652L322.934 17.6584C323.479 18.2777 324.159 18.5923 324.948 18.5907C325.736 18.5923 326.417 18.2777 326.961 17.6584C327.51 17.0384 327.786 16.2365 327.785 15.284C327.786 14.3316 327.51 13.5296 326.961 12.9097C326.417 12.2904 325.736 11.9758 324.948 11.9774C324.159 11.9758 323.479 12.2904 322.934 12.9097C322.387 13.5296 322.11 14.3316 322.111 15.284C322.11 16.2364 322.387 17.0384 322.934 17.6584L323.018 17.5652L323.102 17.4721C322.6 16.9003 322.349 16.1811 322.348 15.284C322.349 14.3869 322.6 13.6677 323.102 13.0959C323.609 12.5243 324.214 12.2439 324.948 12.2423C325.681 12.2439 326.287 12.5243 326.793 13.0959C327.296 13.6677 327.547 14.3869 327.548 15.284C327.547 16.1811 327.296 16.9003 326.793 17.4721C326.287 18.0438 325.681 18.3242 324.948 18.3257C324.214 18.3242 323.609 18.0438 323.102 17.4721L323.018 17.5652ZM327.552 18.2305L327.468 18.1385C326.789 18.9166 325.959 19.301 324.948 19.3026C323.937 19.301 323.107 18.9166 322.429 18.1385L322.426 18.1343L322.429 18.1385C321.752 17.3577 321.417 16.4161 321.416 15.284C321.417 14.1519 321.752 13.2103 322.429 12.4296C323.107 11.6514 323.937 11.2665 324.948 11.265C325.952 11.2665 326.78 11.653 327.463 12.4352C328.143 13.2196 328.479 14.1597 328.48 15.284C328.479 16.4161 328.144 17.3577 327.468 18.1385L327.552 18.2305L327.637 18.3225C328.355 17.4979 328.718 16.475 328.717 15.284C328.718 14.0998 328.353 13.079 327.633 12.2507C326.911 11.4191 326.008 10.9986 324.948 11C323.882 10.9986 322.976 11.4171 322.259 12.2455V12.2449C321.54 13.0701 321.179 14.093 321.18 15.284C321.179 16.475 321.54 17.4979 322.259 18.3231L322.263 18.3268L322.259 18.3225C322.976 19.1509 323.882 19.5686 324.948 19.5675C326.013 19.5686 326.919 19.1509 327.637 18.3225L327.552 18.2305ZM329.879 19.2576V11.3104H330.99L334.442 17.4927H334.481L334.442 15.9612V11.3104H335.355V19.2575H334.403L330.791 12.7756H330.752L330.791 14.3077V19.2575H329.879" fill="white"/>
<path d="M329.88 19.2592H329.998V11.4446H330.925L334.377 17.6268H334.604L334.561 15.9609V11.4446H335.238V19.1267H334.469L330.858 12.6449H330.631L330.673 14.3115V19.1267H329.88V19.2592H329.998H329.88V19.3916H330.91V14.3073L330.871 12.7738L330.753 12.7773V12.9098H330.792V12.7773L330.692 12.8477L334.338 19.3916H335.474V11.1797H334.324V15.9644L334.364 17.498L334.482 17.4944V17.3619H334.443V17.4944L334.543 17.4241L331.056 11.1797H329.762V19.3916H329.88V19.2592L329.88 19.2592ZM367.004 41.7758H369.213V25.2179H367.004L367.004 41.7758ZM386.9 31.1825L384.368 38.3611H384.292L381.664 31.1824H379.284L383.225 41.216L380.978 46.7971H383.283L389.356 31.1824L386.9 31.1825ZM374.373 39.8952C373.648 39.8952 372.64 39.4905 372.64 38.4889C372.64 37.2109 373.897 36.721 374.981 36.721C375.953 36.721 376.409 36.9553 377 37.2752C376.828 38.8087 375.648 39.8952 374.373 39.8952ZM374.639 30.8202C373.04 30.8202 371.384 31.6086 370.698 33.3554L372.659 34.2712C373.078 33.3554 373.858 33.0568 374.677 33.0568C375.819 33.0568 376.981 33.8241 377 35.1875V35.3577C376.6 35.1021 375.744 34.7187 374.696 34.7187C372.583 34.7187 370.431 36.0178 370.431 38.4464C370.431 40.662 372.164 42.0893 374.105 42.0893C375.591 42.0893 376.409 41.3438 376.924 40.4705H377V41.7484H379.132V35.4C379.132 32.4609 377.171 30.8202 374.639 30.8202ZM360.988 33.198H357.846V27.5224H360.988C362.639 27.5224 363.577 29.0522 363.577 30.3602C363.577 31.6433 362.639 33.198 360.988 33.198ZM360.931 25.2179H355.638V41.7758H357.846V35.5026H360.931C363.379 35.5026 365.786 33.5194 365.786 30.3602C365.786 27.2011 363.379 25.2179 360.931 25.2179ZM332.07 39.8982C330.544 39.8982 329.266 38.4687 329.266 36.5052C329.266 34.5211 330.544 33.0698 332.07 33.0698C333.576 33.0698 334.758 34.5211 334.758 36.5052C334.758 38.4687 333.576 39.8982 332.07 39.8982H332.07ZM334.606 32.1096H334.53C334.034 31.4483 333.08 30.8508 331.879 30.8508C329.361 30.8508 327.054 33.3259 327.054 36.5052C327.054 39.6634 329.361 42.1173 331.879 42.1173C333.08 42.1173 334.034 41.5197 334.53 40.8373H334.606V41.648C334.606 43.8035 333.576 44.9557 331.917 44.9557C330.563 44.9557 329.724 43.8671 329.38 42.9497L327.454 43.8459C328.007 45.3396 329.476 47.1748 331.917 47.1748C334.511 47.1748 336.704 45.4674 336.704 41.3066V31.1922H334.606V32.1096ZM338.229 41.7758H340.442V25.2173H338.229V41.7758ZM343.703 36.3133C343.646 34.1366 345.209 33.0273 346.334 33.0273C347.212 33.0273 347.956 33.5178 348.203 34.2226L343.703 36.3133ZM350.568 34.4357C350.149 33.1763 348.871 30.8508 346.258 30.8508C343.665 30.8508 341.51 33.1339 341.51 36.484C341.51 39.6422 343.646 42.1173 346.506 42.1173C348.814 42.1173 350.149 40.5382 350.702 39.6208L348.986 38.3403C348.414 39.2794 347.631 39.8982 346.506 39.8982C345.381 39.8982 344.58 39.3219 344.065 38.1913L350.797 35.0757L350.568 34.4357ZM296.934 32.5793V34.9691H302.045C301.892 36.3133 301.492 37.2948 300.881 37.9777C300.138 38.8101 298.974 39.7275 296.934 39.7275C293.787 39.7275 291.327 36.8896 291.327 33.3688C291.327 29.848 293.787 27.0097 296.934 27.0097C298.631 27.0097 299.87 27.7567 300.786 28.7169L302.293 27.0314C301.015 25.6654 299.317 24.6199 296.934 24.6199C292.623 24.6199 289 28.5463 289 33.3688C289 38.1913 292.623 42.1173 296.934 42.1173C299.26 42.1173 301.015 41.2642 302.388 39.6634C303.799 38.0843 304.238 35.8652 304.238 34.073C304.238 33.5178 304.2 33.0061 304.123 32.5793H296.934ZM310.049 39.8982C308.523 39.8982 307.207 38.4898 307.207 36.484C307.207 34.4568 308.523 33.0698 310.049 33.0698C311.574 33.0698 312.89 34.4568 312.89 36.484C312.89 38.4899 311.574 39.8982 310.049 39.8982ZM310.049 30.8508C307.264 30.8508 304.994 33.2192 304.994 36.484C304.994 39.7275 307.264 42.1173 310.049 42.1173C312.833 42.1173 315.102 39.7275 315.102 36.484C315.102 33.2192 312.833 30.8508 310.049 30.8508ZM321.073 39.8982C319.548 39.8982 318.232 38.4898 318.232 36.484C318.232 34.4568 319.548 33.0698 321.073 33.0698C322.599 33.0698 323.915 34.4568 323.915 36.484C323.915 38.4899 322.599 39.8982 321.073 39.8982H321.073ZM321.073 30.8508C318.289 30.8508 316.02 33.2192 316.02 36.484C316.02 39.7275 318.289 42.1173 321.073 42.1173C323.858 42.1173 326.127 39.7275 326.127 36.484C326.127 33.2192 323.858 30.8508 321.073 30.8508H321.073Z" fill="white"/>
<path d="M252.83 12.0823C252.432 12.4833 252.195 13.1522 252.195 14.0401V13.8394V43.139V42.946C252.195 43.766 252.399 44.3992 252.743 44.807L252.831 44.9012V44.9016C253.11 45.1831 253.467 45.3326 253.877 45.3321C254.277 45.3321 254.728 45.1893 255.203 44.8878L272.386 33.9642L278.288 30.2115C279.038 29.7351 279.459 29.1204 279.529 28.4943V28.4918C279.459 27.8642 279.038 27.25 278.288 26.7735L272.386 23.0214L255.203 12.0978C254.727 11.7957 254.276 11.6523 253.875 11.6523C253.466 11.6523 253.109 11.8013 252.83 12.0823H252.83Z" fill="#00C1FF"/>
<path d="M252.831 44.8984L252.743 44.8043C252.399 44.3965 252.195 43.7632 252.195 42.9432V43.1362V13.8439V14.0374C252.195 13.1495 252.432 12.4806 252.83 12.0795L267.496 28.4895L252.831 44.8984Z" fill="url(#paint0_linear_409_2288)"/>
<path d="M272.39 33.9648L267.5 28.493L272.389 23.0221L278.292 26.7742C279.041 27.2508 279.462 27.8649 279.532 28.4925V28.495C279.462 29.1211 279.041 29.7358 278.292 30.2122L272.39 33.9648" fill="url(#paint1_linear_409_2288)"/>
<path d="M253.874 45.332C253.464 45.3324 253.107 45.1829 252.828 44.9015V44.9011L267.493 28.4921L272.383 33.9639L255.2 44.8876C254.725 45.1892 254.274 45.332 253.874 45.332Z" fill="url(#paint2_linear_409_2288)"/>
<path d="M267.495 28.4922L252.828 12.0822C253.107 11.8012 253.464 11.6522 253.873 11.6522C254.275 11.6522 254.725 11.7955 255.202 12.0977L272.384 23.0213L267.495 28.4922" fill="url(#paint3_linear_409_2288)"/>
<path d="M253.877 45.5273C253.467 45.5273 253.109 45.3778 252.83 45.0964L252.83 45.0968C252.828 45.0956 252.827 45.0944 252.826 45.0933L252.75 45.0099C252.747 45.0073 252.745 45.0043 252.742 45.0012L252.83 44.9029C253.109 45.1843 253.466 45.3338 253.876 45.3333C254.276 45.3333 254.727 45.1905 255.202 44.8889L272.385 33.9653L272.495 34.0885L272.384 34.1594L255.202 45.0824C254.769 45.3572 254.357 45.5004 253.985 45.5243C253.949 45.5263 253.913 45.5273 253.877 45.5273" fill="url(#paint4_linear_409_2288)"/>
<path d="M252.743 44.9961C252.399 44.5883 252.195 43.9556 252.195 43.1351V42.9421C252.195 43.762 252.399 44.3953 252.743 44.8031L252.831 44.8973L252.743 44.9961Z" fill="url(#paint5_linear_409_2288)"/>
<path d="M272.501 34.0859L272.391 33.9627L278.293 30.2101C279.042 29.7337 279.463 29.119 279.534 28.4929C279.534 28.7227 279.488 28.9524 279.397 29.1759C279.213 29.6266 278.845 30.0524 278.293 30.4036L272.501 34.0859" fill="url(#paint6_linear_409_2288)"/>
<path d="M279.526 28.4922C279.456 27.8646 279.035 27.2505 278.285 26.7739L272.383 23.0218L272.493 22.8986H272.493L278.285 26.5809C279.112 27.1066 279.526 27.7993 279.526 28.4922Z" fill="url(#paint7_linear_409_2288)"/>
<path d="M252.195 14.0391V13.8367C252.195 13.7637 252.197 13.6923 252.2 13.623V13.6199C252.2 13.6189 252.2 13.6179 252.201 13.6168V13.609C252.236 12.9028 252.432 12.3518 252.743 11.984L252.83 12.0812C252.432 12.4823 252.195 13.1512 252.195 14.0391Z" fill="url(#paint8_linear_409_2288)"/>
<path d="M272.385 23.0195L255.202 12.0958C254.726 11.7937 254.275 11.6504 253.874 11.6504C253.465 11.6504 253.107 11.7994 252.829 12.0804L252.742 11.9831C252.769 11.9511 252.797 11.9202 252.826 11.8906C252.827 11.8895 252.829 11.8884 252.83 11.8874C253.106 11.6086 253.459 11.4596 253.865 11.4569H253.874C254.275 11.4569 254.726 11.6002 255.202 11.9025L272.495 22.8959L272.495 22.8963L272.385 23.0195Z" fill="url(#paint9_linear_409_2288)"/>
<defs>
<filter id="filter0_dddddd_409_2288" x="0.721325" y="0.974651" width="286.367" height="196.382" filterUnits="userSpaceOnUse" color-interpolation-filters="sRGB">
<feFlood flood-opacity="0" result="BackgroundImageFix"/>
<feColorMatrix in="SourceAlpha" type="matrix" values="0 0 0 0 0 0 0 0 0 0 0 0 0 0 0 0 0 0 127 0" result="hardAlpha"/>
<feOffset dy="1.46478"/>
<feGaussianBlur stdDeviation="1.24507"/>
<feColorMatrix type="matrix" values="0 0 0 0 0.219608 0 0 0 0 0.219608 0 0 0 0 0.219608 0 0 0 0.0240741 0"/>
<feBlend mode="normal" in2="BackgroundImageFix" result="effect1_dropShadow_409_2288"/>
<feColorMatrix in="SourceAlpha" type="matrix" values="0 0 0 0 0 0 0 0 0 0 0 0 0 0 0 0 0 0 127 0" result="hardAlpha"/>
<feOffset dy="6.44505"/>
<feGaussianBlur stdDeviation="2.57802"/>
<feColorMatrix type="matrix" values="0 0 0 0 0.219608 0 0 0 0 0.219608 0 0 0 0 0.219608 0 0 0 0.0392593 0"/>
<feBlend mode="normal" in2="effect1_dropShadow_409_2288" result="effect2_dropShadow_409_2288"/>
<feColorMatrix in="SourceAlpha" type="matrix" values="0 0 0 0 0 0 0 0 0 0 0 0 0 0 0 0 0 0 127 0" result="hardAlpha"/>
<feOffset dy="15.8197"/>
<feGaussianBlur stdDeviation="5.14139"/>
<feColorMatrix type="matrix" values="0 0 0 0 0.219608 0 0 0 0 0.219608 0 0 0 0 0.219608 0 0 0 0.05 0"/>
<feBlend mode="normal" in2="effect2_dropShadow_409_2288" result="effect3_dropShadow_409_2288"/>
<feColorMatrix in="SourceAlpha" type="matrix" values="0 0 0 0 0 0 0 0 0 0 0 0 0 0 0 0 0 0 127 0" result="hardAlpha"/>
<feOffset dy="30.4675"/>
<feGaussianBlur stdDeviation="10.0777"/>
<feColorMatrix type="matrix" values="0 0 0 0 0.219608 0 0 0 0 0.219608 0 0 0 0 0.219608 0 0 0 0.0607407 0"/>
<feBlend mode="normal" in2="effect3_dropShadow_409_2288" result="effect4_dropShadow_409_2288"/>
<feColorMatrix in="SourceAlpha" type="matrix" values="0 0 0 0 0 0 0 0 0 0 0 0 0 0 0 0 0 0 127 0" result="hardAlpha"/>
<feOffset dy="51.2674"/>
<feGaussianBlur stdDeviation="18.5295"/>
<feColorMatrix type="matrix" values="0 0 0 0 0.219608 0 0 0 0 0.219608 0 0 0 0 0.219608 0 0 0 0.0759259 0"/>
<feBlend mode="normal" in2="effect4_dropShadow_409_2288" result="effect5_dropShadow_409_2288"/>
<feColorMatrix in="SourceAlpha" type="matrix" values="0 0 0 0 0 0 0 0 0 0 0 0 0 0 0 0 0 0 127 0" result="hardAlpha"/>
<feOffset dy="79.0983"/>
<feGaussianBlur stdDeviation="31.6393"/>
<feColorMatrix type="matrix" values="0 0 0 0 0.219608 0 0 0 0 0.219608 0 0 0 0 0.219608 0 0 0 0.1 0"/>
<feBlend mode="normal" in2="effect5_dropShadow_409_2288" result="effect6_dropShadow_409_2288"/>
<feBlend mode="normal" in="SourceGraphic" in2="effect6_dropShadow_409_2288" result="shape"/>
</filter>
<filter id="filter1_dddddd_409_2288" x="177.112" y="0.974651" width="286.367" height="196.383" filterUnits="userSpaceOnUse" color-interpolation-filters="sRGB">
<feFlood flood-opacity="0" result="BackgroundImageFix"/>
<feColorMatrix in="SourceAlpha" type="matrix" values="0 0 0 0 0 0 0 0 0 0 0 0 0 0 0 0 0 0 127 0" result="hardAlpha"/>
<feOffset dy="1.46478"/>
<feGaussianBlur stdDeviation="1.24507"/>
<feColorMatrix type="matrix" values="0 0 0 0 0.219608 0 0 0 0 0.219608 0 0 0 0 0.219608 0 0 0 0.0240741 0"/>
<feBlend mode="normal" in2="BackgroundImageFix" result="effect1_dropShadow_409_2288"/>
<feColorMatrix in="SourceAlpha" type="matrix" values="0 0 0 0 0 0 0 0 0 0 0 0 0 0 0 0 0 0 127 0" result="hardAlpha"/>
<feOffset dy="6.44505"/>
<feGaussianBlur stdDeviation="2.57802"/>
<feColorMatrix type="matrix" values="0 0 0 0 0.219608 0 0 0 0 0.219608 0 0 0 0 0.219608 0 0 0 0.0392593 0"/>
<feBlend mode="normal" in2="effect1_dropShadow_409_2288" result="effect2_dropShadow_409_2288"/>
<feColorMatrix in="SourceAlpha" type="matrix" values="0 0 0 0 0 0 0 0 0 0 0 0 0 0 0 0 0 0 127 0" result="hardAlpha"/>
<feOffset dy="15.8197"/>
<feGaussianBlur stdDeviation="5.14139"/>
<feColorMatrix type="matrix" values="0 0 0 0 0.219608 0 0 0 0 0.219608 0 0 0 0 0.219608 0 0 0 0.05 0"/>
<feBlend mode="normal" in2="effect2_dropShadow_409_2288" result="effect3_dropShadow_409_2288"/>
<feColorMatrix in="SourceAlpha" type="matrix" values="0 0 0 0 0 0 0 0 0 0 0 0 0 0 0 0 0 0 127 0" result="hardAlpha"/>
<feOffset dy="30.4675"/>
<feGaussianBlur stdDeviation="10.0777"/>
<feColorMatrix type="matrix" values="0 0 0 0 0.219608 0 0 0 0 0.219608 0 0 0 0 0.219608 0 0 0 0.0607407 0"/>
<feBlend mode="normal" in2="effect3_dropShadow_409_2288" result="effect4_dropShadow_409_2288"/>
<feColorMatrix in="SourceAlpha" type="matrix" values="0 0 0 0 0 0 0 0 0 0 0 0 0 0 0 0 0 0 127 0" result="hardAlpha"/>
<feOffset dy="51.2674"/>
<feGaussianBlur stdDeviation="18.5295"/>
<feColorMatrix type="matrix" values="0 0 0 0 0.219608 0 0 0 0 0.219608 0 0 0 0 0.219608 0 0 0 0.0759259 0"/>
<feBlend mode="normal" in2="effect4_dropShadow_409_2288" result="effect5_dropShadow_409_2288"/>
<feColorMatrix in="SourceAlpha" type="matrix" values="0 0 0 0 0 0 0 0 0 0 0 0 0 0 0 0 0 0 127 0" result="hardAlpha"/>
<feOffset dy="79.0983"/>
<feGaussianBlur stdDeviation="31.6393"/>
<feColorMatrix type="matrix" values="0 0 0 0 0.219608 0 0 0 0 0.219608 0 0 0 0 0.219608 0 0 0 0.1 0"/>
<feBlend mode="normal" in2="effect5_dropShadow_409_2288" result="effect6_dropShadow_409_2288"/>
<feBlend mode="normal" in="SourceGraphic" in2="effect6_dropShadow_409_2288" result="shape"/>
</filter>
<linearGradient id="paint0_linear_409_2288" x1="261.568" y1="13.5343" x2="247.533" y2="26.1191" gradientUnits="userSpaceOnUse">
<stop stop-color="#00A0FF"/>
<stop offset="0.00657" stop-color="#00A1FF"/>
<stop offset="0.2601" stop-color="#00BEFF"/>
<stop offset="0.5122" stop-color="#00D2FF"/>
<stop offset="0.7604" stop-color="#00DFFF"/>
<stop offset="1" stop-color="#00E3FF"/>
</linearGradient>
<linearGradient id="paint1_linear_409_2288" x1="280.446" y1="28.3985" x2="251.802" y2="28.3985" gradientUnits="userSpaceOnUse">
<stop stop-color="#FFE000"/>
<stop offset="0.4087" stop-color="#FFBD00"/>
<stop offset="0.7754" stop-color="#FFA500"/>
<stop offset="1" stop-color="#FF9C00"/>
</linearGradient>
<linearGradient id="paint2_linear_409_2288" x1="269.787" y1="33.6945" x2="246.022" y2="54.8476" gradientUnits="userSpaceOnUse">
<stop stop-color="#FF3A44"/>
<stop offset="1" stop-color="#C31162"/>
</linearGradient>
<linearGradient id="paint3_linear_409_2288" x1="249.048" y1="9.64934" x2="259.642" y2="19.0929" gradientUnits="userSpaceOnUse">
<stop stop-color="#32A071"/>
<stop offset="0.0685" stop-color="#2DA771"/>
<stop offset="0.4762" stop-color="#15CF74"/>
<stop offset="0.8009" stop-color="#06E775"/>
<stop offset="1" stop-color="#00F076"/>
</linearGradient>
<linearGradient id="paint4_linear_409_2288" x1="269.778" y1="37.4914" x2="250.731" y2="54.5704" gradientUnits="userSpaceOnUse">
<stop stop-color="#CC2E36"/>
<stop offset="1" stop-color="#9C0E4E"/>
</linearGradient>
<linearGradient id="paint5_linear_409_2288" x1="254.149" y1="13.5331" x2="241.784" y2="24.6204" gradientUnits="userSpaceOnUse">
<stop stop-color="#008DE0"/>
<stop offset="0.00657" stop-color="#008DE0"/>
<stop offset="0.2601" stop-color="#00A7E0"/>
<stop offset="0.5122" stop-color="#00B8E0"/>
<stop offset="0.7604" stop-color="#00C4E0"/>
<stop offset="1" stop-color="#00C7E0"/>
</linearGradient>
<linearGradient id="paint6_linear_409_2288" x1="280.447" y1="28.4917" x2="251.803" y2="28.4917" gradientUnits="userSpaceOnUse">
<stop stop-color="#E0C500"/>
<stop offset="0.4087" stop-color="#E0A600"/>
<stop offset="0.7754" stop-color="#E09100"/>
<stop offset="1" stop-color="#E08900"/>
</linearGradient>
<linearGradient id="paint7_linear_409_2288" x1="280.439" y1="28.4935" x2="251.796" y2="28.4935" gradientUnits="userSpaceOnUse">
<stop stop-color="#FFE840"/>
<stop offset="0.4087" stop-color="#FFCE40"/>
<stop offset="0.7754" stop-color="#FFBC40"/>
<stop offset="1" stop-color="#FFB540"/>
</linearGradient>
<linearGradient id="paint8_linear_409_2288" x1="254.137" y1="13.5585" x2="242.285" y2="23.7251" gradientUnits="userSpaceOnUse">
<stop stop-color="#40B8FF"/>
<stop offset="0.00657" stop-color="#40B9FF"/>
<stop offset="0.2601" stop-color="#40CEFF"/>
<stop offset="0.5122" stop-color="#40DDFF"/>
<stop offset="0.7604" stop-color="#40E7FF"/>
<stop offset="1" stop-color="#40EAFF"/>
</linearGradient>
<linearGradient id="paint9_linear_409_2288" x1="249.027" y1="13.1179" x2="257.533" y2="20.7445" gradientUnits="userSpaceOnUse">
<stop stop-color="#65B895"/>
<stop offset="0.0685" stop-color="#62BD95"/>
<stop offset="0.4762" stop-color="#50DB97"/>
<stop offset="0.8009" stop-color="#44ED98"/>
<stop offset="1" stop-color="#40F498"/>
</linearGradient>
</defs>
</svg>
