<svg width="359" height="359" viewBox="0 0 359 359" fill="none" xmlns="http://www.w3.org/2000/svg">
<circle cx="179.5" cy="179.5" r="179.5" fill="#EFF6FF"/>
<mask id="mask0_409_2150" style="mask-type:alpha" maskUnits="userSpaceOnUse" x="0" y="0" width="359" height="359">
<circle cx="179.5" cy="179.5" r="179.5" fill="#EFF6FF"/>
</mask>
<g mask="url(#mask0_409_2150)">
<path d="M167.981 174.335C165.868 174.521 163.707 174.636 161.607 174.541C161.265 175.435 160.538 175.97 159.693 176.417C158.22 177.291 156.908 178.391 155.592 179.476C150.232 182.21 144.307 183.643 138.856 186.208C134.144 187.931 130.083 190.947 125.447 192.825C118.993 196.079 110.795 197.793 107.125 204.653C105.773 207.306 105.211 210.277 103.944 212.973C100.58 222.087 98.2123 231.665 97.352 241.355C96.6153 248.789 97.6013 256.253 97.352 263.694C97.1993 265.983 96.7299 268.241 96.5951 270.532C96.5412 269.853 96.6198 269.132 96.5547 268.472C96.4918 268.838 96.5479 269.265 96.5232 269.649C95.7124 273.899 96.2177 278.346 95.9347 282.676C94.8858 294.179 95.8426 305.809 98.0079 317.134C98.8794 321.494 98.8412 326.26 101.152 330.177C106.159 335.566 112.309 327.846 115.451 323.953C114.971 331.397 114.546 338.915 115.766 346.316C115.245 347.94 115.959 349.777 116.523 351.316C116.983 352.169 118.055 352.879 118.944 353.081C123.991 355.588 129.224 353.333 134.451 354.824C139.689 355.732 145.051 355.298 150.327 355.882C159.556 356.574 168.794 357.104 178.053 356.962C180.616 356.983 183.125 357.54 185.627 358.036C188.152 357.659 190.714 357.569 193.266 357.587C197.587 357.769 201.911 357.931 206.219 358.198C207.854 357.744 209.546 357.648 211.237 357.697C216.143 357.493 221.064 358.175 225.951 357.616C230.062 356.891 234.127 355.949 238.301 355.581C238.24 355.59 238.177 355.597 238.114 355.606C238.653 355.534 239.195 355.46 239.736 355.408C240.239 354.651 240.628 353.818 241.472 353.387C240.967 354.058 240.459 354.73 239.94 355.395C240.026 355.39 240.109 355.386 240.194 355.381C241.292 353.602 241.854 353.003 243.687 352.124C244.174 349.606 243.889 346.922 244.289 344.357C244.343 342.457 244.637 340.606 246.78 340.101C246.744 340.112 246.706 340.126 246.67 340.137C251.584 340.658 255.05 338.43 257.132 333.946C259.778 329.735 260.89 324.922 261.793 320.09C259.913 320.562 261.373 316.543 261.157 315.519C261.292 313.165 261.476 310.814 261.595 308.457C261.968 300.194 261.584 291.93 261.218 283.674C261.418 279.323 260.593 275.172 259.199 271.069C258.388 264.123 255.845 257.529 255.288 250.541C253.498 244.355 252.811 237.851 251.497 231.555C251.301 229.926 249.781 226.694 250.623 225.36C249.976 223.219 249.051 221.09 248.655 218.905C246.667 215.237 246.198 210.998 244.433 207.216C243.754 205.414 243.024 203.633 242.202 201.89C241.18 200.48 239.965 199.181 239.215 197.596C239.237 197.641 239.26 197.683 239.282 197.728C238.512 194.584 235.709 193.067 233.635 190.842C231.917 189.049 229.655 187.993 227.429 186.983C224.685 185.635 221.992 184.076 219 183.342C215.658 182.574 212.645 180.887 209.425 179.793C206.558 178.894 203.358 178.548 200.876 176.761C198.389 176.455 195.943 175.932 193.47 175.545C191.77 176.091 189.944 175.943 188.178 175.932C181.451 175.503 174.758 173.775 167.986 174.339L167.981 174.335ZM167.051 212.238C167.57 205.859 166.582 199.435 167.918 193.097C168.251 190.857 168.66 188.622 168.785 186.36C168.72 184.883 169.17 183.703 170.82 183.58C174.684 182.897 178.646 183.371 182.543 183.434C188.643 183.62 194.739 183.784 200.829 184.236C202.549 184.325 202.183 185.673 201.797 186.859C201.657 188.568 202.17 190.275 201.911 191.987C201.498 194.078 200.892 196.129 200.696 198.265C200.294 201.028 199.82 203.779 199.452 206.546C199.07 207.717 199.649 210.394 197.904 210.3C200.705 210.45 203.376 211.432 206.111 211.973C206.749 212.31 207.315 212.584 207.897 211.978C210.069 202.474 215.15 206.589 218.953 212.389C220.902 215.448 223.449 218.154 224.826 221.548C226.439 224.691 227.102 228.134 227.396 231.624C227.901 233.954 228.519 236.222 228.802 238.599C229.188 240.36 229.961 242.01 230.123 243.825C230.929 246.274 227.76 247.075 226.16 248.075C222.946 250.555 219.413 252.525 215.92 254.577C216.41 255.775 213.962 256.408 213.115 256.603C212.522 256.621 212.183 255.853 212.594 255.427C208.131 243.978 207.297 249.043 197.707 248.221C197.799 250.112 197.821 252.006 197.992 253.892C198.046 254.2 198.007 254.539 197.767 254.764C194.524 255.712 190.874 256.049 187.469 255.963C181.609 255.979 175.762 255.878 169.924 255.274C168.862 255.469 168.143 254.692 168.087 253.666C164.307 256.669 160.412 259.604 157.252 263.286C155.976 264.465 154.199 269.148 152.609 268.946C151.367 268.658 151.048 267.149 149.997 266.529C148.442 265.372 146.634 264.651 144.941 263.73C144.042 263.155 142.686 262.911 142.322 261.79C142.265 260.049 142.991 257.547 144.37 256.428C148.831 245.528 150.801 233.56 156.757 223.323C157.609 221.077 157.712 218.581 158.95 216.474C160.937 213.691 164.154 210.059 166.899 214.289C166.964 213.606 167.009 212.921 167.054 212.238H167.051ZM101.287 221.124C101.28 221.151 101.274 221.175 101.267 221.2C101.274 221.173 101.28 221.148 101.287 221.124ZM100.065 225.708C100.061 225.724 100.056 225.739 100.054 225.757C100.059 225.742 100.063 225.726 100.065 225.708ZM96.512 269.838C96.512 269.838 96.5075 269.874 96.5075 269.883C96.5075 269.867 96.512 269.853 96.512 269.838ZM96.9634 270.314C96.9634 270.314 96.9634 270.325 96.9634 270.33C96.9634 270.325 96.9634 270.321 96.9634 270.314ZM111.927 326.709C111.927 326.709 111.911 326.725 111.905 326.734C111.911 326.725 111.92 326.718 111.927 326.709ZM107.17 330.328C107.17 330.328 107.161 330.33 107.159 330.332C107.163 330.332 107.165 330.33 107.17 330.328ZM251.128 338.412C251.05 338.441 250.969 338.475 250.888 338.499C250.964 338.472 251.045 338.443 251.128 338.412ZM250.987 338.47C250.987 338.47 250.978 338.475 250.973 338.475C250.978 338.475 250.982 338.472 250.987 338.47ZM244.646 341.642C244.637 341.673 244.63 341.705 244.621 341.736C244.628 341.705 244.637 341.673 244.646 341.642ZM242.669 350.426C242.869 350.047 243.074 349.667 243.24 349.269C243.224 349.858 243.217 350.444 243.186 351.033C242.793 351.156 242.422 351.34 242.065 351.545C242.265 351.172 242.467 350.799 242.669 350.426ZM240.742 350.792C240.742 350.792 240.758 350.774 240.765 350.765C240.756 350.777 240.749 350.786 240.74 350.797V350.792H240.742ZM243.334 350.952C243.334 350.952 243.323 350.965 243.314 350.972C243.321 350.965 243.327 350.959 243.334 350.952ZM240.376 352.688C240.394 352.677 240.412 352.663 240.43 352.65C240.412 352.663 240.394 352.679 240.376 352.693C240.376 352.693 240.376 352.693 240.376 352.688ZM239.329 355.076C239.361 354.954 239.475 354.898 239.563 354.82C239.48 354.923 239.392 355.026 239.307 355.13C239.314 355.112 239.32 355.094 239.329 355.078V355.076ZM238.788 355.444C238.781 355.449 238.775 355.453 238.768 355.458C238.775 355.453 238.781 355.446 238.788 355.442V355.444Z" fill="#023ECE"/>
<path d="M235.688 355.924C235.724 355.92 235.76 355.913 235.796 355.908C235.76 355.913 235.724 355.917 235.688 355.924Z" fill="#023ECE"/>
<path d="M244.907 349.793C243.988 351.507 243.204 353.319 242.281 355.031C242.627 354.973 242.975 354.912 243.326 354.885C243.557 354.11 246.331 349.786 244.905 349.793H244.907Z" fill="#023ECE"/>
<path d="M169.625 253.99C169.637 253.999 169.651 254.011 169.663 254.018C169.651 254.008 169.637 253.999 169.625 253.987V253.99Z" fill="#023ECE"/>
<path d="M200.755 185.299C200.755 185.285 200.752 185.271 200.75 185.259C200.75 185.271 200.755 185.285 200.755 185.299Z" fill="#023ECE"/>
<path d="M182.469 214.713C182.491 214.713 182.513 214.711 182.533 214.709C182.535 214.693 182.54 214.678 182.544 214.662C182.52 214.68 182.493 214.695 182.469 214.713Z" fill="#023ECE"/>
<path d="M168.578 215.574C168.578 215.574 168.585 215.56 168.59 215.551C168.585 215.558 168.583 215.567 168.578 215.574Z" fill="#023ECE"/>
<path d="M169.086 217.624C169.086 217.624 169.102 217.636 169.112 217.643C169.105 217.636 169.095 217.629 169.086 217.624Z" fill="#023ECE"/>
<path d="M210.888 224.036H210.883C210.883 224.036 210.888 224.036 210.888 224.039V224.036Z" fill="#023ECE"/>
<path d="M227.384 231.569C227.382 231.547 227.377 231.522 227.375 231.497C227.38 231.522 227.382 231.544 227.384 231.569Z" fill="#023ECE"/>
<path d="M164.952 214.127C164.94 214.118 164.926 214.106 164.914 214.097C164.928 214.108 164.94 214.118 164.954 214.127H164.952Z" fill="#023ECE"/>
<path d="M167.32 254.24C167.345 254.222 167.368 254.202 167.393 254.184C167.368 254.202 167.345 254.22 167.32 254.24Z" fill="#023ECE"/>
<path d="M157.188 263.377C157.203 263.359 157.217 263.338 157.233 263.32C157.219 263.338 157.203 263.356 157.188 263.377Z" fill="#023ECE"/>
<path d="M200.653 288.679C196.103 289.081 191.511 289.07 186.999 289.939C181.027 290.611 175 290.7 169.021 291.345C165.104 291.749 161.115 291.779 157.258 292.601C156.795 292.866 156.843 294.007 157.514 293.879C157.519 307.686 158.426 321.578 157.972 335.356C158.718 336.371 162.359 335.149 163.585 335.039C169.872 334.154 176.229 333.473 182.588 333.46C187.471 334.037 192.316 333.226 197.194 333.123C198.674 332.903 200.637 333.206 201.776 332.128C203.11 330.234 202.336 328.065 202.385 325.956C202.726 322.355 202.257 318.71 203.027 315.163C203.733 311.533 203.454 307.834 203.712 304.17C203.737 303.863 203.764 303.553 203.789 303.245C203.782 303.317 203.778 303.389 203.771 303.461C203.939 300.453 204.469 297.394 203.854 294.409C203.663 293.039 202.913 291.698 203.11 290.312C203.158 289.986 202.904 289.099 202.515 289.604C202.493 289.593 202.468 289.584 202.446 289.575C202.077 288.989 201.367 288.499 200.653 288.681V288.679ZM202.789 293.126C202.785 293.135 202.78 293.144 202.776 293.151C202.78 293.142 202.785 293.133 202.789 293.124V293.126ZM157.896 293.809V293.813C157.896 293.813 157.896 293.811 157.896 293.809ZM158.363 334.376C158.363 334.376 158.372 334.385 158.377 334.39C158.372 334.385 158.368 334.381 158.363 334.376Z" fill="#FE6D5E"/>
<path d="M152.215 195.483C151.876 195.79 151.876 196.527 152.215 196.835C154.311 197.828 156.494 198.717 158.765 199.209C160.113 199.528 160.849 198.239 160.003 197.208C157.433 196.642 154.713 196.269 152.215 195.48V195.483Z" fill="#FE6D5E"/>
<path d="M159.734 179.73C159.426 180.848 161.519 184.862 162.476 185.612C163.204 185.794 163.193 184.408 162.894 183.997C162.227 183.049 161.38 182.227 160.837 181.19C160.52 180.895 160.178 179.413 159.731 179.73H159.734Z" fill="#FE6D5E"/>
<path d="M175.22 174.195C174.914 174.51 175.128 175.006 175.121 175.397C175.262 176.632 175.173 177.888 175.366 179.117C175.366 179.402 175.709 179.9 175.965 179.501C176.251 179.036 176.087 178.44 176.069 177.928C175.88 177.241 175.817 174.287 175.22 174.198V174.195Z" fill="#FE6D5E"/>
<path d="M192.395 175.268C191.385 176.912 187.791 178.935 188.159 180.854C188.325 181.388 188.732 181.078 188.889 180.721C189.621 179.54 190.347 178.356 191.241 177.282C191.4 176.878 193.166 175.375 192.395 175.268Z" fill="#FE6D5E"/>
<path d="M204.19 177.199C202.916 178.61 201.313 179.632 199.844 180.802C199.498 181.112 199.509 181.676 199.637 182.089C200.118 183.035 201.113 181.599 201.587 181.233C202.081 180.514 205.715 177.734 204.19 177.199Z" fill="#FE6D5E"/>
<path d="M212.225 188.072C210.882 189.265 204.415 191.152 206.12 193.373C208.501 192.708 210.469 190.566 212.724 189.463C213.207 189.067 213.058 187.549 212.227 188.072H212.225Z" fill="#FE6D5E"/>
<path d="M205.368 199.392C204.969 201.095 209.526 202.436 210.871 202.535C211.357 202.389 211.309 201.659 211.195 201.263C211.056 200.821 210.476 200.866 210.124 200.677C208.63 200.295 207.235 199.628 205.905 198.853C205.593 198.664 205.404 199.15 205.368 199.39V199.392Z" fill="#FE6D5E"/>
<path d="M187.798 217.624C183.65 219.033 179.602 220.71 175.604 222.498C174.697 223.154 171.159 223.662 172.105 225.209C172.363 225.465 172.85 225.499 173.1 225.205C176.008 223.704 179.103 222.534 182.106 221.216C182.05 221.24 181.994 221.263 181.938 221.288C184.085 220.293 186.581 219.816 188.591 218.655C188.917 218.15 188.373 217.427 187.798 217.624Z" fill="#21242B"/>
<path d="M185.075 225.155C182.368 226.099 179.65 227.033 177.006 228.138C176.036 228.92 177.254 229.879 178.109 229.176C178.053 229.201 177.997 229.223 177.941 229.248C180.418 228.273 182.929 227.374 185.45 226.51C186.332 226.281 185.942 224.892 185.077 225.158L185.075 225.155Z" fill="#21242B"/>
<path d="M188.068 232.029C184.645 233.647 181.168 235.235 177.929 237.189C177.329 237.744 178.138 238.743 178.805 238.271C178.798 238.278 178.789 238.283 178.782 238.289C182.014 236.432 185.395 234.815 188.778 233.242C189.566 232.8 188.858 231.562 188.07 232.029H188.068ZM178.922 238.182C178.922 238.182 178.919 238.182 178.917 238.184L178.922 238.182Z" fill="#21242B"/>
<path d="M196.984 217.626C196.164 217.833 196.423 219.12 197.256 218.998C198.255 218.787 200.286 220.005 200.585 218.569C200.502 217.451 197.858 217.696 196.984 217.626Z" fill="#21242B"/>
<path d="M195.752 226.645C195.752 227.355 196.509 227.359 197.035 227.406C197.619 227.503 198.537 227.631 198.555 226.791C198.553 226.03 197.686 226.074 197.136 226.014C196.581 225.895 195.763 225.886 195.75 226.645H195.752Z" fill="#21242B"/>
<path d="M194.846 233.264C194.251 234.721 197.121 234.474 197.975 234.885C198.849 235.128 199.228 233.76 198.348 233.531C197.27 233.515 195.691 232.367 194.846 233.264Z" fill="#21242B"/>
<path d="M192.725 241.232C192.572 242.541 195.272 242.506 196.171 243.002C196.539 243.11 196.934 242.876 197.035 242.512C197.193 241.198 194.484 241.27 193.59 240.742C193.23 240.628 192.824 240.873 192.725 241.232Z" fill="#21242B"/>
<path d="M200.618 72.0044C200.587 72.0291 200.558 72.0561 200.533 72.0875C196.667 72.2313 192.705 72.8489 188.828 73.2982C186.295 73.9091 183.896 74.9828 181.333 75.4994C179.685 74.7918 177.872 75.5083 176.16 75.5173C172.452 75.3129 169.022 76.9459 165.565 78.0487C159.838 80.0028 155.06 83.682 151.08 88.172C151.107 88.145 151.134 88.1158 151.161 88.0889C144.283 94.6161 140.076 103.239 138.014 112.417C136.705 119.66 135.454 126.927 134.315 134.204C133.136 140.785 131.233 147.218 130.387 153.858C129.398 158.604 128.021 163.262 127.258 168.058C126.227 172.471 126.757 177.179 125.153 181.467C123.397 184.463 122.99 188.94 126.108 191.199C126.604 191.523 127.157 191.401 127.662 191.168C130.892 190.791 133.992 189.991 136.82 188.313C139.879 186.828 143.104 185.719 146.112 184.108C149.777 181.649 159.874 179.18 161.32 175.816C162.163 172.386 163.149 168.945 163.007 165.373C162.884 162.51 163.34 159.352 161.918 156.748C157.996 151.054 150.413 146.814 151.035 138.943C150.543 139.271 150.038 138.822 149.706 138.467C148.203 137.221 148.088 135.264 147.76 133.483C147.179 130.761 146.24 127.192 148.16 124.883C148.257 122.935 149.692 121.212 151.723 121.215C151.949 118.85 150.745 114.24 152.293 112.518C155.867 108.463 157.771 103.336 160.332 98.6524C161.511 96.7567 162.666 94.652 164.449 93.2662C168.604 91.6714 173.097 90.5506 177.578 90.9167C179.694 90.9033 181.654 91.4378 183.62 92.1162C186.272 92.1027 188.932 91.6018 191.605 91.8264C192.128 91.4401 194.435 92.2105 195.234 92.334C194.909 91.4244 196.389 90.9999 196.587 91.9567C198.318 94.7644 199.969 97.6304 201.51 100.541C203.927 106.282 205.032 112.54 206.375 118.602C211.204 119.101 209.686 125.855 209.477 129.229C208.186 133.371 207.143 138.566 202.667 140.37C202.045 142.292 201.497 144.307 200.547 146.086C199.897 147.443 199.81 149.395 198.705 150.394C197.975 152.523 196.811 154.491 196.173 156.636C195.059 162.822 196.569 169.423 199.268 175.021C200.29 176.892 202.546 177.114 204.338 177.837C208.543 180.328 213.592 180.438 217.779 182.976C220.838 185.366 221.148 183.713 224.281 183.244C225.678 182.981 227.127 182.931 228.488 182.491C230.061 181.649 231.469 180.476 233.068 179.632C236.413 177.61 240.456 175.099 240.159 170.625C239.912 168.527 238.27 167.002 237.749 165.021C237.363 162.031 235.894 159.462 234.991 156.643C234.589 154.794 234.241 152.928 233.531 151.162C231.927 144.507 229.856 137.915 228.942 131.113C228.672 125.844 226.75 120.918 226.051 115.714C225.083 112.74 225.146 109.602 224.517 106.572C223.852 104.4 222.682 102.419 221.999 100.245C219.115 92.963 217.79 83.8257 210.106 79.9444C208.332 78.6776 206.523 77.5276 205.126 75.8116C203.842 74.5807 202.433 73.4801 201.157 72.2402C201.016 72.0898 200.818 71.8584 200.616 72.0066L200.618 72.0044ZM179.588 76.2653C179.521 76.272 179.449 76.2743 179.379 76.281C179.449 76.2765 179.518 76.2698 179.588 76.2653ZM182.553 76.6606C182.553 76.6606 182.564 76.6629 182.566 76.6629C182.562 76.6629 182.557 76.6629 182.553 76.6606ZM170.527 77.5725L170.541 77.568C170.464 77.5928 170.386 77.6175 170.309 77.6422C170.37 77.6242 170.431 77.6017 170.491 77.5838C170.475 77.5883 170.462 77.5928 170.446 77.5972C170.473 77.5883 170.5 77.5793 170.527 77.5725ZM151.55 88.9941V88.9986L151.536 89.0098C151.536 89.0098 151.545 88.9986 151.552 88.9941H151.55ZM151.765 113.088C151.758 113.102 151.752 113.115 151.745 113.126C151.752 113.113 151.758 113.099 151.765 113.088ZM162.189 172.058C162.181 172.089 162.174 172.121 162.165 172.152C162.172 172.121 162.181 172.089 162.189 172.058Z" fill="#D6DEE3"/>
<path d="M150.564 117.996C150.288 122.511 150.749 127.021 150.787 131.536C150.969 136.45 150.573 141.657 152.572 146.263C156.31 152.413 161.548 157.921 167.444 162.051C171.462 164.578 176.46 164.331 180.981 163.68C181.985 163.507 187.288 162.44 185.123 161.029C183.508 161.357 181.952 162.289 180.229 162.382C171.772 163.909 166.701 160.984 161.184 154.823C158.057 151.378 154.212 147.959 153.037 143.301C151.757 136.764 152.426 130.019 151.91 123.402C151.863 121.601 151.878 119.797 151.973 117.998C151.988 117.109 150.555 117.075 150.569 117.998L150.564 117.996Z" fill="#21242B"/>
<path d="M205.311 118.143C205.309 125.205 204.123 132.289 202.648 139.185C201.226 146.57 197.778 153.479 191.758 158.165C190.606 159.02 189.443 159.926 188.077 160.408C187.205 160.633 187.569 162.019 188.45 161.763C193.432 159.652 197.163 155.184 200.069 150.748C203.351 144.587 204.586 137.534 205.63 130.697C205.696 129.542 208.315 113.961 205.314 118.145L205.311 118.143Z" fill="#21242B"/>
<path d="M172.117 88.5607C164.907 88.7651 159.561 94.4231 157.54 101.004C157.54 101.002 157.542 100.997 157.544 100.995C155.399 106.107 152.731 111.092 148.805 115.065C147.839 116.071 146.81 117.015 145.703 117.861C145.161 118.414 143.724 118.749 144.171 119.726C145.085 120.941 147.491 117.983 148.389 117.435C153.742 112.599 157.077 106.076 159.696 99.4544C162.113 91.9748 171.511 87.4983 178.624 91.1752C179.231 92.0804 180.614 91.3279 179.88 90.407C177.8 88.5809 174.752 88.5248 172.117 88.5585V88.5607Z" fill="#21242B"/>
<path d="M190.842 90.4019C189.389 90.5794 183.695 91.0017 184.16 93.0097C184.948 93.9733 186.267 92.3359 187.3 92.3628C191.352 91.388 195.75 91.5048 199.636 93.0838C208.89 96.8843 210.774 107.953 211.679 116.823C212.052 119.433 213.195 135.403 215.509 135.41C216.737 134.819 215.28 132.833 215.26 131.811C214.795 130.024 214.469 128.209 214.166 126.387C214.175 126.45 214.181 126.513 214.19 126.573C212.378 110.918 212.234 89.2901 190.842 90.3952V90.4019ZM195.121 91.9024C195.15 91.9068 195.179 91.9113 195.208 91.9136C195.179 91.9091 195.15 91.9046 195.121 91.9024Z" fill="#21242B"/>
<path d="M198.732 99.8018C198.054 99.9702 198.063 100.99 198.732 101.156C202.86 102.859 203.876 107.919 206.223 111.104C208.543 111.268 205.212 106.774 204.916 105.79C203.465 103.429 201.67 100.296 198.732 99.8018Z" fill="#21242B"/>
<path d="M177.386 74.1049C168.829 74.4935 160.758 78.3928 154.197 83.7475C154.244 83.7116 154.292 83.6734 154.339 83.6375C140.754 94.3851 136.711 112.089 134.409 128.418C134.416 128.376 134.42 128.333 134.427 128.29C134.321 129.094 134.207 129.899 134.104 130.7C134.104 130.689 134.106 130.676 134.108 130.665C134.101 130.721 134.092 130.777 134.086 130.833C134.09 130.804 134.092 130.775 134.097 130.745C133.423 136.044 132.489 141.304 131.624 146.576C131.642 148.02 129.36 155.702 131.121 155.659C132.118 155.594 131.774 154.327 131.923 153.649C132.149 151.708 132.498 149.786 132.825 147.861C133.953 141.179 135.06 134.49 135.907 127.769C138.223 112.067 142.145 95.1039 155.188 84.7425C155.141 84.7785 155.094 84.8167 155.046 84.8526C160.801 80.1897 167.692 76.6003 175.115 75.7109C176.879 75.493 178.673 75.3695 180.441 75.6031C181.503 75.511 183.511 76.9328 184.091 75.7266C184.329 74.0869 178.59 74.0577 177.386 74.1049ZM134.097 130.748C134.099 130.732 134.101 130.718 134.104 130.703C134.104 130.718 134.099 130.732 134.097 130.748Z" fill="#21242B"/>
<path d="M143.69 127.556C141.372 139.191 138.254 150.824 134.256 162.059C133.571 163.993 132.773 165.889 131.924 167.757C131.709 168.824 129.939 170.54 130.918 171.418C132.497 172.676 136.828 158.622 137.452 157.023C140.395 147.619 143.281 138.138 144.81 128.387C144.81 128.398 144.808 128.412 144.806 128.423C145.19 127.716 144.276 126.981 143.692 127.554L143.69 127.556ZM144.828 128.237C144.822 128.277 144.819 128.315 144.813 128.356C144.819 128.315 144.824 128.277 144.828 128.237Z" fill="#21242B"/>
<path d="M146.933 146.663C145.41 152.882 145.091 159.351 143.173 165.476C141.089 171.822 137.807 177.671 134.93 183.672C134.469 184.443 135.696 185.182 136.143 184.38C139.218 177.94 142.803 171.669 144.833 164.794C146.502 158.969 146.846 152.869 148.294 146.991C148.656 145.944 147.036 145.524 146.933 146.661V146.663ZM146.933 146.681C146.933 146.724 146.926 146.764 146.915 146.807C146.92 146.764 146.926 146.724 146.933 146.681Z" fill="#21242B"/>
<path d="M151.119 158.962C151.119 158.962 151.119 158.958 151.119 158.955C147.474 167.477 148.797 177.057 146.092 185.805C145.845 186.672 147.211 187.063 147.447 186.178C149.747 178.896 149.107 171.096 151.014 163.733C151.357 162.156 152.051 160.669 152.498 159.139C152.512 158.344 151.303 158.183 151.117 158.96L151.119 158.962ZM147.516 179.134C147.51 179.188 147.503 179.245 147.494 179.298C147.501 179.245 147.507 179.188 147.516 179.134Z" fill="#21242B"/>
<path d="M128.634 157.503C128.515 157.537 128.411 157.595 128.324 157.683C128.369 163.866 127.83 170.402 125.833 176.438C125.278 178.196 124.656 179.933 123.969 181.644C123.811 182.511 122.464 183.933 123.668 184.474C125.137 184.998 128.003 173.886 128.362 172.345C128.78 170.4 131.199 157.418 128.634 157.505V157.503Z" fill="#21242B"/>
<path d="M130.4 175.952C130.301 176.051 130.245 176.165 130.216 176.291C130.216 176.282 130.218 176.273 130.22 176.267C129.279 179.633 128.071 182.926 126.613 186.105C126.404 187.129 124.701 188.836 125.672 189.68C126.81 190.828 129.133 183.319 129.699 182.356C129.856 181.363 133.201 174.58 130.398 175.952H130.4Z" fill="#21242B"/>
<path d="M162.178 157.233C161.304 162.026 161.922 167.035 161.23 171.886C161.376 173.095 159.905 179.278 161.412 179.094C161.796 179.099 162.112 178.771 162.115 178.391C162.418 173.53 163.045 168.69 163.108 163.816C163.168 161.835 163.092 159.84 163.422 157.882C163.802 157.107 162.609 156.476 162.18 157.233H162.178Z" fill="#21242B"/>
<path d="M192.698 157.782C192.043 160.165 192.451 162.88 192.321 165.371C192.463 168.792 192.278 172.424 192.97 175.733C193.372 176.171 194.203 175.843 194.17 175.236C193.945 172.02 193.741 168.801 193.727 165.576C193.698 163.141 193.727 160.706 193.896 158.276C193.925 157.674 193.107 157.335 192.698 157.779V157.782Z" fill="#21242B"/>
<path d="M201.772 148.416C201.307 148.652 201.325 149.389 201.772 149.629C205.583 152.789 203.899 166.596 207.383 170.484C209.332 170.455 207.326 168.036 207.308 167.014C206.691 164.613 206.405 162.147 206.06 159.696C206.06 159.701 206.06 159.707 206.06 159.712C205.502 157.044 205.348 148.367 201.769 148.416H201.772Z" fill="#21242B"/>
<path d="M181.953 75.6871C181.946 76.5968 183.364 76.5968 183.357 75.6871C183.364 74.7775 181.946 74.7775 181.953 75.6871Z" fill="#21242B"/>
<path d="M194.258 71.6289C191.363 71.7277 188.423 72.1815 185.707 73.2147C184.811 73.8032 181.806 74.4658 181.967 75.654C182.077 76.0875 182.621 76.3121 182.998 76.0717C187.349 73.574 192.511 72.5723 197.486 73.2394C197.456 73.2349 197.427 73.2326 197.398 73.2281C204.417 73.8705 204.518 75.2968 209.496 79.3578C213.642 82.3429 217.629 85.8244 218.855 91.0062C221.813 101.311 224.547 111.718 226.878 122.185C228.949 133.725 230.782 145.311 234.214 156.553C235.429 161.168 236.809 165.887 239.502 169.881C239.944 170.636 241.195 169.973 240.715 169.171C239.641 167.671 238.844 165.986 238.154 164.279C234.747 154.83 232.465 144.938 230.549 135.082C229.041 124.471 226.647 114.04 223.72 103.739C222.054 97.5087 221.061 90.8804 217.815 85.2247C215.897 82.3182 212.961 80.3439 210.282 78.2033C210.295 78.2145 210.309 78.2235 210.322 78.2348C208.26 76.905 206.85 74.7735 204.714 73.5673C201.493 72.0691 197.769 71.7794 194.258 71.6289ZM209.359 79.25C209.401 79.2837 209.444 79.3174 209.489 79.3511C209.446 79.3174 209.404 79.2837 209.359 79.25ZM210.199 79.8991C210.199 79.8991 210.199 79.8991 210.201 79.9014C210.201 79.9014 210.201 79.9014 210.199 79.8991ZM210.284 78.2056C210.262 78.1876 210.239 78.1719 210.219 78.1539C210.241 78.1719 210.262 78.1876 210.284 78.2056Z" fill="#21242B"/>
<path d="M208.649 140.453C207.958 141.405 209.541 142.266 209.916 143.088C210.741 144.213 211.426 145.437 211.978 146.718C215.044 153.492 212.688 161.946 217.412 168.06C217.865 168.842 219.098 168.132 218.624 167.35C213.47 160.3 216.917 150.257 211.648 143.124C210.92 142.416 209.806 139.573 208.649 140.451V140.453ZM215.628 158.901C215.628 158.901 215.628 158.905 215.628 158.91C215.628 158.907 215.628 158.905 215.628 158.901Z" fill="#21242B"/>
<path d="M216.87 114.309C215.568 114.334 217.791 120.151 217.787 121.281C218.858 127.222 219.17 133.266 219.799 139.263C220.118 140.568 220.898 151.592 222.373 150.606C223.64 150.647 221.596 144.146 221.657 142.97C220.639 135.553 220.475 128.024 219.087 120.661C218.573 119.529 218.274 113.864 216.87 114.309Z" fill="#21242B"/>
<path d="M226.367 156.443C226.367 156.636 226.45 156.809 226.574 156.939C226.877 158.35 230.076 169.618 232.088 166.905C232.234 166.447 231.805 166.126 231.574 165.789C230.01 163.74 229.321 161.22 228.555 158.801C228.029 157.858 228.324 156.016 227.07 155.737C226.686 155.737 226.367 156.056 226.367 156.44V156.443ZM226.515 156.845C226.529 156.86 226.542 156.878 226.554 156.894C226.54 156.878 226.527 156.86 226.515 156.845Z" fill="#21242B"/>
<path d="M161.356 177.017C159.943 178.459 163.436 178.926 164.242 179.542C172.468 182.295 181.654 182.048 190.131 180.588C191.001 180.368 190.639 178.98 189.758 179.234C182.187 180.701 174.285 180.505 166.742 178.958C165.15 178.517 163.683 177.736 162.169 177.096C161.945 176.902 161.615 176.864 161.356 177.017ZM162.203 177.125C162.203 177.125 162.212 177.131 162.214 177.136C162.21 177.131 162.205 177.127 162.203 177.125Z" fill="#21242B"/>
<path d="M161.555 174.172C161.555 174.491 161.775 174.765 162.069 174.849C164.23 176.257 191.199 178.858 190.536 175.837C189.968 174.707 187.758 175.844 186.678 175.682C181.383 175.922 176.08 175.65 170.818 175.057C168.825 174.855 166.813 174.682 164.87 174.179C163.873 174.139 161.905 172.647 161.555 174.172Z" fill="#21242B"/>
<path d="M155.505 177.601C149.917 181.253 143.881 184.18 137.765 186.832C131.454 189.272 125.086 191.621 119.275 195.145C113.781 198.49 107.575 201.875 104.545 207.809C101.463 214.343 100.316 221.564 98.8422 228.583C96.7241 237.509 96.203 246.653 96.3198 255.8C96.5467 256.956 95.6886 260.245 97.0475 260.427C97.4226 260.427 97.7596 260.108 97.7506 259.724C97.6832 256.056 97.7304 252.383 97.8 248.715C97.8022 242.091 98.7546 235.542 100.17 229.082C101.576 222.35 102.694 215.452 105.468 209.114C109.354 200.992 120.484 196.041 128.23 192.1C128.224 192.102 128.217 192.104 128.21 192.109C137.83 188.322 147.545 184.548 156.213 178.811C156.264 178.782 156.311 178.746 156.354 178.701C156.936 178.153 156.177 177.17 155.503 177.599L155.505 177.601ZM128.084 192.165C128.084 192.165 128.071 192.171 128.064 192.174C128.071 192.171 128.078 192.167 128.084 192.165Z" fill="#21242B"/>
<path d="M111.643 286.499C111.655 286.511 111.668 286.52 111.68 286.529C111.671 286.513 111.661 286.495 111.655 286.479C111.65 286.485 111.645 286.492 111.641 286.499H111.643Z" fill="#21242B"/>
<path d="M165.345 109.067C163.065 109.288 160.529 109.348 158.593 110.705C157.8 111.161 158.528 112.389 159.301 111.918C161.875 110.33 165.251 110.393 168.186 110.541C169.033 110.494 170.383 111.565 170.844 110.462C170.947 108.782 166.538 109.11 165.345 109.07V109.067Z" fill="#21242B"/>
<path d="M191.097 111.409C190.227 111.448 189.365 111.558 188.505 111.668C188.002 111.796 187.813 112.481 188.195 112.84C188.684 113.278 189.419 112.872 190.007 112.89C192.233 112.654 194.495 112.928 196.631 113.579C196.997 113.687 197.395 113.453 197.494 113.09C197.705 111.441 192.312 111.472 191.097 111.407V111.409Z" fill="#21242B"/>
<path d="M164.301 118.881C163.744 120.348 167.899 121.405 169.002 121.486C170.098 121.466 174.422 121.796 174.548 120.503C174.557 120.136 174.22 119.777 173.845 119.8C171.614 120.065 169.243 120.476 167.093 119.611C166.213 119.409 165.094 117.915 164.301 118.879V118.881Z" fill="#21242B"/>
<path d="M187.227 121.349C187.469 123.492 192.748 122.627 194.288 122.288C194.877 122.162 194.98 121.28 194.457 121.006C193.752 120.761 192.97 121.219 192.238 121.241C190.176 121.861 187.467 120.148 187.227 121.349Z" fill="#21242B"/>
<path d="M168.514 141.368C167.497 143.417 173.972 145.036 175.47 145.276C176.755 145.66 184.156 145.404 183.878 143.641C183.777 143.271 183.383 143.05 183.015 143.151C181.299 143.619 179.556 144.077 177.766 144.07C175.046 144.009 172.254 143.275 169.974 141.766C169.579 141.406 169.024 140.854 168.516 141.366L168.514 141.368Z" fill="#21242B"/>
<path d="M181.811 123.085C180.829 123.622 180.991 125.127 180.865 126.104C180.557 128.786 181.802 131.113 182.651 133.539C183.01 135.149 180.357 135.533 180.84 136.786C181.808 137.91 183.446 135.681 183.843 134.821C184.708 132.602 182.552 130.72 182.39 128.559C182.217 127.103 182.125 125.567 182.581 124.154C182.952 123.649 182.413 122.887 181.811 123.087V123.085Z" fill="#21242B"/>
<path d="M161.774 219.804C156.572 222.672 154.4 224.977 152.369 230.585C148.376 238.874 147.722 248.294 143.706 256.564C143.421 257.454 141.718 259.599 143.571 259.601C144.443 259.055 144.566 257.698 145.117 256.843C148.865 249.091 149.595 240.327 153.061 232.468C154.699 228.649 156.125 224.474 160.105 222.504C160.844 221.745 163.153 221.343 162.731 220.056C162.54 219.73 162.093 219.604 161.769 219.804H161.774Z" fill="#21242B"/>
<path d="M159.193 215.653C158.517 216.473 155.871 223.361 157.331 223.649C158.639 223.939 158.418 220.796 158.969 219.905C158.998 218.894 161.545 215.075 159.193 215.65V215.653Z" fill="#21242B"/>
<path d="M165.013 211.228C162.331 211.556 160.144 213.681 159.023 216.048C158.776 216.967 156.689 220.677 158.915 220.12C159.654 219.249 159.645 217.852 160.202 216.828C161.121 214.909 163.344 212.133 165.689 212.838C166.334 213.4 166.264 214.355 166.327 215.136C166.323 216.046 167.747 216.044 167.731 215.136C167.798 213.418 167.091 211.145 165.013 211.226V211.228Z" fill="#21242B"/>
<path d="M183.886 214.82C180.061 215.058 176.359 216.073 172.642 216.94C169.908 217.652 167.042 218.045 164.545 219.438C164.012 219.717 164.131 220.584 164.711 220.721C165.416 220.788 166.014 220.168 166.674 219.968C175.51 217.702 197.466 209.937 195.17 226.428C193.423 239.835 183.794 244.058 173.39 250.223C166.683 253.862 160.859 258.997 155.949 264.805C154.911 266.407 153.013 267.876 152.539 269.668C152.694 270.245 153.518 270.369 153.822 269.837C156.537 266.056 159.608 262.561 163.058 259.437C170.874 251.607 182.078 248.386 190.009 240.745C194.218 236.372 196.48 230.231 196.74 224.213C197.315 216.815 190.168 214.09 183.886 214.825V214.82Z" fill="#21242B"/>
<path d="M141.922 261.428C141.026 262.127 141.953 262.823 142.749 262.915C143.654 263.34 144.456 263.941 145.262 264.521C146.259 264.977 148.739 267.555 149.619 266.437C150.084 265.354 148.406 265.083 147.793 264.539C145.893 263.573 144.161 261.266 141.922 261.426V261.428Z" fill="#21242B"/>
<path d="M194.73 209.212C190.142 209.502 184.214 209.581 181.501 213.934C181.254 214.437 180.966 214.96 180.867 215.513C180.854 216.312 182.062 216.465 182.249 215.69C182.249 215.692 182.249 215.695 182.249 215.699C184.598 209.578 195.195 210.578 200.588 210.818C205.341 211.378 209.761 213.298 213.398 216.407C213.901 216.739 214.618 216.193 214.429 215.614C213.146 214.223 211.345 213.172 209.728 212.146C205.134 209.765 199.856 209.003 194.73 209.21V209.212Z" fill="#21242B"/>
<path d="M211.772 205.304C210.153 205.448 208.749 206.593 208.203 208.112C207.963 209.075 206.714 211.578 208.203 211.89C209.339 211.733 208.796 210.1 209.261 209.325C210.108 205.531 214.479 206.196 215.988 209.167C215.961 209.134 215.934 209.098 215.907 209.064C223.524 218.195 225.747 221.988 227.315 234.048C227.737 235.629 227.49 237.633 228.353 238.987C228.876 239.304 229.555 238.785 229.384 238.194C228.038 228.693 226.671 218.523 219.505 211.456C217.259 209.082 215.718 204.727 211.768 205.304H211.772Z" fill="#21242B"/>
<path d="M186.437 243.566C185.981 243.82 185.975 244.532 186.444 244.779H186.437C190.725 248.222 196.381 249.464 201.796 249.222C203.578 249.152 205.437 248.429 207.187 248.983C209.373 249.844 210.121 252.604 211.967 253.685C213.052 253.572 212.616 252.442 212.048 251.948C212.054 251.957 212.061 251.964 212.066 251.973C209.754 248.575 207.513 246.517 203.184 247.654C203.198 247.654 203.209 247.649 203.223 247.649C198.573 248.22 193.549 247.514 189.467 245.136C188.439 244.763 187.563 243.265 186.44 243.564L186.437 243.566ZM202.973 247.685C202.973 247.685 202.955 247.687 202.946 247.69C202.955 247.69 202.964 247.687 202.973 247.685Z" fill="#21242B"/>
<path d="M209.152 250.366C208.799 251.228 209.961 251.873 210.217 252.657C211.479 254.966 211.883 257.612 212.521 260.136C212.75 261.01 214.12 260.642 213.876 259.764C213.568 258.281 211.4 248.427 209.154 250.366H209.152Z" fill="#21242B"/>
<path d="M229.082 245.086C223.815 248.59 218.916 252.658 213.604 256.072C213.613 256.067 213.622 256.065 213.631 256.06C212.905 256.415 213.357 257.597 214.143 257.356C217.254 255.665 219.898 253.192 222.84 251.22C225.14 249.558 227.472 247.934 229.792 246.299C230.578 245.85 229.859 244.612 229.082 245.086Z" fill="#21242B"/>
<path d="M166.363 215.261C166.556 216.158 165.725 217.97 167.005 218.181C168.236 217.97 167.582 216.153 167.767 215.261C167.773 214.354 166.356 214.352 166.363 215.261Z" fill="#21242B"/>
<path d="M139.992 261.732C140.147 261.584 140.277 261.393 140.289 261.18C140.194 261.366 140.093 261.548 139.992 261.732Z" fill="#21242B"/>
<path d="M152.031 273.155C152.031 273.155 152.038 273.162 152.04 273.164C152.045 273.11 152.045 273.053 152.038 272.999C152.043 273.051 152.038 273.103 152.031 273.155Z" fill="#21242B"/>
<path d="M118.547 237.405C118.416 237.627 118.428 237.89 118.547 238.115C119.537 239.885 120.521 241.666 121.197 243.586C124.061 251.36 126.089 259.442 127.783 267.543C127.998 268.413 129.393 268.053 129.137 267.17C128.612 264.089 121.824 234.793 118.549 237.405H118.547Z" fill="#21242B"/>
<path d="M137.176 263.775C127.776 268.827 119.395 275.572 110.934 282.025C110.981 281.989 111.029 281.951 111.076 281.915C110.034 282.986 103.403 287.73 104.526 288.912C105.577 289.774 107.026 286.971 107.954 286.463C111.105 283.494 114.613 280.945 118.052 278.319C122.367 274.997 126.812 271.85 131.358 268.854C133.461 267.446 135.612 266.107 137.885 264.986C138.663 264.544 137.971 263.301 137.176 263.773V263.775Z" fill="#21242B"/>
<path d="M96.4463 270.235C95.3793 276.346 95.7792 282.606 95.6916 288.783C95.7814 296.786 95.9229 304.823 97.0909 312.754C97.0819 312.691 97.0752 312.63 97.0662 312.567C97.6457 316.145 99.7099 331.729 104.218 331.221C104.815 330.583 104.013 330.058 103.566 329.658C99.4718 324.034 99.2741 316.466 98.0994 309.809C98.0994 309.818 98.1016 309.829 98.1039 309.838C97.3851 303.711 97.2391 297.536 97.1246 291.373C97.1942 284.461 96.7068 277.456 97.8007 270.607C98.0612 269.736 96.6686 269.354 96.4485 270.235H96.4463ZM98.0724 309.616C98.0814 309.676 98.0904 309.739 98.0972 309.8C98.0904 309.751 98.0837 309.699 98.0769 309.649C98.0769 309.654 98.0769 309.658 98.0769 309.661C98.0769 309.645 98.0724 309.629 98.0702 309.614L98.0724 309.616Z" fill="#21242B"/>
<path d="M151.264 275.489C146.565 286.846 139.531 297.16 131.981 306.87C132.017 306.823 132.055 306.776 132.091 306.728C125.955 314.664 118.936 322.004 110.83 327.945C109.792 328.801 108.404 329.151 107.359 329.913C106.991 330.474 107.701 331.234 108.28 330.888C123.221 322.788 136.395 304.136 145.519 289.966C146.224 288.62 154.957 274.162 151.267 275.487L151.264 275.489ZM108.341 330.854C108.341 330.854 108.321 330.87 108.309 330.874C108.321 330.867 108.332 330.861 108.341 330.854Z" fill="#21242B"/>
<path d="M194.855 174.297C194.323 174.587 194.444 175.44 195.024 175.58C202.847 178.439 210.98 180.449 218.707 183.605C225.414 186.269 232.678 188.91 236.977 195.067C245.393 207.904 249.119 223.247 252.477 238.056C254.229 247.235 255.17 256.575 257.882 265.55C258.445 266.689 258.827 272.181 260.128 271.653C260.505 271.55 260.707 271.161 260.617 270.788C259.82 267.325 258.886 263.893 257.987 260.454C256.408 254.358 255.651 248.098 254.607 241.899C251.527 226.194 246.658 205.624 236.943 192.794C232.071 186.799 224.378 184.445 217.472 181.622C210.057 178.967 202.333 176.323 194.855 174.295V174.297Z" fill="#21242B"/>
<path d="M231.162 249.676C230.053 250.835 232.312 254.181 232.826 255.5C235.097 259.884 237.175 264.361 239.185 268.869C244.068 280.367 247.532 292.372 250.335 304.53C250.56 305.388 251.939 305.047 251.689 304.158C249.028 292.785 245.933 281.505 241.427 270.706C238.902 263.671 234.684 257.315 232.216 250.3C232.216 250.307 232.216 250.311 232.213 250.318C232.269 249.783 231.62 249.384 231.162 249.673V249.676ZM232.209 250.32C232.211 250.336 232.209 250.349 232.204 250.365C232.204 250.349 232.207 250.336 232.209 250.32Z" fill="#21242B"/>
<path d="M212.083 262.316C211.975 262.477 211.962 262.677 212.013 262.857C212.085 263.353 212.153 263.854 212.225 264.351C212.225 264.337 212.22 264.324 212.22 264.312C212.22 264.326 212.222 264.339 212.227 264.355C212.409 265.696 212.586 267.039 212.768 268.38C212.768 268.369 212.766 268.358 212.764 268.346C215.405 285.323 219.282 302.22 226.319 317.959C230.623 328.244 238.572 344.87 252.284 339.472C253.744 338.744 255.393 337.911 256.449 336.678C256.316 334.362 253.661 337.419 252.684 337.718C239.683 344.059 231.822 327.388 227.716 317.689C224.024 309.246 221.009 300.527 218.788 291.583C216.935 283.874 215.387 276.089 214.161 268.254C213.709 267.113 213.995 260.346 212.088 262.318L212.083 262.316ZM212.198 264.164C212.198 264.164 212.198 264.178 212.2 264.184C212.2 264.178 212.2 264.171 212.198 264.164ZM212.198 264.171C212.198 264.171 212.198 264.178 212.198 264.18C212.198 264.178 212.198 264.173 212.198 264.171ZM212.222 264.36C212.222 264.36 212.222 264.353 212.222 264.348C212.222 264.353 212.222 264.355 212.222 264.36Z" fill="#21242B"/>
<path d="M260.049 277.096C259.755 277.26 259.622 277.649 259.755 277.954C260.177 279.569 260.251 281.254 260.505 282.9C261.003 289.198 261.259 295.523 261.17 301.842C261.08 305.406 260.95 308.968 260.682 312.524C260.855 313.555 259.737 316.152 261.138 316.356C263.297 317.142 263.151 274.077 260.049 277.096Z" fill="#21242B"/>
<path d="M114.132 327.198C113.824 333.029 114.013 338.862 114.357 344.687C114.489 349.783 114.305 353.52 120.614 353.628C125.65 354.104 130.69 354.565 135.735 354.954C155.166 355.459 174.503 357.653 193.912 358.498C205.947 358.693 217.999 358.453 230.009 357.606C233.85 357.229 237.646 356.465 241.395 355.555C242.289 355.36 244.295 355.091 243.109 353.909C239.452 354.23 235.759 355.641 232.02 355.975C226.544 356.607 221.016 356.699 215.513 356.941C201.443 357.427 187.362 357.186 173.351 355.758C155.47 354.188 137.489 354.062 119.642 352.112C115.338 352.101 115.967 348.067 115.776 344.952C115.432 339.04 115.226 333.114 115.538 327.196C115.54 326.286 114.139 326.286 114.134 327.196L114.132 327.198ZM117.077 351.346C117.115 351.375 117.155 351.407 117.193 351.436C117.153 351.407 117.115 351.378 117.077 351.346Z" fill="#21242B"/>
<path d="M243.947 341.949C243.859 343.53 242.388 354.406 244.093 354.278C245.413 354.48 244.477 349.532 244.818 348.429C244.825 346.219 245.299 343.946 245.229 341.781C244.953 341.257 244.068 341.36 243.947 341.947V341.949Z" fill="#21242B"/>
<path d="M237.849 173.407C233.307 178.638 226.324 181.154 219.563 181.756C218.66 181.74 218.651 183.185 219.563 183.16C224.309 182.814 228.979 181.394 233.13 179.076C234.15 178.87 242.016 172.578 237.849 173.407Z" fill="#21242B"/>
<path d="M149.952 120.466C145.022 120.742 145.994 137.442 149.525 138.971C150.687 139.423 150.961 137.851 149.851 137.536C147.908 135.663 146.61 121.896 150.469 121.865C151.751 121.669 151.075 120.106 149.954 120.466H149.952Z" fill="#21242B"/>
<path d="M206.466 118.453C205.862 118.44 205.527 119.233 205.969 119.65C206.556 120.091 207.445 119.745 208.029 120.234C210.558 123.17 208.222 138.32 204.188 139.805C202.475 140.398 203.678 142.186 205.644 140.591C209.269 137.437 209.669 132.163 210.3 127.694C210.401 124.372 211.351 118.363 206.464 118.453H206.466Z" fill="#21242B"/>
<path d="M204.298 111.215C203.431 111.835 204.552 112.843 204.519 113.654C204.858 114.609 203.971 116.549 205.289 116.817C206.776 116.963 205.909 110.202 204.298 111.215Z" fill="#21242B"/>
<path d="M186.055 93.0357C186.05 93.6736 186.702 93.7567 187.196 93.7904C187.135 93.7814 187.072 93.7747 187.009 93.7657C189.258 94.1341 191.165 95.5042 192.962 96.8249C192.914 96.789 192.867 96.7508 192.82 96.7149C194.116 97.5684 195.19 98.9138 196.585 99.5382C197.184 99.5607 197.53 98.7454 197.081 98.3388C195.587 97.0698 187.319 90.1742 186.055 93.0357Z" fill="#21242B"/>
<path d="M196.573 93.8212C196.11 94.9802 197.972 95.2205 198.622 95.8157C201.699 97.6351 203.943 100.488 206.42 103.006C206.683 103.284 207.148 103.271 207.413 103.006C208.152 101.858 205.933 100.802 205.394 99.8835C204.259 98.6122 198.044 92.3455 196.575 93.8212H196.573Z" fill="#21242B"/>
<path d="M166.47 83.6456C157.964 85.8625 152.577 93.7509 148.065 100.761C147.6 101.534 148.817 102.259 149.278 101.469C153.626 94.7953 158.759 86.9564 166.975 85.0135C166.964 85.0135 166.95 85.0112 166.939 85.009C168.246 84.9012 167.635 83.2143 166.467 83.6456H166.47Z" fill="#21242B"/>
<path d="M192.301 77.0392C191.048 77.1515 189.741 77.448 188.667 78.1106C188.088 78.6699 188.845 79.6335 189.523 79.209C189.523 79.209 189.521 79.209 189.518 79.2112C189.55 79.191 189.581 79.173 189.615 79.1573C189.601 79.1641 189.588 79.1686 189.575 79.1753C189.604 79.1641 189.635 79.1483 189.664 79.1371C189.66 79.1371 189.655 79.1416 189.651 79.1416C194.541 77.2661 200.008 79.4583 204.653 81.1878C205.679 81.4034 207.332 83.2161 208.186 82.2255C208.682 80.907 205.947 80.478 205.122 79.8738C201.081 78.2005 196.708 76.9022 192.297 77.0392H192.301ZM189.66 79.1034C189.66 79.1034 189.66 79.1034 189.658 79.1057C189.658 79.1057 189.658 79.1057 189.66 79.1034ZM189.557 79.182C189.536 79.191 189.516 79.1977 189.498 79.2067C189.518 79.1977 189.539 79.191 189.557 79.182ZM189.617 79.1573C189.631 79.1528 189.642 79.1461 189.655 79.1416C189.644 79.1461 189.631 79.1528 189.619 79.1573H189.617Z" fill="#21242B"/>
<path d="M195.527 84.4166C194.903 84.7468 195.206 85.7733 195.9 85.7194C195.895 85.7194 195.889 85.7216 195.884 85.7239C205.655 85.4611 212.27 94.1378 215.237 102.552C215.549 103.129 215.61 103.908 216.117 104.346C216.625 104.67 217.344 104.133 217.148 103.554C215.36 99.3556 213.736 94.9083 210.7 91.4268C206.841 87.2849 201.38 83.8147 195.529 84.4144L195.527 84.4166Z" fill="#21242B"/>
<path d="M147.122 196.826C146.124 197.702 147.908 199.187 148.087 200.216C148.894 202.237 149.406 204.366 149.826 206.498C150.486 210.301 150.778 214.15 151.129 217.991C151.268 218.638 151.041 219.799 151.964 219.847C153.402 220.08 152 214.93 152.157 213.874C152.036 211.217 150.185 196.541 147.119 196.828L147.122 196.826Z" fill="#21242B"/>
<path d="M180.225 258.329C179.315 259.578 179.369 261.431 178.619 262.83C176.981 266.916 174.517 270.591 172.143 274.274C171.678 275.047 172.896 275.773 173.356 274.984C174.295 273.533 175.238 272.087 176.143 270.616C178.322 267.094 180.261 263.352 181.186 259.293C181.186 259.293 181.186 259.293 181.184 259.295C181.57 258.709 180.811 257.947 180.227 258.331L180.225 258.329ZM178.174 263.9C178.174 263.9 178.172 263.906 178.169 263.911C178.169 263.906 178.172 263.904 178.174 263.9Z" fill="#21242B"/>
<path d="M190.03 268.991C189.435 270.233 190.823 271.686 191.085 272.944C192.503 276.749 194.257 280.464 196.755 283.689C197.633 284.592 201.689 290.241 202.727 289.143C203.569 288.065 200.771 286.569 200.232 285.632C199.421 284.763 198.653 283.851 197.918 282.917C194.81 278.874 192.9 274.076 191.207 269.314C191.209 269.335 191.211 269.357 191.216 269.377C191.157 268.829 190.409 268.589 190.034 268.993L190.03 268.991Z" fill="#21242B"/>
<path d="M115.259 335.388C114.226 335.781 115.028 336.845 115.553 337.328C120.769 345.028 130.425 347.51 139.29 346.811C140.189 346.811 140.204 345.399 139.29 345.408C132.945 345.814 126.193 344.875 120.946 341.046C119.088 339.529 117.622 337.596 116.085 335.772C115.948 335.464 115.58 335.298 115.259 335.388Z" fill="#21242B"/>
<path d="M241.921 344.24C239.506 346.087 236.816 347.513 234.006 348.661C233.393 349.013 232.058 349.045 232.254 350.022C232.665 351.536 237.162 348.58 238.21 348.247C239.848 347.34 241.71 346.419 242.952 345.033C243.136 344.456 242.429 343.906 241.921 344.24Z" fill="#21242B"/>
<path d="M109.759 268.965C109.458 269.048 109.242 269.329 109.242 269.641C109.242 269.769 109.278 269.89 109.341 269.996C110.808 272.923 111.432 276.139 111.558 279.394C111.542 280.301 112.986 280.303 112.962 279.394C112.944 277.514 111.852 269.1 109.761 268.965H109.759ZM111.279 276.314C111.284 276.348 111.288 276.382 111.293 276.417C111.288 276.384 111.284 276.35 111.279 276.314Z" fill="#21242B"/>
<path d="M125.217 223.976C123.223 225.852 118.623 240.79 121.482 242.201C122.23 242.181 122.244 241.401 122.089 240.851C121.848 237.88 122.511 234.915 123.288 232.062C123.778 230.321 124.42 228.63 125.134 226.97C125.39 226.099 127.055 223.954 125.217 223.974V223.976ZM122.208 237.116C122.203 237.15 122.199 237.183 122.194 237.215C122.199 237.181 122.203 237.147 122.208 237.116Z" fill="#21242B"/>
<path d="M217.738 205.168C216.543 205.35 218.16 211.03 218.126 212.245C218.256 212.829 219.128 212.944 219.409 212.414C219.64 211.733 219.251 210.972 219.229 210.267C218.847 209.242 219.198 204.793 217.735 205.168H217.738Z" fill="#21242B"/>
<path d="M233.313 190.216C225.84 193.882 224.014 203.226 223.367 210.791C223.354 211.689 224.778 211.71 224.771 210.791C225.272 204.796 226.467 198.262 230.723 193.729C231.655 192.642 233.017 192.087 234.104 191.247C234.429 190.742 233.888 190.021 233.311 190.216H233.313ZM224.971 208.637C224.971 208.653 224.967 208.668 224.964 208.686C224.967 208.671 224.969 208.655 224.971 208.637Z" fill="#21242B"/>
<path d="M112.744 205.749C112.488 206.005 112.454 206.49 112.744 206.742C114.64 208.849 115.996 211.429 117.158 214.001C117.757 215.41 118.222 216.869 118.624 218.345C119.208 219.376 119.136 223.893 120.516 223.496C122.018 223.085 118.986 214.877 118.485 213.568C117.84 212.225 114.386 204.538 112.742 205.749H112.744Z" fill="#21242B"/>
<path d="M156.133 292.348C156.445 302.298 155.996 312.271 156.746 322.203C156.876 324.526 157.175 326.833 157.312 329.155C157.218 330.024 157.755 331.929 158.806 330.768C157.993 321.422 157.525 311.887 157.703 302.435C157.631 299.073 157.577 295.71 157.537 292.346C157.543 291.452 156.124 291.427 156.133 292.346V292.348Z" fill="#21242B"/>
<path d="M198.527 288.039C190.94 288.45 183.38 289.295 175.801 289.859C169.548 290.33 163.245 290.427 157.069 291.559C157.077 291.559 157.086 291.557 157.095 291.555C156.538 291.456 156.044 292.109 156.361 292.61C157.446 293.531 159.804 292.276 161.186 292.294C167.358 291.73 173.555 291.512 179.725 290.923C185.803 290.485 191.863 289.812 197.948 289.466C202.168 289.43 203.453 288.313 203.527 293.462C204.217 301.977 202.586 310.418 202.166 318.903C201.867 322.935 202.335 327.01 201.883 331.026C190.156 333.941 177.843 332.445 165.97 334.33C162.987 334.714 159.988 335.159 156.972 335.001C156.538 334.869 155.993 334.932 155.858 335.444C155.512 338.09 169.548 334.894 171.641 334.992C181.345 334.527 191.097 334.525 200.699 332.809C201.865 332.632 203.39 332.25 203.336 330.792C203.68 326.742 203.291 322.661 203.588 318.605C204.026 310.146 205.648 301.727 204.92 293.239C204.718 287.99 203.521 287.691 198.532 288.035L198.527 288.039ZM157.03 291.566C157.03 291.566 157.015 291.566 157.006 291.568C157.015 291.568 157.021 291.568 157.03 291.566ZM157.152 291.582C157.152 291.582 157.152 291.582 157.154 291.582C157.154 291.582 157.154 291.582 157.152 291.582ZM201.98 330.927C201.966 330.947 201.951 330.967 201.933 330.988C201.948 330.967 201.964 330.947 201.98 330.927ZM157.095 291.557C157.129 291.552 157.161 291.548 157.194 291.543C157.163 291.548 157.129 291.552 157.095 291.557Z" fill="#21242B"/>
<path d="M156.812 330.923C157.012 332.057 155.916 335.75 157.679 335.646C158.146 335.52 158.272 335.022 158.133 334.606C158.083 333.38 158.184 332.149 158.216 330.923C158.229 330.015 156.81 330.013 156.812 330.923Z" fill="#21242B"/>
<path d="M169.249 308.244C168.333 308.166 166.359 308.848 167.751 309.826C162.437 312.478 167.407 322.626 173.888 318.206C177.791 315.079 174.341 307.175 169.249 308.247V308.244ZM170.386 310.69C170.696 310.396 170.635 309.873 170.303 309.621C175.002 309.724 175.718 318.657 170.211 317.817C167.387 317.593 165.965 313.433 167.735 311.407C168.492 310.769 169.611 311.146 170.386 310.69Z" fill="#21242B"/>
<path d="M191.435 292.565C185.712 292.401 184.467 299.497 187.655 303.187C190.148 305.802 195.017 304.45 195.954 301.006C196.855 298.428 196.338 295.611 193.998 294.021C193.719 293.76 193.283 293.745 193.005 294.021C192.423 294.634 193.185 295.193 193.62 295.598C196.956 298.158 193.777 304.813 189.602 302.855C186.37 301.163 186.408 294.346 190.673 294.066C191.087 293.969 191.599 294.07 191.929 293.765C192.371 293.358 192.037 292.534 191.433 292.568L191.435 292.565Z" fill="#21242B"/>
<path d="M192.621 316.857C181.161 320.411 191.536 335.934 198.048 324.144C198.652 323.003 198.699 321.628 198.187 320.447C197.722 319.613 196.756 317.167 195.563 317.98C195.287 318.248 195.298 318.704 195.563 318.973C198.944 321.698 195.9 327.091 192.057 327.028C187.226 326.174 188.479 318.663 192.994 318.212C193.288 318.129 193.51 317.855 193.51 317.536C193.513 317.078 193.05 316.734 192.621 316.857Z" fill="#21242B"/>
<path d="M186.482 300.64C183.791 302.695 181.159 304.856 178.43 306.868C177.358 307.749 172.59 310.121 173.517 311.639C174.591 312.38 175.321 310.473 176.213 310.064C178.944 308.227 181.615 306.334 184.121 304.189C184.074 304.224 184.027 304.263 183.98 304.299C184.764 303.353 188.387 302.017 187.475 300.64C187.201 300.366 186.758 300.375 186.482 300.64Z" fill="#21242B"/>
<path d="M174.027 316.254C173.225 317.795 180.947 320.306 182.239 321.162C184.09 322.078 186.089 322.552 188.036 323.201C188.905 323.453 189.289 322.089 188.409 321.849C184.076 320.636 179.986 318.722 176.008 316.64C175.411 316.335 174.584 315.423 174.027 316.254Z" fill="#21242B"/>
<path d="M179.374 182.499C177.247 182.795 168.112 181.915 167.791 184.183C166.185 193.687 166.333 203.365 165.891 212.968C167.31 212.781 166.744 217.237 167.196 218.338C167.609 208.105 167.405 197.622 168.73 187.389C168.73 187.395 168.73 187.404 168.727 187.411C168.894 186.432 168.93 185.412 169.186 184.455C179.778 183.409 190.634 183.903 201.209 184.949C201.078 193.134 199.313 201.292 199.066 209.511C199.041 210.405 200.485 210.429 200.47 209.511C200.692 206.315 200.946 203.121 201.231 199.931C201.588 195.284 202.489 190.686 202.696 186.03C202.911 184.06 201.829 183.343 199.982 183.332C197.761 183.087 195.528 182.982 193.296 182.896C188.657 182.717 184.019 182.467 179.376 182.501L179.374 182.499ZM201.222 184.952C201.236 184.976 201.245 185.001 201.254 185.028C201.242 185.003 201.231 184.979 201.222 184.952ZM201.301 184.997C201.314 185.006 201.328 185.017 201.341 185.028C201.328 185.017 201.314 185.008 201.301 184.997Z" fill="#21242B"/>
<path d="M168.742 187.387C168.742 187.387 168.742 187.373 168.745 187.363C168.745 187.37 168.745 187.377 168.742 187.387Z" fill="#21242B"/>
<path d="M168.75 187.25V187.253L168.753 187.25H168.75Z" fill="#21242B"/>
<path d="M168.75 187.266C168.75 187.266 168.75 187.275 168.75 187.279C168.75 187.27 168.752 187.261 168.755 187.252C168.755 187.257 168.755 187.261 168.755 187.266H168.75Z" fill="#21242B"/>
<path d="M168.742 187.362C168.742 187.362 168.745 187.341 168.747 187.332C168.747 187.341 168.745 187.353 168.742 187.362Z" fill="#21242B"/>
<path d="M173.436 189.965C172.751 191.987 173.012 194.329 172.753 196.463C172.843 197.346 172.01 199.123 173.297 199.327C174.618 199.392 174.067 193.797 174.402 192.616C174.427 191.733 175.206 189.006 173.436 189.965Z" fill="#21242B"/>
<path d="M175.763 189.716C175.105 189.851 174.177 189.703 173.73 190.276C173.259 191.385 174.609 191.424 175.332 191.161C176.504 191.237 179.047 190.66 179.552 191.906C179.689 193.843 179.375 195.779 179.13 197.695C179.139 197.632 179.146 197.571 179.155 197.508C179.202 198.479 177.967 201.288 179.838 200.812C180.691 199.465 180.413 197.261 180.794 195.655C181.426 190.689 181.075 189.478 175.763 189.714V189.716Z" fill="#21242B"/>
<path d="M172.44 197.731C172.804 200.672 171.258 205.049 175.912 204.308C176.894 204.007 179.391 204.831 179.567 203.538C179.567 203.16 179.248 202.828 178.864 202.835C177.644 202.513 174.448 203.605 173.967 202.406C173.628 201.242 174.553 197.174 173.141 197.028C172.759 197.028 172.438 197.347 172.438 197.731H172.44Z" fill="#21242B"/>
<path d="M178.991 199.554C178.517 200.516 178.773 201.767 178.625 202.829C178.614 203.737 180.033 203.739 180.029 202.829C179.905 201.897 180.916 198.546 178.991 199.554Z" fill="#21242B"/>
<path d="M176.008 194.195C176.001 195.105 177.418 195.105 177.412 194.195C177.418 193.285 176.001 193.285 176.008 194.195Z" fill="#21242B"/>
<path d="M175.766 197.524C175.759 198.434 177.176 198.434 177.169 197.524C177.176 196.614 175.759 196.614 175.766 197.524Z" fill="#21242B"/>
<path d="M175.18 201.069C175.173 201.979 176.59 201.979 176.584 201.069C176.59 200.159 175.173 200.159 175.18 201.069Z" fill="#21242B"/>
<path d="M198.871 248.969C198.503 249.043 198.119 249.068 197.746 249.01C197.995 250.032 196.985 252.857 198.348 253.017C199.693 252.774 198.907 249.969 199.148 248.906C199.056 248.931 198.963 248.953 198.869 248.969H198.871Z" fill="#21242B"/>
<path d="M166.878 219.115C166.773 219.196 166.645 219.245 166.512 219.254C166.222 219.448 166.24 219.796 166.195 220.099C166.472 219.665 166.856 219.028 167.458 219.344C167.314 219.183 167.094 219.095 166.878 219.115Z" fill="#21242B"/>
<path d="M167.689 254.351C167.264 254.724 166.84 255.092 166.406 255.449C175.595 256.844 184.923 256.442 194.175 256.049C195.624 255.871 197.257 256.044 198.604 255.514C199.53 253.751 196.778 254.501 195.873 254.535C186.523 255.042 177.1 255.429 167.783 254.245C167.756 254.283 167.725 254.319 167.689 254.351Z" fill="#21242B"/>
<path d="M197.66 253.315C197.408 254.357 198.998 254.716 199.068 253.604C199.32 252.562 197.732 252.203 197.66 253.315Z" fill="#21242B"/>
</g>
</svg>
