<svg width="116" height="20" viewBox="0 0 116 20" fill="none" xmlns="http://www.w3.org/2000/svg">
<path d="M9.77582 0.454246C9.86752 0.268435 10.1325 0.268435 10.2242 0.454246L12.8808 5.83705C12.9172 5.91084 12.9876 5.96198 13.069 5.97381L19.0093 6.83699C19.2143 6.86678 19.2962 7.11878 19.1478 7.26341L14.8494 11.4533C14.7905 11.5108 14.7636 11.5935 14.7775 11.6746L15.7922 17.5909C15.8272 17.7951 15.6129 17.9509 15.4295 17.8544L10.1163 15.0612C10.0435 15.0229 9.9565 15.0229 9.88367 15.0612L4.57052 17.8544C4.38711 17.9509 4.17275 17.7951 4.20778 17.5909L5.2225 11.6746C5.23641 11.5935 5.20952 11.5108 5.1506 11.4533L0.852172 7.26341C0.703793 7.11878 0.785671 6.86678 0.990726 6.83699L6.93101 5.97381C7.01243 5.96198 7.08283 5.91084 7.11924 5.83705L9.77582 0.454246Z" fill="#FFCA4F"/>
<path d="M33.7758 0.454246C33.8675 0.268435 34.1325 0.268435 34.2242 0.454246L36.8808 5.83705C36.9172 5.91084 36.9876 5.96198 37.069 5.97381L43.0093 6.83699C43.2143 6.86678 43.2962 7.11878 43.1478 7.26341L38.8494 11.4533C38.7905 11.5108 38.7636 11.5935 38.7775 11.6746L39.7922 17.5909C39.8272 17.7951 39.6129 17.9509 39.4295 17.8544L34.1163 15.0612C34.0435 15.0229 33.9565 15.0229 33.8837 15.0612L28.5705 17.8544C28.3871 17.9509 28.1728 17.7951 28.2078 17.5909L29.2225 11.6746C29.2364 11.5935 29.2095 11.5108 29.1506 11.4533L24.8522 7.26341C24.7038 7.11878 24.7857 6.86678 24.9907 6.83699L30.931 5.97381C31.0124 5.96198 31.0828 5.91084 31.1192 5.83705L33.7758 0.454246Z" fill="#FFCA4F"/>
<path d="M57.7758 0.454246C57.8675 0.268435 58.1325 0.268435 58.2242 0.454246L60.8808 5.83705C60.9172 5.91084 60.9876 5.96198 61.069 5.97381L67.0093 6.83699C67.2143 6.86678 67.2962 7.11878 67.1478 7.26341L62.8494 11.4533C62.7905 11.5108 62.7636 11.5935 62.7775 11.6746L63.7922 17.5909C63.8272 17.7951 63.6129 17.9509 63.4295 17.8544L58.1163 15.0612C58.0435 15.0229 57.9565 15.0229 57.8837 15.0612L52.5705 17.8544C52.3871 17.9509 52.1728 17.7951 52.2078 17.5909L53.2225 11.6746C53.2364 11.5935 53.2095 11.5108 53.1506 11.4533L48.8522 7.26341C48.7038 7.11878 48.7857 6.86678 48.9907 6.83699L54.931 5.97381C55.0124 5.96198 55.0828 5.91084 55.1192 5.83705L57.7758 0.454246Z" fill="#FFCA4F"/>
<path d="M81.7758 0.454246C81.8675 0.268435 82.1325 0.268435 82.2242 0.454246L84.8808 5.83705C84.9172 5.91084 84.9876 5.96198 85.069 5.97381L91.0093 6.83699C91.2143 6.86678 91.2962 7.11878 91.1478 7.26341L86.8494 11.4533C86.7905 11.5108 86.7636 11.5935 86.7775 11.6746L87.7922 17.5909C87.8272 17.7951 87.6129 17.9509 87.4295 17.8544L82.1163 15.0612C82.0435 15.0229 81.9565 15.0229 81.8837 15.0612L76.5705 17.8544C76.3871 17.9509 76.1728 17.7951 76.2078 17.5909L77.2225 11.6746C77.2364 11.5935 77.2095 11.5108 77.1506 11.4533L72.8522 7.26341C72.7038 7.11878 72.7857 6.86678 72.9907 6.83699L78.931 5.97381C79.0124 5.96198 79.0828 5.91084 79.1192 5.83705L81.7758 0.454246Z" fill="#FFCA4F"/>
<path d="M105.776 0.454246C105.868 0.268435 106.132 0.268435 106.224 0.454246L108.881 5.83705C108.917 5.91084 108.988 5.96198 109.069 5.97381L115.009 6.83699C115.214 6.86678 115.296 7.11878 115.148 7.26341L110.849 11.4533C110.79 11.5108 110.764 11.5935 110.778 11.6746L111.792 17.5909C111.827 17.7951 111.613 17.9509 111.429 17.8544L106.116 15.0612C106.044 15.0229 105.956 15.0229 105.884 15.0612L100.571 17.8544C100.387 17.9509 100.173 17.7951 100.208 17.5909L101.222 11.6746C101.236 11.5935 101.21 11.5108 101.151 11.4533L96.8522 7.26341C96.7038 7.11878 96.7857 6.86678 96.9907 6.83699L102.931 5.97381C103.012 5.96198 103.083 5.91084 103.119 5.83705L105.776 0.454246Z" fill="#FFCA4F"/>
</svg>
