<svg width="176" height="44" viewBox="0 0 176 44" fill="none" xmlns="http://www.w3.org/2000/svg">
<path d="M50.4062 31V14.0898H54.4961L59.3008 26.2422H59.3711L64.1758 14.0898H68.2656V31H65.1133V19.5625H65.0078L60.4492 31H58.2227L53.6523 19.5625H53.5586V31H50.4062ZM73.3056 31.1992C70.7861 31.1992 69.0869 29.6172 69.0869 27.4023V27.3789C69.0869 25.0938 70.8564 23.7578 73.9736 23.5586L77.0791 23.3711V22.5977C77.0791 21.4844 76.3525 20.793 75.0166 20.793C73.7392 20.793 72.9658 21.3906 72.8017 22.1992L72.7783 22.3047H69.6494L69.6611 22.1641C69.8486 19.8438 71.8408 18.1797 75.1572 18.1797C78.4033 18.1797 80.5009 19.8555 80.5009 22.3867V31H77.0791V29.125H77.0088C76.2939 30.4141 74.958 31.1992 73.3056 31.1992ZM72.4736 27.2266C72.4736 28.1523 73.2353 28.7031 74.4189 28.7031C75.9541 28.7031 77.0791 27.7188 77.0791 26.4062V25.5039L74.4892 25.668C73.165 25.75 72.4736 26.3125 72.4736 27.2031V27.2266ZM81.8378 31V14.0898H85.2597V20.6055H85.33C85.9745 19.0469 87.2987 18.1797 89.1855 18.1797C91.9042 18.1797 93.5917 20.0781 93.5917 23.1133V31H90.1698V23.8164C90.1698 22.0586 89.3027 21.0156 87.7441 21.0156C86.2323 21.0156 85.2597 22.1641 85.2597 23.8047V31H81.8378ZM98.5731 31.1992C96.0536 31.1992 94.3544 29.6172 94.3544 27.4023V27.3789C94.3544 25.0938 96.1239 23.7578 99.2411 23.5586L102.347 23.3711V22.5977C102.347 21.4844 101.62 20.793 100.284 20.793C99.0067 20.793 98.2333 21.3906 98.0692 22.1992L98.0458 22.3047H94.9169L94.9286 22.1641C95.1161 19.8438 97.1083 18.1797 100.425 18.1797C103.671 18.1797 105.768 19.8555 105.768 22.3867V31H102.347V29.125H102.276C101.561 30.4141 100.225 31.1992 98.5731 31.1992ZM97.7411 27.2266C97.7411 28.1523 98.5028 28.7031 99.6864 28.7031C101.222 28.7031 102.347 27.7188 102.347 26.4062V25.5039L99.7567 25.668C98.4325 25.75 97.7411 26.3125 97.7411 27.2031V27.2266ZM107.023 31V18.4375H110.445V20.5469H110.515C111.031 19.1172 112.344 18.1797 114.031 18.1797C115.789 18.1797 117.066 19.1172 117.488 20.7695H117.558C118.121 19.1875 119.621 18.1797 121.461 18.1797C123.922 18.1797 125.574 19.8789 125.574 22.4102V31H122.152V23.2656C122.152 21.8125 121.426 21.0156 120.101 21.0156C118.801 21.0156 117.945 21.9648 117.945 23.3594V31H114.652V23.1602C114.652 21.8125 113.89 21.0156 112.625 21.0156C111.324 21.0156 110.445 22 110.445 23.418V31H107.023Z" fill="#0B0D1E"/>
<g clip-path="url(#clip0_409_1745)">
<path fill-rule="evenodd" clip-rule="evenodd" d="M37.7644 14.7473H33.5812V13.629C33.5813 13.2198 33.501 12.8145 33.3449 12.4365C33.1889 12.0586 32.9602 11.7153 32.6719 11.4263C32.3849 11.1367 32.044 10.9067 31.6685 10.7496C31.2931 10.5925 30.8906 10.5113 30.4839 10.5107H22.064C21.2423 10.5131 20.4548 10.8423 19.8738 11.4266C19.2927 12.0109 18.9653 12.8027 18.963 13.629V14.7473H14.781C13.9235 14.7486 13.1015 15.0923 12.496 15.7029C12.1952 16.0048 11.9566 16.3634 11.7938 16.7581C11.6309 17.1527 11.547 17.5758 11.5469 18.0032V33.013C11.5485 33.8755 11.8908 34.702 12.4985 35.3108C13.1028 35.9221 13.9238 36.2672 14.781 36.2701H22.12L30.7389 41.8413C30.889 41.9372 31.0619 41.9909 31.2396 41.9968C31.4173 42.0027 31.5934 41.9607 31.7494 41.875C31.9055 41.7893 32.0359 41.6631 32.127 41.5096C32.2182 41.3561 32.2667 41.1808 32.2677 41.002V36.2701H37.7632C38.1885 36.2698 38.6096 36.1851 39.0024 36.0209C39.3951 35.8568 39.7518 35.6163 40.052 35.3133C40.0731 35.292 40.093 35.2707 40.1117 35.2482C40.682 34.6452 41.0008 33.8452 41.0023 33.013V18.0032C41.0013 17.576 40.9167 17.1532 40.7532 16.759C40.5897 16.3647 40.3506 16.0067 40.0495 15.7054C39.7492 15.4026 39.3925 15.1624 38.9997 14.9984C38.607 14.8344 38.1859 14.7499 37.7607 14.7498L37.7644 14.7473ZM15.8284 19.728C15.5976 19.728 15.372 19.7969 15.1801 19.9258C14.9883 20.0547 14.8387 20.2379 14.7504 20.4523C14.6621 20.6667 14.639 20.9026 14.684 21.1302C14.729 21.3578 14.8402 21.5669 15.0033 21.7309C15.1665 21.895 15.3744 22.0068 15.6007 22.052C15.8271 22.0973 16.0617 22.0741 16.2749 21.9853C16.4881 21.8965 16.6703 21.7461 16.7985 21.5531C16.9267 21.3602 16.9951 21.1334 16.9951 20.9013C16.9951 20.5901 16.8722 20.2917 16.6534 20.0717C16.4346 19.8517 16.1378 19.728 15.8284 19.728ZM19.4444 19.728C19.2136 19.728 18.988 19.7969 18.7961 19.9258C18.6043 20.0547 18.4547 20.2379 18.3664 20.4523C18.2781 20.6667 18.255 20.9026 18.3 21.1302C18.345 21.3578 18.4562 21.5669 18.6193 21.7309C18.7825 21.895 18.9904 22.0068 19.2167 22.052C19.4431 22.0973 19.6777 22.0741 19.8909 21.9853C20.1041 21.8965 20.2863 21.7461 20.4145 21.5531C20.5427 21.3602 20.6111 21.1334 20.6111 20.9013C20.6113 20.7472 20.5812 20.5945 20.5226 20.4521C20.4641 20.3097 20.3781 20.1803 20.2698 20.0713C20.1614 19.9623 20.0327 19.8759 19.8911 19.817C19.7494 19.7581 19.5976 19.7279 19.4444 19.728ZM23.0616 19.728C22.8308 19.7278 22.6051 19.7964 22.413 19.9252C22.221 20.0539 22.0713 20.2371 21.9828 20.4515C21.8943 20.6658 21.871 20.9018 21.9159 21.1294C21.9607 21.3571 22.0718 21.5663 22.2349 21.7305C22.398 21.8947 22.6059 22.0066 22.8323 22.0519C23.0586 22.0973 23.2933 22.0742 23.5066 21.9854C23.7199 21.8966 23.9021 21.7462 24.0304 21.5533C24.1587 21.3603 24.2271 21.1334 24.2271 20.9013C24.2271 20.5904 24.1044 20.2921 23.8858 20.0721C23.6673 19.8521 23.3708 19.7284 23.0616 19.728ZM31.5922 14.751H20.952V13.6328C20.9542 13.337 21.0722 13.0541 21.2803 12.8451C21.4884 12.636 21.7699 12.5178 22.064 12.5158H30.4802C30.7747 12.5164 31.0572 12.6337 31.2663 12.8423C31.3698 12.9455 31.4519 13.0683 31.508 13.2035C31.5642 13.3387 31.5932 13.4838 31.5935 13.6303V14.7485L31.5922 14.751Z" fill="#023ECE"/>
<path d="M18.5676 6.23614H10.8953V5.1179C10.895 4.97162 10.9234 4.82671 10.9789 4.69149C11.0344 4.55627 11.1159 4.43338 11.2187 4.32988C11.3218 4.22636 11.4442 4.14433 11.5789 4.08852C11.7136 4.03271 11.8579 4.00422 12.0036 4.00467H17.4518C17.5975 4.00422 17.7419 4.03271 17.8766 4.08852C18.0113 4.14433 18.1337 4.22636 18.2367 4.32988C18.3395 4.43338 18.421 4.55627 18.4765 4.69149C18.532 4.82671 18.5604 4.97162 18.5601 5.1179V6.23614H18.5676ZM26.2238 6.23614H20.5566V5.1179C20.5563 4.70974 20.4759 4.30565 20.3201 3.92876C20.1643 3.55187 19.9361 3.20957 19.6486 2.92146C19.3618 2.63176 19.0211 2.40178 18.6458 2.24467C18.2706 2.08755 17.8683 2.0064 17.4618 2.00586H12.0135C11.1936 2.00745 10.4077 2.33579 9.82801 2.91896C9.2472 3.50187 8.92017 4.29274 8.91872 5.1179V6.23614H3.2391C2.81386 6.23629 2.39282 6.32078 2.00008 6.48475C1.60735 6.64873 1.25062 6.88899 0.950333 7.19176C0.929138 7.21265 0.909203 7.23478 0.890629 7.25805C0.320572 7.86078 0.00184713 8.66024 0 9.49202V33.2263C0 33.4122 0.0514621 33.5943 0.14862 33.7524C0.245777 33.9105 0.384793 34.0382 0.550088 34.1214C0.715382 34.2045 0.900424 34.2396 1.08448 34.223C1.26854 34.2063 1.44434 34.1384 1.59218 34.0269L10.8169 27.7578H26.2225C26.6472 27.7577 27.0677 27.6732 27.4599 27.5092C27.852 27.3452 28.2081 27.1049 28.5076 26.8021C28.8089 26.5013 29.0481 26.1436 29.2114 25.7494C29.3747 25.3553 29.4589 24.9326 29.4592 24.5056V9.49577C29.4572 8.63371 29.1149 7.80769 28.5076 7.19927C28.2083 6.89558 27.8525 6.6542 27.4604 6.48894C27.0683 6.32367 26.6477 6.23777 26.2225 6.23614H26.2238ZM3.2391 8.23745H26.2225C26.3863 8.23716 26.5485 8.26938 26.6998 8.33227C26.8512 8.39516 26.9887 8.48748 27.1045 8.60394C27.2201 8.72021 27.3118 8.85827 27.3744 9.01023C27.4369 9.16219 27.469 9.32506 27.4689 9.48952V24.4994C27.4689 24.8311 27.3379 25.1493 27.1046 25.3838C26.8713 25.6184 26.5549 25.7502 26.225 25.7502H10.5146C10.3166 25.75 10.123 25.8092 9.95862 25.9203L1.99023 31.3364V9.49202C1.98957 9.17807 2.10635 8.87535 2.31738 8.64397L2.35718 8.60644C2.47244 8.48868 2.60966 8.39492 2.76099 8.33053C2.91232 8.26614 3.07479 8.23239 3.2391 8.23119V8.23745Z" fill="url(#paint0_linear_409_1745)"/>
</g>
<defs>
<linearGradient id="paint0_linear_409_1745" x1="1.5" y1="7.5" x2="29" y2="28" gradientUnits="userSpaceOnUse">
<stop offset="0.376541" stop-color="#0B0D1E"/>
<stop offset="0.664683" stop-color="white"/>
</linearGradient>
<clipPath id="clip0_409_1745">
<rect width="41" height="40" fill="white" transform="translate(0 2)"/>
</clipPath>
</defs>
</svg>
