<svg width="41" height="40" viewBox="0 0 41 40" fill="none" xmlns="http://www.w3.org/2000/svg">
<g clip-path="url(#clip0_409_1747)">
<path fill-rule="evenodd" clip-rule="evenodd" d="M37.7644 12.7473H33.5812V11.629C33.5813 11.2198 33.501 10.8145 33.3449 10.4365C33.1889 10.0586 32.9602 9.71526 32.6719 9.42634C32.3849 9.13666 32.044 8.9067 31.6685 8.7496C31.2931 8.59249 30.8906 8.51133 30.4839 8.51074H22.064C21.2423 8.51305 20.4548 8.84233 19.8738 9.42662C19.2927 10.0109 18.9653 10.8027 18.963 11.629V12.7473H14.781C13.9235 12.7486 13.1015 13.0923 12.496 13.7029C12.1952 14.0048 11.9566 14.3634 11.7938 14.7581C11.6309 15.1527 11.547 15.5758 11.5469 16.0032V31.013C11.5485 31.8755 11.8908 32.702 12.4985 33.3108C13.1028 33.9221 13.9238 34.2672 14.781 34.2701H22.12L30.7389 39.8413C30.889 39.9372 31.0619 39.9909 31.2396 39.9968C31.4173 40.0027 31.5934 39.9607 31.7494 39.875C31.9055 39.7893 32.0359 39.6631 32.127 39.5096C32.2182 39.3561 32.2667 39.1808 32.2677 39.002V34.2701H37.7632C38.1885 34.2698 38.6096 34.1851 39.0024 34.0209C39.3951 33.8568 39.7518 33.6163 40.052 33.3133C40.0731 33.292 40.093 33.2707 40.1117 33.2482C40.682 32.6452 41.0008 31.8452 41.0023 31.013V16.0032C41.0013 15.576 40.9167 15.1532 40.7532 14.759C40.5897 14.3647 40.3506 14.0067 40.0495 13.7054C39.7492 13.4026 39.3925 13.1624 38.9997 12.9984C38.607 12.8344 38.1859 12.7499 37.7607 12.7498L37.7644 12.7473ZM15.8284 17.728C15.5976 17.728 15.372 17.7969 15.1801 17.9258C14.9883 18.0547 14.8387 18.2379 14.7504 18.4523C14.6621 18.6667 14.639 18.9026 14.684 19.1302C14.729 19.3578 14.8402 19.5669 15.0033 19.7309C15.1665 19.895 15.3744 20.0068 15.6007 20.052C15.8271 20.0973 16.0617 20.0741 16.2749 19.9853C16.4881 19.8965 16.6703 19.7461 16.7985 19.5531C16.9267 19.3602 16.9951 19.1334 16.9951 18.9013C16.9951 18.5901 16.8722 18.2917 16.6534 18.0717C16.4346 17.8517 16.1378 17.728 15.8284 17.728ZM19.4444 17.728C19.2136 17.728 18.988 17.7969 18.7961 17.9258C18.6043 18.0547 18.4547 18.2379 18.3664 18.4523C18.2781 18.6667 18.255 18.9026 18.3 19.1302C18.345 19.3578 18.4562 19.5669 18.6193 19.7309C18.7825 19.895 18.9904 20.0068 19.2167 20.052C19.4431 20.0973 19.6777 20.0741 19.8909 19.9853C20.1041 19.8965 20.2863 19.7461 20.4145 19.5531C20.5427 19.3602 20.6111 19.1334 20.6111 18.9013C20.6113 18.7472 20.5812 18.5945 20.5226 18.4521C20.4641 18.3097 20.3781 18.1803 20.2698 18.0713C20.1614 17.9623 20.0327 17.8759 19.8911 17.817C19.7494 17.7581 19.5976 17.7279 19.4444 17.728ZM23.0616 17.728C22.8308 17.7278 22.6051 17.7964 22.413 17.9252C22.221 18.0539 22.0713 18.2371 21.9828 18.4515C21.8943 18.6658 21.871 18.9018 21.9159 19.1294C21.9607 19.3571 22.0718 19.5663 22.2349 19.7305C22.398 19.8947 22.6059 20.0066 22.8323 20.0519C23.0586 20.0973 23.2933 20.0742 23.5066 19.9854C23.7199 19.8966 23.9021 19.7462 24.0304 19.5533C24.1587 19.3603 24.2271 19.1334 24.2271 18.9013C24.2271 18.5904 24.1044 18.2921 23.8858 18.0721C23.6673 17.8521 23.3708 17.7284 23.0616 17.728ZM31.5922 12.751H20.952V11.6328C20.9542 11.337 21.0722 11.0541 21.2803 10.8451C21.4884 10.636 21.7699 10.5178 22.064 10.5158H30.4802C30.7747 10.5164 31.0572 10.6337 31.2663 10.8423C31.3698 10.9455 31.4519 11.0683 31.508 11.2035C31.5642 11.3387 31.5932 11.4838 31.5935 11.6303V12.7485L31.5922 12.751Z" fill="#023ECE"/>
<path d="M18.5676 4.23614H10.8953V3.1179C10.895 2.97162 10.9234 2.82671 10.9789 2.69149C11.0344 2.55627 11.1159 2.43338 11.2187 2.32988C11.3218 2.22636 11.4442 2.14433 11.5789 2.08852C11.7136 2.03271 11.8579 2.00422 12.0036 2.00467H17.4518C17.5975 2.00422 17.7419 2.03271 17.8766 2.08852C18.0113 2.14433 18.1337 2.22636 18.2367 2.32988C18.3395 2.43338 18.421 2.55627 18.4765 2.69149C18.532 2.82671 18.5604 2.97162 18.5601 3.1179V4.23614H18.5676ZM26.2238 4.23614H20.5566V3.1179C20.5563 2.70974 20.4759 2.30565 20.3201 1.92876C20.1643 1.55187 19.9361 1.20957 19.6486 0.921459C19.3618 0.631763 19.0211 0.401777 18.6458 0.244665C18.2706 0.0875543 17.8683 0.0064043 17.4618 0.00585938H12.0135C11.1936 0.00745167 10.4077 0.335795 9.82801 0.918957C9.2472 1.50187 8.92017 2.29274 8.91872 3.1179V4.23614H3.2391C2.81386 4.23629 2.39282 4.32078 2.00008 4.48475C1.60735 4.64873 1.25062 4.88899 0.950333 5.19176C0.929138 5.21265 0.909203 5.23478 0.890629 5.25805C0.320572 5.86078 0.00184713 6.66024 0 7.49202V31.2263C0 31.4122 0.0514621 31.5943 0.14862 31.7524C0.245777 31.9105 0.384793 32.0382 0.550088 32.1214C0.715382 32.2045 0.900424 32.2396 1.08448 32.223C1.26854 32.2063 1.44434 32.1384 1.59218 32.0269L10.8169 25.7578H26.2225C26.6472 25.7577 27.0677 25.6732 27.4599 25.5092C27.852 25.3452 28.2081 25.1049 28.5076 24.8021C28.8089 24.5013 29.0481 24.1436 29.2114 23.7494C29.3747 23.3553 29.4589 22.9326 29.4592 22.5056V7.49577C29.4572 6.63371 29.1149 5.80769 28.5076 5.19927C28.2083 4.89558 27.8525 4.6542 27.4604 4.48894C27.0683 4.32367 26.6477 4.23777 26.2225 4.23614H26.2238ZM3.2391 6.23745H26.2225C26.3863 6.23716 26.5485 6.26938 26.6998 6.33227C26.8512 6.39516 26.9887 6.48748 27.1045 6.60394C27.2201 6.72021 27.3118 6.85827 27.3744 7.01023C27.4369 7.16219 27.469 7.32506 27.4689 7.48952V22.4994C27.4689 22.8311 27.3379 23.1493 27.1046 23.3838C26.8713 23.6184 26.5549 23.7502 26.225 23.7502H10.5146C10.3166 23.75 10.123 23.8092 9.95862 23.9203L1.99023 29.3364V7.49202C1.98957 7.17807 2.10635 6.87535 2.31738 6.64397L2.35718 6.60644C2.47244 6.48868 2.60966 6.39492 2.76099 6.33053C2.91232 6.26614 3.07479 6.23239 3.2391 6.23119V6.23745Z" fill="url(#paint0_linear_409_1747)"/>
</g>
<defs>
<linearGradient id="paint0_linear_409_1747" x1="1.5" y1="5.5" x2="29" y2="26" gradientUnits="userSpaceOnUse">
<stop offset="0.376541" stop-color="#0B0D1E"/>
<stop offset="0.664683" stop-color="white"/>
</linearGradient>
<clipPath id="clip0_409_1747">
<rect width="41" height="40" fill="white"/>
</clipPath>
</defs>
</svg>
