<svg width="130" height="114" viewBox="0 0 130 114" fill="none" xmlns="http://www.w3.org/2000/svg">
<g clip-path="url(#clip0_409_1871)">
<path d="M77.3438 67.8975H120.595C121.71 67.8975 122.622 66.9854 122.622 65.8707V11.1475" stroke="#37474F" stroke-width="2.02679" stroke-linecap="round" stroke-linejoin="round"/>
<path d="M45.6016 36.4819V65.8703C45.6016 66.9851 46.5136 67.8971 47.6283 67.8971H62.3428" stroke="#37474F" stroke-width="2.02679" stroke-linecap="round" stroke-linejoin="round"/>
<path d="M45.6016 18.2412V11.1475" stroke="#37474F" stroke-width="2.02679" stroke-linecap="round" stroke-linejoin="round"/>
<path d="M45.6016 30.4016V24.3213" stroke="#37474F" stroke-width="2.02679" stroke-linecap="round" stroke-linejoin="round"/>
<path d="M126.675 1.01318H41.5502C40.4309 1.01318 39.5234 1.92061 39.5234 3.03997V5.06675C39.5234 6.18612 40.4309 7.09354 41.5502 7.09354H126.675C127.795 7.09354 128.702 6.18612 128.702 5.06675V3.03997C128.702 1.92061 127.795 1.01318 126.675 1.01318Z" fill="#C2CBFF" stroke="#37474F" stroke-width="2.02679" stroke-linecap="round" stroke-linejoin="round"/>
<path d="M1.01562 112.487V82.5924C1.01562 78.5794 3.3667 74.9514 7.03518 73.33L19.2567 67.8982L25.3371 76.9377L31.4174 67.8779L39.1192 71.364C41.3487 72.3774 43.3755 73.7759 45.0982 75.4986L52.5163 82.9167L63.2582 72.1747L70.433 79.3495L56.1037 93.6789C54.1174 95.6652 50.9151 95.6652 48.9288 93.6789L39.5043 84.2544V112.487" fill="#023ECE"/>
<path d="M25.3393 65.8705C34.2942 65.8705 41.5536 58.6111 41.5536 49.6562C41.5536 40.7013 34.2942 33.4419 25.3393 33.4419C16.3844 33.4419 9.125 40.7013 9.125 49.6562C9.125 58.6111 16.3844 65.8705 25.3393 65.8705Z" stroke="#37474F" stroke-width="2.02679" stroke-linecap="round" stroke-linejoin="round"/>
<path d="M36.5833 40.2724L37.7994 39.259C34.82 35.6919 30.3611 33.4219 25.3549 33.4219C16.3965 33.4219 9.14062 40.6778 9.14062 49.6362H10.681C20.1461 49.6362 29.3274 46.3122 36.6036 40.2521L36.5833 40.2724Z" stroke="#37474F" stroke-width="2.02679" stroke-linecap="round" stroke-linejoin="round"/>
<path d="M25.3506 65.8706C23.182 65.8706 21.1349 65.445 19.25 64.6748V67.9177L25.3304 76.9571L31.4107 67.8974V64.6951C29.5258 65.445 27.499 65.8706 25.3506 65.8706Z" stroke="#37474F" stroke-width="2.02679" stroke-linecap="round" stroke-linejoin="round"/>
<path d="M1.01562 112.487V82.5924C1.01562 78.5794 3.3667 74.9514 7.03518 73.33L19.2567 67.8982L25.3371 76.9377L31.4174 67.8779L39.1192 71.364C41.3487 72.3774 43.3754 73.7759 45.0982 75.4986L52.5163 82.9167L63.2582 72.1747L70.433 79.3495L56.1037 93.6789C54.1174 95.6652 50.9151 95.6652 48.9288 93.6789L39.5043 84.2544V112.487" stroke="#37474F" stroke-width="2.02679" stroke-linecap="round" stroke-linejoin="round"/>
<path d="M11.1484 88.165V112.486" stroke="#37474F" stroke-width="2.02679" stroke-linecap="round" stroke-linejoin="round"/>
<path d="M25.3529 106.406L20.2656 101.339L23.3058 76.957H27.3594L30.3996 101.339L25.3529 106.406Z" fill="#C2CBFF" stroke="#37474F" stroke-width="2.02679" stroke-linecap="round" stroke-linejoin="round"/>
<path d="M19.2556 67.9177L18.2422 76.9572H32.4297L31.4163 67.8975L25.3359 76.9572L19.2556 67.9177Z" stroke="#37474F" stroke-width="2.02679" stroke-linecap="round" stroke-linejoin="round"/>
<path d="M66.125 69.3159C68.1112 67.3296 71.3136 67.3296 73.2998 69.3159C75.2861 71.3021 75.2861 74.5044 73.2998 76.4704" stroke="#37474F" stroke-width="2.02679" stroke-linecap="round" stroke-linejoin="round"/>
<path d="M84.1094 110.46V90.1918C84.1094 89.0771 85.0214 88.165 86.1362 88.165H114.511C115.626 88.165 116.538 89.0771 116.538 90.1918V110.46" stroke="#37474F" stroke-width="2.02679" stroke-linecap="round" stroke-linejoin="round"/>
<path d="M100.321 103.366C102 103.366 103.362 102.005 103.362 100.326C103.362 98.6468 102 97.2856 100.321 97.2856C98.6424 97.2856 97.2812 98.6468 97.2812 100.326C97.2812 102.005 98.6424 103.366 100.321 103.366Z" stroke="#37474F" stroke-width="2.02679" stroke-linecap="round" stroke-linejoin="round"/>
<path d="M70.942 49.6564C77.6581 49.6564 83.1027 44.2119 83.1027 37.4957C83.1027 30.7795 77.6581 25.335 70.942 25.335C64.2258 25.335 58.7812 30.7795 58.7812 37.4957C58.7812 44.2119 64.2258 49.6564 70.942 49.6564Z" stroke="#37474F" stroke-width="2.02679" stroke-linecap="round" stroke-linejoin="round"/>
<path d="M79.5355 46.0892C77.3263 48.2984 74.2862 49.6564 70.942 49.6564C64.2333 49.6564 58.7812 44.2043 58.7812 37.4957C58.7812 30.787 64.2333 25.335 70.942 25.335V37.4957L79.5355 46.0892Z" stroke="#37474F" stroke-width="2.02679" stroke-linecap="round" stroke-linejoin="round"/>
<path d="M70.9375 25.3348C77.6462 25.3348 83.0982 30.7869 83.0982 37.4956H70.9375V25.3348Z" fill="#EF5350" stroke="#37474F" stroke-width="2.02679" stroke-linecap="round" stroke-linejoin="round"/>
<path d="M93.2344 35.4688H109.449" stroke="#37474F" stroke-width="2.02679" stroke-linecap="round" stroke-linejoin="round"/>
<path d="M93.2344 27.3618H100.328" stroke="#37474F" stroke-width="2.02679" stroke-linecap="round" stroke-linejoin="round"/>
<path d="M93.2344 41.5493H109.449" stroke="#37474F" stroke-width="2.02679" stroke-linecap="round" stroke-linejoin="round"/>
<path d="M93.2344 47.6294H109.449" stroke="#37474F" stroke-width="2.02679" stroke-linecap="round" stroke-linejoin="round"/>
</g>
<defs>
<clipPath id="clip0_409_1871">
<rect width="129.714" height="113.5" fill="white"/>
</clipPath>
</defs>
</svg>
