<svg width="115" height="123" viewBox="0 0 115 123" fill="none" xmlns="http://www.w3.org/2000/svg">
<g clip-path="url(#clip0_409_1930)">
<path d="M57.5011 62.4572C67.3565 62.4572 75.3459 54.4678 75.3459 44.6124C75.3459 34.757 67.3565 26.7676 57.5011 26.7676C47.6457 26.7676 39.6562 34.757 39.6562 44.6124C39.6562 54.4678 47.6457 62.4572 57.5011 62.4572Z" fill="#EF5350"/>
<path d="M75.3427 72.3711H39.653C37.4629 72.3711 35.6875 74.1465 35.6875 76.3366V100.13C35.6875 102.32 37.4629 104.095 39.653 104.095H75.3427C77.5328 104.095 79.3082 102.32 79.3082 100.13V76.3366C79.3082 74.1465 77.5328 72.3711 75.3427 72.3711Z" fill="#023ECE" stroke="#37474F" stroke-width="1.98276" stroke-linecap="round" stroke-linejoin="round"/>
<path d="M16.8464 92.3172H10.8982C5.42575 92.3172 0.984375 87.8758 0.984375 82.4034V74.4724C0.984375 69 5.42575 64.5586 10.8982 64.5586H16.8464" fill="#C2CBFF"/>
<path d="M16.8464 92.3172H10.8982C5.42575 92.3172 0.984375 87.8758 0.984375 82.4034V74.4724C0.984375 69 5.42575 64.5586 10.8982 64.5586H16.8464" stroke="#37474F" stroke-width="1.98276" stroke-linecap="round" stroke-linejoin="round"/>
<path d="M22.7998 60.5938H18.8343C17.7393 60.5938 16.8516 61.4815 16.8516 62.5765V94.3007C16.8516 95.3957 17.7393 96.2834 18.8343 96.2834H22.7998C23.8949 96.2834 24.7826 95.3957 24.7826 94.3007V62.5765C24.7826 61.4815 23.8949 60.5938 22.7998 60.5938Z" fill="#C2CBFF" stroke="#37474F" stroke-width="1.98276" stroke-linecap="round" stroke-linejoin="round"/>
<path d="M98.1484 92.3172H104.097C109.569 92.3172 114.011 87.8758 114.011 82.4034V74.4724C114.011 69 109.569 64.5586 104.097 64.5586H98.1484" fill="#C2CBFF"/>
<path d="M98.1484 92.3172H104.097C109.569 92.3172 114.011 87.8758 114.011 82.4034V74.4724C114.011 69 109.569 64.5586 104.097 64.5586H98.1484" stroke="#37474F" stroke-width="1.98276" stroke-linecap="round" stroke-linejoin="round"/>
<path d="M92.2002 96.3022H96.1657C97.2607 96.3022 98.1484 95.4145 98.1484 94.3195V62.5953C98.1484 61.5003 97.2607 60.6126 96.1657 60.6126H92.2002C91.1051 60.6126 90.2174 61.5003 90.2174 62.5953V94.3195C90.2174 95.4145 91.1051 96.3022 92.2002 96.3022Z" fill="#C2CBFF" stroke="#37474F" stroke-width="1.98276" stroke-linecap="round" stroke-linejoin="round"/>
<path d="M43.2422 33.8656C43.7379 33.2113 44.2732 32.5967 44.868 32.0018C45.4629 31.407 46.0974 30.8717 46.7517 30.376" stroke="#37474F" stroke-width="1.98276" stroke-linecap="round" stroke-linejoin="round"/>
<path d="M51.285 27.8776C57.6298 25.538 65.0255 26.9061 70.1212 32.0018C77.0807 38.9613 77.0807 50.263 70.1212 57.2423C63.1617 64.2018 51.86 64.2018 44.8807 57.2423C39.785 52.1466 38.4169 44.7509 40.7764 38.4061" stroke="#37474F" stroke-width="1.98276" stroke-linecap="round" stroke-linejoin="round"/>
<path d="M63.7663 42.9465L55.5378 37.6525C54.2094 36.8 52.4844 37.7517 52.4844 39.3181V49.906C52.4844 51.4724 54.2292 52.4241 55.5378 51.5715L63.7663 46.2775C64.9758 45.5043 64.9758 43.7198 63.7663 42.9465Z" fill="white" stroke="#37474F" stroke-width="1.98276" stroke-linecap="round" stroke-linejoin="round"/>
<path d="M47.5843 90.216C48.6794 90.216 49.5671 89.3283 49.5671 88.2332C49.5671 87.1382 48.6794 86.2505 47.5843 86.2505C46.4893 86.2505 45.6016 87.1382 45.6016 88.2332C45.6016 89.3283 46.4893 90.216 47.5843 90.216Z" fill="white"/>
<path d="M57.5062 90.216C58.6012 90.216 59.489 89.3283 59.489 88.2332C59.489 87.1382 58.6012 86.2505 57.5062 86.2505C56.4111 86.2505 55.5234 87.1382 55.5234 88.2332C55.5234 89.3283 56.4111 90.216 57.5062 90.216Z" fill="white"/>
<path d="M67.4124 90.216C68.5075 90.216 69.3952 89.3283 69.3952 88.2332C69.3952 87.1382 68.5075 86.2505 67.4124 86.2505C66.3174 86.2505 65.4297 87.1382 65.4297 88.2332C65.4297 89.3283 66.3174 90.216 67.4124 90.216Z" fill="white"/>
<path d="M98.1466 92.3174V98.1467C98.1466 109.092 89.2638 117.974 78.319 117.974H57.5" stroke="#37474F" stroke-width="1.98276" stroke-linecap="round" stroke-linejoin="round"/>
<path d="M53.2953 121.94C52.2047 121.94 51.3125 121.048 51.3125 119.958V115.992C51.3125 114.902 52.2047 114.009 53.2953 114.009H61.2263C62.3168 114.009 63.2091 114.902 63.2091 115.992V119.958C63.2091 121.048 62.3168 121.94 61.2263 121.94" stroke="#37474F" stroke-width="1.98276" stroke-linecap="round" stroke-linejoin="round"/>
<path d="M57.5 6.93982C79.9052 6.93982 98.1466 25.1812 98.1466 47.5864V56.5088" stroke="#37474F" stroke-width="1.98276" stroke-linecap="round" stroke-linejoin="round"/>
<path d="M16.8516 56.5089V47.5865C16.8516 25.1813 35.0929 6.93994 57.4981 6.93994" stroke="#37474F" stroke-width="1.98276" stroke-linecap="round" stroke-linejoin="round"/>
<path d="M57.5011 0.991211C31.8045 0.991211 10.9062 21.8895 10.9062 47.586V60.474" stroke="#37474F" stroke-width="1.98276" stroke-linecap="round" stroke-linejoin="round"/>
<path d="M104.095 60.474V47.586C104.095 21.8895 83.1966 0.991211 57.5 0.991211" stroke="#37474F" stroke-width="1.98276" stroke-linecap="round" stroke-linejoin="round"/>
</g>
<defs>
<clipPath id="clip0_409_1930">
<rect width="115" height="122.931" fill="white"/>
</clipPath>
</defs>
</svg>
