<svg width="119" height="120" viewBox="0 0 119 120" fill="none" xmlns="http://www.w3.org/2000/svg">
<g clip-path="url(#clip0_409_1895)">
<path d="M65.5938 55.2837V52.4726C65.5938 49.8865 67.6926 47.7876 70.2788 47.7876H113.381C115.967 47.7876 118.066 49.8865 118.066 52.4726V114.315C118.066 116.901 115.967 119 113.381 119H70.2788C67.6926 119 65.5938 116.901 65.5938 114.315V72.1498" fill="#023ECE"/>
<path d="M65.5938 55.2837V52.4726C65.5938 49.8865 67.6926 47.7876 70.2788 47.7876H113.381C115.967 47.7876 118.066 49.8865 118.066 52.4726V114.315C118.066 116.901 115.967 119 113.381 119H70.2788C67.6926 119 65.5938 116.901 65.5938 114.315V72.1498" stroke="#37474F" stroke-width="1.87402" stroke-linecap="round" stroke-linejoin="round"/>
<path d="M65.5938 66.5278V60.9058" stroke="#37474F" stroke-width="1.87402" stroke-linecap="round" stroke-linejoin="round"/>
<path d="M108.692 56.2202H74.96C73.925 56.2202 73.0859 57.0592 73.0859 58.0942V65.5903C73.0859 66.6253 73.925 67.4643 74.96 67.4643H108.692C109.727 67.4643 110.566 66.6253 110.566 65.5903V58.0942C110.566 57.0592 109.727 56.2202 108.692 56.2202Z" fill="white" stroke="#37474F" stroke-width="1.87402" stroke-linecap="round" stroke-linejoin="round"/>
<path d="M110.566 75.8975H73.0859V113.378H110.566V75.8975Z" fill="white" stroke="#37474F" stroke-width="1.87402" stroke-linecap="round" stroke-linejoin="round"/>
<path d="M91.8359 75.8975V94.6376" stroke="#37474F" stroke-width="1.87402" stroke-linecap="round" stroke-linejoin="round"/>
<path d="M73.0859 94.6377H91.8261" stroke="#37474F" stroke-width="1.87402" stroke-linecap="round" stroke-linejoin="round"/>
<path d="M39.4844 94.6377H61.8414" stroke="#37474F" stroke-width="1.87402" stroke-linecap="round" stroke-linejoin="round"/>
<path d="M9.36719 80.583V85.268C9.36719 88.7912 11.2974 91.8458 14.1647 93.4575" stroke="#37474F" stroke-width="1.87402" stroke-linecap="round" stroke-linejoin="round"/>
<path d="M9.36719 50.5991V73.0873" stroke="#37474F" stroke-width="1.87402" stroke-linecap="round" stroke-linejoin="round"/>
<path d="M9.36719 22.4883V43.1025" stroke="#37474F" stroke-width="1.87402" stroke-linecap="round" stroke-linejoin="round"/>
<path d="M91.8239 44.0394V10.3071C91.8239 5.13481 87.6261 0.937012 82.4538 0.937012H18.7373C13.565 0.937012 9.36719 5.13481 9.36719 10.3071V14.9921" stroke="#37474F" stroke-width="1.87402" stroke-linecap="round" stroke-linejoin="round"/>
<path d="M14.0556 14.9922H4.68553C2.61555 14.9922 0.9375 16.6702 0.9375 18.7402C0.9375 20.8102 2.61555 22.4883 4.68553 22.4883H14.0556C16.1256 22.4883 17.8036 20.8102 17.8036 18.7402C17.8036 16.6702 16.1256 14.9922 14.0556 14.9922Z" stroke="#37474F" stroke-width="1.87402" stroke-linecap="round" stroke-linejoin="round"/>
<path d="M14.0556 43.103H4.68553C2.61555 43.103 0.9375 44.7811 0.9375 46.8511C0.9375 48.921 2.61555 50.5991 4.68553 50.5991H14.0556C16.1256 50.5991 17.8036 48.921 17.8036 46.8511C17.8036 44.7811 16.1256 43.103 14.0556 43.103Z" stroke="#37474F" stroke-width="1.87402" stroke-linecap="round" stroke-linejoin="round"/>
<path d="M14.0556 73.0869H4.68553C2.61555 73.0869 0.9375 74.765 0.9375 76.8349C0.9375 78.9049 2.61555 80.583 4.68553 80.583H14.0556C16.1256 80.583 17.8036 78.9049 17.8036 76.8349C17.8036 74.765 16.1256 73.0869 14.0556 73.0869Z" stroke="#37474F" stroke-width="1.87402" stroke-linecap="round" stroke-linejoin="round"/>
<path d="M82.4609 80.583V89.9531" stroke="#37474F" stroke-width="1.87402" stroke-linecap="round" stroke-linejoin="round"/>
<path d="M87.1435 85.2676H77.7734" stroke="#37474F" stroke-width="1.87402" stroke-linecap="round" stroke-linejoin="round"/>
<path d="M87.1435 104.008H77.7734" stroke="#37474F" stroke-width="1.87402" stroke-linecap="round" stroke-linejoin="round"/>
<path d="M104.525 81.9507L97.8906 88.5847" stroke="#37474F" stroke-width="1.87402" stroke-linecap="round" stroke-linejoin="round"/>
<path d="M104.525 88.5847L97.8906 81.9507" stroke="#37474F" stroke-width="1.87402" stroke-linecap="round" stroke-linejoin="round"/>
<path d="M110.576 94.6377H91.8359V113.378H110.576V94.6377Z" stroke="#37474F" stroke-width="1.87402" stroke-linecap="round" stroke-linejoin="round"/>
<path d="M105.886 106.819H96.5156" stroke="#37474F" stroke-width="1.87402" stroke-linecap="round" stroke-linejoin="round"/>
<path d="M105.886 101.198H96.5156" stroke="#37474F" stroke-width="1.87402" stroke-linecap="round" stroke-linejoin="round"/>
<path d="M20.4453 108.393L12.4945 100.442L48.9356 64.0008C50.7643 62.1721 53.7326 62.1721 55.5612 64.0008L56.8864 65.3259C58.715 67.1546 58.715 70.1228 56.8864 71.9515L20.4453 108.393Z" fill="#C2CBFF" stroke="#37474F" stroke-width="1.87402" stroke-linecap="round" stroke-linejoin="round"/>
<path d="M12.4819 100.448L20.4278 108.394L13.7937 115.028L1.875 119.001L5.84791 107.082L12.4819 100.448Z" stroke="#37474F" stroke-width="1.87402" stroke-linecap="round" stroke-linejoin="round"/>
<path d="M4.51736 111.053L1.875 118.999L9.82083 116.357L4.51736 111.053Z" stroke="#37474F" stroke-width="1.87402" stroke-linecap="round" stroke-linejoin="round"/>
<path d="M42.9602 64.6724L29.7109 77.9217" stroke="#37474F" stroke-width="1.87402" stroke-linecap="round" stroke-linejoin="round"/>
<path d="M64.6487 29.0471H80.5778" stroke="#37474F" stroke-width="1.87402" stroke-linecap="round" stroke-linejoin="round"/>
<path d="M64.6487 34.6694H80.5778" stroke="#37474F" stroke-width="1.87402" stroke-linecap="round" stroke-linejoin="round"/>
<path d="M27.1794 22.489V37.4811L40.2976 44.9772L53.4157 37.4811V22.489L40.2976 14.9929L27.1794 22.489Z" fill="#EF5350" stroke="#37474F" stroke-width="1.87402" stroke-linecap="round" stroke-linejoin="round"/>
<path d="M40.3044 29.9851V44.9772" stroke="#37474F" stroke-width="1.87402" stroke-linecap="round" stroke-linejoin="round"/>
<path d="M27.1794 22.489L40.2976 29.9851L53.4157 22.489" stroke="#37474F" stroke-width="1.87402" stroke-linecap="round" stroke-linejoin="round"/>
</g>
<defs>
<clipPath id="clip0_409_1895">
<rect width="119" height="119.937" fill="white"/>
</clipPath>
</defs>
</svg>
