<svg width="498" height="573" viewBox="0 0 498 573" fill="none" xmlns="http://www.w3.org/2000/svg">
<g clip-path="url(#clip0_409_2120)">
<path d="M210.977 73.4361C210.144 75.0452 209.707 77.0712 210.601 78.6602C211.017 79.4155 211.693 79.9909 212.19 80.6862C212.706 81.3815 213.063 82.3153 212.726 83.1091C212.011 84.7581 209.468 83.4461 208.376 83.0891C206.212 82.3739 204.066 81.6186 201.92 80.8647C201.185 80.6063 200.431 80.1095 199.755 79.4741C199.14 80.0895 198.425 80.5863 197.749 80.8647C188.985 84.4531 178.606 89.2763 170.417 85.9103C168.669 85.195 167 84.0429 166.086 82.2753C164.636 79.4155 165.63 75.542 167.894 73.2377C170.178 70.9333 173.416 70.0395 176.475 70.1194C174.547 69.6626 172.86 68.8487 171.211 67.7165C164.664 63.2996 170.343 54.3073 179.434 55.1624C182.811 55.4608 185.949 56.9899 188.889 58.7175C192.722 60.9819 196.377 63.6246 199.992 66.2859C202.635 64.2147 205.458 61.9942 208.415 59.9296C209.07 59.4728 210.322 58.2007 211.176 58.2606C212.725 58.3605 213.857 61.5973 214.176 62.8494C214.672 64.7954 214.573 66.9013 213.759 68.7488C213.023 70.4178 211.831 71.8084 210.977 73.4361Z" fill="#023ECE"/>
<path d="M245.852 504.343H245.275L244.898 338.001H244.798L226.523 332.156C226.827 337.432 227.516 502.33 227.517 502.55L245.155 505.856C245.253 505.88 245.536 505.727 245.852 505.538V504.341V504.343Z" fill="#023ECE"/>
<path d="M245.265 505.83C244.443 505.83 243.777 505.164 243.775 504.344L243.398 337.756C243.398 336.935 244.063 336.268 244.885 336.267L310.655 336.105C311.041 336.185 311.43 336.261 311.71 336.54C311.99 336.817 312.148 337.195 312.15 337.591L312.547 504.175C312.548 504.997 311.883 505.667 311.06 505.668H311.056C310.234 505.668 309.568 505.002 309.567 504.181L309.174 339.088L246.382 339.241L246.756 504.335C246.758 505.156 246.093 505.826 245.27 505.828H245.267L245.265 505.83Z" fill="#023ECE"/>
<path d="M309.347 337.74L285.519 331.261L226.531 332.183L244.825 339.963V339.884L291.338 338.311C291.287 338.154 291.235 337.997 291.184 337.84L285.447 331.311" fill="#023ECE"/>
<path d="M305.735 119.297C332.649 128.237 358.733 139.92 383.472 154.123C391.196 158.558 398.562 164.52 406.513 168.364L306.802 169.275C304.891 170.611 303.369 172.516 302.508 174.703" fill="#023ECE"/>
<path d="M319.3 169.22C315.963 169.24 313.062 169.26 310.719 169.28C306.707 169.3 303.25 172.24 302.317 176.411L299.734 188.132C299.714 188.172 299.694 188.212 299.694 188.27C294.43 208.83 286.246 247.346 282.948 263.058C282.094 267.17 278.756 270.11 274.804 270.288L231.362 272.016C238.727 269.66 243.887 263.784 244.77 260.395C246.459 261.706 249.359 260.554 249.736 258.449C250.888 259.662 252.795 260.038 254.305 259.383C255.834 258.708 256.867 257.059 256.807 255.39C257.98 256.74 260.005 257.217 261.694 256.76C263.999 256.125 264.317 254.358 264.793 252.212C266.103 246.551 266.759 240.75 266.739 234.97C269.323 237.359 268.734 242.13 271.665 244.246C273.115 245.26 275.558 244.942 276.095 243.233C276.313 242.597 276.213 241.942 276.115 241.267C275.439 236.758 274.526 232.288 273.334 227.879C272.32 224.045 271.049 220.152 268.526 217.132C266.023 214.092 261.992 212.026 258.197 212.92C256.111 213.377 254.303 214.668 252.596 215.96C246.159 220.866 240.32 226.548 235.174 232.804C232.81 235.724 230.804 240.213 228.063 242.637C226.155 244.345 223.891 244.088 221.348 244.405C221.288 246.054 220.196 247.821 219.421 249.291C215.944 255.885 215.487 263.354 214.077 270.724C216.738 272.035 219.639 272.79 222.599 273.008C219.441 274.537 217.295 277.974 217.455 281.887C217.714 284.076 217 287.11 219.322 290.37C213.85 290.633 212.247 286.064 211.297 280.735C208.237 263.612 206.43 246.231 205.914 228.811V228.791C205.126 201.926 200.047 175.852 195.308 147.647C194.632 143.555 194.494 138.589 192.805 134.756C202.387 125.012 216.62 121.581 230.149 119.242C236.425 118.13 242.783 117.156 249.159 116.401C249.059 118.605 248.981 120.831 248.901 123.015C249.734 123.969 250.648 124.823 251.602 125.598C252.834 127.526 254.74 128.955 256.965 128.995C257.005 129.015 257.044 129.015 257.064 129.035C262.249 131.379 268.109 131.796 273.472 129.989C275.796 129.213 277.842 127.366 279.273 125.201C280.743 122.997 280.325 120.256 280.385 117.613C280.405 116.818 280.445 116.004 280.485 115.21C290.019 115.747 299.455 117.276 308.593 120.196C309.302 129.522 309.725 130.291 319.3 169.22Z" fill="#023ECE"/>
<path d="M256.964 128.996C254.74 128.956 252.832 127.526 251.602 125.6C253.251 126.99 255.078 128.122 256.964 128.996Z" fill="#023ECE"/>
<path d="M227.468 272.453C227.071 272.751 226.554 272.83 226.057 272.91C220.018 273.917 220.24 275.478 218.152 276.783C215.669 278.332 210.385 277.717 207.365 277.895C190.162 279.008 172.683 281.133 155.461 280.697C144.616 280.418 132.956 277.38 124.533 270.128C114.462 261.448 111.105 246.749 114.085 234.015C114.125 233.877 114.145 233.757 114.185 233.618C118.455 215.78 129.162 200.366 140.962 186.778C155.384 170.152 170.976 154.599 187.067 139.662C193.523 133.682 200.078 127.446 208.58 124.684C210.606 124.029 212.692 123.552 214.678 122.738C215.402 129.474 212.066 98.4734 221.729 188.25C157.05 241.088 179.358 222.864 174.533 226.806C180.05 227.155 154.617 225.545 228.146 230.203C228.226 230.203 228.166 235.824 228.086 240.513C228.022 245.351 228.06 240.389 227.887 260.714C227.865 262.543 228.904 271.46 227.47 272.454L227.468 272.453Z" fill="#023ECE"/>
<path d="M19.1017 505.049H20.3924C20.094 505.089 19.8356 505.21 19.5985 505.331C19.4001 505.432 19.0417 505.715 18.8233 505.754C18.6701 505.788 1.2875 503.759 1.18493 503.759C1.18493 480.653 0.628156 432.273 0.628156 426.523C0.608176 425.817 0.489628 425.152 0.429688 424.446V424.365L18.6848 427.087C25.1436 427.087 60.0741 426.968 66.5969 426.945C66.6168 426.985 66.6368 427.047 66.6568 427.087L18.8046 427.168L19.103 505.049H19.1017Z" fill="#023ECE"/>
<path d="M19.1084 506.537C18.2879 506.537 17.6219 505.874 17.6193 505.053C17.4688 422.545 16.924 426.951 17.7551 426.115C18.0349 425.835 18.4131 425.676 18.8087 425.676C19.0418 425.676 84.7961 425.575 84.5803 425.575C85.4008 425.575 86.0668 426.239 86.0695 427.059L86.3879 504.94C86.3905 505.762 85.7272 506.432 84.904 506.436H84.8987C84.0782 506.436 83.4122 505.772 83.4095 504.952L83.0978 428.558L20.3086 428.655L20.6003 505.042C20.603 505.864 19.9383 506.534 19.1164 506.538H19.1111L19.1084 506.537Z" fill="#023ECE"/>
<path d="M0.429688 424.451C0.662788 424.486 63.6838 423.255 64.3684 423.223C67.9395 423.056 71.7903 424.148 75.3268 424.709C75.9822 424.812 84.5482 426.162 85.3608 426.303C15.5599 426.972 23.6798 426.862 19.1243 426.937C12.9612 427.038 6.53825 425.367 0.429688 424.451Z" fill="#023ECE"/>
<path d="M199.77 228.403C199.827 229.095 200.337 229.683 201.055 229.765C212.562 231.088 199.753 230.442 227.322 231.494C228.12 231.494 228.779 230.864 228.81 230.061C228.841 229.239 228.199 228.546 227.377 228.517C206.763 227.554 211.69 228.252 205.865 227.412C205.631 220.633 205.139 213.964 204.446 207.318C204.482 207.321 204.516 207.334 204.553 207.334C204.733 207.334 204.915 207.301 205.092 207.233C205.86 206.935 206.239 206.073 205.942 205.304C203.951 200.175 203.719 194.442 205.288 189.161C205.523 188.371 205.074 187.542 204.285 187.308C203.501 187.075 202.667 187.523 202.432 188.311C200.907 193.44 200.906 198.949 202.389 204.07L174.539 226.804L199.771 228.401L199.77 228.403Z" fill="black"/>
<path d="M187.064 139.661C193.763 133.456 200.741 126.835 209.629 124.366C216.184 121.903 223.256 120.432 230.149 119.24C235.935 118.214 241.793 117.327 247.669 116.6C247.569 118.822 247.494 120.897 247.418 122.966C247.405 123.349 247.538 123.722 247.793 124.01C254.351 131.401 264.832 134.494 273.956 131.406C276.465 130.557 278.798 128.643 280.516 126.025C281.948 123.887 281.913 121.399 281.884 119.203C281.823 115.117 282.378 112.204 282.048 105.455C297.59 98.4768 303.44 77.9586 302.96 61.3246C302.842 57.19 302.186 53.0542 301.087 49.1021C306.221 50.4368 311.814 47.1934 313.801 42.3196C309.868 42.0572 306.631 38.9936 304.664 35.5277C302.718 32.0605 301.744 28.1298 300.175 24.4827C298.704 21.0768 296.738 17.932 294.335 15.1108C291.753 17.3485 289.131 19.545 286.509 21.8028C285.973 22.2463 285.416 22.7298 284.741 22.8111C283.986 22.9123 283.27 22.5687 282.615 22.2064C280.232 20.7758 278.285 18.558 277.113 15.9992C276.389 14.4394 275.552 13.9533 274.551 15.3346C273.067 17.3246 271.889 19.5317 270.991 21.8574C268.584 21.9573 268.487 22.0798 267.297 22.2969C265.669 21.2407 264.178 19.6329 262.374 18.9017C259.951 17.9333 257.249 18.6193 254.766 19.3252C250.754 20.4335 246.78 21.543 242.787 22.6512C247.416 18.6206 252.044 14.5687 256.692 10.518C258.301 9.10745 260.525 7.63559 262.373 8.72383C263.366 9.30858 263.843 10.4967 264.479 11.4451C265.134 12.4321 266.266 13.2993 267.318 12.8757C268.066 12.6026 268.228 12.1378 272.921 6.48607C273.418 5.88134 273.915 5.27661 274.628 4.97425C276.694 4.10711 278.66 6.38484 279.754 8.3602C280.886 8.74381 281.363 11.3639 282.892 11.8274C285.018 12.4521 285.753 11.2227 287.183 9.97325C287.461 9.73216 287.759 9.42979 288.056 9.08614C279.18 2.20635 267.798 -0.570875 256.513 0.442778C254.061 -0.00211023 249.728 1.08614 248.264 1.46709C242.521 2.96026 230.514 9.03818 221.905 16.584C213.066 24.3309 206.59 34.9976 204.305 46.6579C201.941 58.8351 203.432 72.58 196.022 82.4328C190.896 89.226 182.534 92.6226 174.33 94.6486C166.146 96.6746 157.624 97.6882 149.917 101.163C142.23 104.64 135.199 111.315 134.245 119.815C133.311 127.999 138.078 136.065 137.086 144.248C136.092 152.194 129.836 158.451 123.121 162.702C116.407 166.952 108.878 169.912 102.72 174.938C97.4762 179.248 93.1659 186.101 95.0533 192.696C96.7809 198.794 103.019 202.27 106.634 207.474C111.994 215.181 111.003 225.17 114.182 233.615C118.453 215.777 129.159 200.363 140.959 186.775C155.381 170.149 170.973 154.595 187.064 139.658V139.661ZM299.755 58.1824C298.72 57.3845 297.468 57.1234 296.263 56.9756C293.194 56.596 290.718 56.6639 288.475 57.1847C287.673 57.3712 287.175 58.1717 287.361 58.9736C287.549 59.7768 288.344 60.2816 289.15 60.0871C291.043 59.6449 293.187 59.5983 295.898 59.9313C296.644 60.0245 297.48 60.1564 297.973 60.556C298.522 61.0022 299.325 61.0355 299.934 60.4441C300.573 72.584 297.29 87.9673 288.84 96.9649C284.26 101.845 278.302 104.629 272.491 104.588C269.551 104.568 266.241 103.849 262.918 102.506C262.154 102.196 261.286 102.566 260.978 103.328C260.669 104.092 261.038 104.96 261.801 105.267C267.598 107.609 273.061 108.386 279.113 106.541C279.345 112.242 278.848 115.183 278.906 119.244C278.932 121.174 278.957 122.999 278.034 124.376C276.692 126.421 274.858 127.953 273.002 128.581C265.279 131.191 256.284 128.738 250.419 122.465C250.491 120.472 250.565 118.465 250.656 116.461C250.84 111.462 250.786 112.516 250.987 111.173C251.601 106.978 251.697 102.81 251.334 99.0082C251.386 97.8387 251.436 96.6746 251.47 95.573C251.489 94.9736 251.147 94.4541 250.644 94.201C246.916 90.534 244.353 85.9306 242.84 80.1218L242.75 79.7701C242.485 78.7099 241.189 78.273 240.337 78.9976C239.028 80.1125 236.853 80.616 234.79 80.2776C232.918 79.9726 231.208 78.8098 230.21 77.1661C228.235 73.916 228.826 67.9033 231.012 65.0808C233.426 61.9613 237.649 62.4275 240.495 64.9316C241.522 65.8347 243.128 64.9996 242.937 63.613C244.465 59.0841 246.483 54.7205 248.969 50.6393C249.546 49.6722 250.279 48.6439 251.372 48.4428C252.842 48.1604 254.073 49.4711 255.345 50.277C259.129 52.6399 265.195 51.0935 268.436 44.0086C269.488 41.7508 270.74 38.8284 273.203 38.8684C276.243 38.9363 279.212 43.902 281.685 46.245C283.811 48.2403 287.068 49.591 289.571 48.1391C293.464 45.8614 292.292 44.572 296.266 46.8697C296.664 47.0988 297.054 47.3199 297.442 47.533C298.636 51.1348 299.4 54.7804 299.757 58.1784L299.755 58.1824Z" fill="black"/>
<path d="M202.164 376.987C202.21 376.974 202.255 376.957 202.302 376.941C177.671 372.397 183.104 373.149 177.055 373.19C172.031 373.223 119.107 373.581 117.363 373.593C117.363 373.593 117.964 373.799 118.931 374.128L117.086 373.671C117.422 390.223 117.821 479.385 117.821 505.407C117.861 505.407 117.901 505.427 117.921 505.447C122.361 506.29 133.628 508.359 134.86 508.67C135.131 508.943 135.504 509.114 135.918 509.114H135.922C136.744 509.113 137.41 508.443 137.408 507.621L137.114 379.874L199.903 379.721L200.198 507.468C200.199 508.288 200.866 508.954 201.687 508.954H201.691C202.513 508.953 203.179 508.283 203.177 507.461L202.879 378.225C202.879 377.695 202.583 377.251 202.165 376.987H202.164Z" fill="black"/>
<path d="M407.359 299.089C405.461 297.76 394.669 290.241 392.48 289.018L432.784 287.409C437.194 287.231 440.968 284.131 442.18 279.662L450.031 251.001C452.901 251.693 456.315 251.921 458.859 250.426C461.879 248.648 462.59 244.806 461.291 241.729C465.696 240.512 467.289 235.612 464.835 231.977C468.059 229.163 468.206 224.227 464.957 221.261C466.056 219.866 466.497 217.945 465.977 216.188C465.177 213.562 463.572 211.268 461.395 209.456L467.15 188.439C476.977 191.175 485.088 181.911 490.325 173.203C493.969 167.136 497.266 161.126 497.552 154.29C498.111 140.888 486.771 130.707 475.999 126.919C453.944 119.16 426.899 129.716 407.72 116.567C395.796 108.392 390.787 91.4264 396.318 77.9385C399.99 68.9822 408.236 62.5033 416.731 61.3258L417.658 67.4916C417.654 69.9412 418.234 72.4001 419.257 74.6325L430.489 63.152C431.084 62.4114 431.68 61.6721 432.275 60.9329C440.123 67.6715 447.73 74.783 454.924 82.2729C455.66 83.0374 456.941 82.811 457.366 81.8346C487.581 12.2216 487.252 12.7863 490.193 6.76037C490.441 6.47665 490.59 6.13965 490.73 5.87592C490.94 5.67345 491.056 5.40572 491.12 5.12201C491.142 5.02877 491.171 4.93952 491.175 4.84362C491.175 4.82497 491.186 4.80765 491.186 4.78901C491.186 4.74505 491.158 4.70909 491.154 4.66513C491.087 3.83662 490.325 3.18927 489.458 3.31182L388.327 19.3518C386.825 19.5929 386.611 21.6748 388.029 22.2156C397.746 25.9359 405.477 34.3554 412.298 41.7827C412.739 42.2662 413.442 42.3994 414.031 42.1237L426.817 36.0924L413.909 42.5686L416.286 58.3674C406.715 59.6661 397.694 66.7271 393.56 76.8077C387.518 91.5423 392.998 110.085 406.035 119.02C417.426 126.834 432.014 126.928 445.418 126.731C455.375 126.59 465.675 126.443 475.01 129.727C485.09 133.273 495.047 142.806 494.574 154.165C494.318 160.299 491.209 165.944 487.77 171.666C484.025 177.897 476.467 187.966 467.935 185.564L469.311 180.541C471.156 173.681 466.325 166.716 459.459 166.716C459.132 166.719 310.919 167.787 310.717 167.789C306.009 167.809 301.956 171.225 300.864 176.092L298.301 187.753C296.005 194.627 283.457 253.406 281.496 262.759C280.781 266.176 278.02 268.659 274.743 268.797L238.297 270.248C241.191 268.275 244.278 265.175 245.623 262.382C247.331 262.699 249.209 261.985 250.292 260.655C253.171 261.996 256.452 260.76 257.78 257.873C259.111 258.45 260.64 258.589 262.091 258.192C265.046 257.395 265.65 255.253 266.242 252.551C267.116 248.816 267.693 245.042 267.99 241.229C268.547 242.798 269.341 244.387 270.811 245.459C273.057 247.069 276.657 246.391 277.524 243.691C277.843 242.738 277.703 241.804 277.604 241.05C276.889 236.381 275.955 231.813 274.783 227.482C273.731 223.529 272.399 219.437 269.678 216.18C266.539 212.367 261.911 210.519 257.879 211.473C255.534 211.99 253.628 213.32 251.701 214.77C245.265 219.677 239.305 225.416 234.023 231.873C231.998 234.382 230.097 238.212 228.083 240.513C228.063 242.002 228.043 243.393 228.023 244.487C230.075 243.461 232.583 239.416 233.724 237.614C236.148 233.735 236.097 234.044 238 231.837C238.521 232.068 239.148 231.996 239.598 231.589C241.666 229.733 246.176 226.719 248.917 227.063C251.245 227.348 252.865 229.816 253.265 232.104C253.738 234.828 252.985 237.812 252.32 240.445C251.493 243.722 250.884 246.567 250.296 249.318C249.712 252.043 249.11 254.862 248.296 258.086C248.29 258.113 248.298 258.138 248.292 258.165C248.291 258.174 248.286 258.182 248.284 258.192C248.098 259.091 246.93 259.625 246.105 259.417C245.871 259.169 245.563 258.988 245.197 258.95C244.651 258.891 244.071 258.333 243.789 257.59C243.437 256.667 243.463 255.52 243.513 254.517C243.689 251.017 244.271 247.536 245.245 244.171C245.473 243.381 245.018 242.555 244.227 242.326C243.44 242.104 242.611 242.551 242.381 243.345C241.803 245.343 241.369 247.384 241.053 249.442C240.962 249.535 240.866 249.62 240.801 249.739C239.728 251.673 238.158 253.374 236.263 254.661C235.582 255.124 235.405 256.05 235.866 256.73C236.33 257.414 237.254 257.587 237.935 257.129C238.874 256.492 239.726 255.75 240.519 254.958C240.442 257.439 240.873 259.663 242.918 261.109C240.914 265.295 234.527 270.369 228.002 271.303C228.002 271.303 228.002 271.304 228.002 271.305C223.863 272.008 222.826 271.249 221.964 271.679C221.9 271.71 221.845 271.753 221.783 271.783C213.433 274.485 204.768 276.078 196.019 276.499C195.197 276.537 194.563 277.235 194.603 278.058C194.643 278.915 195.401 279.536 196.163 279.474C203.299 279.132 210.38 278.029 217.29 276.207C215.277 279.961 216.175 282.984 216.085 285.266C216.164 287.193 216.74 289.039 217.714 290.649C216.541 291.384 216.661 292.993 217.058 296.449C218.31 307.096 221.747 317.326 228.937 325.371C237.439 334.866 249.675 340.805 262.289 341.54C265.189 341.719 268.129 341.62 271.01 342.097C281.716 343.786 291.211 352.427 300.031 358.346C310.221 365.179 320.412 371.993 330.602 378.826C339.74 384.924 340.097 391.023 341.527 401.371C345.877 433.126 352.138 472.38 357.478 503.949H416.215C415.977 486.966 415.658 470.021 415.201 453.057C415.261 453.215 415.321 453.355 415.38 453.514C414.963 425.903 411.487 398.332 405.05 371.516C402.766 362.021 399.746 350.976 394.582 341.103C384.312 321.458 366.017 306.838 349.888 293.967C349.233 293.43 349.133 292.496 349.63 291.821C350.147 291.185 351.08 291.065 351.736 291.582C368.103 304.653 386.637 319.472 397.205 339.673C402.529 349.863 405.627 361.126 407.951 370.8C415.043 400.299 418.558 430.631 418.4 461.002C418.4 461.121 418.38 461.261 418.36 461.359C423.961 475.939 429.94 490.301 436.913 503.947L490.466 500.372C479.421 450.494 468.358 400.536 453.778 351.61C447.156 329.319 426.401 312.579 407.356 299.089H407.359ZM455.524 78.6005C445.949 68.7837 435.018 59.0308 425.012 51.0174L485.656 9.38441C483.61 13.8213 484.214 12.5 455.525 78.5992L455.524 78.6005ZM413.754 38.9602C407.962 32.6611 401.514 25.816 393.627 21.5309L479.616 7.89257L413.754 38.9615V38.9602ZM244.356 225.038C247.272 222.206 250.328 219.566 253.511 217.15C255.14 215.898 256.769 214.766 258.537 214.369C261.893 213.574 265.41 215.659 267.396 218.084C269.74 220.885 270.951 224.619 271.905 228.254C273.037 232.484 273.971 236.934 274.646 241.503C274.726 242 274.785 242.457 274.706 242.735C274.686 242.755 274.686 242.775 274.686 242.775C274.436 243.464 273.211 243.49 272.54 243.033C270.286 241.375 270.711 237.073 268.058 234.232C268.075 231.039 267.977 227.845 267.733 224.674C267.389 220.198 264.315 216.34 259.761 216.812C258.943 216.9 258.35 217.634 258.438 218.451C258.525 219.268 259.245 219.858 260.078 219.777C262.866 219.442 264.553 222.181 264.763 224.904C265.193 230.51 265.203 236.195 264.796 241.804C264.781 242.013 264.812 242.214 264.877 242.401C264.356 247.726 263.526 250.962 263.304 252.112C262.827 254.218 262.609 254.972 261.298 255.311C260.391 255.568 259.363 255.406 258.587 254.932C260.151 249.121 261.951 242.477 263.223 237.271C264.17 233.394 264.783 229.015 262.135 225.956C259.478 222.891 254.984 222.964 251.835 223.292C251.2 223.358 250.711 223.817 250.558 224.4C250.152 224.267 249.731 224.159 249.283 224.104C247.42 223.883 245.716 224.449 244.356 225.038ZM255.212 241.173C255.95 238.252 256.787 234.94 256.203 231.59C255.871 229.687 254.898 227.64 253.378 226.154C255.788 226.004 258.412 226.209 259.883 227.907C261.639 229.935 261.136 233.267 260.33 236.565C259.051 241.799 257.237 248.487 255.613 254.521C255.421 254.783 255.309 255.097 255.32 255.429C255.393 257.399 253.337 258.931 251.42 257.868C252.95 251.648 253.68 247.243 255.212 241.174V241.173ZM457.349 247.858C455.384 249.013 451.973 248.564 449.441 247.757C446.952 246.955 444.266 245.404 441.29 242.17C439.64 240.369 438.465 238.73 437.83 237.639C436.928 236.078 436.318 234.262 437.487 232.921C437.775 232.597 438.085 232.352 438.51 232.266C438.518 232.264 438.527 232.268 438.535 232.266C448.093 239.585 457.098 241.594 457.815 241.745C459.388 243.622 459.348 246.679 457.347 247.857L457.349 247.858ZM462.726 237.039C462.726 237.039 462.726 237.043 462.725 237.045C462.092 238.426 460.396 239.26 458.952 238.899C458.814 238.866 458.677 238.863 458.539 238.868C452.053 237.179 446.031 234.13 440.918 230.327C440.605 229.575 437.495 227.829 440.458 224.603C440.612 224.443 440.78 224.287 440.984 224.142C445.145 226.702 457.046 233.756 461.912 233.171C462.906 234.133 463.3 235.799 462.726 237.039ZM462.165 230.188C462.001 230.182 461.835 230.188 461.668 230.241C459.517 230.946 449.84 226.138 442.037 221.289C441.638 220.789 441.506 220.749 441.305 220.548C441.255 220.488 440.823 219.814 440.787 219.746C440.089 218.399 440.232 217.054 441.046 215.81C441.469 215.168 441.683 215.043 442.468 214.692C443.566 214.188 443.495 214.565 444.33 214.454C444.356 214.451 444.376 214.433 444.403 214.429C448.062 214.577 456.518 219.396 461.234 222.589C461.467 222.746 461.73 222.819 461.992 222.834C463.371 223.498 464.34 224.999 464.354 226.541C464.354 228.011 463.439 229.482 462.164 230.189L462.165 230.188ZM463.126 217.046C463.404 217.987 463.019 219.071 462.292 219.71C459.602 217.928 450.028 211.807 444.695 211.45L444.633 211.4C443.032 209.014 445.461 207.076 448.689 207.604C450.412 207.803 451.889 208.115 453.254 208.5C454.417 208.832 453.513 208.465 455.427 209.279C456.643 209.797 457.802 210.401 458.834 211.18C460.936 212.702 462.421 214.735 463.126 217.046ZM219.068 285.166L218.95 281.829C218.831 278.755 220.359 275.958 222.866 274.575C222.895 274.566 222.924 274.558 222.954 274.547C226.044 274.738 229.686 274.185 231.642 273.486L274.866 271.758C279.494 271.58 283.427 268.123 284.42 263.376C286.75 252.266 299.046 194.927 301.205 188.449L303.788 176.749C304.563 173.233 307.423 170.79 310.741 170.77C331.034 170.598 400.664 170.15 459.463 169.697C464.304 169.697 467.784 174.751 466.434 179.749L458.806 207.598C454.697 205.117 450.099 204.864 448.637 204.524C445.195 203.64 439.734 206.916 441.505 211.849C440.342 212.429 439.273 212.749 438.18 214.847C437.133 216.834 437.114 218.611 437.92 220.54C438.023 220.788 438.072 221.165 438.742 222.098C436.463 224.188 435.561 226.943 436.795 229.724C436.287 229.982 436.315 230.036 436.115 230.182C434.031 231.715 433.213 234.294 434.424 237.43C436.007 241.544 441.798 247.949 447.183 250.109L439.297 278.868C438.424 282.086 435.762 284.311 432.663 284.431L337.395 288.244C272.323 289.233 221.245 290.068 220.973 290.072C219.958 288.93 219.167 287.165 219.066 285.165L219.068 285.166ZM279.395 301.475C279.096 301.892 278.639 302.11 278.182 302.11C277.02 302.11 276.252 300.725 276.97 299.706C278.627 297.366 279.365 294.385 279.275 292.019C279.275 291.304 279.772 290.669 280.447 290.53L280.547 290.51C280.617 290.486 280.822 290.479 280.884 290.51C281.659 290.55 282.254 291.205 282.254 291.981C282.254 292.477 282.254 292.954 282.214 293.431C281.996 296.351 281.022 299.152 279.393 301.476L279.395 301.475Z" fill="black"/>
<path d="M422.848 53.1018L422.016 52.5983L422.114 52.5264C422.253 52.6343 422.744 53.0179 422.848 53.1005V53.1018Z" fill="black"/>
<path d="M234.999 64.9801C233.692 65.397 232.617 66.4799 232.05 67.9505C231.598 69.124 231.526 70.3228 231.516 71.4443C231.509 72.2662 232.17 72.9402 232.993 72.9481H233.005C233.821 72.9481 234.487 72.2901 234.494 71.4723C234.501 70.6305 234.546 69.7513 234.827 69.0241C235.06 68.4167 235.473 67.9558 235.906 67.8173C236.211 67.7187 236.589 67.8506 236.673 68.0211C237.033 68.7603 237.924 69.0667 238.666 68.7057C239.405 68.3448 239.711 67.4523 239.351 66.7131C238.609 65.1959 236.698 64.434 234.996 64.9801H234.999Z" fill="black"/>
<path d="M285.173 70.0517C284.146 67.8792 284.024 65.2392 284.84 62.8083C285.102 62.0291 284.681 61.1846 283.901 60.9222C283.125 60.6638 282.277 61.0807 282.014 61.8613C280.957 65.0154 281.127 68.464 282.478 71.3238C282.643 71.6728 282.826 72.0258 283.011 72.3854C283.837 73.9798 284.348 75.088 283.962 75.9352C283.566 76.8023 282.188 77.1939 279.849 77.0954C279.031 77.0141 278.333 77.6988 278.298 78.5206C278.265 79.3425 278.903 80.0378 279.725 80.0711C279.954 80.0804 280.261 80.0937 280.622 80.0937C282.409 80.0937 285.484 79.778 286.672 77.1726C287.69 74.9415 286.563 72.765 285.657 71.0161C285.488 70.6898 285.322 70.3688 285.173 70.0517Z" fill="black"/>
<path d="M270.612 66.2916C270.355 68.6706 271.117 70.7072 272.313 70.8391C273.509 70.9723 274.687 69.1514 274.944 66.7724C275.201 64.3935 274.439 62.3569 273.243 62.2237C272.047 62.0905 270.869 63.9113 270.612 66.2903V66.2916Z" fill="black"/>
<path d="M293.399 73.1824C294.595 73.3156 295.773 71.4948 296.03 69.1158C296.287 66.7369 295.525 64.7003 294.329 64.5684C293.133 64.4352 291.955 66.256 291.698 68.635C291.441 71.0139 292.203 73.0506 293.399 73.1824Z" fill="black"/>
<path d="M278.534 60.0844C279.296 60.4081 280.167 60.0458 280.484 59.2865C280.804 58.5286 280.445 57.6548 279.686 57.3365C274.478 55.148 268.171 55.7514 263.618 58.8629C262.939 59.3265 262.764 60.2535 263.229 60.9329C263.518 61.3551 263.984 61.5829 264.46 61.5829C264.75 61.5829 265.043 61.499 265.3 61.3231C268.981 58.807 274.297 58.3062 278.534 60.083V60.0844Z" fill="black"/>
<path d="M280.187 89.3625C277.947 90.1271 274.691 88.7072 272.77 86.9915C272.156 86.4427 271.216 86.4987 270.667 87.1101C270.12 87.7255 270.173 88.6659 270.787 89.2146C273.436 91.5803 277.728 93.3345 281.143 92.1863C281.923 91.9226 282.341 91.0768 282.077 90.2976C281.815 89.5197 280.969 89.1041 280.188 89.3625H280.187Z" fill="black"/>
<path d="M361.942 231.374C367.542 238.368 367.341 237.985 367.39 238.251C367.47 238.729 367.478 238.454 362.611 247.949C361.942 249.251 361.968 250.587 362.584 251.683C362.708 251.905 362.822 252.133 362.996 252.33C363 252.336 363.007 252.337 363.012 252.342C364.202 253.67 366.265 254.045 368.277 253.288L378.73 249.339C379.31 249.118 379.874 249.123 380.305 249.276C380.377 249.303 380.475 249.295 380.536 249.331C380.74 249.451 388.79 254.191 388.277 253.889C389.74 254.74 391.57 254.635 393.163 253.857C393.179 253.849 393.195 253.847 393.21 253.839C394.937 252.986 396.11 251.475 396.308 249.827C397.563 240.136 397.408 240.834 397.547 240.449C397.708 240.013 398.066 239.578 398.56 239.257L407.975 233.11C411.623 230.728 411.127 225.99 407.169 225.313C396.686 223.551 397.275 223.686 396.989 223.534C396.973 223.526 396.957 223.519 396.941 223.51C396.813 223.433 396.717 223.317 396.661 223.171C395.282 217.245 394.652 214.539 394.708 214.775C393.885 211.206 388.833 210.952 386.198 213.911C386.02 214.111 378.551 222.501 379.024 221.971C378.541 222.527 377.757 222.93 377.001 222.989L366.394 223.983C364.248 224.181 362.282 225.572 361.487 227.459C361.406 227.655 361.374 227.849 361.322 228.045C360.994 229.253 361.166 230.399 361.944 231.371L361.942 231.374Z" fill="#FE6D5E"/>
<path d="M234.4 92.4249L237.926 90.4002C238.293 90.1898 238.745 90.1698 239.13 90.3496L242.721 92.0226C243.64 92.4515 244.68 91.7149 244.544 90.7319L243.97 86.5614C243.918 86.1804 244.049 85.7968 244.325 85.5224L247.399 82.4655C248.158 81.7102 247.668 80.4342 246.585 80.3463L242.858 80.0466C242.397 80.0093 241.992 79.7349 241.798 79.326L240.233 76.0399C239.781 75.0929 238.407 75.0689 237.924 76L235.918 79.8681C235.744 80.2051 235.422 80.4475 235.042 80.5261L230.734 81.4172C229.729 81.625 229.372 82.8451 230.115 83.5391L232.908 86.1511C233.225 86.4482 233.365 86.8811 233.277 87.3006L232.488 91.0969C232.269 92.1571 233.442 92.971 234.399 92.4222L234.4 92.4249Z" fill="#023ECE"/>
</g>
<defs>
<clipPath id="clip0_409_2120">
<rect width="497.142" height="572.761" fill="white" transform="translate(0.429688 0.239258)"/>
</clipPath>
</defs>
</svg>
