<svg width="23" height="23" viewBox="0 0 23 23" fill="none" xmlns="http://www.w3.org/2000/svg">
<path d="M8.75481 10.2892C8.66508 10.2802 8.5574 10.2802 8.4587 10.2892C6.32311 10.2174 4.6272 8.46765 4.6272 6.31412C4.6272 4.11572 6.40386 2.33008 8.61124 2.33008C10.8096 2.33008 12.5953 4.11572 12.5953 6.31412C12.5863 8.46765 10.8904 10.2174 8.75481 10.2892Z" stroke="#023ECE" stroke-width="1.61515" stroke-linecap="round" stroke-linejoin="round"/>
<path d="M15.2602 4.12451C17.001 4.12451 18.4008 5.53328 18.4008 7.26508C18.4008 8.96099 17.0548 10.3428 15.3769 10.4057C15.3051 10.3967 15.2243 10.3967 15.1436 10.4057" stroke="#023ECE" stroke-width="1.61515" stroke-linecap="round" stroke-linejoin="round"/>
<path d="M4.26802 13.6002C2.09653 15.0538 2.09653 17.4227 4.26802 18.8674C6.73561 20.5184 10.7825 20.5184 13.2501 18.8674C15.4215 17.4138 15.4215 15.0449 13.2501 13.6002C10.7914 11.9581 6.74458 11.9581 4.26802 13.6002Z" stroke="#023ECE" stroke-width="1.61515" stroke-linecap="round" stroke-linejoin="round"/>
<path d="M16.9922 18.4815C17.6382 18.3469 18.2484 18.0867 18.7509 17.7008C20.1507 16.651 20.1507 14.9192 18.7509 13.8693C18.2574 13.4925 17.6562 13.2412 17.0191 13.0977" stroke="#023ECE" stroke-width="1.61515" stroke-linecap="round" stroke-linejoin="round"/>
</svg>
