<svg width="26" height="26" viewBox="0 0 26 26" fill="none" xmlns="http://www.w3.org/2000/svg">
<path fill-rule="evenodd" clip-rule="evenodd" d="M18.157 10.687L22.7142 3.85125C23.1941 3.13132 22.678 2.16699 21.8128 2.16699H17.4132C16.6888 2.16699 16.0123 2.52905 15.6105 3.13181L13.0037 7.04202L10.3968 3.13181C9.995 2.52905 9.3185 2.16699 8.59407 2.16699H4.19453C3.32928 2.16699 2.81319 3.13132 3.29314 3.85125L7.85031 10.687C6.35576 12.0721 5.42032 14.052 5.42032 16.2503C5.42032 20.4385 8.81549 23.8337 13.0037 23.8337C17.1918 23.8337 20.587 20.4385 20.587 16.2503C20.587 14.052 19.6515 12.0721 18.157 10.687ZM14.1437 8.75212C15.12 8.89931 16.0352 9.23261 16.8522 9.71473L20.8007 3.79199H17.4132C17.2321 3.79199 17.063 3.88251 16.9625 4.0332L13.9802 8.50677L14.1437 8.75212ZM9.15513 9.71473L5.20664 3.79199H8.59407C8.77518 3.79199 8.9443 3.88251 9.04477 4.0332L12.1646 8.71289C11.0753 8.83279 10.0555 9.18337 9.15513 9.71473ZM18.962 16.2503C18.962 19.541 16.2943 22.2087 13.0037 22.2087C9.71295 22.2087 7.04532 19.541 7.04532 16.2503C7.04532 12.9596 9.71295 10.292 13.0037 10.292C16.2943 10.292 18.962 12.9596 18.962 16.2503Z" fill="#023ECE"/>
<path fill-rule="evenodd" clip-rule="evenodd" d="M13 17.875C13.8975 17.875 14.625 17.1475 14.625 16.25C14.625 15.3525 13.8975 14.625 13 14.625C12.1025 14.625 11.375 15.3525 11.375 16.25C11.375 17.1475 12.1025 17.875 13 17.875ZM16.25 16.25C16.25 18.0449 14.7949 19.5 13 19.5C11.2051 19.5 9.75 18.0449 9.75 16.25C9.75 14.4551 11.2051 13 13 13C14.7949 13 16.25 14.4551 16.25 16.25Z" fill="#023ECE"/>
</svg>
