<svg width="24" height="15" viewBox="0 0 24 15" fill="none" xmlns="http://www.w3.org/2000/svg">
<path d="M16.9231 0C16.4133 0 16 0.413276 16 0.923077C16 1.43288 16.4133 1.84615 16.9231 1.84615H20.8484L13.4483 9.24623C13.3282 9.36639 13.1334 9.36639 13.0132 9.24623L9.83069 6.06372C8.98956 5.22259 7.62582 5.2226 6.78469 6.06373L0.270363 12.5781C-0.090121 12.9385 -0.090121 13.523 0.270363 13.8835C0.630847 14.244 1.21531 14.244 1.57579 13.8835L8.09012 7.36915C8.21028 7.24899 8.4051 7.24899 8.52526 7.36915L11.7078 10.5517C12.5489 11.3928 13.9126 11.3928 14.7538 10.5517L22.1538 3.15158V7.07692C22.1538 7.58672 22.5671 8 23.0769 8C23.5867 8 24 7.58672 24 7.07692V0.923077C24 0.413276 23.5867 0 23.0769 0H16.9231Z" fill="#023ECE"/>
</svg>
