<svg width="560" height="552" viewBox="0 0 560 552" fill="none" xmlns="http://www.w3.org/2000/svg">
<g clip-path="url(#clip0_409_1953)">
<path d="M202.25 93.792L206.443 103.633L184.48 109.411L173.836 96.6372C195.169 89.3596 244.896 80.8877 245.396 81.4081C246.59 82.6466 248.545 86.5573 250.979 92.249C229.102 92.8566 202.252 93.792 202.252 93.792H202.25Z" fill="black"/>
<path d="M293.833 215.147C293.656 214.983 292.378 214.08 284.671 212.433C283.79 212.245 283.23 211.38 283.418 210.5C283.606 209.619 284.478 209.061 285.351 209.246C288.938 210.012 291.3 210.646 292.891 211.183L284.122 152.967C283.626 150.488 279.688 100.221 277.627 93.43C275.992 93.3728 270.032 93.3689 251.034 93.8775C233.168 94.3745 211.742 95.0978 204.694 95.3372L207.955 102.993C208.309 103.821 207.923 104.777 207.095 105.132C206.265 105.478 205.312 105.098 204.958 104.271L200.765 94.4291C200.316 93.378 201.065 92.2019 202.208 92.1616C202.476 92.1524 229.314 91.2223 250.946 90.6186C277.841 89.8953 278.642 90.1815 279.22 90.3922C280.855 90.9699 281.762 91.2899 286.246 141.143C288.001 160.648 286.012 141.732 296.572 213.728C296.803 215.265 294.948 216.215 293.835 215.147H293.833Z" fill="black"/>
<path d="M273.693 306.579C269.37 298.085 263.286 289.634 256.031 283.356C253.625 281.265 250.467 280.578 247.299 280.749C240.958 279.929 247.356 280.189 216.168 279.271C215.795 275.523 208.939 208.066 208.738 206.495C208.521 204.844 208.976 204.192 210.584 203.519C212.279 202.803 214.126 202.606 215.907 202.151C215.972 202.129 216.059 202.108 216.124 202.108C218.427 208.299 219.97 212.101 220.317 212.015C229.767 209.625 246.213 209.56 260.181 210.104L273.693 306.581V306.579Z" fill="#023ECE"/>
<path d="M308.099 424.977C308.099 424.992 308.107 425.006 308.122 425.02C308.122 425.02 308.099 425.043 308.078 425.043C308.078 425.02 308.101 424.999 308.101 424.977H308.099Z" fill="#023ECE"/>
<path d="M404.313 259.917C385.065 280.771 371.531 306.102 358.193 331.15C350.024 346.487 341.834 361.846 334.447 377.573C334.187 377.573 333.905 377.551 333.643 377.551C322.313 377.216 314.639 378.177 306.336 386.045C300.019 392.039 300.335 393.415 296.929 401.6C291.284 415.136 290.322 417.026 290.13 419.653C289.978 421.477 290.434 423.215 291.368 424.433C282.831 423.672 274.338 422.543 265.886 421.153C256.633 419.632 247.052 418.503 243.771 408.249C242.185 403.252 242.49 397.842 243.12 392.629C246.334 366.408 257.415 341.903 268.363 317.854C279.942 292.415 289.283 267.867 308.857 247.358C315.396 240.515 322.393 233.954 330.69 229.436C338.989 224.939 348.787 222.593 358.02 224.656L404.314 259.915L404.313 259.917Z" fill="#023ECE"/>
<path d="M247.16 315.552C246.273 315.552 245.547 314.841 245.531 313.95C245.517 313.051 246.234 312.308 247.133 312.293C271.565 311.811 272.019 312.139 272.822 311.207C273.588 310.341 272.78 308.398 272.232 307.315C267.67 298.352 261.535 290.279 254.958 284.587C252.891 282.791 250.103 282.22 247.379 282.377L247.27 280.75V279.121C250.8 278.917 254.387 279.779 257.092 282.125C263.978 288.084 270.388 296.507 275.139 305.841C276.777 309.078 276.822 311.603 275.275 313.352C273.785 315.081 271.321 315.119 269.996 315.141L247.188 315.552H247.16Z" fill="black"/>
<path d="M471.349 250.38C466.614 245.926 460.575 243.015 454.382 241.038C446.431 238.496 438.176 236.78 429.834 235.368C429.639 236.39 429.465 237.411 429.268 238.432C420.145 244.906 408.066 245.558 398.899 240.061C396.401 238.561 394.49 235.911 393.359 233.044C392.88 231.848 392.817 230.611 392.925 229.372C386.733 228.308 380.542 227.265 374.351 226.2C366.182 224.832 359.361 222.182 350.845 223.138C347.478 223.528 344.045 224.05 341.004 225.549C333.706 229.133 334.139 239.582 331.968 246.795C271.309 448.944 280.784 415.794 277.374 429.756C276.549 433.058 273.312 438.228 275.528 441.53C277.983 445.158 286.39 443.745 290.018 443.79C348.857 444.458 366.72 440.134 379.348 439.162C383.085 438.858 387.082 436.794 390.753 437.294C392.491 437.533 394.099 438.38 395.728 439.032C409.262 444.441 425.23 437.012 439.003 441.791C440.459 437.012 441.414 431.494 443.826 427.106C445.674 423.674 447.54 421.175 448.779 417.331C456.391 393.302 466.442 354.395 473.371 316.943C477.063 296.913 488.773 266.782 471.351 250.38H471.349ZM378.501 418.851C374.362 416.843 371.568 417.013 368.181 416.462C363.946 415.789 359.97 414.116 355.973 412.595C353.301 411.596 348.131 408.815 345.284 409.728C342.243 410.684 339.788 414.485 336.226 415.55C335.465 415.767 326.733 416.853 326.733 415.767C326.254 419.243 325.646 422.979 323.344 425.434C321.041 427.867 316.436 427.91 315.175 424.652C314.893 426.413 313.394 427.867 311.764 427.934C310.113 428.019 308.505 426.717 308.092 424.979C306.68 427.954 303.248 431.497 300.098 429.302C298.751 428.368 298.882 427.107 298.1 425.891C297.231 424.545 297.426 425.196 296.057 425.718C292.277 427.152 289.822 423.566 290.126 419.657C290.308 417.172 290.84 416.199 296.925 401.603C300.35 393.369 300.043 392.014 306.332 386.049C314.634 378.182 322.311 377.221 333.64 377.555C352.236 378.097 370.765 380.727 388.862 385.354L378.499 418.853L378.501 418.851Z" fill="#023ECE"/>
<path d="M532.719 427.412C529.133 432.318 524.523 436.396 519.362 439.469C491.631 439.781 454.685 440.204 428.637 440.514H428.618C412.975 438.642 397.274 432.83 382.438 427.846L448.062 241.216C478.579 253.353 496.409 281.052 510.181 309.403C519.657 328.848 531.301 347.801 536.422 369.039C540.717 386.81 544.224 411.692 532.719 427.413V427.412Z" fill="#023ECE"/>
<path d="M472.789 381.785L455.189 316.43C454.955 315.559 455.469 314.667 456.339 314.431C457.202 314.2 458.102 314.714 458.336 315.582L475.936 380.937C476.17 381.807 475.656 382.7 474.786 382.935C473.938 383.165 473.027 382.668 472.79 381.785H472.789Z" fill="black"/>
<path d="M434.374 163.771C430.058 159.462 423.464 157.703 417.583 159.287C416.713 159.516 415.821 159.005 415.588 158.136C415.354 157.268 415.869 156.373 416.738 156.14C423.728 154.259 431.556 156.35 436.676 161.468C437.314 162.103 437.314 163.136 436.679 163.772C436.044 164.407 435.01 164.409 434.375 163.772L434.374 163.771Z" fill="black"/>
<path d="M398.072 241.458C395.423 239.869 393.215 237.094 391.854 233.641C390.499 230.249 391.791 227.001 392.422 223.759C393.586 218.091 393.546 215.879 395.673 208.603C395.924 207.735 396.831 207.241 397.693 207.496C398.557 207.748 399.051 208.653 398.799 209.515C396.729 216.603 396.786 218.7 395.617 224.397C395.043 227.344 393.945 230.091 394.882 232.437C395.968 235.191 397.74 237.456 399.746 238.659C408.123 243.684 419.314 243.187 427.799 237.472C435.511 194.843 432.85 209.477 433.434 206.328C433.598 205.44 434.443 204.855 435.333 205.023C436.217 205.187 436.801 206.036 436.637 206.921C430.46 240.266 431.228 239.044 430.221 239.756C420.636 246.559 407.722 247.238 398.07 241.455L398.072 241.458Z" fill="black"/>
<path d="M433.608 207.594C433.152 206.818 433.411 205.821 434.185 205.362C439.728 202.096 444.053 197.36 447.408 190.876L447.555 190.587C448.152 189.408 449.703 189.382 450.354 190.23C453.708 194.616 464.32 195.497 465.82 183.621C467.087 173.547 459.803 170.652 453.797 173.901C453.007 174.323 452.017 174.035 451.588 173.241C451.16 172.45 451.456 171.461 452.247 171.032C457.998 167.929 465.093 169.229 467.945 175.186C470.358 180.223 469.323 188.776 465.174 193.047C460.882 197.461 453.989 197.432 449.47 193.912C445.947 200.172 441.474 204.848 435.838 208.168C435.065 208.622 434.065 208.368 433.607 207.59L433.608 207.594Z" fill="black"/>
<path d="M418.257 211.397C414.025 212.077 409.969 212.046 406.529 211.302C398.929 209.658 391.451 203.808 387.195 194.073C381.168 180.254 381.623 158.247 390.369 141.888H386.723C378.188 158.967 378.059 181.274 384.208 195.376C390.31 209.358 402.492 217.247 418.774 214.613C419.662 214.471 420.266 213.635 420.123 212.746C419.98 211.855 419.138 211.244 418.256 211.397H418.257Z" fill="black"/>
<path d="M451.062 141.888C454.085 150.37 454.389 160.45 451.856 170.423C451.635 171.295 452.163 172.182 453.035 172.402C453.905 172.628 454.794 172.096 455.015 171.224C457.599 161.052 457.38 150.739 454.494 141.888H451.062Z" fill="black"/>
<path d="M473.834 154.207C472.118 157.639 469.619 160.637 467.143 163.59C460.273 171.777 460.525 171.548 459.974 171.78C459.322 172.062 458.605 171.823 457.91 171.693C453.609 170.846 452.001 173.821 449.134 176.038C447.94 176.972 446.766 177.971 445.637 179.102C445.81 178.928 444.508 173.128 444.486 172.367C444.4 169.542 445.224 167.045 445.464 164.307C445.876 159.81 445.29 154.749 444.942 150.252C443.639 151.685 441.51 151.903 439.577 151.99C427.371 152.586 405.719 152.789 394.173 148.796C387.743 146.58 381.726 142.627 378.162 136.848C372.446 127.485 372.213 109.466 379.423 98.0699C382.429 106.373 382.076 107.519 385.917 107.606C389.568 107.584 393.195 106.39 396.214 104.282C398.051 102.99 399.322 103.032 399.559 105.238C400.016 109.105 399.821 113.036 399.038 116.839C402.449 119.099 407.032 116.644 411.073 117.251C414.44 117.773 417.069 120.293 419.415 122.726C423.26 126.614 427.084 130.481 430.885 134.349C428.234 126.789 425.628 119.207 422.978 111.604C422.066 108.976 420.458 105.847 417.678 105.847C416.179 105.869 414.853 106.868 413.528 107.52C412.137 108.172 410.269 108.411 409.357 107.238C408.9 106.695 408.792 105.977 408.683 105.305C406.931 95.3678 407.012 94.6679 406.185 93.5738C404.382 91.2502 400.688 92.4875 398.169 93.9862C396.626 93.6609 394.388 96.2889 392.347 95.7893C389.544 95.1154 389.501 93.2472 388.697 90.9016C388.524 90.402 388.372 89.8153 388.22 89.1856C397.996 82.82 411.248 82.1682 422.088 86.0581C436.079 91.0759 436.187 110.736 444.92 121.122C448.734 125.657 451.507 126.024 455.999 126.249C462.038 126.51 468.751 127.139 472.77 131.658C477.667 137.094 477.291 147.332 473.835 154.208L473.834 154.207Z" fill="black"/>
<path d="M307.072 426.773C303.409 427.035 294.893 426.361 291.237 426.054C290.78 426.016 290.36 425.787 290.08 425.424C288.899 423.884 288.327 421.733 288.51 419.515C288.714 416.736 289.355 415.542 295.43 400.971C296.663 398.021 297.663 394.974 299.232 392.014C301.736 387.424 308.686 380.748 315.659 378.051C322.001 375.615 328.251 375.859 334.451 375.942C352.93 376.555 371.358 379.188 389.275 383.77C390.179 384 390.702 384.943 390.427 385.829C379.492 420.466 380.461 419.769 379.158 420.341C377.878 420.894 377.525 419.696 373.478 418.833C372.481 418.634 371.443 418.515 370.406 418.394C358.432 416.984 349.196 410.189 345.79 411.274C343.238 412.079 340.601 415.939 336.701 417.106C336.623 417.127 331.36 418.041 328.082 417.821C327.541 421.145 326.701 424.239 324.539 426.543C322.226 428.99 318.163 429.603 315.522 427.672C313.096 430.549 308.883 430.057 307.072 426.773ZM309.707 424.637C309.935 425.583 310.831 426.426 311.686 426.302C312.559 426.266 313.413 425.392 313.575 424.389C313.836 422.774 316.093 422.484 316.703 424.059C317.501 426.125 320.669 425.895 322.168 424.309C324.063 422.29 324.648 419.008 325.126 415.539C325.303 414.267 326.88 413.667 327.85 414.568C329.439 414.789 334.897 414.19 335.809 413.973C338.806 413.074 341.428 409.231 344.804 408.168C350.261 406.426 358.176 413.683 370.786 415.157C373.289 415.45 374.983 415.672 377.489 416.631L386.807 386.507C369.642 382.241 352.02 379.782 334.398 379.198L333.649 379.177C322.665 378.852 315.412 379.693 307.46 387.224C301.746 392.646 301.949 393.567 298.196 402.8C296.584 406.669 294.97 410.537 293.377 414.405C292.329 416.912 290.931 420.244 292.305 422.872C295.762 423.154 304.029 423.82 307.476 423.466C308.304 423.125 309.461 423.603 309.706 424.636L309.707 424.637Z" fill="black"/>
<path d="M299.17 430.64C297.557 429.523 297.336 428.028 296.921 427.123C294.575 428.197 291.79 427.763 290.053 425.4C289.237 424.288 290.084 422.71 291.502 422.812C295.334 423.131 304.261 423.88 307.872 423.428C309.145 423.264 310.105 424.592 309.539 425.755C307.466 430.022 303.056 433.335 299.17 430.642V430.64ZM300.249 426.688C300.501 427.385 300.622 427.681 301.027 427.963C302.33 428.868 303.751 428.003 304.857 426.852C304.423 426.844 303.874 426.877 300.247 426.688H300.249Z" fill="black"/>
<path d="M296.817 426.42C295.964 426.134 295.503 425.213 295.787 424.358C298.573 415.999 301.814 407.708 305.419 399.719C305.79 398.901 306.755 398.538 307.575 398.905C308.394 399.274 308.76 400.24 308.389 401.06C304.83 408.951 301.629 417.135 298.878 425.39C298.602 426.221 297.702 426.706 296.817 426.421V426.42Z" fill="black"/>
<path d="M308.373 427.152C307.49 426.978 306.913 426.123 307.085 425.241C308.387 418.569 310.008 410.267 314.866 404.344C315.437 403.648 316.462 403.548 317.16 404.117C317.856 404.689 317.957 405.715 317.386 406.411C313.05 411.698 311.581 419.226 310.284 425.866C310.118 426.711 309.307 427.324 308.373 427.154V427.152Z" fill="black"/>
<path d="M315.102 427.071C314.225 426.87 313.676 425.995 313.878 425.117C315.045 420.031 316.546 414.992 318.339 410.142C318.652 409.3 319.588 408.863 320.433 409.179C321.276 409.491 321.708 410.428 321.396 411.271C319.65 415.991 318.189 420.897 317.053 425.848C316.852 426.725 315.979 427.27 315.102 427.073V427.071Z" fill="black"/>
<path d="M458.736 185.386C457.856 185.197 457.296 184.332 457.483 183.451C457.822 181.868 458.116 179.584 456.705 178.769C456.301 178.53 455.743 178.605 455.565 178.829C455.002 179.529 453.976 179.64 453.275 179.075C451.092 177.319 454.979 173.997 458.341 175.95C459.713 176.744 460.662 178.228 460.94 180.023C461.166 181.47 460.943 182.853 460.669 184.134C460.476 185.039 459.581 185.573 458.736 185.386Z" fill="black"/>
<path d="M369.868 362.889L355.938 417.274L400.643 431.721L414.675 392.06L369.868 362.889Z" fill="#023ECE"/>
<path d="M438.19 443.521L358.766 422.131C355.614 421.283 353.691 418.014 354.483 414.843L365.999 368.775C366.755 365.741 369.654 363.814 372.752 364.274L503.408 384.029C504.297 384.163 504.911 384.991 504.776 385.883C504.641 386.774 503.805 387.393 502.921 387.249L372.265 367.493C370.839 367.271 369.51 368.169 369.16 369.565L357.644 415.633C357.28 417.09 358.165 418.593 359.613 418.983L439.037 440.372C441.107 440.933 440.279 444.087 438.19 443.521Z" fill="black"/>
<path d="M409.427 437.881C406.068 432.414 397.917 433.405 390.896 433.405H308.105C303.704 395.36 297.689 357.412 290.443 321.178C289.444 316.29 289.052 312.27 284.339 309.664C277.126 305.71 267.72 308.035 259.943 307.969C255.273 307.926 250.58 307.904 245.909 307.882C246.604 310.597 247.213 313.313 247.365 316.115C248.017 329.107 236.676 341.51 223.686 342.011C216.583 342.271 209.783 339.512 202.788 338.318C190.775 336.232 177.978 338.99 167.878 345.813C145.54 360.903 147.104 388.927 140.461 409.9C142.221 416.004 144.067 422.108 145.978 428.191C147.716 433.775 148.39 440.031 150.844 445.441C219.949 444.529 324.333 443.29 410.947 442.291C410.804 441.287 410.205 439.139 409.427 437.881ZM217.08 408.77C209.585 408.77 202.025 400.667 200.157 390.696C198.267 380.703 202.808 372.622 210.302 372.622C217.796 372.622 225.335 380.703 227.225 390.696C229.093 400.668 224.553 408.77 217.08 408.77Z" fill="black"/>
<path d="M394.05 399.588C393.174 399.383 392.628 398.508 392.832 397.631L399.066 370.83C399.27 369.952 400.142 369.396 401.023 369.612C401.898 369.816 402.445 370.692 402.24 371.569L396.006 398.37C395.799 399.259 394.907 399.793 394.05 399.588Z" fill="black"/>
<path d="M404.414 181.084C402.838 180.799 398.038 179.934 397.195 176.071C396.479 172.776 399.222 170.316 400.739 168.376C402.502 166.132 403.326 163.108 402.994 160.085C402.896 159.191 403.543 158.387 404.437 158.29C405.334 158.154 406.136 158.837 406.233 159.732C406.656 163.594 405.587 167.478 403.301 170.389C401.807 172.289 400.055 173.888 400.38 175.374C400.635 176.543 402.143 177.362 404.993 177.876C405.878 178.034 406.467 178.884 406.307 179.769C406.151 180.636 405.328 181.241 404.414 181.084Z" fill="black"/>
<path d="M316.051 381.739C315.184 381.495 314.677 380.598 314.92 379.731L338.753 294.461C338.995 293.596 339.896 293.092 340.76 293.331C341.627 293.576 342.134 294.472 341.891 295.34L318.058 380.609C317.818 381.473 316.922 381.98 316.051 381.739Z" fill="black"/>
<path d="M423.697 168.338C424.006 165.544 423.1 163.152 421.675 162.994C420.249 162.837 418.843 164.974 418.535 167.768C418.227 170.562 419.132 172.954 420.558 173.112C421.983 173.269 423.389 171.132 423.697 168.338Z" fill="black"/>
<path d="M393.385 164.991C393.693 162.197 392.788 159.805 391.362 159.647C389.937 159.49 388.531 161.627 388.223 164.421C387.914 167.215 388.82 169.607 390.245 169.764C391.671 169.922 393.076 167.785 393.385 164.991Z" fill="black"/>
<path d="M75.4335 474.8C74.5345 474.8 73.8047 474.07 73.8047 473.172V446.702C73.8047 445.949 74.3199 445.296 75.051 445.117C78.6118 444.264 558.822 439.019 554.313 439.019C555.205 439.019 555.932 439.738 555.941 440.63C555.951 441.529 555.229 442.268 554.33 442.276C524.483 442.613 106.839 447.299 77.0636 448.25V473.172C77.0636 474.07 76.3338 474.8 75.4348 474.8H75.4335Z" fill="black"/>
<path d="M4.32549 427.519C2.55097 427.562 0.87012 427.573 0.202725 426.13C-0.459467 424.707 0.622937 423.284 1.68713 422.061L3.273 420.254C12.3251 409.973 14.5836 406.267 17.7033 388.47C18.186 385.714 18.6856 382.865 19.3126 380.067C24.2537 357.991 38.2443 342.656 56.7401 339.046C67.3274 336.935 96.979 339.499 104.32 313.482C107.095 303.587 106.84 292.039 117.144 285.565C128.04 278.731 141.499 275.496 158.421 275.8C167.262 275.937 227.876 278.057 241.319 278.427C243.463 278.498 245.624 278.898 247.501 279.137C250.294 279.496 250.584 279.244 251.854 279.506C253.454 279.83 253.627 282.066 252.092 282.628C250.321 283.284 248.406 285.274 246.967 287.953C243.581 294.262 245.499 300.105 247.5 307.472C248.186 310.155 248.843 313.045 249.006 316.029C249.706 329.973 237.621 343.11 223.762 343.642C216.332 343.906 209.449 341.109 202.526 339.928C190.897 337.904 178.603 340.547 168.803 347.167C147.09 361.832 148.731 389.237 142.028 410.396C136.268 428.744 127.595 428.027 108.365 429.795C53.8364 434.619 16.8343 427.293 4.32809 427.521L4.32549 427.519ZM108.07 426.548C114.8 425.922 126.132 425.759 131.724 421.742C134.574 419.688 136.995 415.539 138.92 409.414C145.492 388.66 144.073 359.937 166.977 344.466C177.471 337.378 190.626 334.556 203.079 336.713C210.086 337.913 216.795 340.627 223.64 340.386C235.723 339.918 246.359 328.279 245.751 316.198C245.604 313.5 244.989 310.799 244.345 308.287C243.262 304.256 242.146 300.39 241.866 296.485C241.529 291.791 243.306 286.246 246.984 282.354C244.706 282.047 242.993 281.741 241.221 281.684C230.76 281.395 166.617 279.182 158.372 279.056C142.123 278.761 129.222 281.835 118.878 288.323C109.929 293.944 110.249 304.418 107.46 314.361C99.5458 342.406 67.6747 340.186 57.3737 342.24C40.1814 345.596 27.1444 360.001 22.4948 380.777C20.1101 391.399 19.634 402.901 13.3503 412.752C10.4062 417.391 6.26523 421.707 4.09261 424.263C16.4219 423.852 52.7878 431.407 108.072 426.546L108.07 426.548Z" fill="black"/>
<path d="M250.705 282.608C249.844 282.514 249.207 281.766 249.252 280.9C249.299 280.034 250.013 279.357 250.88 279.357C251.213 279.357 251.565 279.34 251.898 279.302C253.903 279.08 254.43 282.025 252.46 282.505C252.347 282.532 252.221 282.577 252.107 282.619C251.52 282.842 251.167 282.653 250.705 282.606V282.608Z" fill="black"/>
<path d="M142.941 292.561C142.88 291.664 143.559 290.886 144.456 290.826C168.972 289.162 192.932 289.01 192.658 289.01C193.552 289.01 194.281 289.73 194.287 290.627C194.293 291.526 193.57 292.262 192.669 292.269C176.734 292.39 160.588 292.996 144.676 294.076C143.726 294.13 142.999 293.417 142.94 292.561H142.941Z" fill="black"/>
<path d="M208.417 312.321L135.136 308.769C134.237 308.726 133.544 307.961 133.588 307.063C133.631 306.164 134.413 305.425 135.294 305.515L208.574 309.067C209.473 309.11 210.167 309.875 210.122 310.772C210.077 311.717 209.24 312.387 208.417 312.321Z" fill="black"/>
<path d="M136.016 326.732C135.12 326.647 134.463 325.854 134.546 324.956C134.629 324.061 135.444 323.408 136.319 323.486C149.129 324.685 159.628 324.402 159.41 324.402C160.3 324.402 161.027 325.117 161.039 326.007C161.052 326.906 160.333 327.648 159.432 327.659C151.975 327.77 143.976 327.476 136.015 326.73L136.016 326.732Z" fill="black"/>
<path d="M149.945 344.188C132.763 343.106 115.315 342.536 98.0859 342.493C97.1869 342.49 96.4583 341.759 96.4609 340.859C96.4648 339.274 98.3122 339.136 98.095 339.234C115.389 339.277 132.902 339.849 150.152 340.937C151.049 340.991 151.731 341.767 151.675 342.663C151.614 343.639 150.715 344.28 149.946 344.187L149.945 344.188Z" fill="black"/>
<path d="M78.3963 364.864C73.3732 364.522 68.2643 364.056 63.2101 363.475C62.3163 363.373 61.6736 362.564 61.7764 361.669C61.8792 360.775 62.7014 360.156 63.5809 360.237C68.5857 360.812 73.6425 361.273 78.6161 361.613C79.5151 361.674 80.1929 362.451 80.1305 363.348C80.0719 364.212 79.3395 364.917 78.395 364.863L78.3963 364.864Z" fill="black"/>
<path d="M44.2291 388.041C43.3301 388.007 42.6302 387.247 42.6653 386.35C42.7018 385.451 43.4563 384.716 44.3579 384.786C65.9969 385.645 87.9494 386.017 109.61 385.879C109.908 385.495 110.375 385.249 110.898 385.249H110.906C113.223 385.259 113.226 389.125 109.794 389.138C88.4398 389.277 66.1191 388.91 44.2304 388.041H44.2291Z" fill="black"/>
<path d="M207.623 183.748C207.312 182.904 207.744 181.968 208.59 181.656C209.433 181.353 210.372 181.777 210.681 182.624C212.455 187.378 219.353 206.5 221.057 210.163C236.241 206.79 267.978 208.494 283.152 209.934C280.953 201.007 268.583 162.289 259.97 135.897L215.03 103.078L180.345 112.179C184.021 116.842 189.017 127.043 195.801 143.684C196.142 144.518 195.742 145.467 194.908 145.807C194.074 146.149 193.124 145.747 192.784 144.913C185.061 125.97 179.502 115.094 176.265 112.588C175.197 111.762 175.543 110.065 176.85 109.725C216.355 99.5939 215.136 99.123 216.327 99.9907C264.998 135.672 262.597 133.439 262.904 134.387C287.908 210.974 287.104 211.913 286.329 212.821C285.144 214.206 285.213 212.68 260.121 211.728C247.456 211.243 230.339 211.16 220.717 213.592C218.495 214.15 218.646 213.769 207.623 183.747V183.748Z" fill="black"/>
<path d="M215.367 101.307L225.925 136.549L261.342 134.895L215.367 101.307Z" fill="black"/>
<path d="M215.214 204.562C211.882 204.185 208.603 202.824 205.982 200.731C204.586 199.617 203.403 198.333 202.257 197.095C197.046 191.45 195.343 185.449 192.91 178.03C189.738 168.933 190.039 168.122 189.449 161.767C189.241 159.541 189.028 157.237 189.016 154.955C188.967 145.107 194.16 140.198 203.772 136.868C205.501 136.269 207.531 135.661 209.658 135.796C215.264 136.201 217.702 141.619 214.481 145.981C215.1 146.17 215.668 146.433 216.179 146.771C218.467 148.281 219.554 151.947 218.461 154.461C218.267 154.906 217.905 155.412 217.428 155.918C223.567 156.761 224.279 162.718 220.196 165.894C227.124 168.397 227.756 175.278 224.558 178.239C222.682 179.981 220.113 180.147 217.514 180.522C212.511 181.205 210.349 181.844 210.648 185.087C211.199 191.079 214.153 196.753 216.857 202.225C217.415 203.359 216.522 204.698 215.211 204.562H215.214ZM204.84 139.947C200.638 141.4 197.311 143.029 194.725 146.248C191.503 150.257 192.219 156.355 192.694 161.465C193.268 167.612 192.906 168.118 195.994 176.978C198.361 184.192 199.896 189.733 204.654 194.883C207.047 197.475 208.867 199.369 212.429 200.605C210.098 195.822 207.909 190.857 207.405 185.385C206.796 178.784 212.422 177.924 218.496 177.092C220.944 176.736 223.1 176.373 223.14 173.86C223.16 172.676 222.651 171.427 221.816 170.599C220.423 169.22 218.255 168.44 214.995 168.138C213.252 167.974 212.962 165.539 214.619 164.973C216.046 164.487 217.52 163.987 218.518 163.046C219.243 162.366 219.749 161.179 219.343 160.372C218.271 158.234 213.828 159.705 210.682 158.617C209.831 158.322 209.381 157.393 209.677 156.542C209.971 155.694 210.901 155.24 211.749 155.537C212.545 155.741 215.061 154.107 215.472 153.161C215.939 152.088 215.361 150.131 214.385 149.489C213.542 148.93 212.279 148.755 210.65 148.964C208.891 149.185 208.097 146.827 209.623 145.94C214.041 143.37 213.357 139.331 209.426 139.044C209.282 139.034 206.282 139.446 204.838 139.946L204.84 139.947Z" fill="black"/>
<path d="M200.284 162.582C199.678 161.916 199.727 160.887 200.392 160.281C203.612 157.348 207.846 156.231 211.584 155.245C212.454 155.026 213.344 155.537 213.575 156.405C213.805 157.276 213.284 158.165 212.415 158.397C209.041 159.286 205.215 160.295 202.585 162.691C201.923 163.295 200.893 163.251 200.284 162.583V162.582Z" fill="black"/>
<path d="M209.374 166.618C210.894 165.885 212.683 165.077 214.668 164.755C215.555 164.608 216.394 165.215 216.537 166.103C216.682 166.991 216.078 167.828 215.189 167.972C213.636 168.225 212.101 168.921 210.786 169.555C209.245 170.296 207.533 171.201 206.708 172.606C205.232 175.107 199.478 171.368 209.374 166.619V166.618Z" fill="black"/>
<path d="M236.47 168.565C231.789 168.565 230.073 163.864 227.805 162.088C227.096 161.532 226.972 160.507 227.526 159.798C228.08 159.092 229.103 158.964 229.813 159.52C231.622 160.935 232.55 162.741 233.9 164.068C234.861 165.012 236.368 165.652 237.224 165.093C238.375 164.338 240.332 158.599 241.824 157.464C243.793 155.969 246.437 157.224 247.778 159.288C248.477 160.361 249.035 161.609 249.732 161.838C250.452 162.094 251.526 161.225 252.221 160.419C253.259 159.211 254.104 157.86 254.731 156.396C255.085 155.569 256.043 155.186 256.871 155.541C257.698 155.895 258.081 156.854 257.727 157.681C256.12 161.426 252.574 166.225 248.706 164.93C246.731 164.273 245.944 162.451 245.048 161.063C244.627 160.417 243.991 160.049 243.762 160.067C243.576 160.285 241.445 164.608 241.335 164.826C240.868 165.751 240.229 167.02 239.006 167.82C238.207 168.34 237.339 168.563 236.469 168.563L236.47 168.565Z" fill="black"/>
<path d="M224.77 191.796C223.98 191.365 223.69 190.374 224.122 189.586C224.554 188.795 225.544 188.506 226.334 188.937C230.511 191.221 232.677 198.077 237.067 193.978C239.039 192.141 240.192 189.402 241.308 186.752C241.597 186.069 241.939 185.256 242.682 184.667C243.811 183.772 245.483 183.716 246.948 184.52C247.618 184.891 248.152 185.368 248.624 185.787C252.546 189.281 257.571 187.352 258.886 183.44C259.174 182.587 260.096 182.132 260.951 182.415C261.805 182.701 262.262 183.626 261.976 184.479C259.912 190.62 252.31 192.917 247.191 188.848C246.519 188.316 245.219 186.951 244.698 187.227C244.199 187.663 241.31 198.022 234.899 198.499C229.907 198.88 227.579 193.329 224.774 191.797L224.77 191.796Z" fill="black"/>
<path d="M204.528 133.429C202.862 133.169 200.659 131.082 199.579 129.784C199.004 129.092 199.099 128.065 199.79 127.489C200.482 126.914 201.51 127.008 202.085 127.701C202.793 128.552 203.612 129.301 204.524 129.927C204.842 130.146 204.976 130.2 205.032 130.209C205.902 130.129 206.251 127.479 207.37 126.015C208.157 125 209.308 124.714 210.468 125.46L213.602 127.451C214.362 127.933 214.587 128.941 214.105 129.701C213.622 130.458 212.614 130.683 211.855 130.202L209.554 128.739C209.299 129.352 209.114 130.012 208.777 130.725C207.965 132.441 206.374 133.708 204.528 133.429Z" fill="black"/>
<path d="M196.6 156.125C195.948 155.506 195.923 154.474 196.542 153.824C200.181 149.999 205.138 147.856 209.51 145.963C210.34 145.604 211.295 145.987 211.653 146.811C212.011 147.636 211.63 148.598 210.805 148.954C206.717 150.721 202.086 152.726 198.905 156.068C198.284 156.721 197.25 156.747 196.601 156.125H196.6Z" fill="black"/>
<path d="M423.466 182.572C416.377 182.572 410.609 176.057 410.609 168.048C410.609 160.039 416.377 153.527 423.466 153.527C430.554 153.527 436.32 160.042 436.32 168.048C436.32 176.054 430.553 182.572 423.466 182.572ZM423.466 156.786C418.173 156.786 413.868 161.839 413.868 168.048C413.868 174.258 418.175 179.313 423.466 179.313C428.757 179.313 433.063 174.26 433.063 168.048C433.063 161.836 428.758 156.786 423.466 156.786Z" fill="black"/>
<path d="M385.176 179.226C378.087 179.226 372.32 172.711 372.32 164.704C372.32 156.698 378.087 150.183 385.176 150.183C392.265 150.183 398.033 156.698 398.033 164.704C398.033 172.711 392.265 179.226 385.176 179.226ZM385.176 153.441C379.884 153.441 375.579 158.494 375.579 164.703C375.579 170.913 379.885 175.966 385.176 175.966C390.467 175.966 394.774 170.913 394.774 164.703C394.774 158.494 390.467 153.441 385.176 153.441Z" fill="black"/>
<path d="M410.435 166.478C409.918 164.714 403.782 162.639 397.777 166.86C397.042 167.381 396.023 167.197 395.507 166.466C394.99 165.73 395.167 164.714 395.904 164.196C403.726 158.693 412.331 161.362 413.563 165.562C413.817 166.426 413.321 167.331 412.457 167.584C411.596 167.835 410.69 167.346 410.435 166.478Z" fill="black"/>
<path d="M433.1 168.399C432.909 167.521 433.464 166.653 434.344 166.46C435.203 166.261 442.083 163.619 448.122 161.236C448.958 160.903 449.906 161.314 450.236 162.152C450.567 162.988 450.156 163.935 449.319 164.264C447.181 165.109 436.44 169.337 435.04 169.643C434.151 169.836 433.291 169.269 433.101 168.399H433.1Z" fill="black"/>
<path d="M401.346 191.894C400.933 191.094 401.247 190.112 402.047 189.698C404.452 188.459 406.767 187.013 408.926 185.398C409.647 184.861 410.668 185.008 411.207 185.727C411.746 186.448 411.599 187.469 410.878 188.008C408.575 189.73 406.106 191.273 403.54 192.596C402.749 193.004 401.761 192.699 401.346 191.894Z" fill="black"/>
<path d="M425.392 69.2656C423.221 68.8883 423.508 64.4976 423.743 62.2989C424.191 58.4975 424.751 54.5491 425.414 50.5395C418.716 45.0234 414.53 38.6721 413.285 32.1204C411.288 21.5761 417.193 9.8765 427.322 4.29666C452.471 -9.56254 488.828 12.7647 489.326 33.3915C489.688 51.7741 466.036 70.9491 437.652 58.1606C426.928 67.6264 427.23 69.6013 425.39 69.2669L425.392 69.2656ZM428.895 7.15228C419.964 12.0699 414.744 22.315 416.486 31.5129C417.929 39.1079 423.647 44.9935 428.189 48.5907C429.451 49.5911 428.503 49.7602 426.98 62.6606C426.934 63.0977 426.885 63.5544 426.855 64.0136C429.897 60.8393 433.066 57.8184 436.308 55.0031C436.796 54.5764 437.493 54.4788 438.076 54.7638C445.246 58.1749 452.722 59.6033 459.703 58.8839C475.418 57.2616 486.294 44.6969 486.069 33.4617C485.635 15.4446 452.055 -5.6115 428.895 7.15098V7.15228Z" fill="black"/>
<path d="M441.397 47.3742C440.064 47.3742 439.283 45.8351 440.101 44.7605C441.508 42.9067 442.392 40.6729 442.733 38.3559C439.788 36.2535 437.009 33.6295 435.522 30.0752C434.437 27.4811 435.249 25.6103 437 24.7074C438.081 24.1532 439.401 24.0713 440.531 24.4824C444.461 25.9212 446.297 32.4989 446.169 36.7466C447.093 37.3476 449.662 39.0441 450.482 38.2505C450.896 37.8459 450.898 37.2423 452.409 28.3306C452.688 26.6784 455.004 26.4833 455.554 28.0691C456.097 29.6329 456.659 31.2513 457.653 32.4313C458.409 33.3289 459.684 34.1121 460.856 33.8467C462.543 33.4656 466.191 29.3454 466.818 23.8033C466.918 22.9095 467.734 22.2824 468.619 22.367C469.512 22.4672 470.155 23.2751 470.055 24.1675C469.632 27.9078 468.033 31.5271 465.551 34.3619C464.725 35.3064 463.413 36.6061 461.58 37.025C459.393 37.522 456.655 36.6009 454.752 34.0107C454.036 38.231 453.98 39.3889 452.757 40.5831C451.81 41.5081 449.635 42.692 445.702 40.3034C445.16 42.6113 444.153 44.8139 442.697 46.7289C442.377 47.1517 441.89 47.3742 441.398 47.3742H441.397ZM438.287 27.7946C438.254 27.9182 438.267 28.1979 438.527 28.8198C439.422 30.9586 440.973 32.7383 442.766 34.2617C442.502 32.2478 441.225 28.2096 439.407 27.5436C438.867 27.3497 438.329 27.6346 438.287 27.7959V27.7946Z" fill="black"/>
<path d="M71.6805 279.729C59.7871 268.568 61.036 249.87 66.1696 236.094C69.4194 227.371 73.6202 221.462 79.0075 218.038C71.3227 194.641 90.6655 168.246 114.899 164.378C119.793 146.576 139.747 134.547 157.583 138.608C158.461 138.81 159.01 139.682 158.81 140.56C158.61 141.438 157.734 141.982 156.86 141.787C141.178 138.204 123.423 148.526 118.403 164.027C135.247 163.444 137.839 179.735 130.323 184.475C123.882 188.538 111.815 183.199 114.161 167.826C91.6503 172.365 75.6914 196.302 81.9373 216.534C94.5853 211.409 105.022 220.595 103.065 227.95C101.199 234.962 90.9491 234.041 85.8402 229.093C83.4061 226.736 81.56 224.035 80.2239 221.139C75.707 224.224 72.1033 229.498 69.2217 237.231C64.4536 250.026 63.1813 267.284 73.909 277.353C74.566 277.968 74.5986 278.998 73.9819 279.657C73.3665 280.312 72.3336 280.344 71.6792 279.728L71.6805 279.729ZM83.0913 219.583C84.2764 222.203 85.9248 224.639 88.1078 226.751C90.4821 229.049 94.6556 230.288 97.4019 229.533C100.643 228.633 100.722 225.162 98.5519 222.396C95.068 217.962 88.2717 217.464 83.0913 219.583ZM117.549 167.356C115.013 180.584 124.359 184.386 128.586 181.719C133.483 178.63 131.833 166.237 117.549 167.356Z" fill="black"/>
<path d="M154.511 155.904C153.727 155.463 153.449 154.468 153.892 153.685C156.094 149.776 158.653 146.049 161.51 142.582C154.767 138.373 148.065 133.911 141.563 129.306C140.829 128.785 140.654 127.768 141.175 127.034C141.695 126.302 142.71 126.129 143.446 126.647C150.409 131.578 157.603 136.344 164.828 140.81C165.676 141.331 165.865 142.5 165.202 143.262C161.989 146.969 159.139 151.015 156.731 155.285C156.289 156.065 155.298 156.348 154.511 155.904Z" fill="black"/>
<path d="M497.475 115.361C492.657 113.632 487.625 112.128 482.504 110.888C481.345 110.611 480.872 109.214 481.616 108.288C483.027 106.522 485.114 105.647 486.791 104.942C490.475 103.444 494.325 101.986 498.264 100.593C499.911 91.7993 503.562 84.86 508.853 80.4822C517.365 73.4479 530.843 72.9613 540.898 79.3243C557.88 90.0612 562.248 113.549 557.786 131.202C554.925 142.48 548.413 151.002 536.791 152.561C518.862 155.084 499.491 140.753 497.475 115.36V115.361ZM486.623 108.574C491.057 109.754 495.405 111.124 499.589 112.662C500.196 112.887 500.614 113.449 500.653 114.095C502.103 138.57 520.498 151.551 536.349 149.332C546.569 147.959 552.081 140.436 554.627 130.402C558.801 113.888 554.826 91.9854 539.156 82.0785C530.254 76.4453 518.386 76.8343 510.929 82.9944C504.78 88.0811 502.304 96.1836 501.31 102.086C501.041 103.681 500.484 102.891 488.036 107.955C487.577 108.146 487.095 108.349 486.625 108.574H486.623Z" fill="#023ECE"/>
<path d="M511.305 190.708C536.14 185.149 561.565 213.41 556.99 230.663C554.055 241.55 540.366 250.23 525.322 247.486C518.294 246.198 511.841 242.666 506.478 237.89C501.904 239.998 497.446 242.385 493.15 245.001C492.974 243.4 493.598 241.824 494.217 240.317C495.748 236.704 497.377 233.131 499.079 229.611C495.086 223.983 492.186 217.275 492.843 210.429C493.768 200.843 501.915 192.808 511.306 190.709L511.305 190.708Z" fill="#FE6D5E"/>
<path d="M517.672 195.723C517.137 192.312 517.811 188.528 520.249 186.083C522.686 183.637 527.104 183.109 529.563 185.532C531.59 187.529 531.772 190.701 531.647 193.544C531.43 198.49 530.702 203.572 529.491 208.368C528.117 213.815 524.076 220.574 521.244 211.699C519.578 206.475 518.52 201.139 517.671 195.722L517.672 195.723Z" fill="#023ECE"/>
<path d="M525.452 225.514C527.192 225.377 528.491 223.855 528.354 222.115C528.216 220.376 526.695 219.076 524.955 219.214C523.215 219.351 521.916 220.873 522.053 222.612C522.19 224.352 523.712 225.651 525.452 225.514Z" fill="#023ECE"/>
</g>
<defs>
<clipPath id="clip0_409_1953">
<rect width="559.416" height="552" fill="white"/>
</clipPath>
</defs>
</svg>
