<svg width="662" height="662" viewBox="0 0 662 662" fill="none" xmlns="http://www.w3.org/2000/svg">
<path fill-rule="evenodd" clip-rule="evenodd" d="M561.801 83.0128L504.015 74.3916L502.51 77.5485L518.082 106.19L511.656 117.189C511.656 117.189 509.602 120.027 512.027 124.246C514.752 128.983 522.29 135.342 528.445 139.064C535.041 143.054 544.737 146.735 551.018 147.27C555.816 147.68 558.197 145.336 558.197 145.336L561.219 139.497L592.552 142.758L594.539 140.02L561.801 83.0128Z" fill="white"/>
<path fill-rule="evenodd" clip-rule="evenodd" d="M464.003 58.2212C459.964 54.7794 449.357 57.3225 445.359 60.79C440.678 64.8503 444.489 66.4247 444.489 66.4247C444.489 66.4247 443.777 66.8393 444.199 68.3723C445.136 71.7787 450 71.2725 450 71.2725C450 71.2725 454.086 74.094 457.988 71.0377C466.365 64.4775 466 59.923 464.003 58.2212Z" fill="#FE6D5E"/>
<path fill-rule="evenodd" clip-rule="evenodd" d="M494.531 167.672C494.531 167.672 497.21 162.045 493.169 163.915C489.129 165.785 478.787 175.179 478.787 175.179C478.787 175.179 480.92 171.864 483.788 167.908C485.724 165.237 489.282 161.808 487.84 160.678C487.175 160.157 485.71 160.482 483.454 162.47C479.505 165.948 474.208 172.309 474.208 172.309C474.208 172.309 472.892 165.135 470.301 168.106C469.395 169.144 469.507 170.782 468.827 173.085C467.487 177.622 465.518 184.024 463.756 188.484C461.853 193.299 457.141 196.004 457.141 196.004C457.141 196.004 445.621 202.824 433.097 210.763C424.902 215.958 417.361 221.025 410.595 225.165C393.487 235.634 389.526 237.102 389.526 237.102C389.526 237.102 391.429 239.225 392.65 245.194C393.871 251.162 394.412 260.977 394.412 260.977C394.412 260.977 399.124 257.536 408.817 250.856C415.393 246.326 425.385 239.872 433.414 233.662C441.722 227.234 450.557 218.847 457.558 212.849C467.293 204.507 473.857 199.514 473.857 199.514L486.505 188.625C490.415 185.448 495.46 183.446 497.819 180.547C499.157 178.903 498.659 177.88 495.528 179.228C491.863 180.807 485.352 184.877 485.45 183.542C485.646 180.851 493.359 175.033 497.062 170.463C500.038 166.79 494.531 167.672 494.531 167.672Z" fill="#FFDDC0"/>
<path fill-rule="evenodd" clip-rule="evenodd" d="M405.409 473.67L393.097 467.601L387.94 474.105L386.296 483.743C386.296 483.743 389.838 489.225 394.69 487.704C399.542 486.182 405.703 477.659 405.703 477.659L405.409 473.67Z" fill="#FFDDC0"/>
<path fill-rule="evenodd" clip-rule="evenodd" d="M258.312 565.096L244.536 556.346L238.653 565.036C238.653 565.036 236.809 569.724 243.046 572.496C249.283 575.269 254.96 569.01 254.96 569.01L258.312 565.096Z" fill="#FFDDC0"/>
<path fill-rule="evenodd" clip-rule="evenodd" d="M326.847 196.709C321.763 194.392 311.955 195.188 304.2 197.968C295.424 201.113 288.952 206.458 288.952 206.458C288.952 206.458 284.772 210.589 283.869 218.618C282.964 226.646 287.484 236.281 287.484 236.281C287.484 236.281 289.224 239.468 294.418 242.94C299.612 246.411 308.261 250.164 308.261 250.164L328.473 238.572L329.679 206.93C329.679 206.93 330.987 198.596 326.847 196.709Z" fill="black"/>
<path fill-rule="evenodd" clip-rule="evenodd" d="M287.383 381.597C287.383 381.597 285.408 389.405 284.525 396.918C283.818 402.937 283.909 408.671 283.849 412.331C283.557 430.239 284.313 457.408 283.103 471.461C282.324 480.502 278.224 486.534 274.632 493.031C270.076 501.272 265.932 508.862 265.932 508.862L243.248 552.547C243.248 552.547 242.86 556.589 251.952 562.309C259.209 566.873 264.642 566.192 264.642 566.192C264.642 566.192 272.191 554.748 283.741 538.982C295.292 523.219 310.844 503.136 310.844 503.136L316.014 493.316L337.154 422.017L388.939 404.582L385.105 469.876C385.105 469.876 386.085 475.235 396.092 475.19C407.022 475.141 410.844 470.343 410.844 470.343C410.844 470.343 417.757 433.39 427.156 397.831C430.109 386.663 431.638 378.585 429.72 372.775C427.095 364.821 416.915 360.598 416.915 360.598C416.915 360.598 409.791 358.555 394.664 361.066C379.538 363.577 356.411 370.644 356.411 370.644L352.665 369.442L287.383 381.597Z" fill="black"/>
<path fill-rule="evenodd" clip-rule="evenodd" d="M262.742 322.347C262.742 322.347 256.429 316.825 252.641 312.548C248.854 308.27 247.59 305.236 247.59 305.236C247.59 305.236 232.741 319.86 231.46 327.474C230.217 334.853 230.22 344.448 230.651 353.179C231.265 365.629 231.687 378.279 231.687 378.279L231.762 390.942L234.577 396.006C234.577 396.006 233.503 401.982 234.403 404.304C235.304 406.629 238.18 405.298 238.18 405.298C238.18 405.298 238.876 407.126 240.097 407.738C241.317 408.349 243.059 407.743 243.059 407.743L245.025 409.058L248.484 408.259C248.484 408.259 249.865 410.221 251.395 408.956C253.915 406.869 252.873 400.178 252.873 400.178C252.873 400.178 253.761 399.254 253.217 396.608C252.986 395.483 252.032 393.192 251.395 391.92C248.627 386.398 245.797 384.89 244.816 382.735C244.487 382.01 245.732 368.055 247.488 354.628C248.633 345.875 249.867 337.605 251.471 332.483C252.206 330.137 262.742 322.347 262.742 322.347Z" fill="#FFDDC0"/>
<path fill-rule="evenodd" clip-rule="evenodd" d="M323.34 203.872C321.159 202.916 319.055 204.79 318.89 207.43C318.676 210.867 320.773 215.836 320.295 219.96C319.762 224.549 314.823 226.472 314.823 226.472C314.823 226.472 309.644 227.875 310.805 231.892C311.527 234.387 315.645 236.827 315.645 236.827C315.645 236.827 315.396 241.422 312.257 245.006C309.119 248.591 308.956 255.957 308.956 255.957L333.031 250.583C333.031 250.583 333.841 246.168 335.904 245.261C339.24 243.797 345.697 242.151 345.504 238.764C345.402 236.986 343.374 231.456 343.374 231.456C343.374 231.456 340.985 231.95 339.164 231.408C337.344 230.865 336.093 229.285 336.093 229.285L341.28 226.617C341.28 226.617 341.439 224.535 341.1 221.486C340.844 219.189 337.431 221.125 335.804 218.211C333.092 213.349 331.518 207.457 323.34 203.872Z" fill="#FFDDC0"/>
<path fill-rule="evenodd" clip-rule="evenodd" d="M405.32 477.717C401.572 477.826 397.886 486.411 393.095 486.68C390.928 486.803 387.665 482.9 386.183 483.61C385.121 484.119 385.031 486.99 384.777 491.137C384.441 496.639 383.587 500.655 383.587 500.655C383.587 500.655 381.642 505.639 384.631 506.737C387.62 507.834 396.101 508.084 396.101 508.084L406.963 508.128C406.963 508.128 427.638 508.938 433.805 508.232C437.93 507.758 440.702 506.665 442.07 505.434C443.742 503.928 443.195 498.729 438.892 495.908C433.522 492.388 423.168 490.605 416.09 486.823C411.063 484.139 408.527 477.624 405.32 477.717Z" fill="#EFF6FF"/>
<path fill-rule="evenodd" clip-rule="evenodd" d="M255.966 569.473C252.967 566.59 250.372 567.777 246.179 568.447C244.267 568.752 241.944 568.799 240.629 567.854C238.781 566.526 238.298 563.988 238.298 563.988L232.454 571.193C232.454 571.193 226.553 573.69 228.423 580.118C229.465 583.698 233.077 590.387 233.077 590.387C233.077 590.387 235.477 597.68 236.485 602.526C237.349 606.685 238.089 610.092 240.946 612.266C244.256 614.785 258.135 615.25 262.725 614.311C267.591 613.317 268.976 612.525 268.976 612.525C268.976 612.525 269.969 608.291 267.731 605.174C265.64 602.265 260.356 600.681 259.087 594.834C258.403 591.689 257.393 583.475 256.959 577.493C256.65 573.228 257.136 570.6 255.966 569.473Z" fill="#EFF6FF"/>
<path fill-rule="evenodd" clip-rule="evenodd" d="M392.605 268.09C392.605 268.09 395.402 259.236 394.157 251.26C392.326 239.527 388.257 235.729 388.257 235.729C388.257 235.729 378.133 241.519 365.07 244.99C357.554 246.988 347.824 248.835 339.696 250.04C331.117 251.31 325.94 252.486 319.96 253.906C312.163 255.756 295.668 262.164 288.205 266.193C277.477 271.982 268.793 280.586 262.194 286.772C251.903 296.42 246.681 302.714 246.681 302.714C246.681 302.714 248.727 308.695 253.709 314.256C258.69 319.818 266.606 324.957 266.606 324.957L286.067 311.589L288.469 338.802C288.469 338.802 284.2 357.911 282.665 368.017C281.132 378.121 282.333 379.222 282.333 379.222C282.333 379.222 291.984 384.082 302.644 384.113C317.206 384.157 336.434 379.54 347.524 373.315C352.299 370.634 355.24 368.906 356.186 365.06C356.574 363.481 357.447 354.103 357.861 351.701C359.465 342.384 361.292 332.468 362.844 320.963C364.326 309.992 365.542 297.32 366.764 292.616C367.92 288.157 371.349 286.34 375.611 282.482C383.113 275.689 392.605 268.09 392.605 268.09Z" fill="#023ECE"/>
<path d="M324.598 214.547C325.036 214.547 325.447 214.278 325.609 213.846C325.646 213.751 326.459 211.746 329.129 211.399C329.72 211.322 330.138 210.781 330.061 210.189C329.984 209.597 329.449 209.18 328.851 209.257C324.84 209.778 323.633 212.961 323.584 213.096C323.379 213.656 323.667 214.276 324.227 214.481C324.35 214.525 324.475 214.547 324.598 214.547Z" fill="black"/>
<path d="M340.798 232.803C341.575 232.803 342.408 232.682 343.29 232.397C343.858 232.214 344.17 231.606 343.987 231.038C343.803 230.47 343.194 230.156 342.628 230.342C340.466 231.038 338.835 230.407 337.825 229.722C339.024 229.276 340.642 228.571 342.091 227.594C342.585 227.261 342.717 226.59 342.383 226.095C342.051 225.6 341.379 225.469 340.885 225.803C338.519 227.397 335.51 228.212 335.48 228.22C335.137 228.312 334.861 228.566 334.741 228.901C334.622 229.235 334.674 229.607 334.882 229.895C335.718 231.053 337.846 232.802 340.798 232.803Z" fill="black"/>
<path d="M317.11 237.562C318.024 237.562 318.984 237.403 319.989 237.084C320.557 236.904 320.872 236.296 320.691 235.728C320.511 235.16 319.906 234.845 319.335 235.025C316.85 235.812 314.992 235.413 313.305 233.73C312.15 232.578 311.679 231.163 312.075 230.037C312.451 228.965 313.592 228.273 315.288 228.088C315.881 228.023 316.309 227.491 316.245 226.897C316.181 226.305 315.655 225.878 315.054 225.941C312.524 226.217 310.695 227.448 310.037 229.32C309.363 231.238 310.03 233.514 311.778 235.258C313.314 236.792 315.101 237.562 317.11 237.562Z" fill="black"/>
<path d="M316.636 233.268C317.017 233.268 317.386 233.068 317.583 232.712C317.871 232.192 317.686 231.538 317.167 231.247C317.059 231.186 316.062 230.645 314.856 230.542C314.263 230.497 313.739 230.934 313.689 231.527C313.639 232.121 314.079 232.644 314.674 232.695C315.424 232.758 316.11 233.131 316.116 233.134C316.282 233.225 316.46 233.268 316.636 233.268Z" fill="black"/>
<path d="M341.166 224.557C341.587 224.557 341.988 224.308 342.162 223.895C343.186 221.466 342.114 220.05 341.762 219.674C341.11 218.977 340.166 218.951 339.253 218.926C338.468 218.904 337.657 218.881 337.082 218.463C336.652 218.151 336.016 216.991 335.721 216.306C335.485 215.757 334.849 215.503 334.302 215.74C333.754 215.975 333.501 216.61 333.736 217.157C333.896 217.532 334.751 219.44 335.812 220.211C336.928 221.021 338.236 221.058 339.191 221.085C339.547 221.095 340.084 221.11 340.228 221.186C340.313 221.287 340.689 221.827 340.171 223.057C339.94 223.607 340.197 224.24 340.747 224.471C340.884 224.529 341.026 224.557 341.166 224.557Z" fill="black"/>
<path d="M332.288 213.003C332.449 213.003 332.612 212.967 332.766 212.891C333.3 212.626 333.519 211.979 333.255 211.444C331.874 208.654 329.402 205.016 325.462 203.526C324.905 203.316 324.281 203.596 324.07 204.154C323.859 204.712 324.141 205.336 324.699 205.547C327.981 206.787 330.111 209.96 331.319 212.402C331.507 212.782 331.89 213.003 332.288 213.003Z" fill="black"/>
<path fill-rule="evenodd" clip-rule="evenodd" d="M332.723 217.437C332.299 216.549 331.357 216.115 330.621 216.467C329.885 216.819 329.633 217.825 330.057 218.712C330.482 219.601 331.423 220.035 332.16 219.683C332.896 219.331 333.148 218.325 332.723 217.437Z" fill="black"/>
<path d="M311.862 246.37C312.105 246.37 312.35 246.288 312.552 246.119C315.45 243.705 316.237 239.766 316.269 239.599C316.383 239.013 315.999 238.447 315.414 238.334C314.833 238.218 314.262 238.605 314.149 239.19C314.143 239.221 313.465 242.548 311.169 244.46C310.711 244.842 310.649 245.523 311.031 245.981C311.245 246.238 311.552 246.37 311.862 246.37Z" fill="black"/>
<path d="M307.458 251.026C307.867 251.026 308.257 250.793 308.439 250.398C308.69 249.857 308.452 249.215 307.911 248.965C307.871 248.946 303.875 247.101 299.56 244.856C295.598 242.796 292.025 240.023 290.002 237.439C285.896 232.195 284.737 226.356 285.022 222.638C285.068 222.044 284.623 221.525 284.028 221.479C283.443 221.43 282.914 221.879 282.869 222.474C282.553 226.595 283.814 233.04 288.302 238.77C290.505 241.585 294.341 244.577 298.564 246.772C302.925 249.041 306.966 250.908 307.006 250.926C307.153 250.994 307.307 251.026 307.458 251.026Z" fill="black"/>
<path d="M280.54 221.032C280.639 221.032 280.741 221.018 280.841 220.989C283.869 220.112 284.926 216.985 285.859 214.227C286.145 213.378 286.417 212.576 286.729 211.873C289.389 205.888 299.926 198.983 309.277 197.097C309.487 197.055 309.724 197.017 309.982 196.975C311.56 196.722 313.943 196.339 315.745 194.384C316.149 193.945 316.122 193.262 315.683 192.858C315.244 192.454 314.561 192.482 314.157 192.92C312.862 194.326 311 194.625 309.639 194.843C309.351 194.89 309.086 194.933 308.851 194.98C298.742 197.019 287.708 204.353 284.755 210.996C284.402 211.791 284.103 212.678 283.813 213.536C282.975 216.012 282.186 218.351 280.24 218.915C279.667 219.081 279.337 219.68 279.503 220.252C279.64 220.724 280.071 221.032 280.54 221.032Z" fill="black"/>
<path d="M317.228 226.065C317.456 226.065 317.686 225.993 317.881 225.845C322.699 222.179 321.405 216.472 320.366 211.887C319.804 209.407 319.273 207.063 319.966 205.99C320.21 205.612 320.648 205.363 321.308 205.229C321.892 205.109 322.269 204.539 322.15 203.954C322.03 203.37 321.457 202.995 320.875 203.112C319.635 203.366 318.719 203.94 318.151 204.818C316.966 206.655 317.565 209.301 318.26 212.365C319.256 216.758 320.285 221.302 316.574 224.126C316.1 224.487 316.008 225.165 316.368 225.639C316.581 225.919 316.902 226.065 317.228 226.065Z" fill="black"/>
<path d="M330.022 209.01C330.157 209.01 330.295 208.984 330.429 208.93C330.981 208.705 331.246 208.074 331.022 207.522C330.743 206.837 330.744 205.658 330.747 204.41C330.75 201.835 330.755 198.631 328.323 196.644C326.056 194.79 322.129 194.467 316.314 195.657C315.73 195.777 315.352 196.348 315.473 196.932C315.592 197.516 316.166 197.896 316.747 197.773C321.813 196.738 325.246 196.92 326.957 198.316C328.593 199.654 328.59 202.07 328.587 204.407C328.584 205.873 328.583 207.259 329.021 208.337C329.192 208.756 329.596 209.01 330.022 209.01Z" fill="black"/>
<path d="M332.798 251.788C333.281 251.788 333.721 251.461 333.845 250.97C334.736 247.404 336.23 246.345 336.245 246.336C339.631 245.117 342.96 243.533 344.631 242.344C347.756 240.123 346.639 237.282 345.345 233.993C345.127 233.438 344.502 233.164 343.944 233.383C343.39 233.601 343.117 234.228 343.335 234.784C344.788 238.478 344.967 239.456 343.379 240.584C341.877 241.653 338.676 243.166 335.413 244.35C334.503 244.679 332.704 246.626 331.749 250.447C331.604 251.026 331.956 251.612 332.535 251.756C332.622 251.778 332.71 251.788 332.798 251.788Z" fill="black"/>
<path d="M247.695 406.895C248.694 406.895 249.66 406.276 250.352 405.19C250.671 404.688 251.193 404.014 251.744 403.302C253.108 401.537 254.019 400.309 254.263 399.331C254.616 397.903 254.12 396.424 253.682 395.119L253.503 394.578C253.009 393.047 251.856 390.664 250.821 389.036C250.408 388.385 249.797 387.736 249.15 387.047C248.058 385.885 246.819 384.566 246.081 382.844C244.343 378.786 249.161 349.998 250.976 339.161C251.611 335.361 251.919 333.509 251.965 332.942C252.012 332.348 251.569 331.827 250.974 331.78C250.371 331.725 249.859 332.176 249.811 332.77C249.771 333.269 249.363 335.712 248.845 338.805C245.346 359.71 242.348 379.617 244.096 383.694C244.985 385.768 246.421 387.298 247.576 388.527C248.176 389.165 248.694 389.716 248.999 390.195C249.932 391.665 251.009 393.883 251.449 395.243L251.634 395.806C252.012 396.931 252.368 397.994 252.166 398.812C252.015 399.42 250.823 400.961 250.035 401.981C249.454 402.733 248.903 403.444 248.531 404.03C248.219 404.518 247.888 404.735 247.695 404.735C247.62 404.705 247.521 404.67 247.447 404.544C247.029 403.834 247.887 401.326 248.662 399.912C249.495 398.396 247.664 396.046 247.453 395.784C246.359 394.421 244.911 393.589 243.51 392.784C241.597 391.686 239.945 390.738 239.404 388.63C239.256 388.051 238.659 387.705 238.09 387.852C237.512 388 237.164 388.589 237.312 389.166C238.079 392.158 240.393 393.485 242.434 394.658C243.718 395.394 244.93 396.09 245.769 397.137C246.332 397.836 246.695 398.66 246.719 398.964C246.312 399.729 244.376 403.583 245.585 405.639C246.047 406.423 246.801 406.88 247.654 406.895C247.668 406.895 247.682 406.895 247.695 406.895Z" fill="black"/>
<path d="M250.543 410.122C250.795 410.122 251.036 410.095 251.262 410.051C253.275 409.66 254.755 405.885 253.744 400.246C253.639 399.66 253.078 399.268 252.49 399.374C251.903 399.479 251.512 400.04 251.618 400.627C252.477 405.421 251.224 407.723 250.793 407.948C250.479 408 249.499 408.195 248.441 405.708C248.208 405.159 247.573 404.903 247.025 405.137C246.476 405.37 246.22 406.004 246.454 406.553C247.661 409.392 249.24 410.122 250.543 410.122Z" fill="black"/>
<path d="M246.279 404.068C246.402 404.068 246.525 404.047 246.645 404.002C247.154 403.812 247.43 403.188 247.307 402.659C247.274 402.517 247.214 402.388 247.134 402.276C246.657 400.978 246.146 398.082 246.631 397.617C247.118 397.273 247.232 396.6 246.887 396.113C246.544 395.625 245.869 395.512 245.38 395.856C242.988 397.547 245.268 403.42 245.296 403.475C245.492 403.843 245.88 404.068 246.279 404.068Z" fill="black"/>
<path d="M246.007 409.936C246.747 409.936 247.563 409.772 248.468 409.442C249.03 409.238 249.318 408.618 249.114 408.058C248.91 407.498 248.289 407.21 247.73 407.413C246.539 407.846 245.668 407.893 245.064 407.553C243.932 406.92 243.41 404.774 242.934 402.441C242.365 399.655 242.628 398.252 243.063 397.869C243.429 397.546 244.254 397.764 244.716 397.92C245.279 398.118 245.894 397.81 246.086 397.246C246.279 396.681 245.978 396.068 245.412 395.876C243.811 395.33 242.538 395.453 241.636 396.247C240.398 397.337 240.131 399.505 240.818 402.873C241.421 405.825 242.077 408.357 244.01 409.438C244.603 409.771 245.266 409.936 246.007 409.936Z" fill="black"/>
<path d="M241.087 408.996C241.76 408.996 242.483 408.804 243.252 408.422C243.786 408.156 244.004 407.507 243.738 406.974C243.472 406.439 242.823 406.221 242.291 406.488C241.184 407.037 240.717 406.79 240.565 406.709C239.971 406.394 239.161 405.273 238.68 401.722C238.372 399.448 239.003 397.48 239.787 397.068C240.231 396.835 240.828 397.24 241.25 397.624C241.69 398.022 242.374 397.992 242.775 397.549C243.175 397.107 243.142 396.423 242.7 396.023C240.921 394.413 239.481 394.788 238.78 395.157C237.038 396.075 236.116 398.893 236.539 402.012C237.046 405.744 237.974 407.781 239.554 408.617C240.029 408.869 240.542 408.996 241.087 408.996Z" fill="black"/>
<path d="M236.35 406.486C236.901 406.486 237.561 406.344 238.339 405.957C238.873 405.691 239.091 405.042 238.826 404.509C238.56 403.975 237.914 403.757 237.378 404.023C236.934 404.244 236.333 404.459 236.002 404.234C235.486 403.883 234.979 402.309 235.253 399.025C235.367 397.663 235.825 396.725 236.482 396.513C236.966 396.355 237.566 396.604 238.044 397.163C238.433 397.619 239.115 397.669 239.567 397.281C240.021 396.893 240.074 396.211 239.686 395.759C238.629 394.527 237.147 394.026 235.819 394.457C235.092 394.692 233.372 395.59 233.102 398.845C232.781 402.686 233.334 405.033 234.79 406.021C235.155 406.269 235.669 406.486 236.35 406.486Z" fill="black"/>
<path d="M234.547 397.089C234.749 397.089 234.953 397.033 235.135 396.915C235.635 396.589 235.777 395.92 235.452 395.42C232.819 391.368 232.666 389.3 232.935 385.21C232.959 384.842 232.877 382.496 232.634 375.884C232.437 370.495 232.178 363.428 231.967 356.587L231.886 354.056C231.577 344.442 231.31 336.139 232.698 327.423C233.337 323.416 240.337 315.388 247.106 307.623L248.305 306.249C248.697 305.799 248.649 305.117 248.199 304.726C247.754 304.335 247.068 304.38 246.676 304.831L245.479 306.204C237.872 314.929 231.302 322.464 230.566 327.083C229.145 336.002 229.415 344.401 229.727 354.125L229.807 356.654C230.019 363.499 230.279 370.57 230.476 375.964C230.648 380.637 230.795 384.675 230.78 385.078C230.491 389.468 230.679 392.04 233.641 396.598C233.848 396.916 234.194 397.089 234.547 397.089Z" fill="black"/>
<path d="M390.08 238.38C390.231 238.38 390.383 238.348 390.529 238.281C395.808 235.86 402.121 232.193 405.753 229.812C408.044 228.309 410.484 226.692 412.944 225.062C418.536 221.358 424.318 217.527 428.621 214.866C432.676 212.357 436.813 209.85 440.735 207.473C453.781 199.569 461.222 195.002 462.434 193.06C464.192 190.247 465.715 187.244 467.434 181.733C467.666 180.99 467.928 180.163 468.207 179.285C468.921 177.036 469.73 174.486 470.403 172.157C470.516 171.767 470.617 171.342 470.719 170.914C470.88 170.234 471.171 169.002 471.453 168.675C471.494 168.69 471.557 168.719 471.641 168.771C472.415 169.245 472.33 172.064 471.77 174.3C471.624 174.878 471.976 175.465 472.555 175.61C473.132 175.753 473.719 175.404 473.865 174.825C474.127 173.779 475.307 168.481 472.768 166.928C471.83 166.355 471.095 166.461 470.645 166.647C469.384 167.172 468.994 168.822 468.616 170.417C468.523 170.81 468.431 171.2 468.328 171.558C467.662 173.859 466.857 176.396 466.147 178.632C465.867 179.513 465.604 180.344 465.371 181.09C463.721 186.38 462.271 189.244 460.601 191.916C459.603 193.516 449.441 199.672 439.614 205.627C435.687 208.006 431.544 210.516 427.484 213.028C423.153 215.708 417.356 219.548 411.75 223.262C409.293 224.89 406.857 226.505 404.567 228.005C401.002 230.344 394.806 233.943 389.628 236.319C389.086 236.567 388.848 237.208 389.097 237.75C389.279 238.146 389.671 238.38 390.08 238.38Z" fill="black"/>
<path d="M394.348 262.695C394.584 262.695 394.822 262.618 395.021 262.46C402.276 256.668 409.109 252.015 415.717 247.515C422.613 242.818 429.126 238.383 435.399 233.135C442.923 226.841 450.765 220.069 457.067 214.628C462.526 209.914 466.838 206.191 468.012 205.323C472.955 201.668 477.274 197.806 477.314 197.769C481.708 193.783 485.071 190.819 487.2 189.308C488.782 188.185 490.53 187.044 492.221 185.941C494.79 184.263 497.009 182.815 498.172 181.744C500.113 179.956 499.773 178.72 499.397 178.142C498.809 177.238 497.441 176.989 496.148 177.548C494.221 178.382 491.931 179.604 489.91 180.682C489.141 181.092 488.293 181.544 487.524 181.938C488.66 180.658 490.27 179.021 491.679 177.59C493.625 175.612 495.832 173.369 497.605 171.32C499.706 168.892 498.94 167.527 498.513 167.053C497.867 166.336 496.777 166.212 495.68 166.668C496.31 165.772 496.644 164.992 496.631 164.274C496.621 163.695 496.391 163.187 495.965 162.803C494.234 161.238 490.929 163.621 485.808 168.259L485.469 168.566C484.106 169.793 482.929 170.882 481.916 171.818C481.863 171.867 481.81 171.916 481.757 171.965C482.54 170.966 483.349 169.953 484.041 169.086C486.978 165.406 488.296 163.715 488.589 162.968C489.43 160.82 488.39 159.921 488.051 159.696C487.518 159.342 486.004 158.79 483.459 161.279C478.302 166.324 469.334 176.989 468.955 177.44C468.571 177.897 468.631 178.578 469.087 178.962C469.543 179.346 470.224 179.286 470.609 178.829C470.701 178.72 479.888 167.793 484.97 162.823C485.819 161.993 486.427 161.675 486.742 161.576C486.727 161.708 486.685 161.906 486.577 162.18C486.332 162.754 484.125 165.518 482.353 167.738C476.174 175.481 475.701 176.28 476.746 177.236C477.998 178.381 479.247 177.227 483.383 173.403C484.389 172.473 485.56 171.391 486.915 170.171L487.258 169.86C492.172 165.409 493.911 164.589 494.51 164.498C494.328 165.438 491.276 168.399 489.427 170.192L488.507 171.087C488.204 171.383 487.658 171.881 486.994 172.485C481.583 177.413 480.683 178.563 480.727 179.519C480.743 179.89 480.919 180.229 481.21 180.449C482.134 181.151 482.63 180.691 486.49 177.101C489.232 174.551 492.987 171.059 496.1 168.89C496.393 168.687 496.646 168.598 496.814 168.568C496.75 168.795 496.556 169.232 495.971 169.907C494.244 171.904 492.157 174.024 490.139 176.075C485.245 181.048 483.572 182.84 483.969 184.257C484.069 184.611 484.321 184.897 484.661 185.042C485.507 185.402 486.529 184.933 490.927 182.587C492.911 181.529 495.16 180.329 497.007 179.53C497.14 179.472 497.264 179.439 497.369 179.422C497.253 179.594 497.054 179.837 496.709 180.155C495.678 181.105 493.426 182.575 491.04 184.131C489.332 185.246 487.566 186.399 485.95 187.547C483.733 189.12 480.314 192.131 475.863 196.168C475.076 196.882 470.974 200.447 466.728 203.585C465.488 204.502 461.363 208.063 455.655 212.993C449.36 218.429 441.525 225.194 434.013 231.478C427.822 236.657 421.351 241.063 414.501 245.729C407.859 250.252 400.992 254.929 393.673 260.771C393.207 261.143 393.131 261.823 393.503 262.289C393.716 262.556 394.031 262.695 394.348 262.695Z" fill="black"/>
<path d="M266.83 325.559C267.296 325.559 267.716 325.449 268.076 325.207C276.607 319.46 286.796 312.503 286.796 312.503L285.579 310.719C285.578 310.72 275.394 317.672 266.869 323.416C266.311 323.638 263.396 322.359 258.035 316.941C251.352 310.185 247.635 303.968 248.109 302.82C250.41 300.305 253.521 297.176 258.229 292.439L261.247 289.402C267.021 283.585 273.042 278.352 280.197 272.931C285.064 269.243 289.703 266.726 292.768 265.153C306.854 257.927 315.795 255.666 322.322 254.016C329.966 252.085 336.177 251.261 342.185 250.464C350.244 249.396 358.577 248.291 370.397 244.523C376.749 242.497 381.893 240.091 386.025 238.158C386.798 237.796 387.528 237.455 388.216 237.14C388.526 237.222 389.88 238.657 391.316 244.05C393.696 252.987 394.165 264.957 391.232 267.599C379.237 278.403 362.796 292.257 362.631 292.396C362.175 292.78 362.116 293.462 362.5 293.918C362.885 294.374 363.566 294.432 364.022 294.048C364.187 293.909 380.656 280.033 392.677 269.204C398.089 264.329 394.652 242.707 390.782 236.818C389.362 234.658 388 234.863 387.316 235.176C386.623 235.494 385.888 235.838 385.11 236.202C381.034 238.108 375.96 240.482 369.741 242.465C358.104 246.175 349.867 247.267 341.901 248.323C335.832 249.128 329.557 249.96 321.792 251.922C315.163 253.598 306.086 255.893 291.782 263.231C288.644 264.841 283.893 267.42 278.893 271.21C271.655 276.693 265.56 281.99 259.713 287.88L256.697 290.917C251.969 295.673 248.845 298.815 246.488 301.399C244.39 303.701 248.85 309.864 252.961 314.628C254.664 316.601 262.628 325.559 266.83 325.559Z" fill="black"/>
<path d="M253.921 331.303C254.219 331.303 254.517 331.18 254.731 330.938C256.125 329.357 259.016 326.901 263.322 323.638C263.798 323.278 263.891 322.601 263.531 322.126C263.172 321.651 262.495 321.555 262.018 321.918C257.597 325.266 254.601 327.82 253.111 329.509C252.716 329.956 252.758 330.638 253.207 331.034C253.412 331.214 253.666 331.303 253.921 331.303Z" fill="black"/>
<path d="M306.339 384.833C310.527 384.833 314.912 384.542 319.237 383.866C335.033 381.397 353.854 372.235 356.373 367.198C357.601 364.741 357.874 361.874 358.252 357.905C358.559 354.676 358.942 350.657 359.945 345.309C362.423 332.081 364.988 314.412 366.806 298.045C366.872 297.453 366.445 296.918 365.852 296.853C365.263 296.785 364.726 297.214 364.66 297.807C362.847 314.123 360.291 331.733 357.822 344.912C356.8 350.356 356.413 354.428 356.101 357.7C355.732 361.575 355.488 364.136 354.44 366.232C352.617 369.878 335.398 379.154 318.903 381.731C300.391 384.626 284.134 380.357 283.135 378.343C281.872 374.667 286.247 353.79 289.497 340.658C289.641 340.078 289.287 339.493 288.709 339.35C288.132 339.204 287.544 339.559 287.401 340.138C286.557 343.545 279.216 373.585 281.098 379.058C282.101 381.972 293.236 384.833 306.339 384.833Z" fill="black"/>
<path d="M288.318 335.994C288.349 335.994 288.379 335.993 288.409 335.99C289.003 335.94 289.445 335.417 289.394 334.823C289.371 334.547 287.062 307.103 285.482 290.789C285.425 290.196 284.906 289.76 284.303 289.819C283.709 289.876 283.275 290.404 283.333 290.997C284.911 307.297 287.22 334.729 287.243 335.005C287.29 335.568 287.762 335.994 288.318 335.994Z" fill="black"/>
<path d="M349.685 293.373C350.002 293.373 350.316 293.234 350.529 292.968C350.902 292.502 350.826 291.822 350.361 291.45C342.951 285.522 341.832 276.334 342.429 263.432C342.456 262.836 341.996 262.331 341.4 262.303C340.796 262.286 340.298 262.736 340.271 263.332C339.78 273.975 340.009 285.933 349.011 293.136C349.21 293.296 349.448 293.373 349.685 293.373Z" fill="black"/>
<path d="M262.949 567.252C264.351 567.252 265.474 566.875 266.125 565.981C269.4 561.483 272.74 556.639 276.275 551.511C281.081 544.541 286.05 537.334 291.394 530.217C294.777 525.712 297.856 521.771 300.572 518.295C308.836 507.716 314.296 500.728 317.343 491.997C321.568 479.883 328.142 456.632 332.492 441.246C334.323 434.768 335.769 429.652 336.558 427.061C339.219 418.317 345.903 402.444 345.969 402.284C346.201 401.735 345.944 401.101 345.394 400.869C344.843 400.64 344.211 400.896 343.979 401.445C343.912 401.605 337.185 417.582 334.492 426.432C333.697 429.043 332.248 434.169 330.413 440.658C326.071 456.019 319.508 479.233 315.303 491.285C312.374 499.679 307.002 506.555 298.87 516.965C296.148 520.449 293.063 524.398 289.667 528.92C284.297 536.072 279.315 543.298 274.497 550.285C270.97 555.401 267.638 560.234 264.379 564.709C263.485 565.94 257.101 564.445 250.456 559.947C245.91 556.87 243.517 553.751 244.5 552.185C245.49 550.609 248.222 545.343 251.68 538.677C254.171 533.875 256.995 528.431 259.823 523.1C261.491 519.953 263.147 516.748 264.833 513.487C270.025 503.442 275.393 493.056 282.224 482.157C282.54 481.652 282.388 480.985 281.883 480.668C281.379 480.35 280.711 480.504 280.394 481.009C273.516 491.984 268.126 502.411 262.914 512.495C261.232 515.749 259.579 518.948 257.914 522.087C255.082 527.428 252.256 532.876 249.763 537.682C246.327 544.305 243.614 549.535 242.671 551.037C240.922 553.823 243.317 557.723 249.245 561.736C253.302 564.482 259.15 567.252 262.949 567.252Z" fill="black"/>
<path d="M282.426 477.829C282.983 477.829 283.457 477.399 283.501 476.833C283.518 476.611 285.244 454.389 284.86 433.397L284.791 429.735C284.625 421 284.505 414.688 284.809 409.061L284.855 408.208C285.113 403.254 285.717 391.654 288.499 382.529C288.674 381.958 288.353 381.355 287.782 381.181C287.211 381.002 286.607 381.328 286.435 381.898C283.573 391.277 282.959 403.064 282.698 408.096L282.653 408.944C282.343 414.65 282.464 420.995 282.631 429.777L282.7 433.437C283.082 454.321 281.365 476.443 281.348 476.664C281.301 477.259 281.745 477.778 282.34 477.826C282.369 477.827 282.397 477.829 282.426 477.829Z" fill="black"/>
<path d="M396.143 476.29C403.078 476.291 411.564 473.918 412.354 469.201C413.024 465.201 415.203 453.089 420.961 427.1C422.632 419.554 424.486 412.373 426.123 406.038C430.379 389.564 433.453 377.662 430.547 371.574C426.117 362.295 417.799 357.925 405.805 358.604C394.724 359.225 379.024 362.673 359.141 368.854C356.172 369.776 353.814 368.603 353.79 368.591C353.257 368.32 352.608 368.532 352.337 369.061C352.066 369.593 352.276 370.243 352.807 370.515C352.935 370.58 355.98 372.098 359.782 370.917C379.496 364.789 395.021 361.372 405.926 360.759C417.11 360.14 424.525 363.974 428.597 372.504C431.165 377.883 428.017 390.07 424.031 405.498C422.39 411.85 420.53 419.051 418.851 426.634C413.083 452.671 410.896 464.827 410.223 468.844C409.689 472.038 401.278 474.704 393.873 474.032C392.102 473.872 386.327 473.076 386.381 469.588C386.56 457.674 389.641 410.273 389.672 409.796C389.711 409.201 389.26 408.687 388.664 408.648C388.086 408.623 387.556 409.06 387.516 409.655C387.485 410.134 384.402 457.587 384.221 469.555C384.165 473.216 387.612 475.632 393.678 476.183C394.465 476.255 395.293 476.29 396.143 476.29Z" fill="black"/>
<path d="M343.002 421.035C343.144 421.035 343.288 421.007 343.427 420.947C345.439 420.087 348.755 419.081 352.953 417.807C363.637 414.567 381.518 409.143 403.87 398.231C404.406 397.97 404.629 397.323 404.367 396.788C404.105 396.251 403.459 396.028 402.922 396.291C380.727 407.127 362.948 412.52 352.326 415.74C347.898 417.084 344.698 418.054 342.577 418.962C342.029 419.196 341.774 419.831 342.009 420.38C342.184 420.789 342.583 421.035 343.002 421.035Z" fill="black"/>
<path d="M239.052 565.407C239.329 565.407 239.607 565.3 239.818 565.087C242.523 562.361 245.167 557.264 245.278 557.048C245.551 556.518 245.344 555.867 244.814 555.593C244.281 555.321 243.633 555.528 243.358 556.057C243.333 556.108 240.754 561.078 238.284 563.566C237.865 563.989 237.867 564.674 238.291 565.093C238.502 565.303 238.776 565.407 239.052 565.407Z" fill="black"/>
<path d="M255.848 612.026C257.221 612.026 258.51 611.999 259.657 611.967C260.43 611.944 260.897 611.324 261.487 610.54C262.25 609.527 263.294 608.14 264.915 607.841C266.068 607.629 266.728 608.295 267.434 609.437C267.644 609.778 268.08 610.48 268.91 610.262C269.217 610.178 269.736 609.905 269.756 609.015C269.842 604.987 267.453 602.931 265.144 600.942C263.501 599.527 261.801 598.063 260.794 595.789C258.83 591.355 258.255 580.884 257.911 574.628C257.82 572.979 257.745 571.609 257.664 570.694C257.575 569.676 257.054 568.77 256.157 568.075C254.376 566.691 251.518 566.412 249.483 566.748C248.593 566.894 247.761 567.139 246.957 567.378C245.656 567.763 244.425 568.122 243.115 568.013C240.435 567.783 239.957 565.772 239.72 563.906C239.643 563.3 239.536 562.47 238.677 562.316C238.289 562.244 237.742 562.329 237.33 563.117C236.668 564.386 235.683 565.659 234.729 566.892C232.836 569.339 230.879 571.871 231.308 574.619C231.737 577.356 232.712 579.6 233.744 581.978C234.746 584.285 235.882 586.9 236.743 590.468C237.388 593.142 237.806 595.849 238.211 598.466C239.221 605.001 240.02 610.163 243.802 610.988C247.629 611.823 252.059 612.026 255.848 612.026ZM259.314 609.815C255.128 609.929 249.135 609.941 244.261 608.878C241.927 608.369 241.159 603.399 240.345 598.136C239.934 595.475 239.507 592.724 238.841 589.962C237.937 586.211 236.761 583.505 235.725 581.119C234.707 578.773 233.828 576.75 233.443 574.286C233.157 572.456 234.75 570.395 236.439 568.213C236.958 567.542 237.486 566.858 237.98 566.157C238.516 567.864 239.775 569.895 242.93 570.165C244.649 570.316 246.133 569.874 247.571 569.449C248.345 569.22 249.076 569.003 249.834 568.879C251.668 568.577 253.77 568.957 254.834 569.781C255.254 570.107 255.476 570.468 255.513 570.885C255.592 571.783 255.666 573.128 255.755 574.748C256.107 581.15 256.695 591.868 258.82 596.664C260.024 599.383 261.996 601.081 263.735 602.578C265.059 603.718 266.214 604.714 266.909 605.986C266.257 605.687 265.463 605.544 264.523 605.717C262.075 606.168 260.627 608.092 259.762 609.24C259.619 609.43 259.438 609.671 259.314 609.815Z" fill="black"/>
<path d="M255.495 569.305C255.788 569.305 256.082 569.187 256.295 568.951L258.79 566.203C259.191 565.762 259.158 565.079 258.716 564.677C258.275 564.279 257.592 564.308 257.191 564.751L254.696 567.5C254.295 567.941 254.327 568.624 254.77 569.025C254.976 569.212 255.236 569.305 255.495 569.305Z" fill="black"/>
<path d="M386.887 484.384C387.428 484.384 387.895 483.978 387.958 483.427L389.048 473.89C389.115 473.297 388.69 472.763 388.097 472.695C387.511 472.619 386.97 473.052 386.901 473.645L385.812 483.182C385.745 483.775 386.17 484.31 386.763 484.377C386.805 484.382 386.846 484.384 386.887 484.384Z" fill="black"/>
<path d="M424.488 506.205C429.129 506.205 433.573 505.931 436.911 505.161C438.481 504.799 439.024 503.496 439.652 501.987C439.825 501.573 440.015 501.116 440.248 500.62C440.747 499.555 441.189 499.493 441.377 499.467C441.869 499.399 442.202 499.164 442.366 498.774C442.513 498.423 442.45 497.975 442.224 497.668C440.179 494.888 437.196 493.798 433.206 492.562C427.718 490.864 424.093 489.743 416.656 485.871C414.509 484.753 412.786 482.581 411.266 480.665C409.299 478.185 407.443 475.84 404.918 476.228C402.919 476.535 401.519 478.272 400.037 480.112C398.403 482.141 396.551 484.44 393.641 485.143C392.249 485.471 390.543 484.566 389.174 483.833C387.766 483.079 386.55 482.43 385.489 483.013C384.864 483.361 384.512 484.044 384.443 485.047C384.284 487.35 384.079 489.388 383.897 491.188C383.157 498.504 382.711 502.921 388.975 503.555C392.415 503.904 394.377 503.931 395.953 503.951C397.357 503.97 398.465 503.985 400.13 504.217C401.008 504.34 401.887 504.469 402.762 504.598C405.366 504.979 408.059 505.375 410.597 505.58C414.783 505.917 419.739 506.205 424.488 506.205ZM439.603 497.947C439.163 498.293 438.699 498.836 438.292 499.702C438.045 500.228 437.842 500.716 437.658 501.157C437.107 502.48 436.874 502.953 436.426 503.056C429.942 504.551 418.896 504.082 410.77 503.426C408.303 503.228 405.764 502.855 403.075 502.46C402.195 502.331 401.311 502.202 400.428 502.078C398.629 501.827 397.402 501.81 395.981 501.791C394.447 501.771 392.538 501.746 389.193 501.407C385.382 501.021 385.223 499.541 386.045 491.406C386.229 489.59 386.436 487.533 386.597 485.195C386.603 485.116 386.61 485.05 386.618 484.996C387.007 485.123 387.678 485.483 388.154 485.738C389.756 486.596 391.946 487.771 394.146 487.242C397.771 486.369 399.96 483.651 401.718 481.468C402.982 479.898 404.074 478.543 405.245 478.363C406.524 478.167 408.007 480.032 409.573 482.006C411.227 484.092 413.102 486.457 415.657 487.787C423.268 491.748 426.967 492.893 432.566 494.625C435.67 495.586 437.965 496.389 439.603 497.947Z" fill="black"/>
<path d="M405.134 477.96C405.678 477.96 406.147 477.549 406.206 476.996L406.525 474.048C406.589 473.456 406.16 472.923 405.567 472.858C404.979 472.791 404.442 473.223 404.378 473.816L404.059 476.764C403.995 477.356 404.424 477.889 405.017 477.953C405.056 477.958 405.095 477.96 405.134 477.96Z" fill="black"/>
<path d="M423.774 509.474C431.306 509.474 437.041 509.152 440.506 507.87C442.271 507.217 443.508 506.017 443.99 504.489C444.394 503.205 444.462 501.078 442.489 498.232C442.149 497.742 441.476 497.62 440.986 497.959C440.496 498.3 440.373 498.972 440.714 499.462C441.881 501.146 442.302 502.66 441.93 503.841C441.576 504.964 440.553 505.55 439.757 505.845C436.036 507.221 428.745 507.361 421.408 507.305C419.155 507.288 416.805 507.191 414.318 507.088C411.842 506.986 409.282 506.879 406.755 506.855L404.859 506.838C396.53 506.763 386.166 506.669 384.902 505.444C383.574 504.157 384.525 499.605 385.625 496.784C385.841 496.23 385.567 495.603 385.012 495.386C384.455 495.174 383.83 495.444 383.613 495.999C383.288 496.83 380.519 504.205 383.398 506.994C385.195 508.737 392.349 508.885 404.839 508.997L406.734 509.015C409.226 509.038 411.769 509.143 414.228 509.246C416.735 509.35 419.102 509.448 421.392 509.465C422.204 509.471 422.999 509.474 423.774 509.474Z" fill="black"/>
<path d="M256.367 615.392C260.893 615.392 265.232 615.05 267.663 614.323C268.82 613.977 269.675 613.255 270.135 612.235C270.757 610.856 270.61 608.913 269.743 607.034C269.493 606.493 268.853 606.256 268.31 606.506C267.768 606.756 267.531 607.398 267.781 607.939C268.381 609.237 268.529 610.544 268.166 611.347C267.963 611.797 267.606 612.084 267.044 612.253C261.488 613.918 245.728 613.279 242.114 611.656C239.413 610.441 237.842 604.027 236.456 598.368C235.669 595.153 234.925 592.115 233.965 589.781C232.917 587.229 231.938 585.33 231.153 583.804C229.871 581.317 229.098 579.815 229.098 577.729C229.098 573.776 233.904 571.395 233.953 571.371C234.489 571.111 234.713 570.464 234.452 569.928C234.192 569.393 233.549 569.168 233.008 569.429C232.761 569.549 226.938 572.44 226.938 577.729C226.938 580.339 227.9 582.207 229.232 584.793C230 586.282 230.954 588.136 231.968 590.601C232.865 592.786 233.591 595.747 234.357 598.882C235.935 605.321 237.566 611.979 241.228 613.627C243.764 614.765 250.236 615.392 256.367 615.392Z" fill="black"/>
<path d="M406.601 488.073C406.928 488.073 407.252 487.926 407.464 487.644C408.575 486.172 410.139 485.152 411.394 484.333L411.605 484.196C412.104 483.869 412.244 483.2 411.917 482.7C411.591 482.201 410.922 482.062 410.422 482.388L410.214 482.524C408.891 483.387 407.078 484.569 405.74 486.343C405.381 486.819 405.476 487.496 405.952 487.855C406.146 488.003 406.375 488.073 406.601 488.073Z" fill="black"/>
<path d="M411.185 491.559C411.577 491.559 411.954 491.346 412.146 490.974C412.824 489.66 413.909 488.455 415.373 487.397C415.857 487.047 415.965 486.373 415.615 485.889C415.266 485.406 414.591 485.298 414.108 485.646C412.366 486.906 411.061 488.365 410.226 489.984C409.953 490.515 410.161 491.165 410.692 491.439C410.85 491.521 411.019 491.559 411.185 491.559Z" fill="black"/>
<path d="M416.212 494.148C416.566 494.148 416.914 493.973 417.12 493.653C417.932 492.397 419.065 491.144 420.314 490.125C420.776 489.749 420.845 489.069 420.468 488.606C420.09 488.146 419.409 488.074 418.948 488.452C417.945 489.271 416.498 490.634 415.305 492.482C414.982 492.983 415.126 493.652 415.627 493.975C415.809 494.092 416.012 494.148 416.212 494.148Z" fill="black"/>
<path d="M249.478 579.012C249.543 579.012 249.608 579.006 249.675 578.994C252.06 578.553 254.961 578.7 256.258 578.946C256.847 579.057 257.408 578.673 257.52 578.086C257.631 577.5 257.246 576.935 256.661 576.824C254.953 576.501 251.786 576.406 249.282 576.869C248.695 576.978 248.308 577.541 248.416 578.128C248.512 578.647 248.967 579.012 249.478 579.012Z" fill="black"/>
<path d="M250.185 585.398C250.276 585.398 250.369 585.387 250.462 585.362C253.06 584.674 255.417 584.801 256.65 585.119C257.226 585.272 257.816 584.921 257.965 584.344C258.115 583.767 257.768 583.177 257.19 583.028C255.206 582.516 252.415 582.611 249.91 583.274C249.333 583.427 248.989 584.019 249.142 584.594C249.271 585.078 249.707 585.398 250.185 585.398Z" fill="black"/>
<path d="M250.09 591.254C250.189 591.254 250.291 591.24 250.391 591.21C252.925 590.474 255.944 590.359 257.571 590.94C258.133 591.143 258.75 590.849 258.952 590.288C259.154 589.725 258.86 589.108 258.299 588.907C256.258 588.176 252.757 588.271 249.788 589.137C249.215 589.304 248.887 589.903 249.053 590.475C249.19 590.948 249.622 591.254 250.09 591.254Z" fill="black"/>
<path d="M254.838 578.222C255.108 578.222 255.379 578.122 255.587 577.918C256.898 576.653 261.141 572.33 260.694 569.863C260.568 569.171 260.129 568.629 259.457 568.338C258.802 568.053 258.107 568.074 257.445 568.399C256.161 569.029 255.113 570.873 254.361 572.669C253.963 571.413 253.398 570.229 252.606 569.652C252.102 569.285 251.53 569.152 250.951 569.268C250.32 569.395 249.836 569.794 249.621 570.366C248.968 572.101 251.207 575.416 252.6 577.237C252.804 577.505 253.111 577.65 253.425 577.66C253.594 577.799 253.805 577.887 254.036 577.903C254.047 577.904 254.06 577.905 254.072 577.905C254.284 578.116 254.56 578.222 254.838 578.222ZM258.523 570.3C258.553 570.3 258.574 570.309 258.597 570.32C258.7 570.825 257.613 572.487 256.055 574.286C256.747 572.457 257.631 570.713 258.396 570.339C258.455 570.31 258.494 570.3 258.523 570.3Z" fill="black"/>
<path d="M409.243 484.831C409.37 484.831 409.499 484.809 409.624 484.761C409.683 484.739 409.739 484.713 409.791 484.683C410.024 484.729 410.26 484.699 410.465 484.605C410.747 484.666 411.057 484.611 411.313 484.429C413.661 482.766 417.582 479.669 417.474 477.609C417.442 476.99 417.115 476.475 416.554 476.159C416.048 475.874 415.466 475.822 414.869 476.001C413.588 476.39 412.215 478.007 411.116 479.622C411.002 477.658 410.653 475.592 409.756 474.633C409.344 474.193 408.829 473.96 408.266 473.959C408.265 473.959 408.264 473.959 408.263 473.959C407.662 473.959 407.145 474.228 406.806 474.717C405.566 476.508 407.391 481.898 408.233 484.132C408.396 484.564 408.807 484.831 409.243 484.831ZM414.92 478.402C414.663 478.732 414.292 479.132 413.839 479.57C414.24 479.068 414.61 478.665 414.92 478.402ZM408.52 476.774C408.677 477.285 408.802 478.035 408.885 478.922C408.685 478.064 408.556 477.32 408.52 476.774Z" fill="black"/>
<path d="M441.901 507.157C441.902 507.157 441.903 507.157 441.904 507.157L459.143 507.095C459.736 507.092 460.217 506.613 460.22 506.019L460.468 443.969L535.236 443.939C535.831 443.939 536.312 443.458 536.315 442.864L536.531 398.827L595.897 399.203C595.899 399.203 595.902 399.203 595.904 399.203C596.493 399.203 596.975 398.73 596.984 398.141L597.853 344.511L660.205 343.82C660.802 343.813 661.28 343.325 661.273 342.728C661.266 342.136 660.785 341.66 660.194 341.66C660.19 341.66 660.186 341.66 660.181 341.66L596.778 342.363C596.194 342.369 595.72 342.841 595.711 343.426L594.842 397.037L535.463 396.661C535.163 396.661 534.901 396.772 534.697 396.974C534.493 397.175 534.378 397.449 534.376 397.736L534.161 441.779L459.392 441.81C458.798 441.81 458.315 442.291 458.312 442.886L458.064 504.939L441.897 504.997C441.3 505 440.818 505.485 440.82 506.081C440.823 506.676 441.306 507.157 441.901 507.157Z" fill="black"/>
<path d="M304.569 614.259C304.855 614.259 305.13 614.145 305.332 613.943C305.535 613.741 305.649 613.465 305.649 613.18L305.625 557.947L378.875 557.661C379.468 557.659 379.949 557.178 379.95 556.584L380.085 507.343L383.822 507.33C384.419 507.328 384.901 506.843 384.898 506.246C384.896 505.651 384.413 505.17 383.818 505.17C383.817 505.17 383.816 505.17 383.815 505.17L379.005 505.187C378.411 505.189 377.93 505.67 377.928 506.264L377.794 555.506L304.54 555.791C303.946 555.793 303.464 556.276 303.464 556.871L303.489 612.099L267.758 612.053C267.161 612.053 266.666 612.536 266.666 613.133C266.666 613.73 267.138 614.213 267.734 614.213L304.567 614.259H304.569Z" fill="black"/>
<path d="M151.595 661.104C151.598 661.104 151.601 661.104 151.604 661.104L224.187 660.494C224.779 660.489 225.257 660.009 225.258 659.416L225.357 614.18L243.291 614.246C243.292 614.246 243.294 614.246 243.295 614.246C243.89 614.246 244.373 613.765 244.375 613.17C244.377 612.575 243.896 612.089 243.299 612.086L224.283 612.016C224.282 612.016 224.28 612.016 224.279 612.016C223.994 612.016 223.72 612.128 223.518 612.33C223.314 612.531 223.2 612.806 223.199 613.093L223.1 658.343L151.585 658.944C150.989 658.95 150.51 659.437 150.515 660.034C150.52 660.627 151.002 661.104 151.595 661.104Z" fill="black"/>
<path fill-rule="evenodd" clip-rule="evenodd" d="M558.33 144.646C560.737 139.948 552.145 130.246 539.14 122.975C526.135 115.705 513.642 113.62 511.236 118.318C508.829 123.016 517.421 132.717 530.427 139.988C543.432 147.258 555.924 149.344 558.33 144.646Z" fill="#3A4866"/>
<path d="M552.169 148.237C553.549 148.237 554.781 148.082 555.833 147.764C557.483 147.264 558.644 146.379 559.282 145.134C562.421 139.007 551.514 128.656 539.657 122.028C529.302 116.239 519.12 113.556 513.715 115.19C512.064 115.69 510.903 116.575 510.265 117.82C507.126 123.947 518.034 134.298 529.891 140.926C538.23 145.588 546.458 148.236 552.169 148.237ZM517.407 116.867C522.671 116.867 530.648 119.466 538.603 123.913C551.945 131.372 559.197 140.564 557.36 144.148C557 144.852 556.275 145.373 555.207 145.696C550.41 147.148 540.661 144.472 530.944 139.04C517.603 131.582 510.351 122.39 512.188 118.805C512.548 118.101 513.273 117.58 514.34 117.257C515.209 116.995 516.243 116.867 517.407 116.867Z" fill="black"/>
<path d="M558.548 145.352C558.923 145.352 559.288 145.155 559.487 144.806C559.772 144.307 566.454 132.567 567.22 131.073C570.358 124.946 559.451 114.595 547.595 107.967C537.24 102.178 527.057 99.4946 521.652 101.129C520.001 101.628 518.84 102.513 518.203 103.759C517.518 105.098 510.478 117.293 510.407 117.415C510.109 117.932 510.287 118.592 510.803 118.891C511.322 119.189 511.98 119.012 512.278 118.495C512.569 117.991 519.416 106.13 520.125 104.744C520.485 104.04 521.21 103.519 522.277 103.197C527.076 101.744 536.825 104.421 546.542 109.853C559.883 117.311 567.134 126.503 565.298 130.088C564.553 131.539 557.68 143.616 557.61 143.738C557.316 144.256 557.496 144.915 558.015 145.211C558.183 145.306 558.367 145.352 558.548 145.352Z" fill="black"/>
<path d="M592.756 143.798C593.125 143.798 593.47 143.61 593.669 143.294L595.357 140.617C595.57 140.279 595.579 139.851 595.38 139.504L562.737 82.5965C562.573 82.3089 562.285 82.1133 561.958 82.0655L504.082 73.5577C503.638 73.4912 503.197 73.7102 502.979 74.105L501.435 76.9089C501.259 77.2298 501.256 77.619 501.43 77.942L516.744 106.363C517.025 106.882 517.674 107.087 518.196 106.816C518.719 106.543 518.932 105.91 518.668 105.383L517.85 103.864L503.611 77.4358L504.509 75.8039L561.125 84.1264L593.183 140.015L592.197 141.578L561.587 138.552C560.988 138.497 560.465 138.928 560.407 139.521C560.348 140.114 560.782 140.643 561.375 140.701L592.649 143.793C592.685 143.797 592.72 143.798 592.756 143.798Z" fill="black"/>
<path d="M592.663 142.931C592.846 142.931 593.031 142.885 593.2 142.787C593.718 142.489 593.896 141.829 593.598 141.313L561.299 85.1519C561.134 84.865 560.847 84.6701 560.52 84.6219L503.402 76.2261C502.819 76.1365 502.265 76.5478 502.178 77.1386C502.091 77.7287 502.499 78.277 503.09 78.3629L559.688 86.6828L591.726 142.389C591.926 142.737 592.289 142.931 592.663 142.931Z" fill="black"/>
<path d="M507.268 89.0684C507.688 89.0684 508.093 88.8343 508.269 88.4355C508.503 87.9075 508.307 87.3014 507.791 87.0429C507.705 87.0001 507.547 86.9416 507.318 86.869C501.545 85.0425 495.403 77.7661 490.022 66.3802C487.168 60.3409 482.26 57.8427 478.645 56.8099C472.752 55.1254 467.037 56.3147 464.221 58.1309C463.72 58.4542 463.576 59.1229 463.899 59.6237C464.223 60.1249 464.89 60.2697 465.392 59.9461C467.888 58.3358 473.037 57.4545 478.052 58.8872C481.238 59.7969 485.561 61.9956 488.069 67.303C492.059 75.7463 498.525 86.3525 506.666 88.9283C506.752 88.9557 506.819 88.9754 506.864 88.9932C506.996 89.0443 507.133 89.0684 507.268 89.0684Z" fill="black"/>
<path d="M453.513 73.5356C455.287 73.5356 457.234 72.7837 459.224 71.2985C463.108 68.4004 467.096 62.5078 466.222 59.5372C466.004 58.7959 465.401 57.7548 463.771 57.0038C460.161 55.3401 453.051 55.857 447.922 58.154C442.319 60.6622 442.288 63.2849 442.338 63.7847C442.399 64.3778 442.933 64.8082 443.522 64.7506C444.093 64.6928 444.515 64.2003 444.492 63.6339C444.507 63.5085 444.771 61.9311 448.805 60.1253C453.362 58.0851 459.801 57.5545 462.867 58.9658C463.36 59.1931 463.983 59.5823 464.15 60.1474C464.584 61.6238 461.858 66.638 457.932 69.5673C456.174 70.8792 453.636 72.1574 451.533 70.7943C451.034 70.4693 450.363 70.6124 450.039 71.1133C449.715 71.6145 449.857 72.2828 450.358 72.6071C451.316 73.2277 452.379 73.5356 453.513 73.5356Z" fill="black"/>
<path d="M449.453 72.1899C452.726 72.1899 457.299 69.6125 461.962 63.1071C462.309 62.6223 462.198 61.9475 461.713 61.5998C461.229 61.2524 460.554 61.3631 460.206 61.8489C454.277 70.1193 449.325 70.6346 447.859 69.585C447.371 69.238 446.698 69.353 446.352 69.8375C446.006 70.3233 446.119 70.9977 446.605 71.344C447.371 71.89 448.337 72.1899 449.453 72.1899Z" fill="black"/>
<path d="M444.578 10.0289C444.72 10.0289 444.864 10.0005 445.003 9.94066C445.552 9.70494 445.805 9.07001 445.57 8.52235C445.45 8.24317 445.476 7.89144 445.649 7.47652C446.316 5.86931 448.863 3.92073 451.842 2.73714C452.396 2.51714 452.667 1.88924 452.447 1.33522C452.227 0.780875 451.602 0.506708 451.045 0.730386C447.456 2.15571 444.554 4.47909 443.654 6.64901C443.255 7.60892 443.232 8.55144 443.585 9.37461C443.76 9.78351 444.159 10.0289 444.578 10.0289Z" fill="black"/>
<path d="M438.938 261.347C439.243 261.347 439.546 261.218 439.76 260.968L477.062 217.23C477.449 216.776 477.395 216.094 476.941 215.707C476.488 215.319 475.806 215.373 475.419 215.828L438.117 259.566C437.73 260.02 437.784 260.701 438.237 261.088C438.441 261.262 438.69 261.347 438.938 261.347Z" fill="black"/>
<path d="M435.433 281.536C435.756 281.536 436.076 281.391 436.288 281.115L463.33 246.01C463.694 245.537 463.606 244.859 463.134 244.495C462.661 244.131 461.984 244.219 461.619 244.692L434.578 279.797C434.213 280.269 434.301 280.947 434.774 281.311C434.971 281.463 435.202 281.536 435.433 281.536Z" fill="black"/>
<path d="M394.651 212.285C394.807 212.285 394.965 212.251 395.115 212.179L451.909 185.063C452.447 184.806 452.675 184.161 452.418 183.623C452.161 183.085 451.513 182.856 450.978 183.114L394.185 210.231C393.646 210.487 393.418 211.132 393.676 211.67C393.86 212.058 394.248 212.285 394.651 212.285Z" fill="black"/>
<path d="M374.44 209.101C374.574 209.101 374.711 209.075 374.844 209.022L421.3 190.293C421.853 190.071 422.121 189.441 421.898 188.888C421.676 188.335 421.044 188.065 420.493 188.29L374.036 207.019C373.482 207.242 373.215 207.871 373.438 208.424C373.607 208.845 374.012 209.101 374.44 209.101Z" fill="black"/>
<path d="M309.4 257.63C309.797 257.63 309.997 257.461 310.246 256.528H310.252C310.252 256.522 310.252 256.516 310.252 256.51C310.435 255.817 310.645 254.711 310.978 252.956L311.692 249.172C311.802 248.586 311.415 248.021 310.829 247.912C310.245 247.802 309.679 248.19 309.568 248.775C309.085 251.357 308.295 255.529 308.152 256.173C308.113 256.284 308.092 256.403 308.092 256.528C308.092 257.086 308.518 257.557 309.073 257.608C309.196 257.62 309.304 257.63 309.4 257.63Z" fill="black"/>
<path fill-rule="evenodd" clip-rule="evenodd" d="M326.623 128.356C326.367 124.725 317.713 120.387 308.312 118.363C298.703 116.295 288.347 116.581 288.347 116.581C288.347 116.581 284.448 102.754 263.885 97.2584C243.32 91.7628 233.105 100.899 233.105 100.899C233.105 100.899 224.756 87.6436 205.202 84.8672C187.756 82.3897 174.913 93.2519 174.913 93.2519C174.913 93.2519 171.502 87.8091 165.794 85.1139C158.124 81.4923 150.682 86.1544 150.682 86.1544C150.682 86.1544 148.539 74.4626 137.675 69.7767C125.794 64.6512 119.568 77.2324 119.568 77.2324C119.568 77.2324 105.824 62.6067 90.5986 67.2203C76.5393 71.4812 77.1233 91.2201 77.1233 91.2201C77.1233 91.2201 63.3318 86.8178 50.5507 93.2091C39.4213 98.7734 33.7221 115.576 33.7221 115.576C33.7221 115.576 23.6187 115.799 16.4904 119.036C10.1509 121.915 7.29288 127.472 12.4194 129.848C17.1695 132.049 40.283 131.794 75.8037 131.205C105.602 130.711 145.144 129.983 180.066 130.274C216.953 130.581 255.235 131.116 281.861 131.078C308.886 131.039 326.856 131.682 326.623 128.356Z" fill="#EDF4FF"/>
<path fill-rule="evenodd" clip-rule="evenodd" d="M215.226 453.147C217.258 448.763 205.33 440.267 192.127 437.586C178.925 434.906 169.183 439.984 169.183 439.984C169.183 439.984 164.036 422.256 141.216 415.863C122.14 410.522 113.315 422.298 113.315 422.298C113.315 422.298 106.359 408.548 90.8385 409.711C75.3174 410.875 69.3283 430.959 69.3283 430.959C69.3283 430.959 66.811 425.297 55.037 426.199C43.2629 427.099 36.8002 441.735 36.8002 441.735C36.8002 441.735 27.2376 438.117 16.6799 440.835C6.12086 443.552 0.0948944 449.688 0.764267 454.328C1.00566 456.001 4.91957 456.922 18.0126 457.219C35.6515 457.617 66.5024 457.028 94.8828 457.014C116.846 457.005 148.377 457.018 168.251 456.864C199.173 456.623 213.196 457.532 215.226 453.147Z" fill="#EDF4FF"/>
<path fill-rule="evenodd" clip-rule="evenodd" d="M638.143 310.566C639.591 307.44 631.084 301.38 621.668 299.469C612.25 297.556 605.303 301.178 605.303 301.178C605.303 301.178 601.632 288.533 585.356 283.975C571.751 280.165 565.456 288.563 565.456 288.563C565.456 288.563 560.496 278.757 549.426 279.587C538.356 280.417 534.084 294.742 534.084 294.742C534.084 294.742 532.288 290.704 523.891 291.347C515.493 291.989 510.884 302.427 510.884 302.427C510.884 302.427 504.064 299.847 496.534 301.785C489.003 303.723 484.705 308.1 485.182 311.41C485.355 312.602 488.146 313.26 497.484 313.47C510.064 313.756 532.069 313.335 552.311 313.326C567.976 313.318 590.464 313.328 604.639 313.217C626.693 313.046 636.694 313.694 638.143 310.566Z" fill="#EDF4FF"/>
</svg>
